ISO-10303-21;
HEADER;
FILE_DESCRIPTION (( 'STEP AP214' ),
    '1' );
FILE_NAME ('Lid.STEP',
    '2025-10-16T21:12:11',
    ( '' ),
    ( '' ),
    'SwSTEP 2.0',
    'SolidWorks 2023',
    '' );
FILE_SCHEMA (( 'AUTOMOTIVE_DESIGN' ));
ENDSEC;

DATA;
#1 = VECTOR ( 'NONE', #842, 1000.000000000000000 ) ;
#2 = ORIENTED_EDGE ( 'NONE', *, *, #951, .F. ) ;
#3 = VECTOR ( 'NONE', #1120, 1000.000000000000000 ) ;
#4 = EDGE_CURVE ( 'NONE', #656, #773, #269, .T. ) ;
#5 = ADVANCED_FACE ( 'NONE', ( #281 ), #308, .F. ) ;
#6 = CARTESIAN_POINT ( 'NONE',  ( -68.99999999999998579, 117.8999999999999915, 57.89999999999999858 ) ) ;
#7 = CARTESIAN_POINT ( 'NONE',  ( -68.99999999999998579, 68.99999999999998579, -6.325000000000004619 ) ) ;
#8 = ORIENTED_EDGE ( 'NONE', *, *, #1335, .T. ) ;
#9 = CARTESIAN_POINT ( 'NONE',  ( -42.88141399463501813, 119.6958588854416803, 4.750000000000000000 ) ) ;
#10 = CARTESIAN_POINT ( 'NONE',  ( 75.00000000000000000, 0.000000000000000000, 60.00000000000000000 ) ) ;
#11 = EDGE_CURVE ( 'NONE', #522, #468, #1046, .T. ) ;
#12 = ORIENTED_EDGE ( 'NONE', *, *, #1038, .T. ) ;
#13 = ORIENTED_EDGE ( 'NONE', *, *, #920, .T. ) ;
#14 = VERTEX_POINT ( 'NONE', #911 ) ;
#15 = DIRECTION ( 'NONE',  ( -0.000000000000000000, -9.637352644315616444E-16, 1.000000000000000000 ) ) ;
#16 = AXIS2_PLACEMENT_3D ( 'NONE', #943, #519, #833 ) ;
#17 = LINE ( 'NONE', #442, #1336 ) ;
#18 = VERTEX_POINT ( 'NONE', #803 ) ;
#19 = ORIENTED_EDGE ( 'NONE', *, *, #55, .F. ) ;
#20 = VERTEX_POINT ( 'NONE', #1235 ) ;
#21 = FACE_BOUND ( 'NONE', #388, .T. ) ;
#22 = VECTOR ( 'NONE', #57, 1000.000000000000000 ) ;
#23 = DIRECTION ( 'NONE',  ( 0.000000000000000000, -0.000000000000000000, -1.000000000000000000 ) ) ;
#24 = ORIENTED_EDGE ( 'NONE', *, *, #688, .F. ) ;
#25 = ORIENTED_EDGE ( 'NONE', *, *, #966, .T. ) ;
#26 = ORIENTED_EDGE ( 'NONE', *, *, #890, .F. ) ;
#27 = EDGE_CURVE ( 'NONE', #606, #1307, #271, .T. ) ;
#28 = EDGE_CURVE ( 'NONE', #77, #531, #171, .T. ) ;
#29 = LINE ( 'NONE', #975, #1278 ) ;
#30 = DIRECTION ( 'NONE',  ( -1.000000000000000000, 0.000000000000000000, 0.000000000000000000 ) ) ;
#31 = CARTESIAN_POINT ( 'NONE',  ( -75.00000000000000000, 2.000000000000000000, 60.00000000000000000 ) ) ;
#32 = LINE ( 'NONE', #331, #40 ) ;
#33 = ORIENTED_EDGE ( 'NONE', *, *, #710, .F. ) ;
#34 = ORIENTED_EDGE ( 'NONE', *, *, #604, .T. ) ;
#35 = CARTESIAN_POINT ( 'NONE',  ( -41.78007409860589405, 119.0599999999999739, 4.750000000000000000 ) ) ;
#36 = VECTOR ( 'NONE', #1132, 1000.000000000000000 ) ;
#37 = LINE ( 'NONE', #50, #321 ) ;
#38 = CARTESIAN_POINT ( 'NONE',  ( 0.000000000000000000, 6.000000000000000000, 0.000000000000000000 ) ) ;
#39 = DIRECTION ( 'NONE',  ( 0.000000000000000000, 0.000000000000000000, 1.000000000000000000 ) ) ;
#40 = VECTOR ( 'NONE', #133, 1000.000000000000000 ) ;
#41 = ORIENTED_EDGE ( 'NONE', *, *, #435, .F. ) ;
#42 = FACE_OUTER_BOUND ( 'NONE', #973, .T. ) ;
#43 = CARTESIAN_POINT ( 'NONE',  ( -68.99999999999998579, 68.99999999999998579, 3.375000000000007994 ) ) ;
#44 = EDGE_CURVE ( 'NONE', #1011, #1371, #492, .T. ) ;
#45 = EDGE_CURVE ( 'NONE', #708, #293, #906, .T. ) ;
#46 = FACE_OUTER_BOUND ( 'NONE', #1167, .T. ) ;
#47 = DIRECTION ( 'NONE',  ( 0.000000000000000000, 0.000000000000000000, 1.000000000000000000 ) ) ;
#48 = ORIENTED_EDGE ( 'NONE', *, *, #1246, .F. ) ;
#49 = CYLINDRICAL_SURFACE ( 'NONE', #1310, 3.000000000000002665 ) ;
#50 = CARTESIAN_POINT ( 'NONE',  ( 68.00000000000001421, 4.999999999999999112, 57.89999999999999858 ) ) ;
#51 = VECTOR ( 'NONE', #937, 1000.000000000000000 ) ;
#52 = DIRECTION ( 'NONE',  ( 0.000000000000000000, 0.000000000000000000, 1.000000000000000000 ) ) ;
#53 = DIRECTION ( 'NONE',  ( -0.000000000000000000, -1.000000000000000000, -0.000000000000000000 ) ) ;
#54 = EDGE_LOOP ( 'NONE', ( #298, #418, #104, #863, #483, #672, #237, #1224, #236, #1019, #1260, #759, #950, #211, #922, #1154 ) ) ;
#55 = EDGE_CURVE ( 'NONE', #564, #384, #667, .T. ) ;
#56 = VECTOR ( 'NONE', #86, 1000.000000000000000 ) ;
#57 = DIRECTION ( 'NONE',  ( 0.000000000000000000, 1.000000000000000000, 0.000000000000000000 ) ) ;
#58 = DIRECTION ( 'NONE',  ( 0.000000000000000000, 0.000000000000000000, -1.000000000000000000 ) ) ;
#59 = CARTESIAN_POINT ( 'NONE',  ( -69.00000000000002842, 115.3723941183581161, 4.750000000000000000 ) ) ;
#60 = ORIENTED_EDGE ( 'NONE', *, *, #453, .T. ) ;
#61 = VECTOR ( 'NONE', #822, 1000.000000000000000 ) ;
#62 = DIRECTION ( 'NONE',  ( -1.000000000000000000, -0.000000000000000000, 1.156482317317871725E-16 ) ) ;
#63 = DIRECTION ( 'NONE',  ( 0.000000000000000000, 9.637352644315616444E-16, 1.000000000000000000 ) ) ;
#64 = ORIENTED_EDGE ( 'NONE', *, *, #65, .T. ) ;
#65 = EDGE_CURVE ( 'NONE', #135, #1307, #37, .T. ) ;
#66 = DIRECTION ( 'NONE',  ( -0.000000000000000000, -1.000000000000000000, -0.000000000000000000 ) ) ;
#67 = CARTESIAN_POINT ( 'NONE',  ( -68.99999999999998579, 51.00000000000000000, 3.375000000000007994 ) ) ;
#68 = DIRECTION ( 'NONE',  ( -1.000000000000000000, -0.000000000000000000, 1.156482317317871725E-16 ) ) ;
#69 = AXIS2_PLACEMENT_3D ( 'NONE', #638, #530, #733 ) ;
#70 = ORIENTED_EDGE ( 'NONE', *, *, #1381, .T. ) ;
#71 = CARTESIAN_POINT ( 'NONE',  ( -73.00000000000000000, 3.000000000000000888, 57.89999999999999858 ) ) ;
#72 = CARTESIAN_POINT ( 'NONE',  ( -68.99999999999998579, 117.8999999999999915, -57.89999999999999858 ) ) ;
#73 = AXIS2_PLACEMENT_3D ( 'NONE', #932, #199, #83 ) ;
#74 = VERTEX_POINT ( 'NONE', #1201 ) ;
#75 = FACE_BOUND ( 'NONE', #766, .T. ) ;
#76 = CARTESIAN_POINT ( 'NONE',  ( -73.00000000000000000, 120.0000000000000000, -60.00000000000000000 ) ) ;
#77 = VERTEX_POINT ( 'NONE', #785 ) ;
#78 = ADVANCED_FACE ( 'NONE', ( #354 ), #1014, .F. ) ;
#79 = CARTESIAN_POINT ( 'NONE',  ( -68.99999999999998579, 117.8999999999999915, -57.89999999999999858 ) ) ;
#80 = CARTESIAN_POINT ( 'NONE',  ( -68.99999999999998579, 68.99999999999998579, 2.275000000000001688 ) ) ;
#81 = ORIENTED_EDGE ( 'NONE', *, *, #213, .T. ) ;
#82 = DIRECTION ( 'NONE',  ( -1.000000000000000000, 0.000000000000000000, 1.156482317317871725E-16 ) ) ;
#83 = DIRECTION ( 'NONE',  ( 1.000000000000000000, 0.000000000000000000, -0.000000000000000000 ) ) ;
#84 = ORIENTED_EDGE ( 'NONE', *, *, #1333, .T. ) ;
#85 = CYLINDRICAL_SURFACE ( 'NONE', #1248, 1.100000000000006306 ) ;
#86 = DIRECTION ( 'NONE',  ( -6.546126324440748505E-15, 1.000000000000000000, 0.000000000000000000 ) ) ;
#87 = DIRECTION ( 'NONE',  ( -0.06975647374412001500, -0.9975640502598246417, 0.000000000000000000 ) ) ;
#88 = VECTOR ( 'NONE', #881, 1000.000000000000000 ) ;
#89 = VECTOR ( 'NONE', #526, 1000.000000000000000 ) ;
#90 = ORIENTED_EDGE ( 'NONE', *, *, #796, .F. ) ;
#91 = CARTESIAN_POINT ( 'NONE',  ( -68.99999999999998579, 51.00000000000000000, -4.124999999999991118 ) ) ;
#92 = DIRECTION ( 'NONE',  ( 0.06975647374412002888, 0.9975640502598246417, 0.000000000000000000 ) ) ;
#93 = LINE ( 'NONE', #1252, #461 ) ;
#94 = EDGE_CURVE ( 'NONE', #1197, #1031, #245, .T. ) ;
#95 = ADVANCED_FACE ( 'NONE', ( #888 ), #476, .T. ) ;
#96 = CARTESIAN_POINT ( 'NONE',  ( -69.00000000000002842, 110.3518292541892976, 4.750000000000000000 ) ) ;
#97 = LINE ( 'NONE', #635, #205 ) ;
#98 = EDGE_LOOP ( 'NONE', ( #473, #1344 ) ) ;
#99 = EDGE_CURVE ( 'NONE', #919, #214, #1338, .T. ) ;
#100 = ORIENTED_EDGE ( 'NONE', *, *, #209, .T. ) ;
#101 = CARTESIAN_POINT ( 'NONE',  ( 68.00000000000001421, 0.000000000000000000, 0.000000000000000000 ) ) ;
#102 = CARTESIAN_POINT ( 'NONE',  ( -73.00000000000000000, 2.000000000000000000, -60.00000000000000000 ) ) ;
#103 = FACE_OUTER_BOUND ( 'NONE', #558, .T. ) ;
#104 = ORIENTED_EDGE ( 'NONE', *, *, #688, .T. ) ;
#105 = CARTESIAN_POINT ( 'NONE',  ( -73.00000000000000000, 120.0000000000000000, 60.00000000000000000 ) ) ;
#106 = CARTESIAN_POINT ( 'NONE',  ( -68.99999999999998579, 5.999999999999991118, -57.89999999999999858 ) ) ;
#107 =( GEOMETRIC_REPRESENTATION_CONTEXT ( 3 ) GLOBAL_UNCERTAINTY_ASSIGNED_CONTEXT ( ( #855 ) ) GLOBAL_UNIT_ASSIGNED_CONTEXT ( ( #570, #1348, #989 ) ) REPRESENTATION_CONTEXT ( 'NONE', 'WORKASPACE' ) );
#108 = EDGE_LOOP ( 'NONE', ( #528, #1244, #1188, #1376 ) ) ;
#109 = ADVANCED_FACE ( 'NONE', ( #994 ), #590, .F. ) ;
#110 = AXIS2_PLACEMENT_3D ( 'NONE', #784, #1303, #970 ) ;
#111 = CARTESIAN_POINT ( 'NONE',  ( -68.99999999999998579, 5.999999999999991118, 57.89999999999999858 ) ) ;
#112 = LINE ( 'NONE', #106, #1225 ) ;
#113 = AXIS2_PLACEMENT_3D ( 'NONE', #1378, #831, #92 ) ;
#114 = EDGE_LOOP ( 'NONE', ( #936, #865, #939, #649 ) ) ;
#115 = AXIS2_PLACEMENT_3D ( 'NONE', #576, #697, #568 ) ;
#116 = DIRECTION ( 'NONE',  ( -0.000000000000000000, -0.000000000000000000, 1.000000000000000000 ) ) ;
#117 = EDGE_CURVE ( 'NONE', #18, #229, #158, .T. ) ;
#118 = CARTESIAN_POINT ( 'NONE',  ( -75.00000000000000000, 68.99999999999998579, -5.224999999999996980 ) ) ;
#119 = EDGE_LOOP ( 'NONE', ( #148, #252, #235, #736 ) ) ;
#120 = ORIENTED_EDGE ( 'NONE', *, *, #604, .F. ) ;
#121 = ORIENTED_EDGE ( 'NONE', *, *, #701, .F. ) ;
#122 = CIRCLE ( 'NONE', #902, 1.100000000000006306 ) ;
#123 = CARTESIAN_POINT ( 'NONE',  ( -75.00000000000000000, 2.000000000000000000, 60.00000000000000000 ) ) ;
#124 = CARTESIAN_POINT ( 'NONE',  ( -68.99999999999998579, 51.00000000000000000, -6.325000000000004619 ) ) ;
#125 = AXIS2_PLACEMENT_3D ( 'NONE', #909, #996, #39 ) ;
#126 = ORIENTED_EDGE ( 'NONE', *, *, #583, .T. ) ;
#127 = EDGE_LOOP ( 'NONE', ( #1130, #802, #1342, #1098 ) ) ;
#128 = ORIENTED_EDGE ( 'NONE', *, *, #739, .T. ) ;
#129 = ADVANCED_BREP_SHAPE_REPRESENTATION ( 'Lid', ( #280, #1164 ), #378 ) ;
#130 = CARTESIAN_POINT ( 'NONE',  ( -68.99999999999998579, 110.3518292541892976, 4.750000000000000000 ) ) ;
#131 = CIRCLE ( 'NONE', #1292, 1.100000000000006306 ) ;
#132 = EDGE_CURVE ( 'NONE', #268, #657, #345, .T. ) ;
#133 = DIRECTION ( 'NONE',  ( 0.000000000000000000, 0.000000000000000000, -1.000000000000000000 ) ) ;
#134 = ORIENTED_EDGE ( 'NONE', *, *, #992, .F. ) ;
#135 = VERTEX_POINT ( 'NONE', #1229 ) ;
#136 = ORIENTED_EDGE ( 'NONE', *, *, #646, .T. ) ;
#137 = PLANE ( 'NONE',  #1391 ) ;
#138 = VECTOR ( 'NONE', #1092, 1000.000000000000000 ) ;
#139 = DIRECTION ( 'NONE',  ( -1.000000000000000000, -0.000000000000000000, -0.000000000000000000 ) ) ;
#140 = DIRECTION ( 'NONE',  ( 0.000000000000000000, -0.000000000000000000, -1.000000000000000000 ) ) ;
#141 = DIRECTION ( 'NONE',  ( -1.000000000000000000, 0.000000000000000000, 1.156482317317871725E-16 ) ) ;
#142 = EDGE_LOOP ( 'NONE', ( #289, #643, #84, #925 ) ) ;
#143 = ORIENTED_EDGE ( 'NONE', *, *, #992, .T. ) ;
#144 = CARTESIAN_POINT ( 'NONE',  ( -65.99999999999998579, 110.3518292541892976, -4.750000000000000000 ) ) ;
#145 = DIRECTION ( 'NONE',  ( 0.9909265926769076360, 0.1344041960867815022, 0.000000000000000000 ) ) ;
#146 = DIRECTION ( 'NONE',  ( -1.000000000000000000, -0.000000000000000000, -0.000000000000000000 ) ) ;
#147 = EDGE_LOOP ( 'NONE', ( #1183, #340, #664, #1327 ) ) ;
#148 = ORIENTED_EDGE ( 'NONE', *, *, #1040, .F. ) ;
#149 = EDGE_CURVE ( 'NONE', #564, #1173, #1208, .T. ) ;
#150 = EDGE_CURVE ( 'NONE', #795, #77, #363, .T. ) ;
#151 = DIRECTION ( 'NONE',  ( 1.000000000000000000, 1.387778780781444413E-14, 0.000000000000000000 ) ) ;
#152 = VECTOR ( 'NONE', #286, 1000.000000000000000 ) ;
#153 = DIRECTION ( 'NONE',  ( 1.000000000000000000, -0.000000000000000000, 0.000000000000000000 ) ) ;
#154 = DIRECTION ( 'NONE',  ( -0.000000000000000000, -0.000000000000000000, -1.000000000000000000 ) ) ;
#155 = VECTOR ( 'NONE', #612, 1000.000000000000000 ) ;
#156 = ORIENTED_EDGE ( 'NONE', *, *, #278, .T. ) ;
#157 = LINE ( 'NONE', #714, #525 ) ;
#158 = LINE ( 'NONE', #880, #1145 ) ;
#159 = CARTESIAN_POINT ( 'NONE',  ( -75.00000000000000000, 68.99999999999998579, -5.224999999999996980 ) ) ;
#160 = EDGE_CURVE ( 'NONE', #333, #1273, #164, .T. ) ;
#161 = LINE ( 'NONE', #585, #310 ) ;
#162 = ORIENTED_EDGE ( 'NONE', *, *, #1108, .T. ) ;
#163 = DIRECTION ( 'NONE',  ( 0.000000000000000000, 0.000000000000000000, 1.000000000000000000 ) ) ;
#164 = LINE ( 'NONE', #59, #1210 ) ;
#165 = ORIENTED_EDGE ( 'NONE', *, *, #545, .F. ) ;
#166 = AXIS2_PLACEMENT_3D ( 'NONE', #905, #1337, #1251 ) ;
#167 = LINE ( 'NONE', #1017, #573 ) ;
#168 = DIRECTION ( 'NONE',  ( -1.000000000000000000, -0.000000000000000000, -0.000000000000000000 ) ) ;
#169 = ORIENTED_EDGE ( 'NONE', *, *, #150, .F. ) ;
#170 = AXIS2_PLACEMENT_3D ( 'NONE', #372, #702, #685 ) ;
#171 = LINE ( 'NONE', #1022, #808 ) ;
#172 = CARTESIAN_POINT ( 'NONE',  ( -44.00000000000002842, 117.9999999999999716, -4.750000000000000000 ) ) ;
#173 = DIRECTION ( 'NONE',  ( 1.156482317317871478E-16, 0.000000000000000000, 1.000000000000000000 ) ) ;
#174 = VERTEX_POINT ( 'NONE', #246 ) ;
#175 = AXIS2_PLACEMENT_3D ( 'NONE', #1002, #700, #778 ) ;
#176 = LINE ( 'NONE', #1262, #36 ) ;
#177 = DIRECTION ( 'NONE',  ( 0.000000000000000000, -1.000000000000000000, 9.637352644315616444E-16 ) ) ;
#178 = EDGE_CURVE ( 'NONE', #503, #394, #1280, .T. ) ;
#179 = VECTOR ( 'NONE', #1194, 1000.000000000000000 ) ;
#180 = EDGE_CURVE ( 'NONE', #760, #884, #370, .T. ) ;
#181 = ORIENTED_EDGE ( 'NONE', *, *, #895, .F. ) ;
#182 = DIRECTION ( 'NONE',  ( -6.546126324440748505E-15, 1.000000000000000000, 0.000000000000000000 ) ) ;
#183 = CARTESIAN_POINT ( 'NONE',  ( -40.78007409860575905, 117.9999999999999716, 4.750000000000000000 ) ) ;
#184 = AXIS2_PLACEMENT_3D ( 'NONE', #1269, #947, #540 ) ;
#185 = ORIENTED_EDGE ( 'NONE', *, *, #977, .T. ) ;
#186 = CARTESIAN_POINT ( 'NONE',  ( -75.00000000000000000, 68.99999999999998579, 1.174999999999996492 ) ) ;
#187 = LINE ( 'NONE', #1036, #1113 ) ;
#188 = AXIS2_PLACEMENT_3D ( 'NONE', #260, #30, #798 ) ;
#189 = ORIENTED_EDGE ( 'NONE', *, *, #790, .T. ) ;
#190 = CARTESIAN_POINT ( 'NONE',  ( -75.00000000000001421, 0.000000000000000000, -60.00000000000000000 ) ) ;
#191 = DIRECTION ( 'NONE',  ( -1.000000000000000000, -0.000000000000000000, 1.156482317317871725E-16 ) ) ;
#192 = ORIENTED_EDGE ( 'NONE', *, *, #44, .F. ) ;
#193 = LINE ( 'NONE', #1151, #259 ) ;
#194 = DIRECTION ( 'NONE',  ( 1.156482317317871478E-16, -0.000000000000000000, -1.000000000000000000 ) ) ;
#195 = VERTEX_POINT ( 'NONE', #43 ) ;
#196 = ADVANCED_FACE ( 'NONE', ( #683 ), #792, .T. ) ;
#197 = EDGE_CURVE ( 'NONE', #1197, #854, #898, .T. ) ;
#198 = CARTESIAN_POINT ( 'NONE',  ( -75.00000000000000000, 51.00000000000000000, -4.124999999999990230 ) ) ;
#199 = DIRECTION ( 'NONE',  ( 0.000000000000000000, 0.000000000000000000, 1.000000000000000000 ) ) ;
#200 = CARTESIAN_POINT ( 'NONE',  ( -41.78007409860588695, 117.9999999999999716, -4.750000000000000000 ) ) ;
#201 = DIRECTION ( 'NONE',  ( -0.000000000000000000, -1.000000000000000000, -0.000000000000000000 ) ) ;
#202 = DIRECTION ( 'NONE',  ( 0.000000000000000000, 0.000000000000000000, 1.000000000000000000 ) ) ;
#203 = DIRECTION ( 'NONE',  ( 1.000000000000000000, 0.000000000000000000, 0.000000000000000000 ) ) ;
#204 = VERTEX_POINT ( 'NONE', #608 ) ;
#205 = VECTOR ( 'NONE', #87, 1000.000000000000114 ) ;
#206 = ORIENTED_EDGE ( 'NONE', *, *, #453, .F. ) ;
#207 = CARTESIAN_POINT ( 'NONE',  ( 68.00000000000001421, 5.000000000000000000, 58.79999999999999716 ) ) ;
#208 = DIRECTION ( 'NONE',  ( 0.000000000000000000, -1.000000000000000000, 0.000000000000000000 ) ) ;
#209 = EDGE_CURVE ( 'NONE', #1273, #564, #1095, .T. ) ;
#210 = DIRECTION ( 'NONE',  ( -0.1344041960867815022, 0.9909265926769076360, 0.000000000000000000 ) ) ;
#211 = ORIENTED_EDGE ( 'NONE', *, *, #1213, .T. ) ;
#212 = LINE ( 'NONE', #1067, #292 ) ;
#213 = EDGE_CURVE ( 'NONE', #1307, #553, #390, .T. ) ;
#214 = VERTEX_POINT ( 'NONE', #502 ) ;
#215 = CARTESIAN_POINT ( 'NONE',  ( 75.00000000000001421, 2.000000000000000000, -60.00000000000000000 ) ) ;
#216 = EDGE_LOOP ( 'NONE', ( #1070, #120, #998, #969 ) ) ;
#217 = VECTOR ( 'NONE', #201, 1000.000000000000000 ) ;
#218 = ADVANCED_FACE ( 'NONE', ( #1042 ), #707, .F. ) ;
#219 = VECTOR ( 'NONE', #146, 1000.000000000000000 ) ;
#220 = DIRECTION ( 'NONE',  ( -0.000000000000000000, -0.000000000000000000, -1.000000000000000000 ) ) ;
#221 = LINE ( 'NONE', #671, #999 ) ;
#222 = ORIENTED_EDGE ( 'NONE', *, *, #645, .T. ) ;
#223 = EDGE_LOOP ( 'NONE', ( #686, #1205, #1253, #1390 ) ) ;
#224 = VERTEX_POINT ( 'NONE', #406 ) ;
#225 = FACE_OUTER_BOUND ( 'NONE', #342, .T. ) ;
#226 = CARTESIAN_POINT ( 'NONE',  ( -68.99999999999998579, 117.8999999999999915, 57.89999999999999858 ) ) ;
#227 = ORIENTED_EDGE ( 'NONE', *, *, #721, .F. ) ;
#228 = VERTEX_POINT ( 'NONE', #615 ) ;
#229 = VERTEX_POINT ( 'NONE', #1243 ) ;
#230 = VECTOR ( 'NONE', #614, 1000.000000000000000 ) ;
#231 = EDGE_CURVE ( 'NONE', #1173, #1011, #732, .T. ) ;
#232 = DIRECTION ( 'NONE',  ( -1.000000000000000000, -0.000000000000000000, 1.156482317317871725E-16 ) ) ;
#233 = CARTESIAN_POINT ( 'NONE',  ( -41.78007409860588695, 117.9999999999999716, 4.750000000000000000 ) ) ;
#234 = VECTOR ( 'NONE', #978, 1000.000000000000000 ) ;
#235 = ORIENTED_EDGE ( 'NONE', *, *, #653, .T. ) ;
#236 = ORIENTED_EDGE ( 'NONE', *, *, #400, .F. ) ;
#237 = ORIENTED_EDGE ( 'NONE', *, *, #1006, .T. ) ;
#238 = DIRECTION ( 'NONE',  ( -0.000000000000000000, -0.000000000000000000, -1.000000000000000000 ) ) ;
#239 = DIRECTION ( 'NONE',  ( -1.000000000000000000, -0.000000000000000000, -0.000000000000000000 ) ) ;
#240 = LINE ( 'NONE', #556, #1180 ) ;
#241 = ORIENTED_EDGE ( 'NONE', *, *, #674, .T. ) ;
#242 = ORIENTED_EDGE ( 'NONE', *, *, #976, .T. ) ;
#243 = VECTOR ( 'NONE', #769, 1000.000000000000000 ) ;
#244 = DIRECTION ( 'NONE',  ( 1.000000000000000000, 0.000000000000000000, -0.000000000000000000 ) ) ;
#245 = CIRCLE ( 'NONE', #115, 1.100000000000006306 ) ;
#246 = CARTESIAN_POINT ( 'NONE',  ( -73.00000000000000000, 2.000000000000000000, 57.90000000000000568 ) ) ;
#247 = CARTESIAN_POINT ( 'NONE',  ( -44.00000000000002842, 117.9999999999999716, 4.750000000000000000 ) ) ;
#248 = DIRECTION ( 'NONE',  ( -1.000000000000000000, -1.387778780781444413E-14, 0.000000000000000000 ) ) ;
#249 = EDGE_CURVE ( 'NONE', #815, #228, #914, .T. ) ;
#250 = ORIENTED_EDGE ( 'NONE', *, *, #99, .T. ) ;
#251 = EDGE_CURVE ( 'NONE', #991, #980, #1148, .T. ) ;
#252 = ORIENTED_EDGE ( 'NONE', *, *, #1274, .F. ) ;
#253 = PLANE ( 'NONE',  #288 ) ;
#254 = CARTESIAN_POINT ( 'NONE',  ( -73.00000000000001421, 6.000000000000000000, 57.89999999999999858 ) ) ;
#255 = CARTESIAN_POINT ( 'NONE',  ( -68.99999999999998579, 110.3518292541892976, -4.750000000000000000 ) ) ;
#256 = VERTEX_POINT ( 'NONE', #1346 ) ;
#257 = EDGE_CURVE ( 'NONE', #77, #1250, #283, .T. ) ;
#258 = DIRECTION ( 'NONE',  ( -1.000000000000000000, -0.000000000000000000, 1.156482317317871725E-16 ) ) ;
#259 = VECTOR ( 'NONE', #1362, 1000.000000000000000 ) ;
#260 = CARTESIAN_POINT ( 'NONE',  ( 72.89999999999999147, 6.000000000000000000, 57.89999999999999858 ) ) ;
#261 = ADVANCED_FACE ( 'NONE', ( #1033 ), #1025, .F. ) ;
#262 = DIRECTION ( 'NONE',  ( 0.000000000000000000, 1.000000000000000000, 0.000000000000000000 ) ) ;
#263 = ORIENTED_EDGE ( 'NONE', *, *, #1020, .T. ) ;
#264 = CARTESIAN_POINT ( 'NONE',  ( 68.00000000000001421, 3.000000000000014211, -58.79999999999999716 ) ) ;
#265 = DIRECTION ( 'NONE',  ( 0.000000000000000000, 0.000000000000000000, -1.000000000000000000 ) ) ;
#266 = ORIENTED_EDGE ( 'NONE', *, *, #721, .T. ) ;
#267 = PLANE ( 'NONE',  #770 ) ;
#268 = VERTEX_POINT ( 'NONE', #715 ) ;
#269 = CIRCLE ( 'NONE', #1058, 1.100000000000006306 ) ;
#270 = PRODUCT ( 'Lid', 'Lid', '', ( #520 ) ) ;
#271 = LINE ( 'NONE', #1127, #447 ) ;
#272 = DIRECTION ( 'NONE',  ( 0.000000000000000000, 0.000000000000000000, 1.000000000000000000 ) ) ;
#273 = SURFACE_STYLE_FILL_AREA ( #1237 ) ;
#274 = ORIENTED_EDGE ( 'NONE', *, *, #749, .F. ) ;
#275 = EDGE_CURVE ( 'NONE', #1082, #18, #1354, .T. ) ;
#276 = CARTESIAN_POINT ( 'NONE',  ( 68.00000000000001421, 3.000000000000015099, -57.89999999999999858 ) ) ;
#277 = CARTESIAN_POINT ( 'NONE',  ( -40.78007409860575905, 116.7999999999999687, 4.750000000000000000 ) ) ;
#278 = EDGE_CURVE ( 'NONE', #760, #1351, #599, .T. ) ;
#279 = EDGE_CURVE ( 'NONE', #256, #135, #396, .T. ) ;
#280 = MANIFOLD_SOLID_BREP ( 'LPattern1', #699 ) ;
#281 = FACE_OUTER_BOUND ( 'NONE', #1306, .T. ) ;
#282 = CARTESIAN_POINT ( 'NONE',  ( -68.99999999999998579, 68.99999999999998579, -5.224999999999997868 ) ) ;
#283 = LINE ( 'NONE', #508, #1389 ) ;
#284 = ORIENTED_EDGE ( 'NONE', *, *, #480, .F. ) ;
#285 = VECTOR ( 'NONE', #456, 1000.000000000000000 ) ;
#286 = DIRECTION ( 'NONE',  ( -0.000000000000000000, -1.000000000000000000, -0.000000000000000000 ) ) ;
#287 = CARTESIAN_POINT ( 'NONE',  ( -68.99999999999998579, 68.99999999999998579, 1.174999999999995604 ) ) ;
#288 = AXIS2_PLACEMENT_3D ( 'NONE', #9, #1311, #151 ) ;
#289 = ORIENTED_EDGE ( 'NONE', *, *, #1108, .F. ) ;
#290 = DIRECTION ( 'NONE',  ( -1.000000000000000000, -0.000000000000000000, -0.000000000000000000 ) ) ;
#291 = FILL_AREA_STYLE_COLOUR ( '', #1084 ) ;
#292 = VECTOR ( 'NONE', #1372, 1000.000000000000000 ) ;
#293 = VERTEX_POINT ( 'NONE', #800 ) ;
#294 = DIRECTION ( 'NONE',  ( 0.000000000000000000, 0.000000000000000000, 1.000000000000000000 ) ) ;
#295 = FACE_OUTER_BOUND ( 'NONE', #108, .T. ) ;
#296 = ADVANCED_FACE ( 'NONE', ( #356 ), #892, .F. ) ;
#297 = EDGE_CURVE ( 'NONE', #553, #837, #908, .T. ) ;
#298 = ORIENTED_EDGE ( 'NONE', *, *, #117, .F. ) ;
#299 = CARTESIAN_POINT ( 'NONE',  ( -75.00000000000000000, 2.000000000000000000, 60.00000000000000000 ) ) ;
#300 = DIRECTION ( 'NONE',  ( -1.000000000000000000, 0.000000000000000000, 0.000000000000000000 ) ) ;
#301 = EDGE_CURVE ( 'NONE', #224, #991, #423, .T. ) ;
#302 = DIRECTION ( 'NONE',  ( -0.8660254037844321573, 0.5000000000000111022, 0.000000000000000000 ) ) ;
#303 = CARTESIAN_POINT ( 'NONE',  ( -75.00000000000001421, 120.0000000000000000, -60.00000000000000000 ) ) ;
#304 = VECTOR ( 'NONE', #182, 1000.000000000000000 ) ;
#305 = CARTESIAN_POINT ( 'NONE',  ( 75.00000000000001421, 2.000000000000000000, -60.00000000000000000 ) ) ;
#306 = CARTESIAN_POINT ( 'NONE',  ( -68.99999999999998579, 117.8999999999999915, 57.89999999999999858 ) ) ;
#307 = ORIENTED_EDGE ( 'NONE', *, *, #1333, .F. ) ;
#308 = CYLINDRICAL_SURFACE ( 'NONE', #636, 1.100000000000006306 ) ;
#309 = LINE ( 'NONE', #207, #51 ) ;
#310 = VECTOR ( 'NONE', #53, 1000.000000000000000 ) ;
#311 = ADVANCED_FACE ( 'NONE', ( #46 ), #1101, .F. ) ;
#312 = PLANE ( 'NONE',  #113 ) ;
#313 = CARTESIAN_POINT ( 'NONE',  ( 0.000000000000000000, 0.000000000000000000, 0.000000000000000000 ) ) ;
#314 = ORIENTED_EDGE ( 'NONE', *, *, #1202, .T. ) ;
#315 = PRODUCT_DEFINITION_SHAPE ( 'NONE', 'NONE',  #1233 ) ;
#316 = ORIENTED_EDGE ( 'NONE', *, *, #1075, .T. ) ;
#317 = EDGE_CURVE ( 'NONE', #536, #980, #1066, .T. ) ;
#318 = DIRECTION ( 'NONE',  ( -0.000000000000000000, -1.000000000000000000, -0.000000000000000000 ) ) ;
#319 = VECTOR ( 'NONE', #1071, 1000.000000000000114 ) ;
#320 = VERTEX_POINT ( 'NONE', #1123 ) ;
#321 = VECTOR ( 'NONE', #139, 1000.000000000000000 ) ;
#322 = FACE_OUTER_BOUND ( 'NONE', #1190, .T. ) ;
#323 = ADVANCED_FACE ( 'NONE', ( #1216 ), #364, .F. ) ;
#324 = ORIENTED_EDGE ( 'NONE', *, *, #701, .T. ) ;
#325 = CARTESIAN_POINT ( 'NONE',  ( 68.00000000000000000, 5.000000000000000000, -57.89999999999999858 ) ) ;
#326 = CARTESIAN_POINT ( 'NONE',  ( -42.88141399463501813, 119.6958588854416803, -4.750000000000000000 ) ) ;
#327 = ORIENTED_EDGE ( 'NONE', *, *, #55, .T. ) ;
#328 = ORIENTED_EDGE ( 'NONE', *, *, #1213, .F. ) ;
#329 = CIRCLE ( 'NONE', #866, 1.100000000000006306 ) ;
#330 = FACE_BOUND ( 'NONE', #885, .T. ) ;
#331 = CARTESIAN_POINT ( 'NONE',  ( -68.99999999999998579, 5.999999999999991118, 57.89999999999999858 ) ) ;
#332 = VERTEX_POINT ( 'NONE', #1109 ) ;
#333 = VERTEX_POINT ( 'NONE', #577 ) ;
#334 = ORIENTED_EDGE ( 'NONE', *, *, #646, .F. ) ;
#335 = ADVANCED_FACE ( 'NONE', ( #1331 ), #371, .F. ) ;
#336 = ADVANCED_FACE ( 'NONE', ( #584 ), #809, .F. ) ;
#337 = CARTESIAN_POINT ( 'NONE',  ( -68.99999999999998579, 0.000000000000000000, 0.000000000000000000 ) ) ;
#338 = EDGE_CURVE ( 'NONE', #1351, #560, #1313, .T. ) ;
#339 = CARTESIAN_POINT ( 'NONE',  ( -68.99999999999998579, 117.8999999999999915, 57.89999999999999858 ) ) ;
#340 = ORIENTED_EDGE ( 'NONE', *, *, #1076, .T. ) ;
#341 = ORIENTED_EDGE ( 'NONE', *, *, #1184, .F. ) ;
#342 = EDGE_LOOP ( 'NONE', ( #859, #1204, #1125, #397, #827, #452 ) ) ;
#343 = CIRCLE ( 'NONE', #763, 1.100000000000006306 ) ;
#344 = FACE_OUTER_BOUND ( 'NONE', #630, .T. ) ;
#345 = LINE ( 'NONE', #1323, #1030 ) ;
#346 = CARTESIAN_POINT ( 'NONE',  ( -75.00000000000000000, 68.99999999999998579, -6.325000000000003730 ) ) ;
#347 = VECTOR ( 'NONE', #472, 1000.000000000000000 ) ;
#348 = ORIENTED_EDGE ( 'NONE', *, *, #976, .F. ) ;
#349 = ORIENTED_EDGE ( 'NONE', *, *, #425, .F. ) ;
#350 = VERTEX_POINT ( 'NONE', #1340 ) ;
#351 = AXIS2_PLACEMENT_3D ( 'NONE', #995, #786, #1221 ) ;
#352 = CARTESIAN_POINT ( 'NONE',  ( -73.00000000000001421, 6.000000000000000000, -57.89999999999999858 ) ) ;
#353 = AXIS2_PLACEMENT_3D ( 'NONE', #1094, #648, #1072 ) ;
#354 = FACE_OUTER_BOUND ( 'NONE', #761, .T. ) ;
#355 = EDGE_CURVE ( 'NONE', #506, #204, #167, .T. ) ;
#356 = FACE_OUTER_BOUND ( 'NONE', #830, .T. ) ;
#357 = FACE_OUTER_BOUND ( 'NONE', #147, .T. ) ;
#358 = ORIENTED_EDGE ( 'NONE', *, *, #178, .F. ) ;
#359 = ORIENTED_EDGE ( 'NONE', *, *, #150, .T. ) ;
#360 = CIRCLE ( 'NONE', #69, 1.100000000000006306 ) ;
#361 = CARTESIAN_POINT ( 'NONE',  ( -73.00000000000000000, 117.8999999999999915, 57.89999999999999858 ) ) ;
#362 = VECTOR ( 'NONE', #265, 1000.000000000000000 ) ;
#363 = LINE ( 'NONE', #254, #3 ) ;
#364 = PLANE ( 'NONE',  #351 ) ;
#365 = DIRECTION ( 'NONE',  ( 0.000000000000000000, 0.000000000000000000, 1.000000000000000000 ) ) ;
#366 = ORIENTED_EDGE ( 'NONE', *, *, #149, .T. ) ;
#367 = EDGE_CURVE ( 'NONE', #459, #228, #669, .T. ) ;
#368 = EDGE_CURVE ( 'NONE', #451, #293, #1093, .T. ) ;
#369 = LINE ( 'NONE', #299, #1077 ) ;
#370 = LINE ( 'NONE', #581, #783 ) ;
#371 = CYLINDRICAL_SURFACE ( 'NONE', #510, 3.000000000000002665 ) ;
#372 = CARTESIAN_POINT ( 'NONE',  ( -75.00000000000001421, 2.000000000000000000, -60.00000000000000000 ) ) ;
#373 = ORIENTED_EDGE ( 'NONE', *, *, #1006, .F. ) ;
#374 = PLANE ( 'NONE',  #704 ) ;
#375 = CARTESIAN_POINT ( 'NONE',  ( -43.88141399463501813, 119.6958588854416661, 4.750000000000000000 ) ) ;
#376 = EDGE_LOOP ( 'NONE', ( #579, #433, #134, #1355, #870, #1189, #192, #429, #13, #1177, #1230 ) ) ;
#377 = LINE ( 'NONE', #571, #1387 ) ;
#378 =( GEOMETRIC_REPRESENTATION_CONTEXT ( 3 ) GLOBAL_UNCERTAINTY_ASSIGNED_CONTEXT ( ( #1320 ) ) GLOBAL_UNIT_ASSIGNED_CONTEXT ( ( #1277, #853, #642 ) ) REPRESENTATION_CONTEXT ( 'NONE', 'WORKASPACE' ) );
#379 = EDGE_LOOP ( 'NONE', ( #755, #743, #242, #1037 ) ) ;
#380 = EDGE_CURVE ( 'NONE', #1250, #320, #176, .T. ) ;
#381 = VERTEX_POINT ( 'NONE', #303 ) ;
#382 = PLANE ( 'NONE',  #861 ) ;
#383 = DIRECTION ( 'NONE',  ( -1.000000000000000000, -0.000000000000000000, -0.000000000000000000 ) ) ;
#384 = VERTEX_POINT ( 'NONE', #518 ) ;
#385 = CARTESIAN_POINT ( 'NONE',  ( 68.00000000000001421, 3.000000000000015099, -57.89999999999999858 ) ) ;
#386 = ADVANCED_FACE ( 'NONE', ( #1379 ), #85, .F. ) ;
#387 = VERTEX_POINT ( 'NONE', #79 ) ;
#388 = EDGE_LOOP ( 'NONE', ( #658, #509 ) ) ;
#389 = CARTESIAN_POINT ( 'NONE',  ( -75.00000000000000000, 68.99999999999998579, 3.375000000000008882 ) ) ;
#390 = LINE ( 'NONE', #1129, #537 ) ;
#391 = VERTEX_POINT ( 'NONE', #1027 ) ;
#392 = CARTESIAN_POINT ( 'NONE',  ( -43.88141399463501813, 119.6958588854416661, 4.750000000000000000 ) ) ;
#393 = PLANE ( 'NONE',  #907 ) ;
#394 = VERTEX_POINT ( 'NONE', #186 ) ;
#395 = CARTESIAN_POINT ( 'NONE',  ( -73.00000000000001421, 2.000000000000000000, -57.89999999999999858 ) ) ;
#396 = LINE ( 'NONE', #1360, #61 ) ;
#397 = ORIENTED_EDGE ( 'NONE', *, *, #180, .F. ) ;
#398 = FACE_OUTER_BOUND ( 'NONE', #1279, .T. ) ;
#399 = EDGE_CURVE ( 'NONE', #384, #14, #1035, .T. ) ;
#400 = EDGE_CURVE ( 'NONE', #837, #1282, #1140, .T. ) ;
#401 = CARTESIAN_POINT ( 'NONE',  ( 75.00000000000000000, 2.000000000000000000, 60.00000000000000000 ) ) ;
#402 = APPLICATION_PROTOCOL_DEFINITION ( 'draft international standard', 'automotive_design', 1998, #1039 ) ;
#403 = VECTOR ( 'NONE', #1305, 1000.000000000000000 ) ;
#404 = DIRECTION ( 'NONE',  ( -1.000000000000000000, 0.000000000000000000, 1.156482317317871725E-16 ) ) ;
#405 = LINE ( 'NONE', #1369, #1302 ) ;
#406 = CARTESIAN_POINT ( 'NONE',  ( -68.99999999999998579, 68.99999999999998579, -4.124999999999991118 ) ) ;
#407 = ORIENTED_EDGE ( 'NONE', *, *, #557, .T. ) ;
#408 = CARTESIAN_POINT ( 'NONE',  ( -41.78007409860588695, 117.9999999999999716, 4.750000000000000000 ) ) ;
#409 = CARTESIAN_POINT ( 'NONE',  ( -73.00000000000000000, 5.000000000000000000, -58.79999999999999716 ) ) ;
#410 = CYLINDRICAL_SURFACE ( 'NONE', #691, 1.100000000000006306 ) ;
#411 = CARTESIAN_POINT ( 'NONE',  ( -75.00000000000000000, 51.00000000000000000, -5.224999999999996980 ) ) ;
#412 = ADVANCED_FACE ( 'NONE', ( #611 ), #504, .F. ) ;
#413 = ORIENTED_EDGE ( 'NONE', *, *, #1052, .T. ) ;
#414 = DIRECTION ( 'NONE',  ( 0.000000000000000000, -9.637352644315616444E-16, -1.000000000000000000 ) ) ;
#415 = LINE ( 'NONE', #1049, #891 ) ;
#416 = AXIS2_PLACEMENT_3D ( 'NONE', #282, #1328, #272 ) ;
#417 = CARTESIAN_POINT ( 'NONE',  ( 75.00000000000001421, 0.000000000000000000, -60.00000000000000000 ) ) ;
#418 = ORIENTED_EDGE ( 'NONE', *, *, #1096, .T. ) ;
#419 = ORIENTED_EDGE ( 'NONE', *, *, #1075, .F. ) ;
#420 = DIRECTION ( 'NONE',  ( 1.000000000000000000, 0.000000000000000000, 0.000000000000000000 ) ) ;
#421 = AXIS2_PLACEMENT_3D ( 'NONE', #385, #787, #63 ) ;
#422 = DIRECTION ( 'NONE',  ( -1.000000000000000000, -0.000000000000000000, -0.000000000000000000 ) ) ;
#423 = CIRCLE ( 'NONE', #175, 1.100000000000006306 ) ;
#424 = ORIENTED_EDGE ( 'NONE', *, *, #566, .T. ) ;
#425 = EDGE_CURVE ( 'NONE', #708, #1082, #1050, .T. ) ;
#426 = DIRECTION ( 'NONE',  ( -1.000000000000000000, -0.000000000000000000, -0.000000000000000000 ) ) ;
#427 = VECTOR ( 'NONE', #462, 1000.000000000000000 ) ;
#428 = EDGE_CURVE ( 'NONE', #74, #256, #193, .T. ) ;
#429 = ORIENTED_EDGE ( 'NONE', *, *, #231, .F. ) ;
#430 = VECTOR ( 'NONE', #486, 1000.000000000000000 ) ;
#431 = LINE ( 'NONE', #517, #1 ) ;
#432 = DIRECTION ( 'NONE',  ( 0.000000000000000000, 0.000000000000000000, 1.000000000000000000 ) ) ;
#433 = ORIENTED_EDGE ( 'NONE', *, *, #1314, .F. ) ;
#434 = DIRECTION ( 'NONE',  ( 0.000000000000000000, 0.000000000000000000, 1.000000000000000000 ) ) ;
#435 = EDGE_CURVE ( 'NONE', #919, #1266, #709, .T. ) ;
#436 = ADVANCED_FACE ( 'NONE', ( #398 ), #816, .F. ) ;
#437 = LINE ( 'NONE', #862, #575 ) ;
#438 = ORIENTED_EDGE ( 'NONE', *, *, #1256, .F. ) ;
#439 = ORIENTED_EDGE ( 'NONE', *, *, #872, .T. ) ;
#440 = AXIS2_PLACEMENT_3D ( 'NONE', #313, #1171, #1365 ) ;
#441 = CARTESIAN_POINT ( 'NONE',  ( -41.78007409860588695, 117.9999999999999716, 4.750000000000000000 ) ) ;
#442 = CARTESIAN_POINT ( 'NONE',  ( -75.00000000000001421, 120.0000000000000000, -60.00000000000000000 ) ) ;
#443 = ORIENTED_EDGE ( 'NONE', *, *, #1274, .T. ) ;
#444 = ORIENTED_EDGE ( 'NONE', *, *, #889, .F. ) ;
#445 = ORIENTED_EDGE ( 'NONE', *, *, #674, .F. ) ;
#446 = EDGE_CURVE ( 'NONE', #657, #1383, #618, .T. ) ;
#447 = VECTOR ( 'NONE', #597, 1000.000000000000000 ) ;
#448 = CARTESIAN_POINT ( 'NONE',  ( -68.99999999999998579, 51.00000000000000000, -5.224999999999997868 ) ) ;
#449 = DIRECTION ( 'NONE',  ( -0.000000000000000000, -1.000000000000000000, -0.000000000000000000 ) ) ;
#450 = ORIENTED_EDGE ( 'NONE', *, *, #425, .T. ) ;
#451 = VERTEX_POINT ( 'NONE', #409 ) ;
#452 = ORIENTED_EDGE ( 'NONE', *, *, #367, .T. ) ;
#453 = EDGE_CURVE ( 'NONE', #1212, #74, #832, .T. ) ;
#454 = LINE ( 'NONE', #676, #243 ) ;
#455 = DIRECTION ( 'NONE',  ( 0.000000000000000000, -0.000000000000000000, 1.000000000000000000 ) ) ;
#456 = DIRECTION ( 'NONE',  ( -0.000000000000000000, -1.000000000000000000, -0.000000000000000000 ) ) ;
#457 = LINE ( 'NONE', #226, #717 ) ;
#458 = ORIENTED_EDGE ( 'NONE', *, *, #1193, .F. ) ;
#459 = VERTEX_POINT ( 'NONE', #626 ) ;
#460 = VECTOR ( 'NONE', #68, 1000.000000000000000 ) ;
#461 = VECTOR ( 'NONE', #58, 1000.000000000000000 ) ;
#462 = DIRECTION ( 'NONE',  ( -0.000000000000000000, -0.000000000000000000, 1.000000000000000000 ) ) ;
#463 = AXIS2_PLACEMENT_3D ( 'NONE', #144, #762, #987 ) ;
#464 = DIRECTION ( 'NONE',  ( -1.000000000000000000, 0.000000000000000000, -0.000000000000000000 ) ) ;
#465 = DIRECTION ( 'NONE',  ( 0.000000000000000000, -1.000000000000000000, 0.000000000000000000 ) ) ;
#466 = EDGE_CURVE ( 'NONE', #531, #320, #93, .T. ) ;
#467 = FACE_OUTER_BOUND ( 'NONE', #1350, .T. ) ;
#468 = VERTEX_POINT ( 'NONE', #723 ) ;
#469 = DIRECTION ( 'NONE',  ( -1.000000000000000000, -0.000000000000000000, -0.000000000000000000 ) ) ;
#470 = DIRECTION ( 'NONE',  ( 0.000000000000000000, -9.637352644315616444E-16, -1.000000000000000000 ) ) ;
#471 = SURFACE_STYLE_USAGE ( .BOTH. , #793 ) ;
#472 = DIRECTION ( 'NONE',  ( -1.000000000000000000, -0.000000000000000000, 1.156482317317871725E-16 ) ) ;
#473 = ORIENTED_EDGE ( 'NONE', *, *, #317, .F. ) ;
#474 = AXIS2_PLACEMENT_3D ( 'NONE', #946, #632, #507 ) ;
#475 = PLANE ( 'NONE',  #166 ) ;
#476 = PLANE ( 'NONE',  #921 ) ;
#477 = CARTESIAN_POINT ( 'NONE',  ( -73.00000000000000000, 120.0000000000000000, -60.00000000000000000 ) ) ;
#478 = CARTESIAN_POINT ( 'NONE',  ( -68.99999999999998579, 6.000000000000000000, -57.89999999999999858 ) ) ;
#479 = ORIENTED_EDGE ( 'NONE', *, *, #941, .F. ) ;
#480 = EDGE_CURVE ( 'NONE', #1031, #1015, #912, .T. ) ;
#481 = AXIS2_PLACEMENT_3D ( 'NONE', #80, #1263, #1152 ) ;
#482 = VECTOR ( 'NONE', #806, 1000.000000000000000 ) ;
#483 = ORIENTED_EDGE ( 'NONE', *, *, #278, .F. ) ;
#484 = FACE_OUTER_BOUND ( 'NONE', #223, .T. ) ;
#485 = ADVANCED_FACE ( 'NONE', ( #484 ), #1007, .F. ) ;
#486 = DIRECTION ( 'NONE',  ( -0.000000000000000000, 1.000000000000000000, -0.000000000000000000 ) ) ;
#487 = ORIENTED_EDGE ( 'NONE', *, *, #11, .F. ) ;
#488 = DIRECTION ( 'NONE',  ( -0.9945218953682736229, -0.1045284632676509312, 0.000000000000000000 ) ) ;
#489 = LINE ( 'NONE', #287, #347 ) ;
#490 = VERTEX_POINT ( 'NONE', #493 ) ;
#491 = AXIS2_PLACEMENT_3D ( 'NONE', #123, #1207, #547 ) ;
#492 = LINE ( 'NONE', #1136, #430 ) ;
#493 = CARTESIAN_POINT ( 'NONE',  ( -73.00000000000000000, 117.8999999999999915, -57.89999999999999858 ) ) ;
#494 = DIRECTION ( 'NONE',  ( 0.000000000000000000, 0.000000000000000000, 1.000000000000000000 ) ) ;
#495 = ORIENTED_EDGE ( 'NONE', *, *, #1227, .T. ) ;
#496 = AXIS2_PLACEMENT_3D ( 'NONE', #1156, #724, #624 ) ;
#497 = DIRECTION ( 'NONE',  ( -0.000000000000000000, 9.637352644315616444E-16, -1.000000000000000000 ) ) ;
#498 = CARTESIAN_POINT ( 'NONE',  ( -73.00000000000000000, 3.000000000000014211, -58.79999999999999716 ) ) ;
#499 = EDGE_LOOP ( 'NONE', ( #1272, #956 ) ) ;
#500 = ADVANCED_FACE ( 'NONE', ( #791 ), #49, .F. ) ;
#501 = FACE_OUTER_BOUND ( 'NONE', #812, .T. ) ;
#502 = CARTESIAN_POINT ( 'NONE',  ( -43.88141399463501813, 119.6958588854416661, -4.750000000000000000 ) ) ;
#503 = VERTEX_POINT ( 'NONE', #389 ) ;
#504 = PLANE ( 'NONE',  #1366 ) ;
#505 = LINE ( 'NONE', #401, #660 ) ;
#506 = VERTEX_POINT ( 'NONE', #172 ) ;
#507 = DIRECTION ( 'NONE',  ( 0.000000000000000000, 0.000000000000000000, 1.000000000000000000 ) ) ;
#508 = CARTESIAN_POINT ( 'NONE',  ( 72.89999999999999147, 6.000000000000000000, 57.89999999999999858 ) ) ;
#509 = ORIENTED_EDGE ( 'NONE', *, *, #1226, .T. ) ;
#510 = AXIS2_PLACEMENT_3D ( 'NONE', #693, #1116, #678 ) ;
#511 = DIRECTION ( 'NONE',  ( -0.06975647374412001500, -0.9975640502598246417, 0.000000000000000000 ) ) ;
#512 = CARTESIAN_POINT ( 'NONE',  ( -68.99999999999998579, 51.00000000000000000, -5.224999999999997868 ) ) ;
#513 = ADVANCED_FACE ( 'NONE', ( #1345, #1219, #75, #1147, #607 ), #382, .F. ) ;
#514 = PLANE ( 'NONE',  #554 ) ;
#515 = ORIENTED_EDGE ( 'NONE', *, *, #160, .T. ) ;
#516 = DIRECTION ( 'NONE',  ( -1.000000000000000000, -0.000000000000000000, -0.000000000000000000 ) ) ;
#517 = CARTESIAN_POINT ( 'NONE',  ( -69.00000000000002842, 115.3723941183581161, -4.750000000000000000 ) ) ;
#518 = CARTESIAN_POINT ( 'NONE',  ( -40.78007409860575905, 116.7999999999999687, 4.750000000000000000 ) ) ;
#519 = DIRECTION ( 'NONE',  ( -0.000000000000000000, 1.000000000000000000, 9.637352644315616444E-16 ) ) ;
#520 = PRODUCT_CONTEXT ( 'NONE', #928, 'mechanical' ) ;
#521 = EDGE_LOOP ( 'NONE', ( #413, #572, #1295, #681, #651, #765, #185, #70 ) ) ;
#522 = VERTEX_POINT ( 'NONE', #264 ) ;
#523 = DIRECTION ( 'NONE',  ( 0.000000000000000000, 0.000000000000000000, 1.000000000000000000 ) ) ;
#524 = LINE ( 'NONE', #102, #1321 ) ;
#525 = VECTOR ( 'NONE', #1023, 1000.000000000000000 ) ;
#526 = DIRECTION ( 'NONE',  ( -1.000000000000000000, -0.000000000000000000, -0.000000000000000000 ) ) ;
#527 = ADVANCED_FACE ( 'NONE', ( #1236 ), #1114, .F. ) ;
#528 = ORIENTED_EDGE ( 'NONE', *, *, #400, .T. ) ;
#529 = VECTOR ( 'NONE', #1332, 1000.000000000000000 ) ;
#530 = DIRECTION ( 'NONE',  ( -1.000000000000000000, 0.000000000000000000, 1.156482317317871725E-16 ) ) ;
#531 = VERTEX_POINT ( 'NONE', #1000 ) ;
#532 = AXIS2_PLACEMENT_3D ( 'NONE', #118, #141, #758 ) ;
#533 = FACE_OUTER_BOUND ( 'NONE', #663, .T. ) ;
#534 = VECTOR ( 'NONE', #116, 1000.000000000000000 ) ;
#535 = CARTESIAN_POINT ( 'NONE',  ( 0.000000000000000000, 0.000000000000000000, 0.000000000000000000 ) ) ;
#536 = VERTEX_POINT ( 'NONE', #706 ) ;
#537 = VECTOR ( 'NONE', #1138, 1000.000000000000000 ) ;
#538 = ADVANCED_FACE ( 'NONE', ( #42 ), #475, .F. ) ;
#539 = ADVANCED_FACE ( 'NONE', ( #501 ), #374, .F. ) ;
#540 = DIRECTION ( 'NONE',  ( 1.000000000000000000, 0.000000000000000000, 0.000000000000000000 ) ) ;
#541 = FACE_OUTER_BOUND ( 'NONE', #703, .T. ) ;
#542 = ORIENTED_EDGE ( 'NONE', *, *, #1157, .F. ) ;
#543 = ORIENTED_EDGE ( 'NONE', *, *, #1193, .T. ) ;
#544 = ORIENTED_EDGE ( 'NONE', *, *, #466, .F. ) ;
#545 = EDGE_CURVE ( 'NONE', #1250, #1081, #931, .T. ) ;
#546 = PRODUCT_DEFINITION_CONTEXT ( 'detailed design', #1039, 'design' ) ;
#547 = DIRECTION ( 'NONE',  ( -1.000000000000000000, 0.000000000000000000, -0.000000000000000000 ) ) ;
#548 = VECTOR ( 'NONE', #154, 1000.000000000000000 ) ;
#549 = CARTESIAN_POINT ( 'NONE',  ( 68.00000000000001421, 4.999999999999999112, 57.89999999999999858 ) ) ;
#550 = EDGE_CURVE ( 'NONE', #195, #698, #588, .T. ) ;
#551 = ORIENTED_EDGE ( 'NONE', *, *, #836, .T. ) ;
#552 = EDGE_LOOP ( 'NONE', ( #725, #565, #1080, #284 ) ) ;
#553 = VERTEX_POINT ( 'NONE', #598 ) ;
#554 = AXIS2_PLACEMENT_3D ( 'NONE', #1166, #210, #944 ) ;
#555 = CARTESIAN_POINT ( 'NONE',  ( -73.00000000000000000, 2.000000000000000000, 60.00000000000000000 ) ) ;
#556 = CARTESIAN_POINT ( 'NONE',  ( -73.00000000000000000, 2.000000000000000000, -60.00000000000000000 ) ) ;
#557 = EDGE_CURVE ( 'NONE', #256, #1282, #157, .T. ) ;
#558 = EDGE_LOOP ( 'NONE', ( #799, #334, #1182, #181 ) ) ;
#559 = ORIENTED_EDGE ( 'NONE', *, *, #841, .T. ) ;
#560 = VERTEX_POINT ( 'NONE', #1353 ) ;
#561 = CARTESIAN_POINT ( 'NONE',  ( -43.88141399463501813, 119.6958588854416661, 4.750000000000000000 ) ) ;
#562 = CARTESIAN_POINT ( 'NONE',  ( 68.00000000000001421, 3.000000000000000000, 58.79999999999999716 ) ) ;
#563 = DIRECTION ( 'NONE',  ( -0.000000000000000000, -0.000000000000000000, -1.000000000000000000 ) ) ;
#564 = VERTEX_POINT ( 'NONE', #923 ) ;
#565 = ORIENTED_EDGE ( 'NONE', *, *, #197, .T. ) ;
#566 = EDGE_CURVE ( 'NONE', #767, #657, #574, .T. ) ;
#567 = FACE_OUTER_BOUND ( 'NONE', #114, .T. ) ;
#568 = DIRECTION ( 'NONE',  ( 0.000000000000000000, 0.000000000000000000, 1.000000000000000000 ) ) ;
#569 = EDGE_CURVE ( 'NONE', #320, #819, #1359, .T. ) ;
#570 =( LENGTH_UNIT ( ) NAMED_UNIT ( * ) SI_UNIT ( .MILLI., .METRE. ) );
#571 = CARTESIAN_POINT ( 'NONE',  ( -73.00000000000001421, 6.000000000000000000, -57.89999999999999858 ) ) ;
#572 = ORIENTED_EDGE ( 'NONE', *, *, #804, .T. ) ;
#573 = VECTOR ( 'NONE', #488, 1000.000000000000114 ) ;
#574 = LINE ( 'NONE', #813, #304 ) ;
#575 = VECTOR ( 'NONE', #563, 1000.000000000000000 ) ;
#576 = CARTESIAN_POINT ( 'NONE',  ( -68.99999999999998579, 51.00000000000000000, 2.275000000000001688 ) ) ;
#577 = CARTESIAN_POINT ( 'NONE',  ( -68.99999999999998579, 117.8999999999999915, 4.750000000000011546 ) ) ;
#578 = CARTESIAN_POINT ( 'NONE',  ( -66.40321258826033102, 113.3246090322200104, -4.750000000000000000 ) ) ;
#579 = ORIENTED_EDGE ( 'NONE', *, *, #355, .F. ) ;
#580 = DIRECTION ( 'NONE',  ( 0.000000000000000000, 0.000000000000000000, 1.000000000000000000 ) ) ;
#581 = CARTESIAN_POINT ( 'NONE',  ( -73.00000000000000000, 120.0000000000000000, 60.00000000000000000 ) ) ;
#582 = EDGE_CURVE ( 'NONE', #884, #1361, #369, .T. ) ;
#583 = EDGE_CURVE ( 'NONE', #1031, #1197, #343, .T. ) ;
#584 = FACE_OUTER_BOUND ( 'NONE', #552, .T. ) ;
#585 = CARTESIAN_POINT ( 'NONE',  ( -73.00000000000001421, 6.000000000000000000, -57.89999999999999858 ) ) ;
#586 = EDGE_LOOP ( 'NONE', ( #680, #751, #559, #811 ) ) ;
#587 = EDGE_CURVE ( 'NONE', #854, #1015, #1265, .T. ) ;
#588 = CIRCLE ( 'NONE', #1126, 1.100000000000006306 ) ;
#589 = CARTESIAN_POINT ( 'NONE',  ( -68.99999999999998579, 68.99999999999998579, 2.275000000000001688 ) ) ;
#590 = PLANE ( 'NONE',  #188 ) ;
#591 = EDGE_LOOP ( 'NONE', ( #1043, #1089, #60, #1118 ) ) ;
#592 = PRESENTATION_STYLE_ASSIGNMENT (( #471 ) ) ;
#593 = LINE ( 'NONE', #277, #548 ) ;
#594 = ORIENTED_EDGE ( 'NONE', *, *, #1256, .T. ) ;
#595 = AXIS2_PLACEMENT_3D ( 'NONE', #917, #1133, #47 ) ;
#596 = AXIS2_PLACEMENT_3D ( 'NONE', #38, #465, #140 ) ;
#597 = DIRECTION ( 'NONE',  ( -0.000000000000000000, -1.000000000000000000, -0.000000000000000000 ) ) ;
#598 = CARTESIAN_POINT ( 'NONE',  ( -73.00000000000000000, 5.000000000000000000, 58.79999999999999716 ) ) ;
#599 = LINE ( 'NONE', #76, #482 ) ;
#600 = ORIENTED_EDGE ( 'NONE', *, *, #399, .F. ) ;
#601 = VECTOR ( 'NONE', #238, 1000.000000000000000 ) ;
#602 = DIRECTION ( 'NONE',  ( -1.000000000000000000, -0.000000000000000000, 1.156482317317871725E-16 ) ) ;
#603 = LINE ( 'NONE', #794, #1131 ) ;
#604 = EDGE_CURVE ( 'NONE', #522, #229, #405, .T. ) ;
#605 = CIRCLE ( 'NONE', #110, 3.000000000000002665 ) ;
#606 = VERTEX_POINT ( 'NONE', #828 ) ;
#607 = FACE_OUTER_BOUND ( 'NONE', #807, .T. ) ;
#608 = CARTESIAN_POINT ( 'NONE',  ( -65.79312484273073380, 115.7094502793553943, -4.750000000000000000 ) ) ;
#609 = ORIENTED_EDGE ( 'NONE', *, *, #1105, .F. ) ;
#610 = AXIS2_PLACEMENT_3D ( 'NONE', #771, #1329, #677 ) ;
#611 = FACE_OUTER_BOUND ( 'NONE', #54, .T. ) ;
#612 = DIRECTION ( 'NONE',  ( 1.156482317317871478E-16, -0.000000000000000000, -1.000000000000000000 ) ) ;
#613 = ORIENTED_EDGE ( 'NONE', *, *, #645, .F. ) ;
#614 = DIRECTION ( 'NONE',  ( -1.000000000000000000, -0.000000000000000000, -0.000000000000000000 ) ) ;
#615 = CARTESIAN_POINT ( 'NONE',  ( -75.00000000000000000, 0.000000000000000000, 60.00000000000000000 ) ) ;
#616 = ORIENTED_EDGE ( 'NONE', *, *, #836, .F. ) ;
#617 = EDGE_CURVE ( 'NONE', #991, #224, #122, .T. ) ;
#618 = LINE ( 'NONE', #940, #641 ) ;
#619 = CARTESIAN_POINT ( 'NONE',  ( -44.00000000000002842, 117.9999999999999716, 4.750000000000000000 ) ) ;
#620 = EDGE_CURVE ( 'NONE', #1082, #522, #740, .T. ) ;
#621 = DIRECTION ( 'NONE',  ( 0.000000000000000000, 0.000000000000000000, 1.000000000000000000 ) ) ;
#622 = DIRECTION ( 'NONE',  ( -1.000000000000000000, -0.000000000000000000, 1.156482317317871725E-16 ) ) ;
#623 = CARTESIAN_POINT ( 'NONE',  ( -41.78007409860589405, 119.0599999999999739, -4.750000000000000000 ) ) ;
#624 = DIRECTION ( 'NONE',  ( 1.000000000000000000, 0.000000000000000000, 0.000000000000000000 ) ) ;
#625 = LINE ( 'NONE', #633, #1206 ) ;
#626 = CARTESIAN_POINT ( 'NONE',  ( -75.00000000000001421, 120.0000000000000000, 60.00000000000000000 ) ) ;
#627 = DIRECTION ( 'NONE',  ( -0.000000000000000000, -1.000000000000000000, -0.000000000000000000 ) ) ;
#628 = VECTOR ( 'NONE', #194, 1000.000000000000000 ) ;
#629 = APPLICATION_PROTOCOL_DEFINITION ( 'draft international standard', 'automotive_design', 1998, #928 ) ;
#630 = EDGE_LOOP ( 'NONE', ( #782, #349, #1218, #328, #458, #1317, #165, #1149, #952, #894 ) ) ;
#631 = DIRECTION ( 'NONE',  ( 0.000000000000000000, 0.000000000000000000, 1.000000000000000000 ) ) ;
#632 = DIRECTION ( 'NONE',  ( -1.000000000000000000, 0.000000000000000000, 1.156482317317871725E-16 ) ) ;
#633 = CARTESIAN_POINT ( 'NONE',  ( -75.00000000000001421, 2.000000000000000000, -60.00000000000000000 ) ) ;
#634 = ADVANCED_FACE ( 'NONE', ( #1258 ), #840, .T. ) ;
#635 = CARTESIAN_POINT ( 'NONE',  ( -43.88141399463501813, 119.6958588854416661, -4.750000000000000000 ) ) ;
#636 = AXIS2_PLACEMENT_3D ( 'NONE', #1257, #622, #631 ) ;
#637 = EDGE_LOOP ( 'NONE', ( #1054, #307 ) ) ;
#638 = CARTESIAN_POINT ( 'NONE',  ( -75.00000000000000000, 68.99999999999998579, 2.275000000000002576 ) ) ;
#639 = ORIENTED_EDGE ( 'NONE', *, *, #617, .F. ) ;
#640 = CARTESIAN_POINT ( 'NONE',  ( -44.00000000000002842, 117.9999999999999716, 4.750000000000000000 ) ) ;
#641 = VECTOR ( 'NONE', #1373, 1000.000000000000114 ) ;
#642 =( NAMED_UNIT ( * ) SI_UNIT ( $, .STERADIAN. ) SOLID_ANGLE_UNIT ( ) );
#643 = ORIENTED_EDGE ( 'NONE', *, *, #1040, .T. ) ;
#644 = VECTOR ( 'NONE', #449, 1000.000000000000000 ) ;
#645 = EDGE_CURVE ( 'NONE', #1212, #553, #309, .T. ) ;
#646 = EDGE_CURVE ( 'NONE', #350, #815, #731, .T. ) ;
#647 = PLANE ( 'NONE',  #1012 ) ;
#648 = DIRECTION ( 'NONE',  ( 0.000000000000000000, 1.000000000000000000, 0.000000000000000000 ) ) ;
#649 = ORIENTED_EDGE ( 'NONE', *, *, #132, .T. ) ;
#650 = ORIENTED_EDGE ( 'NONE', *, *, #942, .T. ) ;
#651 = ORIENTED_EDGE ( 'NONE', *, *, #835, .T. ) ;
#652 = CARTESIAN_POINT ( 'NONE',  ( -68.99999999999998579, 117.8999999999999915, 57.89999999999999858 ) ) ;
#653 = EDGE_CURVE ( 'NONE', #391, #656, #1155, .T. ) ;
#654 = AXIS2_PLACEMENT_3D ( 'NONE', #101, #1385, #954 ) ;
#655 = CARTESIAN_POINT ( 'NONE',  ( -68.99999999999998579, 68.99999999999998579, 2.275000000000001688 ) ) ;
#656 = VERTEX_POINT ( 'NONE', #198 ) ;
#657 = VERTEX_POINT ( 'NONE', #623 ) ;
#658 = ORIENTED_EDGE ( 'NONE', *, *, #550, .T. ) ;
#659 = CARTESIAN_POINT ( 'NONE',  ( -75.00000000000000000, 51.00000000000000000, 1.174999999999996492 ) ) ;
#660 = VECTOR ( 'NONE', #627, 1000.000000000000000 ) ;
#661 = PRESENTATION_LAYER_ASSIGNMENT (  '', '', ( #1271 ) ) ;
#662 = CARTESIAN_POINT ( 'NONE',  ( 68.00000000000001421, 3.000000000000000000, 58.79999999999999716 ) ) ;
#663 = EDGE_LOOP ( 'NONE', ( #848, #33, #41, #250 ) ) ;
#664 = ORIENTED_EDGE ( 'NONE', *, *, #749, .T. ) ;
#665 = ORIENTED_EDGE ( 'NONE', *, *, #620, .T. ) ;
#666 = LINE ( 'NONE', #441, #601 ) ;
#667 = LINE ( 'NONE', #777, #675 ) ;
#668 = VECTOR ( 'NONE', #302, 1000.000000000000114 ) ;
#669 = LINE ( 'NONE', #31, #88 ) ;
#670 = ADVANCED_FACE ( 'NONE', ( #1158 ), #647, .F. ) ;
#671 = CARTESIAN_POINT ( 'NONE',  ( -68.99999999999998579, 68.99999999999998579, -4.124999999999991118 ) ) ;
#672 = ORIENTED_EDGE ( 'NONE', *, *, #180, .T. ) ;
#673 = EDGE_LOOP ( 'NONE', ( #665, #1162, #551, #450 ) ) ;
#674 = EDGE_CURVE ( 'NONE', #20, #560, #856, .T. ) ;
#675 = VECTOR ( 'NONE', #145, 1000.000000000000000 ) ;
#676 = CARTESIAN_POINT ( 'NONE',  ( -68.99999999999998579, 68.99999999999998579, 3.375000000000007994 ) ) ;
#677 = DIRECTION ( 'NONE',  ( 0.000000000000000000, 0.000000000000000000, 1.000000000000000000 ) ) ;
#678 = DIRECTION ( 'NONE',  ( 1.000000000000000000, 0.000000000000000000, 0.000000000000000000 ) ) ;
#679 = PLANE ( 'NONE',  #1135 ) ;
#680 = ORIENTED_EDGE ( 'NONE', *, *, #1076, .F. ) ;
#681 = ORIENTED_EDGE ( 'NONE', *, *, #160, .F. ) ;
#682 = FACE_OUTER_BOUND ( 'NONE', #1368, .T. ) ;
#683 = FACE_OUTER_BOUND ( 'NONE', #673, .T. ) ;
#684 = DIRECTION ( 'NONE',  ( 0.1045284632676509312, -0.9945218953682736229, 0.000000000000000000 ) ) ;
#685 = DIRECTION ( 'NONE',  ( 1.000000000000000000, 0.000000000000000000, -0.000000000000000000 ) ) ;
#686 = ORIENTED_EDGE ( 'NONE', *, *, #197, .F. ) ;
#687 = AXIS2_PLACEMENT_3D ( 'NONE', #1009, #62, #52 ) ;
#688 = EDGE_CURVE ( 'NONE', #819, #560, #524, .T. ) ;
#689 = EDGE_CURVE ( 'NONE', #468, #451, #415, .T. ) ;
#690 = DIRECTION ( 'NONE',  ( 1.000000000000000000, 0.000000000000000000, -1.156482317317871725E-16 ) ) ;
#691 = AXIS2_PLACEMENT_3D ( 'NONE', #728, #735, #202 ) ;
#692 = DIRECTION ( 'NONE',  ( -0.000000000000000000, -0.000000000000000000, -1.000000000000000000 ) ) ;
#693 = CARTESIAN_POINT ( 'NONE',  ( -65.99999999999998579, 110.3518292541892976, 4.750000000000000000 ) ) ;
#694 = CARTESIAN_POINT ( 'NONE',  ( 68.00000000000001421, 5.000000000000000000, 58.79999999999999716 ) ) ;
#695 = ORIENTED_EDGE ( 'NONE', *, *, #279, .F. ) ;
#696 = CARTESIAN_POINT ( 'NONE',  ( -41.78007409860588695, 117.9999999999999716, 4.750000000000000000 ) ) ;
#697 = DIRECTION ( 'NONE',  ( -1.000000000000000000, 0.000000000000000000, 1.156482317317871725E-16 ) ) ;
#698 = VERTEX_POINT ( 'NONE', #960 ) ;
#699 = CLOSED_SHELL ( 'NONE', ( #336, #5, #1059, #1284, #412, #904, #323, #311, #95, #513, #874, #670, #1143, #1352, #109, #1003, #1024, #850, #1172, #78, #1276, #634, #1144, #436, #538, #196, #296, #1297, #261, #818, #539, #926, #903, #768, #1122, #218, #500, #335, #858, #386, #527, #485 ) ) ;
#700 = DIRECTION ( 'NONE',  ( -1.000000000000000000, 0.000000000000000000, 1.156482317317871725E-16 ) ) ;
#701 = EDGE_CURVE ( 'NONE', #14, #945, #1169, .T. ) ;
#702 = DIRECTION ( 'NONE',  ( 0.000000000000000000, 0.000000000000000000, 1.000000000000000000 ) ) ;
#703 = EDGE_LOOP ( 'NONE', ( #316, #979, #156, #843 ) ) ;
#704 = AXIS2_PLACEMENT_3D ( 'NONE', #696, #1137, #821 ) ;
#705 = ORIENTED_EDGE ( 'NONE', *, *, #1052, .F. ) ;
#706 = CARTESIAN_POINT ( 'NONE',  ( -75.00000000000000000, 68.99999999999998579, -4.124999999999990230 ) ) ;
#707 = PLANE ( 'NONE',  #73 ) ;
#708 = VERTEX_POINT ( 'NONE', #325 ) ;
#709 = LINE ( 'NONE', #392, #997 ) ;
#710 = EDGE_CURVE ( 'NONE', #1266, #506, #212, .T. ) ;
#711 = FACE_OUTER_BOUND ( 'NONE', #1103, .T. ) ;
#712 = VECTOR ( 'NONE', #173, 1000.000000000000000 ) ;
#713 = ORIENTED_EDGE ( 'NONE', *, *, #27, .T. ) ;
#714 = CARTESIAN_POINT ( 'NONE',  ( 68.00000000000001421, 3.000000000000000888, 57.89999999999999858 ) ) ;
#715 = CARTESIAN_POINT ( 'NONE',  ( -41.78007409860589405, 119.0599999999999739, 4.750000000000000000 ) ) ;
#716 = ORIENTED_EDGE ( 'NONE', *, *, #297, .T. ) ;
#717 = VECTOR ( 'NONE', #883, 1000.000000000000000 ) ;
#718 = DIRECTION ( 'NONE',  ( 0.000000000000000000, 0.000000000000000000, 1.000000000000000000 ) ) ;
#719 = CARTESIAN_POINT ( 'NONE',  ( 68.00000000000001421, 3.000000000000015099, -57.89999999999999858 ) ) ;
#720 = VECTOR ( 'NONE', #426, 1000.000000000000000 ) ;
#721 = EDGE_CURVE ( 'NONE', #1319, #333, #918, .T. ) ;
#722 = ORIENTED_EDGE ( 'NONE', *, *, #756, .F. ) ;
#723 = CARTESIAN_POINT ( 'NONE',  ( 68.00000000000001421, 5.000000000000000000, -58.79999999999999716 ) ) ;
#724 = DIRECTION ( 'NONE',  ( -0.000000000000000000, -0.000000000000000000, -1.000000000000000000 ) ) ;
#725 = ORIENTED_EDGE ( 'NONE', *, *, #94, .F. ) ;
#726 = AXIS2_PLACEMENT_3D ( 'NONE', #1107, #153, #1220 ) ;
#727 = DIRECTION ( 'NONE',  ( 1.000000000000000000, 0.000000000000000000, -0.000000000000000000 ) ) ;
#728 = CARTESIAN_POINT ( 'NONE',  ( -68.99999999999998579, 51.00000000000000000, -5.224999999999997868 ) ) ;
#729 = CARTESIAN_POINT ( 'NONE',  ( -42.88141399463501813, 119.6958588854416803, -4.750000000000000000 ) ) ;
#730 = ORIENTED_EDGE ( 'NONE', *, *, #251, .T. ) ;
#731 = LINE ( 'NONE', #190, #230 ) ;
#732 = LINE ( 'NONE', #829, #1326 ) ;
#733 = DIRECTION ( 'NONE',  ( 0.000000000000000000, 0.000000000000000000, 1.000000000000000000 ) ) ;
#734 = CARTESIAN_POINT ( 'NONE',  ( -68.99999999999998579, 68.99999999999998579, 2.275000000000001688 ) ) ;
#735 = DIRECTION ( 'NONE',  ( -1.000000000000000000, -0.000000000000000000, 1.156482317317871725E-16 ) ) ;
#736 = ORIENTED_EDGE ( 'NONE', *, *, #4, .T. ) ;
#737 = VECTOR ( 'NONE', #900, 1000.000000000000000 ) ;
#738 = CARTESIAN_POINT ( 'NONE',  ( 68.00000000000001421, 3.000000000000014211, -58.79999999999999716 ) ) ;
#739 = EDGE_CURVE ( 'NONE', #1266, #1319, #1283, .T. ) ;
#740 = LINE ( 'NONE', #1048, #1382 ) ;
#741 = PLANE ( 'NONE',  #849 ) ;
#742 = DIRECTION ( 'NONE',  ( 0.000000000000000000, 1.000000000000000000, 0.000000000000000000 ) ) ;
#743 = ORIENTED_EDGE ( 'NONE', *, *, #301, .F. ) ;
#744 = ORIENTED_EDGE ( 'NONE', *, *, #1185, .T. ) ;
#745 = LINE ( 'NONE', #6, #534 ) ;
#746 = DIRECTION ( 'NONE',  ( 0.000000000000000000, 0.000000000000000000, 1.000000000000000000 ) ) ;
#747 = VERTEX_POINT ( 'NONE', #1062 ) ;
#748 = CARTESIAN_POINT ( 'NONE',  ( -73.00000000000000000, 2.000000000000000000, -57.89999999999999858 ) ) ;
#749 = EDGE_CURVE ( 'NONE', #394, #503, #360, .T. ) ;
#750 = CARTESIAN_POINT ( 'NONE',  ( -73.00000000000000000, 4.999999999999999112, 57.89999999999999858 ) ) ;
#751 = ORIENTED_EDGE ( 'NONE', *, *, #550, .F. ) ;
#752 = LINE ( 'NONE', #111, #964 ) ;
#753 = VECTOR ( 'NONE', #258, 1000.000000000000000 ) ;
#754 = LINE ( 'NONE', #662, #219 ) ;
#755 = ORIENTED_EDGE ( 'NONE', *, *, #251, .F. ) ;
#756 = EDGE_CURVE ( 'NONE', #332, #795, #752, .T. ) ;
#757 = FACE_BOUND ( 'NONE', #1073, .T. ) ;
#758 = DIRECTION ( 'NONE',  ( 0.000000000000000000, 0.000000000000000000, 1.000000000000000000 ) ) ;
#759 = ORIENTED_EDGE ( 'NONE', *, *, #27, .F. ) ;
#760 = VERTEX_POINT ( 'NONE', #105 ) ;
#761 = EDGE_LOOP ( 'NONE', ( #716, #2, #206, #222 ) ) ;
#762 = DIRECTION ( 'NONE',  ( 0.000000000000000000, 0.000000000000000000, 1.000000000000000000 ) ) ;
#763 = AXIS2_PLACEMENT_3D ( 'NONE', #1163, #82, #523 ) ;
#764 = CARTESIAN_POINT ( 'NONE',  ( -73.00000000000001421, 6.000000000000000000, 57.89999999999999858 ) ) ;
#765 = ORIENTED_EDGE ( 'NONE', *, *, #756, .T. ) ;
#766 = EDGE_LOOP ( 'NONE', ( #358, #274 ) ) ;
#767 = VERTEX_POINT ( 'NONE', #200 ) ;
#768 = ADVANCED_FACE ( 'NONE', ( #533 ), #312, .F. ) ;
#769 = DIRECTION ( 'NONE',  ( -1.000000000000000000, -0.000000000000000000, 1.156482317317871725E-16 ) ) ;
#770 = AXIS2_PLACEMENT_3D ( 'NONE', #1217, #1357, #1349 ) ;
#771 = CARTESIAN_POINT ( 'NONE',  ( -75.00000000000000000, 68.99999999999998579, 2.275000000000002576 ) ) ;
#772 = LINE ( 'NONE', #326, #403 ) ;
#773 = VERTEX_POINT ( 'NONE', #1386 ) ;
#774 = ORIENTED_EDGE ( 'NONE', *, *, #149, .F. ) ;
#775 = AXIS2_PLACEMENT_3D ( 'NONE', #35, #887, #1192 ) ;
#776 = DIRECTION ( 'NONE',  ( 1.000000000000000000, 0.000000000000000000, 0.000000000000000000 ) ) ;
#777 = CARTESIAN_POINT ( 'NONE',  ( -69.00000000000002842, 112.9723941183581388, 4.750000000000000000 ) ) ;
#778 = DIRECTION ( 'NONE',  ( 0.000000000000000000, 0.000000000000000000, 1.000000000000000000 ) ) ;
#779 = PLANE ( 'NONE',  #353 ) ;
#780 = ORIENTED_EDGE ( 'NONE', *, *, #587, .F. ) ;
#781 = ORIENTED_EDGE ( 'NONE', *, *, #132, .F. ) ;
#782 = ORIENTED_EDGE ( 'NONE', *, *, #275, .F. ) ;
#783 = VECTOR ( 'NONE', #1100, 1000.000000000000000 ) ;
#784 = CARTESIAN_POINT ( 'NONE',  ( -66.10671023253370038, 118.6930159654602193, -4.750000000000000000 ) ) ;
#785 = CARTESIAN_POINT ( 'NONE',  ( 72.89999999999999147, 6.000000000000000000, 57.89999999999999858 ) ) ;
#786 = DIRECTION ( 'NONE',  ( 0.000000000000000000, 0.000000000000000000, -1.000000000000000000 ) ) ;
#787 = DIRECTION ( 'NONE',  ( 0.000000000000000000, 1.000000000000000000, -9.637352644315616444E-16 ) ) ;
#788 = EDGE_CURVE ( 'NONE', #381, #815, #625, .T. ) ;
#789 = EDGE_LOOP ( 'NONE', ( #609, #780 ) ) ;
#790 = EDGE_CURVE ( 'NONE', #268, #1088, #851, .T. ) ;
#791 = FACE_OUTER_BOUND ( 'NONE', #910, .T. ) ;
#792 = PLANE ( 'NONE',  #726 ) ;
#793 = SURFACE_SIDE_STYLE ('',( #273 ) ) ;
#794 = CARTESIAN_POINT ( 'NONE',  ( -73.00000000000001421, 2.000000000000000000, 57.89999999999999858 ) ) ;
#795 = VERTEX_POINT ( 'NONE', #1281 ) ;
#796 = EDGE_CURVE ( 'NONE', #845, #333, #745, .T. ) ;
#797 = DIRECTION ( 'NONE',  ( 1.000000000000000000, 0.000000000000000000, 0.000000000000000000 ) ) ;
#798 = DIRECTION ( 'NONE',  ( 0.000000000000000000, 0.000000000000000000, 1.000000000000000000 ) ) ;
#799 = ORIENTED_EDGE ( 'NONE', *, *, #249, .F. ) ;
#800 = CARTESIAN_POINT ( 'NONE',  ( -73.00000000000000000, 4.999999999999999112, -57.89999999999999858 ) ) ;
#801 = FACE_OUTER_BOUND ( 'NONE', #216, .T. ) ;
#802 = ORIENTED_EDGE ( 'NONE', *, *, #380, .F. ) ;
#803 = CARTESIAN_POINT ( 'NONE',  ( -73.00000000000000000, 3.000000000000015099, -57.89999999999999858 ) ) ;
#804 = EDGE_CURVE ( 'NONE', #845, #1146, #431, .T. ) ;
#805 = DIRECTION ( 'NONE',  ( -1.156482317317871725E-16, 0.000000000000000000, -1.000000000000000000 ) ) ;
#806 = DIRECTION ( 'NONE',  ( -0.000000000000000000, -0.000000000000000000, -1.000000000000000000 ) ) ;
#807 = EDGE_LOOP ( 'NONE', ( #877, #878, #419, #963 ) ) ;
#808 = VECTOR ( 'NONE', #66, 1000.000000000000000 ) ;
#809 = CYLINDRICAL_SURFACE ( 'NONE', #687, 1.100000000000006306 ) ;
#810 = LINE ( 'NONE', #1240, #957 ) ;
#811 = ORIENTED_EDGE ( 'NONE', *, *, #178, .T. ) ;
#812 = EDGE_LOOP ( 'NONE', ( #424, #781, #48, #930 ) ) ;
#813 = CARTESIAN_POINT ( 'NONE',  ( -41.78007409860588695, 117.9999999999999716, -4.750000000000000000 ) ) ;
#814 = CARTESIAN_POINT ( 'NONE',  ( 68.00000000000001421, 3.000000000000015099, -57.89999999999999858 ) ) ;
#815 = VERTEX_POINT ( 'NONE', #846 ) ;
#816 = PLANE ( 'NONE',  #1178 ) ;
#817 = CARTESIAN_POINT ( 'NONE',  ( 68.00000000000001421, 4.999999999999999112, 57.89999999999999858 ) ) ;
#818 = ADVANCED_FACE ( 'NONE', ( #322 ), #741, .F. ) ;
#819 = VERTEX_POINT ( 'NONE', #748 ) ;
#820 = VECTOR ( 'NONE', #1239, 1000.000000000000000 ) ;
#821 = DIRECTION ( 'NONE',  ( 6.546126324440749294E-15, -1.000000000000000000, 0.000000000000000000 ) ) ;
#822 = DIRECTION ( 'NONE',  ( 0.000000000000000000, 1.000000000000000000, 0.000000000000000000 ) ) ;
#823 = ORIENTED_EDGE ( 'NONE', *, *, #920, .F. ) ;
#824 = CIRCLE ( 'NONE', #463, 3.000000000000002665 ) ;
#825 = CARTESIAN_POINT ( 'NONE',  ( -73.00000000000000000, 4.999999999999999112, -57.89999999999999858 ) ) ;
#826 = CARTESIAN_POINT ( 'NONE',  ( -41.78007409860588695, 117.9999999999999716, 4.750000000000000000 ) ) ;
#827 = ORIENTED_EDGE ( 'NONE', *, *, #1150, .F. ) ;
#828 = CARTESIAN_POINT ( 'NONE',  ( -73.00000000000000000, 117.8999999999999915, 57.89999999999999858 ) ) ;
#829 = CARTESIAN_POINT ( 'NONE',  ( -69.00000000000002842, 112.9723941183581388, -4.750000000000000000 ) ) ;
#830 = EDGE_LOOP ( 'NONE', ( #1097, #744, #886, #1300 ) ) ;
#831 = DIRECTION ( 'NONE',  ( 0.9975640502598246417, -0.06975647374412002888, 0.000000000000000000 ) ) ;
#832 = LINE ( 'NONE', #1159, #217 ) ;
#833 = DIRECTION ( 'NONE',  ( 0.000000000000000000, -9.637352644315616444E-16, 1.000000000000000000 ) ) ;
#834 = LINE ( 'NONE', #306, #1343 ) ;
#835 = EDGE_CURVE ( 'NONE', #333, #332, #1175, .T. ) ;
#836 = EDGE_CURVE ( 'NONE', #468, #708, #29, .T. ) ;
#837 = VERTEX_POINT ( 'NONE', #993 ) ;
#838 = ORIENTED_EDGE ( 'NONE', *, *, #569, .F. ) ;
#839 = VECTOR ( 'NONE', #1041, 1000.000000000000000 ) ;
#840 = PLANE ( 'NONE',  #654 ) ;
#841 = EDGE_CURVE ( 'NONE', #195, #503, #454, .T. ) ;
#842 = DIRECTION ( 'NONE',  ( 0.000000000000000000, -1.000000000000000000, 0.000000000000000000 ) ) ;
#843 = ORIENTED_EDGE ( 'NONE', *, *, #1157, .T. ) ;
#844 = AXIS2_PLACEMENT_3D ( 'NONE', #655, #1102, #432 ) ;
#845 = VERTEX_POINT ( 'NONE', #1200 ) ;
#846 = CARTESIAN_POINT ( 'NONE',  ( -75.00000000000001421, 0.000000000000000000, -60.00000000000000000 ) ) ;
#847 = FACE_OUTER_BOUND ( 'NONE', #981, .T. ) ;
#848 = ORIENTED_EDGE ( 'NONE', *, *, #1314, .T. ) ;
#849 = AXIS2_PLACEMENT_3D ( 'NONE', #1165, #208, #955 ) ;
#850 = ADVANCED_FACE ( 'NONE', ( #330, #1322, #21, #757, #873 ), #1214, .F. ) ;
#851 = LINE ( 'NONE', #1261, #668 ) ;
#852 = AXIS2_PLACEMENT_3D ( 'NONE', #562, #1312, #464 ) ;
#853 =( NAMED_UNIT ( * ) PLANE_ANGLE_UNIT ( ) SI_UNIT ( $, .RADIAN. ) );
#854 = VERTEX_POINT ( 'NONE', #659 ) ;
#855 = UNCERTAINTY_MEASURE_WITH_UNIT (LENGTH_MEASURE( 1.000000000000000082E-05 ), #570, 'distance_accuracy_value', 'NONE');
#856 = LINE ( 'NONE', #1392, #1191 ) ;
#857 = LINE ( 'NONE', #549, #234 ) ;
#858 = ADVANCED_FACE ( 'NONE', ( #982 ), #1085, .F. ) ;
#859 = ORIENTED_EDGE ( 'NONE', *, *, #895, .T. ) ;
#860 = PLANE ( 'NONE',  #775 ) ;
#861 = AXIS2_PLACEMENT_3D ( 'NONE', #1128, #690, #805 ) ;
#862 = CARTESIAN_POINT ( 'NONE',  ( -40.78007409860575905, 117.9999999999999716, 4.750000000000000000 ) ) ;
#863 = ORIENTED_EDGE ( 'NONE', *, *, #338, .F. ) ;
#864 = ORIENTED_EDGE ( 'NONE', *, *, #231, .T. ) ;
#865 = ORIENTED_EDGE ( 'NONE', *, *, #1289, .F. ) ;
#866 = AXIS2_PLACEMENT_3D ( 'NONE', #512, #1255, #1160 ) ;
#867 = LINE ( 'NONE', #1091, #1249 ) ;
#868 = LINE ( 'NONE', #124, #1367 ) ;
#869 = ORIENTED_EDGE ( 'NONE', *, *, #338, .T. ) ;
#870 = ORIENTED_EDGE ( 'NONE', *, *, #566, .F. ) ;
#871 = ORIENTED_EDGE ( 'NONE', *, *, #257, .T. ) ;
#872 = EDGE_CURVE ( 'NONE', #490, #606, #1078, .T. ) ;
#873 = FACE_OUTER_BOUND ( 'NONE', #521, .T. ) ;
#874 = ADVANCED_FACE ( 'NONE', ( #225 ), #1186, .F. ) ;
#875 = DIRECTION ( 'NONE',  ( -1.000000000000000000, -0.000000000000000000, 1.156482317317871725E-16 ) ) ;
#876 = EDGE_LOOP ( 'NONE', ( #1287, #1074, #438, #495 ) ) ;
#877 = ORIENTED_EDGE ( 'NONE', *, *, #249, .T. ) ;
#878 = ORIENTED_EDGE ( 'NONE', *, *, #367, .F. ) ;
#879 = DIRECTION ( 'NONE',  ( -1.000000000000000000, 0.000000000000000000, 0.000000000000000000 ) ) ;
#880 = CARTESIAN_POINT ( 'NONE',  ( -73.00000000000000000, 3.000000000000015099, -57.89999999999999858 ) ) ;
#881 = DIRECTION ( 'NONE',  ( -0.000000000000000000, -1.000000000000000000, -0.000000000000000000 ) ) ;
#882 = MECHANICAL_DESIGN_GEOMETRIC_PRESENTATION_REPRESENTATION (  '', ( #1271 ), #107 ) ;
#883 = DIRECTION ( 'NONE',  ( -0.000000000000000000, -0.000000000000000000, 1.000000000000000000 ) ) ;
#884 = VERTEX_POINT ( 'NONE', #555 ) ;
#885 = EDGE_LOOP ( 'NONE', ( #126, #1334 ) ) ;
#886 = ORIENTED_EDGE ( 'NONE', *, *, #739, .F. ) ;
#887 = DIRECTION ( 'NONE',  ( -0.5000000000000112133, -0.8660254037844322683, 0.000000000000000000 ) ) ;
#888 = FACE_OUTER_BOUND ( 'NONE', #1347, .T. ) ;
#889 = EDGE_CURVE ( 'NONE', #845, #204, #605, .T. ) ;
#890 = EDGE_CURVE ( 'NONE', #945, #767, #666, .T. ) ;
#891 = VECTOR ( 'NONE', #1057, 1000.000000000000000 ) ;
#892 = PLANE ( 'NONE',  #1021 ) ;
#893 = PLANE ( 'NONE',  #421 ) ;
#894 = ORIENTED_EDGE ( 'NONE', *, *, #1096, .F. ) ;
#895 = EDGE_CURVE ( 'NONE', #228, #1034, #867, .T. ) ;
#896 = VECTOR ( 'NONE', #239, 1000.000000000000000 ) ;
#897 = DIRECTION ( 'NONE',  ( -1.000000000000000000, -0.000000000000000000, 1.156482317317871725E-16 ) ) ;
#898 = LINE ( 'NONE', #1115, #967 ) ;
#899 = DIRECTION ( 'NONE',  ( -1.000000000000000000, 0.000000000000000000, 1.156482317317871725E-16 ) ) ;
#900 = DIRECTION ( 'NONE',  ( 1.000000000000000000, 0.000000000000000000, 0.000000000000000000 ) ) ;
#901 = ORIENTED_EDGE ( 'NONE', *, *, #44, .T. ) ;
#902 = AXIS2_PLACEMENT_3D ( 'NONE', #1268, #1377, #1056 ) ;
#903 = ADVANCED_FACE ( 'NONE', ( #682 ), #253, .F. ) ;
#904 = ADVANCED_FACE ( 'NONE', ( #344 ), #137, .F. ) ;
#905 = CARTESIAN_POINT ( 'NONE',  ( 68.00000000000001421, 4.999999999999999112, -57.89999999999999858 ) ) ;
#906 = LINE ( 'NONE', #1008, #896 ) ;
#907 = AXIS2_PLACEMENT_3D ( 'NONE', #817, #177, #1110 ) ;
#908 = LINE ( 'NONE', #916, #285 ) ;
#909 = CARTESIAN_POINT ( 'NONE',  ( -75.00000000000000000, 51.00000000000000000, 2.275000000000002576 ) ) ;
#910 = EDGE_LOOP ( 'NONE', ( #227, #1196, #444, #1318 ) ) ;
#911 = CARTESIAN_POINT ( 'NONE',  ( -40.78007409860575905, 117.9999999999999716, 4.750000000000000000 ) ) ;
#912 = LINE ( 'NONE', #67, #753 ) ;
#913 = PRODUCT_DEFINITION_FORMATION_WITH_SPECIFIED_SOURCE ( 'ANY', '', #270, .NOT_KNOWN. ) ;
#914 = LINE ( 'NONE', #924, #712 ) ;
#915 = ORIENTED_EDGE ( 'NONE', *, *, #788, .F. ) ;
#916 = CARTESIAN_POINT ( 'NONE',  ( -73.00000000000000000, 3.000000000000000000, 58.79999999999999716 ) ) ;
#917 = CARTESIAN_POINT ( 'NONE',  ( -68.99999999999998579, 51.00000000000000000, -5.224999999999997868 ) ) ;
#918 = CIRCLE ( 'NONE', #184, 3.000000000000002665 ) ;
#919 = VERTEX_POINT ( 'NONE', #561 ) ;
#920 = EDGE_CURVE ( 'NONE', #1173, #1146, #824, .T. ) ;
#921 = AXIS2_PLACEMENT_3D ( 'NONE', #1001, #988, #455 ) ;
#922 = ORIENTED_EDGE ( 'NONE', *, *, #368, .F. ) ;
#923 = CARTESIAN_POINT ( 'NONE',  ( -66.40321258826033102, 113.3246090322200104, 4.750000000000000000 ) ) ;
#924 = CARTESIAN_POINT ( 'NONE',  ( -75.00000000000001421, 0.000000000000000000, -60.00000000000000000 ) ) ;
#925 = ORIENTED_EDGE ( 'NONE', *, *, #653, .F. ) ;
#926 = ADVANCED_FACE ( 'NONE', ( #567 ), #860, .F. ) ;
#927 = CARTESIAN_POINT ( 'NONE',  ( -73.00000000000000000, 120.0000000000000000, -60.00000000000000000 ) ) ;
#928 = APPLICATION_CONTEXT ( 'automotive_design' ) ;
#929 = PLANE ( 'NONE',  #170 ) ;
#930 = ORIENTED_EDGE ( 'NONE', *, *, #890, .T. ) ;
#931 = LINE ( 'NONE', #1242, #1330 ) ;
#932 = CARTESIAN_POINT ( 'NONE',  ( 0.000000000000000000, 0.000000000000000000, -4.750000000000000000 ) ) ;
#933 = ORIENTED_EDGE ( 'NONE', *, *, #977, .F. ) ;
#934 = DIRECTION ( 'NONE',  ( -1.000000000000000000, 0.000000000000000000, 0.000000000000000000 ) ) ;
#935 = LINE ( 'NONE', #826, #56 ) ;
#936 = ORIENTED_EDGE ( 'NONE', *, *, #446, .T. ) ;
#937 = DIRECTION ( 'NONE',  ( -1.000000000000000000, -0.000000000000000000, -0.000000000000000000 ) ) ;
#938 = CARTESIAN_POINT ( 'NONE',  ( -68.99999999999998579, 68.99999999999998579, -6.325000000000004619 ) ) ;
#939 = ORIENTED_EDGE ( 'NONE', *, *, #790, .F. ) ;
#940 = CARTESIAN_POINT ( 'NONE',  ( -41.78007409860589405, 119.0599999999999739, -4.750000000000000000 ) ) ;
#941 = EDGE_CURVE ( 'NONE', #1146, #1273, #1291, .T. ) ;
#942 = EDGE_CURVE ( 'NONE', #1282, #174, #1181, .T. ) ;
#943 = CARTESIAN_POINT ( 'NONE',  ( 68.00000000000001421, 3.000000000000000888, 57.89999999999999858 ) ) ;
#944 = DIRECTION ( 'NONE',  ( -0.9909265926769076360, -0.1344041960867815022, 0.000000000000000000 ) ) ;
#945 = VERTEX_POINT ( 'NONE', #233 ) ;
#946 = CARTESIAN_POINT ( 'NONE',  ( -75.00000000000000000, 51.00000000000000000, 2.275000000000002576 ) ) ;
#947 = DIRECTION ( 'NONE',  ( -0.000000000000000000, -0.000000000000000000, -1.000000000000000000 ) ) ;
#948 = DIRECTION ( 'NONE',  ( -0.000000000000000000, -9.637352644315616444E-16, 1.000000000000000000 ) ) ;
#949 = CARTESIAN_POINT ( 'NONE',  ( 72.89999999999999147, 6.000000000000000000, -57.89999999999999858 ) ) ;
#950 = ORIENTED_EDGE ( 'NONE', *, *, #872, .F. ) ;
#951 = EDGE_CURVE ( 'NONE', #74, #837, #754, .T. ) ;
#952 = ORIENTED_EDGE ( 'NONE', *, *, #569, .T. ) ;
#953 = VECTOR ( 'NONE', #469, 1000.000000000000000 ) ;
#954 = DIRECTION ( 'NONE',  ( 0.000000000000000000, 0.000000000000000000, -1.000000000000000000 ) ) ;
#955 = DIRECTION ( 'NONE',  ( 0.000000000000000000, -0.000000000000000000, -1.000000000000000000 ) ) ;
#956 = ORIENTED_EDGE ( 'NONE', *, *, #617, .T. ) ;
#957 = VECTOR ( 'NONE', #168, 1000.000000000000000 ) ;
#958 = EDGE_CURVE ( 'NONE', #1088, #919, #1187, .T. ) ;
#959 = AXIS2_PLACEMENT_3D ( 'NONE', #159, #899, #1324 ) ;
#960 = CARTESIAN_POINT ( 'NONE',  ( -68.99999999999998579, 68.99999999999998579, 1.174999999999995604 ) ) ;
#961 = VECTOR ( 'NONE', #990, 1000.000000000000000 ) ;
#962 = DIRECTION ( 'NONE',  ( -0.000000000000000000, -0.000000000000000000, -1.000000000000000000 ) ) ;
#963 = ORIENTED_EDGE ( 'NONE', *, *, #788, .T. ) ;
#964 = VECTOR ( 'NONE', #318, 1000.000000000000000 ) ;
#965 = DIRECTION ( 'NONE',  ( -0.000000000000000000, -1.000000000000000000, -0.000000000000000000 ) ) ;
#966 = EDGE_CURVE ( 'NONE', #20, #350, #1315, .T. ) ;
#967 = VECTOR ( 'NONE', #191, 1000.000000000000000 ) ;
#968 = CARTESIAN_POINT ( 'NONE',  ( -75.00000000000000000, 51.00000000000000000, 3.375000000000008882 ) ) ;
#969 = ORIENTED_EDGE ( 'NONE', *, *, #275, .T. ) ;
#970 = DIRECTION ( 'NONE',  ( 1.000000000000000000, 0.000000000000000000, 0.000000000000000000 ) ) ;
#971 = FACE_OUTER_BOUND ( 'NONE', #1195, .T. ) ;
#972 = ORIENTED_EDGE ( 'NONE', *, *, #399, .T. ) ;
#973 = EDGE_LOOP ( 'NONE', ( #1139, #1055, #616, #1358 ) ) ;
#974 = ORIENTED_EDGE ( 'NONE', *, *, #1038, .F. ) ;
#975 = CARTESIAN_POINT ( 'NONE',  ( 68.00000000000001421, 4.999999999999999112, -57.89999999999999858 ) ) ;
#976 = EDGE_CURVE ( 'NONE', #224, #536, #221, .T. ) ;
#977 = EDGE_CURVE ( 'NONE', #795, #1081, #32, .T. ) ;
#978 = DIRECTION ( 'NONE',  ( 0.000000000000000000, 9.637352644315616444E-16, 1.000000000000000000 ) ) ;
#979 = ORIENTED_EDGE ( 'NONE', *, *, #1150, .T. ) ;
#980 = VERTEX_POINT ( 'NONE', #346 ) ;
#981 = EDGE_LOOP ( 'NONE', ( #19, #366, #864, #1005 ) ) ;
#982 = FACE_OUTER_BOUND ( 'NONE', #119, .T. ) ;
#983 = CARTESIAN_POINT ( 'NONE',  ( -40.78007409860575905, 116.7999999999999687, -4.750000000000000000 ) ) ;
#984 = ORIENTED_EDGE ( 'NONE', *, *, #1065, .F. ) ;
#985 = ORIENTED_EDGE ( 'NONE', *, *, #689, .F. ) ;
#986 = ORIENTED_EDGE ( 'NONE', *, *, #99, .F. ) ;
#987 = DIRECTION ( 'NONE',  ( 1.000000000000000000, 0.000000000000000000, 0.000000000000000000 ) ) ;
#988 = DIRECTION ( 'NONE',  ( 0.000000000000000000, 1.000000000000000000, 0.000000000000000000 ) ) ;
#989 =( NAMED_UNIT ( * ) SI_UNIT ( $, .STERADIAN. ) SOLID_ANGLE_UNIT ( ) );
#990 = DIRECTION ( 'NONE',  ( -0.000000000000000000, -1.000000000000000000, -0.000000000000000000 ) ) ;
#991 = VERTEX_POINT ( 'NONE', #7 ) ;
#992 = EDGE_CURVE ( 'NONE', #1383, #214, #772, .T. ) ;
#993 = CARTESIAN_POINT ( 'NONE',  ( -73.00000000000000000, 3.000000000000000000, 58.79999999999999716 ) ) ;
#994 = FACE_OUTER_BOUND ( 'NONE', #127, .T. ) ;
#995 = CARTESIAN_POINT ( 'NONE',  ( -73.00000000000001421, 6.000000000000000000, 57.89999999999999858 ) ) ;
#996 = DIRECTION ( 'NONE',  ( -1.000000000000000000, 0.000000000000000000, 1.156482317317871725E-16 ) ) ;
#997 = VECTOR ( 'NONE', #511, 1000.000000000000114 ) ;
#998 = ORIENTED_EDGE ( 'NONE', *, *, #620, .F. ) ;
#999 = VECTOR ( 'NONE', #875, 1000.000000000000000 ) ;
#1000 = CARTESIAN_POINT ( 'NONE',  ( 72.89999999999999147, 2.000000000000000000, 57.89999999999999858 ) ) ;
#1001 = CARTESIAN_POINT ( 'NONE',  ( 0.000000000000000000, 2.000000000000000000, 0.000000000000000000 ) ) ;
#1002 = CARTESIAN_POINT ( 'NONE',  ( -68.99999999999998579, 68.99999999999998579, -5.224999999999997868 ) ) ;
#1003 = ADVANCED_FACE ( 'NONE', ( #541 ), #779, .T. ) ;
#1004 = LINE ( 'NONE', #1028, #529 ) ;
#1005 = ORIENTED_EDGE ( 'NONE', *, *, #1170, .F. ) ;
#1006 = EDGE_CURVE ( 'NONE', #884, #174, #240, .T. ) ;
#1007 = CYLINDRICAL_SURFACE ( 'NONE', #1290, 1.100000000000006306 ) ;
#1008 = CARTESIAN_POINT ( 'NONE',  ( 68.00000000000001421, 4.999999999999999112, -57.89999999999999858 ) ) ;
#1009 = CARTESIAN_POINT ( 'NONE',  ( -68.99999999999998579, 51.00000000000000000, 2.275000000000001688 ) ) ;
#1010 = LINE ( 'NONE', #498, #1198 ) ;
#1011 = VERTEX_POINT ( 'NONE', #983 ) ;
#1012 = AXIS2_PLACEMENT_3D ( 'NONE', #215, #1275, #1179 ) ;
#1013 = CARTESIAN_POINT ( 'NONE',  ( -68.99999999999998579, 51.00000000000000000, 2.275000000000001688 ) ) ;
#1014 = PLANE ( 'NONE',  #852 ) ;
#1015 = VERTEX_POINT ( 'NONE', #968 ) ;
#1016 = CIRCLE ( 'NONE', #595, 1.100000000000006306 ) ;
#1017 = CARTESIAN_POINT ( 'NONE',  ( -44.00000000000002842, 117.9999999999999716, -4.750000000000000000 ) ) ;
#1018 = DIRECTION ( 'NONE',  ( 1.000000000000000000, 0.000000000000000000, 0.000000000000000000 ) ) ;
#1019 = ORIENTED_EDGE ( 'NONE', *, *, #297, .F. ) ;
#1020 = EDGE_CURVE ( 'NONE', #980, #536, #1068, .T. ) ;
#1021 = AXIS2_PLACEMENT_3D ( 'NONE', #247, #684, #1231 ) ;
#1022 = CARTESIAN_POINT ( 'NONE',  ( 72.89999999999999147, 6.000000000000000000, 57.89999999999999858 ) ) ;
#1023 = DIRECTION ( 'NONE',  ( -1.000000000000000000, -0.000000000000000000, -0.000000000000000000 ) ) ;
#1024 = ADVANCED_FACE ( 'NONE', ( #971 ), #679, .F. ) ;
#1025 = PLANE ( 'NONE',  #1199 ) ;
#1026 = ORIENTED_EDGE ( 'NONE', *, *, #958, .F. ) ;
#1027 = CARTESIAN_POINT ( 'NONE',  ( -68.99999999999998579, 51.00000000000000000, -4.124999999999991118 ) ) ;
#1028 = CARTESIAN_POINT ( 'NONE',  ( -65.79312484273073380, 115.7094502793553943, 4.750000000000000000 ) ) ;
#1029 = AXIS2_PLACEMENT_3D ( 'NONE', #337, #879, #1106 ) ;
#1030 = VECTOR ( 'NONE', #692, 1000.000000000000000 ) ;
#1031 = VERTEX_POINT ( 'NONE', #1079 ) ;
#1032 = CARTESIAN_POINT ( 'NONE',  ( -66.10671023253370038, 118.6930159654602193, 0.000000000000000000 ) ) ;
#1033 = FACE_OUTER_BOUND ( 'NONE', #1121, .T. ) ;
#1034 = VERTEX_POINT ( 'NONE', #10 ) ;
#1035 = LINE ( 'NONE', #1356, #1111 ) ;
#1036 = CARTESIAN_POINT ( 'NONE',  ( -42.88141399463501813, 119.6958588854416803, 4.750000000000000000 ) ) ;
#1037 = ORIENTED_EDGE ( 'NONE', *, *, #317, .T. ) ;
#1038 = EDGE_CURVE ( 'NONE', #14, #1371, #437, .T. ) ;
#1039 = APPLICATION_CONTEXT ( 'automotive_design' ) ;
#1040 = EDGE_CURVE ( 'NONE', #747, #773, #868, .T. ) ;
#1041 = DIRECTION ( 'NONE',  ( -1.000000000000000000, -0.000000000000000000, 1.156482317317871725E-16 ) ) ;
#1042 = FACE_OUTER_BOUND ( 'NONE', #376, .T. ) ;
#1043 = ORIENTED_EDGE ( 'NONE', *, *, #279, .T. ) ;
#1044 = DIRECTION ( 'NONE',  ( -0.000000000000000000, 1.000000000000000000, -0.000000000000000000 ) ) ;
#1045 = PLANE ( 'NONE',  #16 ) ;
#1046 = LINE ( 'NONE', #738, #22 ) ;
#1047 = VECTOR ( 'NONE', #948, 1000.000000000000000 ) ;
#1048 = CARTESIAN_POINT ( 'NONE',  ( 68.00000000000001421, 3.000000000000015099, -57.89999999999999858 ) ) ;
#1049 = CARTESIAN_POINT ( 'NONE',  ( 68.00000000000001421, 5.000000000000000000, -58.79999999999999716 ) ) ;
#1050 = LINE ( 'NONE', #276, #152 ) ;
#1051 = LINE ( 'NONE', #305, #628 ) ;
#1052 = EDGE_CURVE ( 'NONE', #387, #845, #457, .T. ) ;
#1053 = CARTESIAN_POINT ( 'NONE',  ( -40.78007409860575905, 117.9999999999999716, -4.750000000000000000 ) ) ;
#1054 = ORIENTED_EDGE ( 'NONE', *, *, #4, .F. ) ;
#1055 = ORIENTED_EDGE ( 'NONE', *, *, #45, .F. ) ;
#1056 = DIRECTION ( 'NONE',  ( 0.000000000000000000, 0.000000000000000000, 1.000000000000000000 ) ) ;
#1057 = DIRECTION ( 'NONE',  ( -1.000000000000000000, -0.000000000000000000, -0.000000000000000000 ) ) ;
#1058 = AXIS2_PLACEMENT_3D ( 'NONE', #1241, #404, #1267 ) ;
#1059 = ADVANCED_FACE ( 'NONE', ( #357 ), #1209, .F. ) ;
#1060 = DIRECTION ( 'NONE',  ( -1.000000000000000000, 0.000000000000000000, 1.156482317317871725E-16 ) ) ;
#1061 = ORIENTED_EDGE ( 'NONE', *, *, #1364, .T. ) ;
#1062 = CARTESIAN_POINT ( 'NONE',  ( -68.99999999999998579, 51.00000000000000000, -6.325000000000004619 ) ) ;
#1063 = LINE ( 'NONE', #1393, #89 ) ;
#1064 = ORIENTED_EDGE ( 'NONE', *, *, #1184, .T. ) ;
#1065 = EDGE_CURVE ( 'NONE', #135, #1212, #857, .T. ) ;
#1066 = CIRCLE ( 'NONE', #959, 1.100000000000006306 ) ;
#1067 = CARTESIAN_POINT ( 'NONE',  ( -44.00000000000002842, 117.9999999999999716, 4.750000000000000000 ) ) ;
#1068 = CIRCLE ( 'NONE', #532, 1.100000000000006306 ) ;
#1069 = DIRECTION ( 'NONE',  ( -1.000000000000000000, -0.000000000000000000, -0.000000000000000000 ) ) ;
#1070 = ORIENTED_EDGE ( 'NONE', *, *, #117, .T. ) ;
#1071 = DIRECTION ( 'NONE',  ( -0.9945218953682736229, -0.1045284632676509312, 0.000000000000000000 ) ) ;
#1072 = DIRECTION ( 'NONE',  ( 0.000000000000000000, -0.000000000000000000, 1.000000000000000000 ) ) ;
#1073 = EDGE_LOOP ( 'NONE', ( #443, #162 ) ) ;
#1074 = ORIENTED_EDGE ( 'NONE', *, *, #966, .F. ) ;
#1075 = EDGE_CURVE ( 'NONE', #381, #459, #17, .T. ) ;
#1076 = EDGE_CURVE ( 'NONE', #698, #394, #489, .T. ) ;
#1077 = VECTOR ( 'NONE', #420, 1000.000000000000000 ) ;
#1078 = LINE ( 'NONE', #361, #1090 ) ;
#1079 = CARTESIAN_POINT ( 'NONE',  ( -68.99999999999998579, 51.00000000000000000, 3.375000000000007994 ) ) ;
#1080 = ORIENTED_EDGE ( 'NONE', *, *, #587, .T. ) ;
#1081 = VERTEX_POINT ( 'NONE', #478 ) ;
#1082 = VERTEX_POINT ( 'NONE', #719 ) ;
#1083 = CIRCLE ( 'NONE', #481, 1.100000000000006306 ) ;
#1084 = COLOUR_RGB ( '',0.7921568627450980005, 0.8196078431372548767, 0.9333333333333333481 ) ;
#1085 = CYLINDRICAL_SURFACE ( 'NONE', #1142, 1.100000000000006306 ) ;
#1086 = CARTESIAN_POINT ( 'NONE',  ( -42.88141399463501813, 119.6958588854416803, 4.750000000000000000 ) ) ;
#1087 = EDGE_LOOP ( 'NONE', ( #1339, #479, #823, #774 ) ) ;
#1088 = VERTEX_POINT ( 'NONE', #1141 ) ;
#1089 = ORIENTED_EDGE ( 'NONE', *, *, #1065, .T. ) ;
#1090 = VECTOR ( 'NONE', #1099, 1000.000000000000000 ) ;
#1091 = CARTESIAN_POINT ( 'NONE',  ( -75.00000000000000000, 0.000000000000000000, 60.00000000000000000 ) ) ;
#1092 = DIRECTION ( 'NONE',  ( -0.000000000000000000, -0.000000000000000000, -1.000000000000000000 ) ) ;
#1093 = LINE ( 'NONE', #825, #1047 ) ;
#1094 = CARTESIAN_POINT ( 'NONE',  ( 0.000000000000000000, 120.0000000000000000, 0.000000000000000000 ) ) ;
#1095 = CIRCLE ( 'NONE', #496, 3.000000000000002665 ) ;
#1096 = EDGE_CURVE ( 'NONE', #18, #819, #377, .T. ) ;
#1097 = ORIENTED_EDGE ( 'NONE', *, *, #355, .T. ) ;
#1098 = ORIENTED_EDGE ( 'NONE', *, *, #28, .T. ) ;
#1099 = DIRECTION ( 'NONE',  ( -0.000000000000000000, -0.000000000000000000, 1.000000000000000000 ) ) ;
#1100 = DIRECTION ( 'NONE',  ( -0.000000000000000000, -1.000000000000000000, -0.000000000000000000 ) ) ;
#1101 = PLANE ( 'NONE',  #596 ) ;
#1102 = DIRECTION ( 'NONE',  ( -1.000000000000000000, -0.000000000000000000, 1.156482317317871725E-16 ) ) ;
#1103 = EDGE_LOOP ( 'NONE', ( #81, #613, #984, #64 ) ) ;
#1104 = ORIENTED_EDGE ( 'NONE', *, *, #1289, .T. ) ;
#1105 = EDGE_CURVE ( 'NONE', #1015, #854, #1270, .T. ) ;
#1106 = DIRECTION ( 'NONE',  ( 0.000000000000000000, 0.000000000000000000, 1.000000000000000000 ) ) ;
#1107 = CARTESIAN_POINT ( 'NONE',  ( 68.00000000000001421, 0.000000000000000000, 0.000000000000000000 ) ) ;
#1108 = EDGE_CURVE ( 'NONE', #747, #391, #1016, .T. ) ;
#1109 = CARTESIAN_POINT ( 'NONE',  ( -68.99999999999998579, 117.8999999999999915, 57.89999999999999858 ) ) ;
#1110 = DIRECTION ( 'NONE',  ( 0.000000000000000000, -9.637352644315616444E-16, -1.000000000000000000 ) ) ;
#1111 = VECTOR ( 'NONE', #1044, 1000.000000000000000 ) ;
#1112 = ORIENTED_EDGE ( 'NONE', *, *, #435, .T. ) ;
#1113 = VECTOR ( 'NONE', #962, 1000.000000000000000 ) ;
#1114 = CYLINDRICAL_SURFACE ( 'NONE', #416, 1.100000000000006306 ) ;
#1115 = CARTESIAN_POINT ( 'NONE',  ( -68.99999999999998579, 51.00000000000000000, 1.174999999999995604 ) ) ;
#1116 = DIRECTION ( 'NONE',  ( 0.000000000000000000, 0.000000000000000000, 1.000000000000000000 ) ) ;
#1117 = LINE ( 'NONE', #72, #1309 ) ;
#1118 = ORIENTED_EDGE ( 'NONE', *, *, #428, .T. ) ;
#1119 = DIRECTION ( 'NONE',  ( -1.000000000000000000, 0.000000000000000000, 1.156482317317871725E-16 ) ) ;
#1120 = DIRECTION ( 'NONE',  ( 1.000000000000000000, 0.000000000000000000, 0.000000000000000000 ) ) ;
#1121 = EDGE_LOOP ( 'NONE', ( #901, #974, #600, #1234 ) ) ;
#1122 = ADVANCED_FACE ( 'NONE', ( #467 ), #267, .T. ) ;
#1123 = CARTESIAN_POINT ( 'NONE',  ( 72.89999999999999147, 2.000000000000000000, -57.89999999999999858 ) ) ;
#1124 = CARTESIAN_POINT ( 'NONE',  ( -75.00000000000001421, 120.0000000000000000, 60.00000000000000000 ) ) ;
#1125 = ORIENTED_EDGE ( 'NONE', *, *, #582, .F. ) ;
#1126 = AXIS2_PLACEMENT_3D ( 'NONE', #589, #1119, #163 ) ;
#1127 = CARTESIAN_POINT ( 'NONE',  ( -73.00000000000001421, 6.000000000000000000, 57.89999999999999858 ) ) ;
#1128 = CARTESIAN_POINT ( 'NONE',  ( -75.00000000000001421, 2.000000000000000000, -60.00000000000000000 ) ) ;
#1129 = CARTESIAN_POINT ( 'NONE',  ( -73.00000000000000000, 4.999999999999999112, 57.89999999999999858 ) ) ;
#1130 = ORIENTED_EDGE ( 'NONE', *, *, #466, .T. ) ;
#1131 = VECTOR ( 'NONE', #1018, 1000.000000000000000 ) ;
#1132 = DIRECTION ( 'NONE',  ( -0.000000000000000000, -1.000000000000000000, -0.000000000000000000 ) ) ;
#1133 = DIRECTION ( 'NONE',  ( -1.000000000000000000, 0.000000000000000000, 1.156482317317871725E-16 ) ) ;
#1134 = VECTOR ( 'NONE', #383, 1000.000000000000000 ) ;
#1135 = AXIS2_PLACEMENT_3D ( 'NONE', #339, #1286, #23 ) ;
#1136 = CARTESIAN_POINT ( 'NONE',  ( -40.78007409860575905, 117.9999999999999716, -4.750000000000000000 ) ) ;
#1137 = DIRECTION ( 'NONE',  ( -1.000000000000000000, -6.546126324440749294E-15, 0.000000000000000000 ) ) ;
#1138 = DIRECTION ( 'NONE',  ( 0.000000000000000000, 9.637352644315616444E-16, 1.000000000000000000 ) ) ;
#1139 = ORIENTED_EDGE ( 'NONE', *, *, #368, .T. ) ;
#1140 = LINE ( 'NONE', #71, #1223 ) ;
#1141 = CARTESIAN_POINT ( 'NONE',  ( -42.88141399463501813, 119.6958588854416803, 4.750000000000000000 ) ) ;
#1142 = AXIS2_PLACEMENT_3D ( 'NONE', #448, #232, #1298 ) ;
#1143 = ADVANCED_FACE ( 'NONE', ( #1341 ), #929, .F. ) ;
#1144 = ADVANCED_FACE ( 'NONE', ( #801 ), #893, .F. ) ;
#1145 = VECTOR ( 'NONE', #470, 1000.000000000000000 ) ;
#1146 = VERTEX_POINT ( 'NONE', #255 ) ;
#1147 = FACE_BOUND ( 'NONE', #637, .T. ) ;
#1148 = LINE ( 'NONE', #938, #460 ) ;
#1149 = ORIENTED_EDGE ( 'NONE', *, *, #380, .T. ) ;
#1150 = EDGE_CURVE ( 'NONE', #459, #760, #1232, .T. ) ;
#1151 = CARTESIAN_POINT ( 'NONE',  ( 68.00000000000001421, 3.000000000000000888, 57.89999999999999858 ) ) ;
#1152 = DIRECTION ( 'NONE',  ( 0.000000000000000000, 0.000000000000000000, 1.000000000000000000 ) ) ;
#1153 = CARTESIAN_POINT ( 'NONE',  ( 75.00000000000000000, 2.000000000000000000, 60.00000000000000000 ) ) ;
#1154 = ORIENTED_EDGE ( 'NONE', *, *, #1202, .F. ) ;
#1155 = LINE ( 'NONE', #91, #839 ) ;
#1156 = CARTESIAN_POINT ( 'NONE',  ( -65.99999999999998579, 110.3518292541892976, 4.750000000000000000 ) ) ;
#1157 = EDGE_CURVE ( 'NONE', #1351, #381, #810, .T. ) ;
#1158 = FACE_OUTER_BOUND ( 'NONE', #876, .T. ) ;
#1159 = CARTESIAN_POINT ( 'NONE',  ( 68.00000000000001421, 3.000000000000000000, 58.79999999999999716 ) ) ;
#1160 = DIRECTION ( 'NONE',  ( 0.000000000000000000, 0.000000000000000000, 1.000000000000000000 ) ) ;
#1161 = ORIENTED_EDGE ( 'NONE', *, *, #582, .T. ) ;
#1162 = ORIENTED_EDGE ( 'NONE', *, *, #11, .T. ) ;
#1163 = CARTESIAN_POINT ( 'NONE',  ( -68.99999999999998579, 51.00000000000000000, 2.275000000000001688 ) ) ;
#1164 = AXIS2_PLACEMENT_3D ( 'NONE', #535, #746, #203 ) ;
#1165 = CARTESIAN_POINT ( 'NONE',  ( -41.78007409860588695, 117.9999999999999716, 4.750000000000000000 ) ) ;
#1166 = CARTESIAN_POINT ( 'NONE',  ( -69.00000000000002842, 112.9723941183581388, 4.750000000000000000 ) ) ;
#1167 = EDGE_LOOP ( 'NONE', ( #933, #359, #871, #1294 ) ) ;
#1168 = ORIENTED_EDGE ( 'NONE', *, *, #1246, .T. ) ;
#1169 = LINE ( 'NONE', #408, #720 ) ;
#1170 = EDGE_CURVE ( 'NONE', #384, #1011, #593, .T. ) ;
#1171 = DIRECTION ( 'NONE',  ( 0.000000000000000000, 1.000000000000000000, 0.000000000000000000 ) ) ;
#1172 = ADVANCED_FACE ( 'NONE', ( #711 ), #393, .F. ) ;
#1173 = VERTEX_POINT ( 'NONE', #578 ) ;
#1174 = PRODUCT_RELATED_PRODUCT_CATEGORY ( 'part', '', ( #270 ) ) ;
#1175 = LINE ( 'NONE', #652, #427 ) ;
#1176 = PLANE ( 'NONE',  #440 ) ;
#1177 = ORIENTED_EDGE ( 'NONE', *, *, #804, .F. ) ;
#1178 = AXIS2_PLACEMENT_3D ( 'NONE', #1245, #718, #727 ) ;
#1179 = DIRECTION ( 'NONE',  ( -1.156482317317871725E-16, 0.000000000000000000, 1.000000000000000000 ) ) ;
#1180 = VECTOR ( 'NONE', #1299, 1000.000000000000000 ) ;
#1181 = LINE ( 'NONE', #764, #961 ) ;
#1182 = ORIENTED_EDGE ( 'NONE', *, *, #1285, .F. ) ;
#1183 = ORIENTED_EDGE ( 'NONE', *, *, #1226, .F. ) ;
#1184 = EDGE_CURVE ( 'NONE', #174, #531, #603, .T. ) ;
#1185 = EDGE_CURVE ( 'NONE', #204, #1319, #1004, .T. ) ;
#1186 = PLANE ( 'NONE',  #491 ) ;
#1187 = LINE ( 'NONE', #1086, #1316 ) ;
#1188 = ORIENTED_EDGE ( 'NONE', *, *, #428, .F. ) ;
#1189 = ORIENTED_EDGE ( 'NONE', *, *, #1364, .F. ) ;
#1190 = EDGE_LOOP ( 'NONE', ( #1061, #26, #121, #12 ) ) ;
#1191 = VECTOR ( 'NONE', #422, 1000.000000000000000 ) ;
#1192 = DIRECTION ( 'NONE',  ( 0.8660254037844321573, -0.5000000000000111022, 0.000000000000000000 ) ) ;
#1193 = EDGE_CURVE ( 'NONE', #387, #490, #1117, .T. ) ;
#1194 = DIRECTION ( 'NONE',  ( -0.000000000000000000, -0.000000000000000000, 1.000000000000000000 ) ) ;
#1195 = EDGE_LOOP ( 'NONE', ( #439, #1238, #1288, #90, #705, #543 ) ) ;
#1196 = ORIENTED_EDGE ( 'NONE', *, *, #1185, .F. ) ;
#1197 = VERTEX_POINT ( 'NONE', #1222 ) ;
#1198 = VECTOR ( 'NONE', #262, 1000.000000000000000 ) ;
#1199 = AXIS2_PLACEMENT_3D ( 'NONE', #183, #300, #494 ) ;
#1200 = CARTESIAN_POINT ( 'NONE',  ( -68.99999999999998579, 117.8999999999999915, -4.749999999999969802 ) ) ;
#1201 = CARTESIAN_POINT ( 'NONE',  ( 68.00000000000001421, 3.000000000000000000, 58.79999999999999716 ) ) ;
#1202 = EDGE_CURVE ( 'NONE', #229, #451, #1010, .T. ) ;
#1203 = CARTESIAN_POINT ( 'NONE',  ( 75.00000000000001421, 2.000000000000000000, -60.00000000000000000 ) ) ;
#1204 = ORIENTED_EDGE ( 'NONE', *, *, #1227, .F. ) ;
#1205 = ORIENTED_EDGE ( 'NONE', *, *, #583, .F. ) ;
#1206 = VECTOR ( 'NONE', #965, 1000.000000000000000 ) ;
#1207 = DIRECTION ( 'NONE',  ( 0.000000000000000000, 0.000000000000000000, -1.000000000000000000 ) ) ;
#1208 = LINE ( 'NONE', #1215, #362 ) ;
#1209 = CYLINDRICAL_SURFACE ( 'NONE', #844, 1.100000000000006306 ) ;
#1210 = VECTOR ( 'NONE', #1304, 1000.000000000000000 ) ;
#1211 = ORIENTED_EDGE ( 'NONE', *, *, #958, .T. ) ;
#1212 = VERTEX_POINT ( 'NONE', #694 ) ;
#1213 = EDGE_CURVE ( 'NONE', #490, #293, #161, .T. ) ;
#1214 = PLANE ( 'NONE',  #1029 ) ;
#1215 = CARTESIAN_POINT ( 'NONE',  ( -66.40321258826033102, 113.3246090322200104, -4.750000000000000000 ) ) ;
#1216 = FACE_OUTER_BOUND ( 'NONE', #1301, .T. ) ;
#1217 = CARTESIAN_POINT ( 'NONE',  ( 0.000000000000000000, 0.000000000000000000, 4.750000000000000000 ) ) ;
#1218 = ORIENTED_EDGE ( 'NONE', *, *, #45, .T. ) ;
#1219 = FACE_BOUND ( 'NONE', #98, .T. ) ;
#1220 = DIRECTION ( 'NONE',  ( 0.000000000000000000, 0.000000000000000000, -1.000000000000000000 ) ) ;
#1221 = DIRECTION ( 'NONE',  ( -1.000000000000000000, 0.000000000000000000, -0.000000000000000000 ) ) ;
#1222 = CARTESIAN_POINT ( 'NONE',  ( -68.99999999999998579, 51.00000000000000000, 1.174999999999995604 ) ) ;
#1223 = VECTOR ( 'NONE', #497, 1000.000000000000000 ) ;
#1224 = ORIENTED_EDGE ( 'NONE', *, *, #942, .F. ) ;
#1225 = VECTOR ( 'NONE', #742, 1000.000000000000000 ) ;
#1226 = EDGE_CURVE ( 'NONE', #698, #195, #1083, .T. ) ;
#1227 = EDGE_CURVE ( 'NONE', #1361, #1034, #505, .T. ) ;
#1228 = DIRECTION ( 'NONE',  ( 0.000000000000000000, 0.000000000000000000, 1.000000000000000000 ) ) ;
#1229 = CARTESIAN_POINT ( 'NONE',  ( 68.00000000000001421, 4.999999999999999112, 57.89999999999999858 ) ) ;
#1230 = ORIENTED_EDGE ( 'NONE', *, *, #889, .T. ) ;
#1231 = DIRECTION ( 'NONE',  ( 0.9945218953682736229, 0.1045284632676509312, 0.000000000000000000 ) ) ;
#1232 = LINE ( 'NONE', #1124, #737 ) ;
#1233 = PRODUCT_DEFINITION ( 'UNKNOWN', '', #913, #546 ) ;
#1234 = ORIENTED_EDGE ( 'NONE', *, *, #1170, .T. ) ;
#1235 = CARTESIAN_POINT ( 'NONE',  ( 75.00000000000001421, 2.000000000000000000, -60.00000000000000000 ) ) ;
#1236 = FACE_OUTER_BOUND ( 'NONE', #379, .T. ) ;
#1237 = FILL_AREA_STYLE ('',( #291 ) ) ;
#1238 = ORIENTED_EDGE ( 'NONE', *, *, #1335, .F. ) ;
#1239 = DIRECTION ( 'NONE',  ( -0.000000000000000000, -1.000000000000000000, -0.000000000000000000 ) ) ;
#1240 = CARTESIAN_POINT ( 'NONE',  ( -75.00000000000001421, 120.0000000000000000, -60.00000000000000000 ) ) ;
#1241 = CARTESIAN_POINT ( 'NONE',  ( -75.00000000000000000, 51.00000000000000000, -5.224999999999996980 ) ) ;
#1242 = CARTESIAN_POINT ( 'NONE',  ( -73.00000000000001421, 6.000000000000000000, -57.89999999999999858 ) ) ;
#1243 = CARTESIAN_POINT ( 'NONE',  ( -73.00000000000000000, 3.000000000000014211, -58.79999999999999716 ) ) ;
#1244 = ORIENTED_EDGE ( 'NONE', *, *, #557, .F. ) ;
#1245 = CARTESIAN_POINT ( 'NONE',  ( 68.00000000000001421, 3.000000000000014211, -58.79999999999999716 ) ) ;
#1246 = EDGE_CURVE ( 'NONE', #945, #268, #935, .T. ) ;
#1247 = DIRECTION ( 'NONE',  ( -1.000000000000000000, -0.000000000000000000, -0.000000000000000000 ) ) ;
#1248 = AXIS2_PLACEMENT_3D ( 'NONE', #734, #602, #1254 ) ;
#1249 = VECTOR ( 'NONE', #776, 1000.000000000000000 ) ;
#1250 = VERTEX_POINT ( 'NONE', #949 ) ;
#1251 = DIRECTION ( 'NONE',  ( 0.000000000000000000, 9.637352644315616444E-16, -1.000000000000000000 ) ) ;
#1252 = CARTESIAN_POINT ( 'NONE',  ( 72.89999999999999147, 2.000000000000000000, 57.89999999999999858 ) ) ;
#1253 = ORIENTED_EDGE ( 'NONE', *, *, #480, .T. ) ;
#1254 = DIRECTION ( 'NONE',  ( 0.000000000000000000, 0.000000000000000000, 1.000000000000000000 ) ) ;
#1255 = DIRECTION ( 'NONE',  ( -1.000000000000000000, 0.000000000000000000, 1.156482317317871725E-16 ) ) ;
#1256 = EDGE_CURVE ( 'NONE', #1361, #20, #1051, .T. ) ;
#1257 = CARTESIAN_POINT ( 'NONE',  ( -68.99999999999998579, 68.99999999999998579, -5.224999999999997868 ) ) ;
#1258 = FACE_OUTER_BOUND ( 'NONE', #591, .T. ) ;
#1259 = DIRECTION ( 'NONE',  ( 0.9909265926769076360, 0.1344041960867815022, 0.000000000000000000 ) ) ;
#1260 = ORIENTED_EDGE ( 'NONE', *, *, #213, .F. ) ;
#1261 = CARTESIAN_POINT ( 'NONE',  ( -41.78007409860589405, 119.0599999999999739, 4.750000000000000000 ) ) ;
#1262 = CARTESIAN_POINT ( 'NONE',  ( 72.89999999999999147, 6.000000000000000000, -57.89999999999999858 ) ) ;
#1263 = DIRECTION ( 'NONE',  ( -1.000000000000000000, 0.000000000000000000, 1.156482317317871725E-16 ) ) ;
#1264 = CARTESIAN_POINT ( 'NONE',  ( -73.00000000000000000, 120.0000000000000000, -60.00000000000000000 ) ) ;
#1265 = CIRCLE ( 'NONE', #474, 1.100000000000006306 ) ;
#1266 = VERTEX_POINT ( 'NONE', #619 ) ;
#1267 = DIRECTION ( 'NONE',  ( 0.000000000000000000, 0.000000000000000000, 1.000000000000000000 ) ) ;
#1268 = CARTESIAN_POINT ( 'NONE',  ( -68.99999999999998579, 68.99999999999998579, -5.224999999999997868 ) ) ;
#1269 = CARTESIAN_POINT ( 'NONE',  ( -66.10671023253370038, 118.6930159654602193, 4.750000000000000000 ) ) ;
#1270 = CIRCLE ( 'NONE', #125, 1.100000000000006306 ) ;
#1271 = STYLED_ITEM ( 'NONE', ( #592 ), #280 ) ;
#1272 = ORIENTED_EDGE ( 'NONE', *, *, #301, .T. ) ;
#1273 = VERTEX_POINT ( 'NONE', #96 ) ;
#1274 = EDGE_CURVE ( 'NONE', #391, #747, #329, .T. ) ;
#1275 = DIRECTION ( 'NONE',  ( -1.000000000000000000, 0.000000000000000000, -1.156482317317871725E-16 ) ) ;
#1276 = ADVANCED_FACE ( 'NONE', ( #295 ), #1045, .F. ) ;
#1277 =( LENGTH_UNIT ( ) NAMED_UNIT ( * ) SI_UNIT ( .MILLI., .METRE. ) );
#1278 = VECTOR ( 'NONE', #15, 1000.000000000000000 ) ;
#1279 = EDGE_LOOP ( 'NONE', ( #314, #985, #487, #34 ) ) ;
#1280 = CIRCLE ( 'NONE', #610, 1.100000000000006306 ) ;
#1281 = CARTESIAN_POINT ( 'NONE',  ( -68.99999999999998579, 6.000000000000000000, 57.89999999999999858 ) ) ;
#1282 = VERTEX_POINT ( 'NONE', #1374 ) ;
#1283 = LINE ( 'NONE', #640, #319 ) ;
#1284 = ADVANCED_FACE ( 'NONE', ( #1363 ), #410, .F. ) ;
#1285 = EDGE_CURVE ( 'NONE', #1034, #350, #1380, .T. ) ;
#1286 = DIRECTION ( 'NONE',  ( 0.000000000000000000, -1.000000000000000000, 0.000000000000000000 ) ) ;
#1287 = ORIENTED_EDGE ( 'NONE', *, *, #1285, .T. ) ;
#1288 = ORIENTED_EDGE ( 'NONE', *, *, #835, .F. ) ;
#1289 = EDGE_CURVE ( 'NONE', #1088, #1383, #187, .T. ) ;
#1290 = AXIS2_PLACEMENT_3D ( 'NONE', #1013, #897, #1228 ) ;
#1291 = LINE ( 'NONE', #130, #179 ) ;
#1292 = AXIS2_PLACEMENT_3D ( 'NONE', #411, #1060, #621 ) ;
#1293 = DIRECTION ( 'NONE',  ( -1.000000000000000000, -0.000000000000000000, 1.156482317317871725E-16 ) ) ;
#1294 = ORIENTED_EDGE ( 'NONE', *, *, #545, .T. ) ;
#1295 = ORIENTED_EDGE ( 'NONE', *, *, #941, .T. ) ;
#1296 = ORIENTED_EDGE ( 'NONE', *, *, #28, .F. ) ;
#1297 = ADVANCED_FACE ( 'NONE', ( #847 ), #514, .F. ) ;
#1298 = DIRECTION ( 'NONE',  ( 0.000000000000000000, 0.000000000000000000, 1.000000000000000000 ) ) ;
#1299 = DIRECTION ( 'NONE',  ( -0.000000000000000000, -0.000000000000000000, -1.000000000000000000 ) ) ;
#1300 = ORIENTED_EDGE ( 'NONE', *, *, #710, .T. ) ;
#1301 = EDGE_LOOP ( 'NONE', ( #1384, #695, #407, #650, #1064, #1296, #169, #722, #8, #713 ) ) ;
#1302 = VECTOR ( 'NONE', #516, 1000.000000000000000 ) ;
#1303 = DIRECTION ( 'NONE',  ( 0.000000000000000000, 0.000000000000000000, 1.000000000000000000 ) ) ;
#1304 = DIRECTION ( 'NONE',  ( 0.000000000000000000, -1.000000000000000000, 0.000000000000000000 ) ) ;
#1305 = DIRECTION ( 'NONE',  ( -1.000000000000000000, -1.387778780781444413E-14, 0.000000000000000000 ) ) ;
#1306 = EDGE_LOOP ( 'NONE', ( #639, #730, #263, #348 ) ) ;
#1307 = VERTEX_POINT ( 'NONE', #750 ) ;
#1308 = EDGE_LOOP ( 'NONE', ( #136, #915, #542, #869, #445, #25 ) ) ;
#1309 = VECTOR ( 'NONE', #1247, 1000.000000000000000 ) ;
#1310 = AXIS2_PLACEMENT_3D ( 'NONE', #1032, #580, #797 ) ;
#1311 = DIRECTION ( 'NONE',  ( 1.387778780781444413E-14, -1.000000000000000000, 0.000000000000000000 ) ) ;
#1312 = DIRECTION ( 'NONE',  ( 0.000000000000000000, 0.000000000000000000, -1.000000000000000000 ) ) ;
#1313 = LINE ( 'NONE', #477, #820 ) ;
#1314 = EDGE_CURVE ( 'NONE', #214, #506, #97, .T. ) ;
#1315 = LINE ( 'NONE', #1203, #644 ) ;
#1316 = VECTOR ( 'NONE', #248, 1000.000000000000000 ) ;
#1317 = ORIENTED_EDGE ( 'NONE', *, *, #1381, .F. ) ;
#1318 = ORIENTED_EDGE ( 'NONE', *, *, #796, .T. ) ;
#1319 = VERTEX_POINT ( 'NONE', #1375 ) ;
#1320 = UNCERTAINTY_MEASURE_WITH_UNIT (LENGTH_MEASURE( 1.000000000000000082E-05 ), #1277, 'distance_accuracy_value', 'NONE');
#1321 = VECTOR ( 'NONE', #220, 1000.000000000000000 ) ;
#1322 = FACE_BOUND ( 'NONE', #499, .T. ) ;
#1323 = CARTESIAN_POINT ( 'NONE',  ( -41.78007409860589405, 119.0599999999999739, 4.750000000000000000 ) ) ;
#1324 = DIRECTION ( 'NONE',  ( 0.000000000000000000, 0.000000000000000000, 1.000000000000000000 ) ) ;
#1325 = DIRECTION ( 'NONE',  ( -0.000000000000000000, -1.000000000000000000, -0.000000000000000000 ) ) ;
#1326 = VECTOR ( 'NONE', #1259, 1000.000000000000000 ) ;
#1327 = ORIENTED_EDGE ( 'NONE', *, *, #841, .F. ) ;
#1328 = DIRECTION ( 'NONE',  ( -1.000000000000000000, -0.000000000000000000, 1.156482317317871725E-16 ) ) ;
#1329 = DIRECTION ( 'NONE',  ( -1.000000000000000000, 0.000000000000000000, 1.156482317317871725E-16 ) ) ;
#1330 = VECTOR ( 'NONE', #290, 1000.000000000000000 ) ;
#1331 = FACE_OUTER_BOUND ( 'NONE', #1087, .T. ) ;
#1332 = DIRECTION ( 'NONE',  ( 0.000000000000000000, 0.000000000000000000, 1.000000000000000000 ) ) ;
#1333 = EDGE_CURVE ( 'NONE', #773, #656, #131, .T. ) ;
#1334 = ORIENTED_EDGE ( 'NONE', *, *, #94, .T. ) ;
#1335 = EDGE_CURVE ( 'NONE', #332, #606, #834, .T. ) ;
#1336 = VECTOR ( 'NONE', #365, 1000.000000000000000 ) ;
#1337 = DIRECTION ( 'NONE',  ( 0.000000000000000000, -1.000000000000000000, -9.637352644315616444E-16 ) ) ;
#1338 = LINE ( 'NONE', #375, #138 ) ;
#1339 = ORIENTED_EDGE ( 'NONE', *, *, #209, .F. ) ;
#1340 = CARTESIAN_POINT ( 'NONE',  ( 75.00000000000001421, 0.000000000000000000, -60.00000000000000000 ) ) ;
#1341 = FACE_OUTER_BOUND ( 'NONE', #1308, .T. ) ;
#1342 = ORIENTED_EDGE ( 'NONE', *, *, #257, .F. ) ;
#1343 = VECTOR ( 'NONE', #1069, 1000.000000000000000 ) ;
#1344 = ORIENTED_EDGE ( 'NONE', *, *, #1020, .F. ) ;
#1345 = FACE_BOUND ( 'NONE', #789, .T. ) ;
#1346 = CARTESIAN_POINT ( 'NONE',  ( 68.00000000000000000, 3.000000000000000000, 57.89999999999999858 ) ) ;
#1347 = EDGE_LOOP ( 'NONE', ( #241, #24, #838, #544, #341, #373, #1161, #594 ) ) ;
#1348 =( NAMED_UNIT ( * ) PLANE_ANGLE_UNIT ( ) SI_UNIT ( $, .RADIAN. ) );
#1349 = DIRECTION ( 'NONE',  ( 1.000000000000000000, 0.000000000000000000, -0.000000000000000000 ) ) ;
#1350 = EDGE_LOOP ( 'NONE', ( #128, #266, #515, #100, #327, #972, #324, #1168, #189, #1211, #1112 ) ) ;
#1351 = VERTEX_POINT ( 'NONE', #1264 ) ;
#1352 = ADVANCED_FACE ( 'NONE', ( #103 ), #1176, .F. ) ;
#1353 = CARTESIAN_POINT ( 'NONE',  ( -73.00000000000000000, 2.000000000000000000, -60.00000000000000000 ) ) ;
#1354 = LINE ( 'NONE', #814, #1134 ) ;
#1355 = ORIENTED_EDGE ( 'NONE', *, *, #446, .F. ) ;
#1356 = CARTESIAN_POINT ( 'NONE',  ( -40.78007409860575905, 117.9999999999999716, 4.750000000000000000 ) ) ;
#1357 = DIRECTION ( 'NONE',  ( 0.000000000000000000, 0.000000000000000000, 1.000000000000000000 ) ) ;
#1358 = ORIENTED_EDGE ( 'NONE', *, *, #689, .T. ) ;
#1359 = LINE ( 'NONE', #395, #953 ) ;
#1360 = CARTESIAN_POINT ( 'NONE',  ( 68.00000000000001421, 3.000000000000000888, 57.89999999999999858 ) ) ;
#1361 = VERTEX_POINT ( 'NONE', #1153 ) ;
#1362 = DIRECTION ( 'NONE',  ( -0.000000000000000000, 9.637352644315616444E-16, -1.000000000000000000 ) ) ;
#1363 = FACE_OUTER_BOUND ( 'NONE', #142, .T. ) ;
#1364 = EDGE_CURVE ( 'NONE', #1371, #767, #1063, .T. ) ;
#1365 = DIRECTION ( 'NONE',  ( 0.000000000000000000, -0.000000000000000000, 1.000000000000000000 ) ) ;
#1366 = AXIS2_PLACEMENT_3D ( 'NONE', #927, #934, #294 ) ;
#1367 = VECTOR ( 'NONE', #1293, 1000.000000000000000 ) ;
#1368 = EDGE_LOOP ( 'NONE', ( #143, #986, #1026, #1104 ) ) ;
#1369 = CARTESIAN_POINT ( 'NONE',  ( 68.00000000000001421, 3.000000000000014211, -58.79999999999999716 ) ) ;
#1370 = DIRECTION ( 'NONE',  ( 0.000000000000000000, 0.000000000000000000, -1.000000000000000000 ) ) ;
#1371 = VERTEX_POINT ( 'NONE', #1053 ) ;
#1372 = DIRECTION ( 'NONE',  ( -0.000000000000000000, -0.000000000000000000, -1.000000000000000000 ) ) ;
#1373 = DIRECTION ( 'NONE',  ( -0.8660254037844321573, 0.5000000000000111022, 0.000000000000000000 ) ) ;
#1374 = CARTESIAN_POINT ( 'NONE',  ( -73.00000000000000000, 3.000000000000000888, 57.89999999999999858 ) ) ;
#1375 = CARTESIAN_POINT ( 'NONE',  ( -65.79312484273073380, 115.7094502793553943, 4.750000000000000000 ) ) ;
#1376 = ORIENTED_EDGE ( 'NONE', *, *, #951, .T. ) ;
#1377 = DIRECTION ( 'NONE',  ( -1.000000000000000000, 0.000000000000000000, 1.156482317317871725E-16 ) ) ;
#1378 = CARTESIAN_POINT ( 'NONE',  ( -43.88141399463501813, 119.6958588854416661, 4.750000000000000000 ) ) ;
#1379 = FACE_OUTER_BOUND ( 'NONE', #586, .T. ) ;
#1380 = LINE ( 'NONE', #417, #155 ) ;
#1381 = EDGE_CURVE ( 'NONE', #1081, #387, #112, .T. ) ;
#1382 = VECTOR ( 'NONE', #414, 1000.000000000000000 ) ;
#1383 = VERTEX_POINT ( 'NONE', #729 ) ;
#1384 = ORIENTED_EDGE ( 'NONE', *, *, #65, .F. ) ;
#1385 = DIRECTION ( 'NONE',  ( 1.000000000000000000, 0.000000000000000000, 0.000000000000000000 ) ) ;
#1386 = CARTESIAN_POINT ( 'NONE',  ( -75.00000000000000000, 51.00000000000000000, -6.325000000000003730 ) ) ;
#1387 = VECTOR ( 'NONE', #1325, 1000.000000000000000 ) ;
#1388 = SHAPE_DEFINITION_REPRESENTATION ( #315, #129 ) ;
#1389 = VECTOR ( 'NONE', #1370, 1000.000000000000000 ) ;
#1390 = ORIENTED_EDGE ( 'NONE', *, *, #1105, .T. ) ;
#1391 = AXIS2_PLACEMENT_3D ( 'NONE', #352, #434, #244 ) ;
#1392 = CARTESIAN_POINT ( 'NONE',  ( -75.00000000000001421, 2.000000000000000000, -60.00000000000000000 ) ) ;
#1393 = CARTESIAN_POINT ( 'NONE',  ( -41.78007409860588695, 117.9999999999999716, -4.750000000000000000 ) ) ;
ENDSEC;
END-ISO-10303-21;
