%TF.GenerationSoftware,KiCad,Pcbnew,9.0.4-1.fc42*%
%TF.CreationDate,2025-09-30T12:13:41+03:00*%
%TF.ProjectId,base,62617365-2e6b-4696-9361-645f70636258,rev?*%
%TF.SameCoordinates,Original*%
%TF.FileFunction,Legend,Bot*%
%TF.FilePolarity,Positive*%
%FSLAX46Y46*%
G04 Gerber Fmt 4.6, Leading zero omitted, Abs format (unit mm)*
G04 Created by KiCad (PCBNEW 9.0.4-1.fc42) date 2025-09-30 12:13:41*
%MOMM*%
%LPD*%
G01*
G04 APERTURE LIST*
%ADD10C,0.100000*%
%ADD11C,0.080000*%
G04 APERTURE END LIST*
D10*
X132219890Y-138355074D02*
X132181795Y-138278884D01*
X132181795Y-138278884D02*
X132181795Y-138164598D01*
X132181795Y-138164598D02*
X132219890Y-138050312D01*
X132219890Y-138050312D02*
X132296080Y-137974122D01*
X132296080Y-137974122D02*
X132372271Y-137936027D01*
X132372271Y-137936027D02*
X132524652Y-137897931D01*
X132524652Y-137897931D02*
X132638938Y-137897931D01*
X132638938Y-137897931D02*
X132791319Y-137936027D01*
X132791319Y-137936027D02*
X132867509Y-137974122D01*
X132867509Y-137974122D02*
X132943700Y-138050312D01*
X132943700Y-138050312D02*
X132981795Y-138164598D01*
X132981795Y-138164598D02*
X132981795Y-138240789D01*
X132981795Y-138240789D02*
X132943700Y-138355074D01*
X132943700Y-138355074D02*
X132905604Y-138393170D01*
X132905604Y-138393170D02*
X132638938Y-138393170D01*
X132638938Y-138393170D02*
X132638938Y-138240789D01*
X132981795Y-138736027D02*
X132181795Y-138736027D01*
X132181795Y-138736027D02*
X132981795Y-139193170D01*
X132981795Y-139193170D02*
X132181795Y-139193170D01*
X132981795Y-139574122D02*
X132181795Y-139574122D01*
X132181795Y-139574122D02*
X132181795Y-139764598D01*
X132181795Y-139764598D02*
X132219890Y-139878884D01*
X132219890Y-139878884D02*
X132296080Y-139955074D01*
X132296080Y-139955074D02*
X132372271Y-139993169D01*
X132372271Y-139993169D02*
X132524652Y-140031265D01*
X132524652Y-140031265D02*
X132638938Y-140031265D01*
X132638938Y-140031265D02*
X132791319Y-139993169D01*
X132791319Y-139993169D02*
X132867509Y-139955074D01*
X132867509Y-139955074D02*
X132943700Y-139878884D01*
X132943700Y-139878884D02*
X132981795Y-139764598D01*
X132981795Y-139764598D02*
X132981795Y-139574122D01*
X132169890Y-57605074D02*
X132131795Y-57528884D01*
X132131795Y-57528884D02*
X132131795Y-57414598D01*
X132131795Y-57414598D02*
X132169890Y-57300312D01*
X132169890Y-57300312D02*
X132246080Y-57224122D01*
X132246080Y-57224122D02*
X132322271Y-57186027D01*
X132322271Y-57186027D02*
X132474652Y-57147931D01*
X132474652Y-57147931D02*
X132588938Y-57147931D01*
X132588938Y-57147931D02*
X132741319Y-57186027D01*
X132741319Y-57186027D02*
X132817509Y-57224122D01*
X132817509Y-57224122D02*
X132893700Y-57300312D01*
X132893700Y-57300312D02*
X132931795Y-57414598D01*
X132931795Y-57414598D02*
X132931795Y-57490789D01*
X132931795Y-57490789D02*
X132893700Y-57605074D01*
X132893700Y-57605074D02*
X132855604Y-57643170D01*
X132855604Y-57643170D02*
X132588938Y-57643170D01*
X132588938Y-57643170D02*
X132588938Y-57490789D01*
X132931795Y-57986027D02*
X132131795Y-57986027D01*
X132131795Y-57986027D02*
X132931795Y-58443170D01*
X132931795Y-58443170D02*
X132131795Y-58443170D01*
X132931795Y-58824122D02*
X132131795Y-58824122D01*
X132131795Y-58824122D02*
X132131795Y-59014598D01*
X132131795Y-59014598D02*
X132169890Y-59128884D01*
X132169890Y-59128884D02*
X132246080Y-59205074D01*
X132246080Y-59205074D02*
X132322271Y-59243169D01*
X132322271Y-59243169D02*
X132474652Y-59281265D01*
X132474652Y-59281265D02*
X132588938Y-59281265D01*
X132588938Y-59281265D02*
X132741319Y-59243169D01*
X132741319Y-59243169D02*
X132817509Y-59205074D01*
X132817509Y-59205074D02*
X132893700Y-59128884D01*
X132893700Y-59128884D02*
X132931795Y-59014598D01*
X132931795Y-59014598D02*
X132931795Y-58824122D01*
X122031795Y-64110074D02*
X121231795Y-64110074D01*
X121231795Y-64110074D02*
X121231795Y-64414836D01*
X121231795Y-64414836D02*
X121269890Y-64491026D01*
X121269890Y-64491026D02*
X121307985Y-64529121D01*
X121307985Y-64529121D02*
X121384176Y-64567217D01*
X121384176Y-64567217D02*
X121498461Y-64567217D01*
X121498461Y-64567217D02*
X121574652Y-64529121D01*
X121574652Y-64529121D02*
X121612747Y-64491026D01*
X121612747Y-64491026D02*
X121650842Y-64414836D01*
X121650842Y-64414836D02*
X121650842Y-64110074D01*
X121231795Y-64833883D02*
X122031795Y-65024359D01*
X122031795Y-65024359D02*
X121460366Y-65176740D01*
X121460366Y-65176740D02*
X122031795Y-65329121D01*
X122031795Y-65329121D02*
X121231795Y-65519598D01*
X122031795Y-66281503D02*
X121650842Y-66014836D01*
X122031795Y-65824360D02*
X121231795Y-65824360D01*
X121231795Y-65824360D02*
X121231795Y-66129122D01*
X121231795Y-66129122D02*
X121269890Y-66205312D01*
X121269890Y-66205312D02*
X121307985Y-66243407D01*
X121307985Y-66243407D02*
X121384176Y-66281503D01*
X121384176Y-66281503D02*
X121498461Y-66281503D01*
X121498461Y-66281503D02*
X121574652Y-66243407D01*
X121574652Y-66243407D02*
X121612747Y-66205312D01*
X121612747Y-66205312D02*
X121650842Y-66129122D01*
X121650842Y-66129122D02*
X121650842Y-65824360D01*
X151831795Y-137859836D02*
X151031795Y-137859836D01*
X151031795Y-137859836D02*
X151031795Y-138164598D01*
X151031795Y-138164598D02*
X151069890Y-138240788D01*
X151069890Y-138240788D02*
X151107985Y-138278883D01*
X151107985Y-138278883D02*
X151184176Y-138316979D01*
X151184176Y-138316979D02*
X151298461Y-138316979D01*
X151298461Y-138316979D02*
X151374652Y-138278883D01*
X151374652Y-138278883D02*
X151412747Y-138240788D01*
X151412747Y-138240788D02*
X151450842Y-138164598D01*
X151450842Y-138164598D02*
X151450842Y-137859836D01*
X151031795Y-138583645D02*
X151831795Y-138774121D01*
X151831795Y-138774121D02*
X151260366Y-138926502D01*
X151260366Y-138926502D02*
X151831795Y-139078883D01*
X151831795Y-139078883D02*
X151031795Y-139269360D01*
X151831795Y-140031265D02*
X151450842Y-139764598D01*
X151831795Y-139574122D02*
X151031795Y-139574122D01*
X151031795Y-139574122D02*
X151031795Y-139878884D01*
X151031795Y-139878884D02*
X151069890Y-139955074D01*
X151069890Y-139955074D02*
X151107985Y-139993169D01*
X151107985Y-139993169D02*
X151184176Y-140031265D01*
X151184176Y-140031265D02*
X151298461Y-140031265D01*
X151298461Y-140031265D02*
X151374652Y-139993169D01*
X151374652Y-139993169D02*
X151412747Y-139955074D01*
X151412747Y-139955074D02*
X151450842Y-139878884D01*
X151450842Y-139878884D02*
X151450842Y-139574122D01*
X160718700Y-57643169D02*
X160756795Y-57757455D01*
X160756795Y-57757455D02*
X160756795Y-57947931D01*
X160756795Y-57947931D02*
X160718700Y-58024122D01*
X160718700Y-58024122D02*
X160680604Y-58062217D01*
X160680604Y-58062217D02*
X160604414Y-58100312D01*
X160604414Y-58100312D02*
X160528223Y-58100312D01*
X160528223Y-58100312D02*
X160452033Y-58062217D01*
X160452033Y-58062217D02*
X160413938Y-58024122D01*
X160413938Y-58024122D02*
X160375842Y-57947931D01*
X160375842Y-57947931D02*
X160337747Y-57795550D01*
X160337747Y-57795550D02*
X160299652Y-57719360D01*
X160299652Y-57719360D02*
X160261557Y-57681265D01*
X160261557Y-57681265D02*
X160185366Y-57643169D01*
X160185366Y-57643169D02*
X160109176Y-57643169D01*
X160109176Y-57643169D02*
X160032985Y-57681265D01*
X160032985Y-57681265D02*
X159994890Y-57719360D01*
X159994890Y-57719360D02*
X159956795Y-57795550D01*
X159956795Y-57795550D02*
X159956795Y-57986027D01*
X159956795Y-57986027D02*
X159994890Y-58100312D01*
X160756795Y-58443170D02*
X159956795Y-58443170D01*
X159994890Y-59243169D02*
X159956795Y-59166979D01*
X159956795Y-59166979D02*
X159956795Y-59052693D01*
X159956795Y-59052693D02*
X159994890Y-58938407D01*
X159994890Y-58938407D02*
X160071080Y-58862217D01*
X160071080Y-58862217D02*
X160147271Y-58824122D01*
X160147271Y-58824122D02*
X160299652Y-58786026D01*
X160299652Y-58786026D02*
X160413938Y-58786026D01*
X160413938Y-58786026D02*
X160566319Y-58824122D01*
X160566319Y-58824122D02*
X160642509Y-58862217D01*
X160642509Y-58862217D02*
X160718700Y-58938407D01*
X160718700Y-58938407D02*
X160756795Y-59052693D01*
X160756795Y-59052693D02*
X160756795Y-59128884D01*
X160756795Y-59128884D02*
X160718700Y-59243169D01*
X160718700Y-59243169D02*
X160680604Y-59281265D01*
X160680604Y-59281265D02*
X160413938Y-59281265D01*
X160413938Y-59281265D02*
X160413938Y-59128884D01*
X167641353Y-98506895D02*
X167488972Y-98506895D01*
X167488972Y-98506895D02*
X167412782Y-98544990D01*
X167412782Y-98544990D02*
X167336591Y-98621180D01*
X167336591Y-98621180D02*
X167298496Y-98773561D01*
X167298496Y-98773561D02*
X167298496Y-99040228D01*
X167298496Y-99040228D02*
X167336591Y-99192609D01*
X167336591Y-99192609D02*
X167412782Y-99268800D01*
X167412782Y-99268800D02*
X167488972Y-99306895D01*
X167488972Y-99306895D02*
X167641353Y-99306895D01*
X167641353Y-99306895D02*
X167717544Y-99268800D01*
X167717544Y-99268800D02*
X167793734Y-99192609D01*
X167793734Y-99192609D02*
X167831830Y-99040228D01*
X167831830Y-99040228D02*
X167831830Y-98773561D01*
X167831830Y-98773561D02*
X167793734Y-98621180D01*
X167793734Y-98621180D02*
X167717544Y-98544990D01*
X167717544Y-98544990D02*
X167641353Y-98506895D01*
X166955639Y-99306895D02*
X166955639Y-98506895D01*
X166955639Y-98506895D02*
X166498496Y-99306895D01*
X166498496Y-99306895D02*
X166498496Y-98506895D01*
X166155640Y-99268800D02*
X166041354Y-99306895D01*
X166041354Y-99306895D02*
X165850878Y-99306895D01*
X165850878Y-99306895D02*
X165774687Y-99268800D01*
X165774687Y-99268800D02*
X165736592Y-99230704D01*
X165736592Y-99230704D02*
X165698497Y-99154514D01*
X165698497Y-99154514D02*
X165698497Y-99078323D01*
X165698497Y-99078323D02*
X165736592Y-99002133D01*
X165736592Y-99002133D02*
X165774687Y-98964038D01*
X165774687Y-98964038D02*
X165850878Y-98925942D01*
X165850878Y-98925942D02*
X166003259Y-98887847D01*
X166003259Y-98887847D02*
X166079449Y-98849752D01*
X166079449Y-98849752D02*
X166117544Y-98811657D01*
X166117544Y-98811657D02*
X166155640Y-98735466D01*
X166155640Y-98735466D02*
X166155640Y-98659276D01*
X166155640Y-98659276D02*
X166117544Y-98583085D01*
X166117544Y-98583085D02*
X166079449Y-98544990D01*
X166079449Y-98544990D02*
X166003259Y-98506895D01*
X166003259Y-98506895D02*
X165812782Y-98506895D01*
X165812782Y-98506895D02*
X165698497Y-98544990D01*
X165355639Y-99002133D02*
X164746116Y-99002133D01*
X164441354Y-98506895D02*
X163946116Y-98506895D01*
X163946116Y-98506895D02*
X164212782Y-98811657D01*
X164212782Y-98811657D02*
X164098497Y-98811657D01*
X164098497Y-98811657D02*
X164022306Y-98849752D01*
X164022306Y-98849752D02*
X163984211Y-98887847D01*
X163984211Y-98887847D02*
X163946116Y-98964038D01*
X163946116Y-98964038D02*
X163946116Y-99154514D01*
X163946116Y-99154514D02*
X163984211Y-99230704D01*
X163984211Y-99230704D02*
X164022306Y-99268800D01*
X164022306Y-99268800D02*
X164098497Y-99306895D01*
X164098497Y-99306895D02*
X164327068Y-99306895D01*
X164327068Y-99306895D02*
X164403259Y-99268800D01*
X164403259Y-99268800D02*
X164441354Y-99230704D01*
X178579890Y-131635312D02*
X178541795Y-131559122D01*
X178541795Y-131559122D02*
X178541795Y-131444836D01*
X178541795Y-131444836D02*
X178579890Y-131330550D01*
X178579890Y-131330550D02*
X178656080Y-131254360D01*
X178656080Y-131254360D02*
X178732271Y-131216265D01*
X178732271Y-131216265D02*
X178884652Y-131178169D01*
X178884652Y-131178169D02*
X178998938Y-131178169D01*
X178998938Y-131178169D02*
X179151319Y-131216265D01*
X179151319Y-131216265D02*
X179227509Y-131254360D01*
X179227509Y-131254360D02*
X179303700Y-131330550D01*
X179303700Y-131330550D02*
X179341795Y-131444836D01*
X179341795Y-131444836D02*
X179341795Y-131521027D01*
X179341795Y-131521027D02*
X179303700Y-131635312D01*
X179303700Y-131635312D02*
X179265604Y-131673408D01*
X179265604Y-131673408D02*
X178998938Y-131673408D01*
X178998938Y-131673408D02*
X178998938Y-131521027D01*
X179341795Y-132016265D02*
X178541795Y-132016265D01*
X178541795Y-132016265D02*
X179341795Y-132473408D01*
X179341795Y-132473408D02*
X178541795Y-132473408D01*
X179341795Y-132854360D02*
X178541795Y-132854360D01*
X178541795Y-132854360D02*
X178541795Y-133044836D01*
X178541795Y-133044836D02*
X178579890Y-133159122D01*
X178579890Y-133159122D02*
X178656080Y-133235312D01*
X178656080Y-133235312D02*
X178732271Y-133273407D01*
X178732271Y-133273407D02*
X178884652Y-133311503D01*
X178884652Y-133311503D02*
X178998938Y-133311503D01*
X178998938Y-133311503D02*
X179151319Y-133273407D01*
X179151319Y-133273407D02*
X179227509Y-133235312D01*
X179227509Y-133235312D02*
X179303700Y-133159122D01*
X179303700Y-133159122D02*
X179341795Y-133044836D01*
X179341795Y-133044836D02*
X179341795Y-132854360D01*
X167796795Y-64033883D02*
X166996795Y-64033883D01*
X166996795Y-64033883D02*
X166996795Y-64338645D01*
X166996795Y-64338645D02*
X167034890Y-64414835D01*
X167034890Y-64414835D02*
X167072985Y-64452930D01*
X167072985Y-64452930D02*
X167149176Y-64491026D01*
X167149176Y-64491026D02*
X167263461Y-64491026D01*
X167263461Y-64491026D02*
X167339652Y-64452930D01*
X167339652Y-64452930D02*
X167377747Y-64414835D01*
X167377747Y-64414835D02*
X167415842Y-64338645D01*
X167415842Y-64338645D02*
X167415842Y-64033883D01*
X166996795Y-64757692D02*
X167796795Y-64948168D01*
X167796795Y-64948168D02*
X167225366Y-65100549D01*
X167225366Y-65100549D02*
X167796795Y-65252930D01*
X167796795Y-65252930D02*
X166996795Y-65443407D01*
X167796795Y-66205312D02*
X167415842Y-65938645D01*
X167796795Y-65748169D02*
X166996795Y-65748169D01*
X166996795Y-65748169D02*
X166996795Y-66052931D01*
X166996795Y-66052931D02*
X167034890Y-66129121D01*
X167034890Y-66129121D02*
X167072985Y-66167216D01*
X167072985Y-66167216D02*
X167149176Y-66205312D01*
X167149176Y-66205312D02*
X167263461Y-66205312D01*
X167263461Y-66205312D02*
X167339652Y-66167216D01*
X167339652Y-66167216D02*
X167377747Y-66129121D01*
X167377747Y-66129121D02*
X167415842Y-66052931D01*
X167415842Y-66052931D02*
X167415842Y-65748169D01*
X125164890Y-131635312D02*
X125126795Y-131559122D01*
X125126795Y-131559122D02*
X125126795Y-131444836D01*
X125126795Y-131444836D02*
X125164890Y-131330550D01*
X125164890Y-131330550D02*
X125241080Y-131254360D01*
X125241080Y-131254360D02*
X125317271Y-131216265D01*
X125317271Y-131216265D02*
X125469652Y-131178169D01*
X125469652Y-131178169D02*
X125583938Y-131178169D01*
X125583938Y-131178169D02*
X125736319Y-131216265D01*
X125736319Y-131216265D02*
X125812509Y-131254360D01*
X125812509Y-131254360D02*
X125888700Y-131330550D01*
X125888700Y-131330550D02*
X125926795Y-131444836D01*
X125926795Y-131444836D02*
X125926795Y-131521027D01*
X125926795Y-131521027D02*
X125888700Y-131635312D01*
X125888700Y-131635312D02*
X125850604Y-131673408D01*
X125850604Y-131673408D02*
X125583938Y-131673408D01*
X125583938Y-131673408D02*
X125583938Y-131521027D01*
X125926795Y-132016265D02*
X125126795Y-132016265D01*
X125126795Y-132016265D02*
X125926795Y-132473408D01*
X125926795Y-132473408D02*
X125126795Y-132473408D01*
X125926795Y-132854360D02*
X125126795Y-132854360D01*
X125126795Y-132854360D02*
X125126795Y-133044836D01*
X125126795Y-133044836D02*
X125164890Y-133159122D01*
X125164890Y-133159122D02*
X125241080Y-133235312D01*
X125241080Y-133235312D02*
X125317271Y-133273407D01*
X125317271Y-133273407D02*
X125469652Y-133311503D01*
X125469652Y-133311503D02*
X125583938Y-133311503D01*
X125583938Y-133311503D02*
X125736319Y-133273407D01*
X125736319Y-133273407D02*
X125812509Y-133235312D01*
X125812509Y-133235312D02*
X125888700Y-133159122D01*
X125888700Y-133159122D02*
X125926795Y-133044836D01*
X125926795Y-133044836D02*
X125926795Y-132854360D01*
X144147068Y-83087847D02*
X144413734Y-83087847D01*
X144413734Y-83506895D02*
X144413734Y-82706895D01*
X144413734Y-82706895D02*
X144032782Y-82706895D01*
X143461354Y-83087847D02*
X143347068Y-83125942D01*
X143347068Y-83125942D02*
X143308973Y-83164038D01*
X143308973Y-83164038D02*
X143270877Y-83240228D01*
X143270877Y-83240228D02*
X143270877Y-83354514D01*
X143270877Y-83354514D02*
X143308973Y-83430704D01*
X143308973Y-83430704D02*
X143347068Y-83468800D01*
X143347068Y-83468800D02*
X143423258Y-83506895D01*
X143423258Y-83506895D02*
X143728020Y-83506895D01*
X143728020Y-83506895D02*
X143728020Y-82706895D01*
X143728020Y-82706895D02*
X143461354Y-82706895D01*
X143461354Y-82706895D02*
X143385163Y-82744990D01*
X143385163Y-82744990D02*
X143347068Y-82783085D01*
X143347068Y-82783085D02*
X143308973Y-82859276D01*
X143308973Y-82859276D02*
X143308973Y-82935466D01*
X143308973Y-82935466D02*
X143347068Y-83011657D01*
X143347068Y-83011657D02*
X143385163Y-83049752D01*
X143385163Y-83049752D02*
X143461354Y-83087847D01*
X143461354Y-83087847D02*
X143728020Y-83087847D01*
X142928020Y-83506895D02*
X142928020Y-82706895D01*
X142470877Y-83506895D02*
X142813735Y-83049752D01*
X142470877Y-82706895D02*
X142928020Y-83164038D01*
X142128020Y-83202133D02*
X141518497Y-83202133D01*
X140794687Y-82973561D02*
X140794687Y-83506895D01*
X140985163Y-82668800D02*
X141175640Y-83240228D01*
X141175640Y-83240228D02*
X140680401Y-83240228D01*
X165144890Y-138355074D02*
X165106795Y-138278884D01*
X165106795Y-138278884D02*
X165106795Y-138164598D01*
X165106795Y-138164598D02*
X165144890Y-138050312D01*
X165144890Y-138050312D02*
X165221080Y-137974122D01*
X165221080Y-137974122D02*
X165297271Y-137936027D01*
X165297271Y-137936027D02*
X165449652Y-137897931D01*
X165449652Y-137897931D02*
X165563938Y-137897931D01*
X165563938Y-137897931D02*
X165716319Y-137936027D01*
X165716319Y-137936027D02*
X165792509Y-137974122D01*
X165792509Y-137974122D02*
X165868700Y-138050312D01*
X165868700Y-138050312D02*
X165906795Y-138164598D01*
X165906795Y-138164598D02*
X165906795Y-138240789D01*
X165906795Y-138240789D02*
X165868700Y-138355074D01*
X165868700Y-138355074D02*
X165830604Y-138393170D01*
X165830604Y-138393170D02*
X165563938Y-138393170D01*
X165563938Y-138393170D02*
X165563938Y-138240789D01*
X165906795Y-138736027D02*
X165106795Y-138736027D01*
X165106795Y-138736027D02*
X165906795Y-139193170D01*
X165906795Y-139193170D02*
X165106795Y-139193170D01*
X165906795Y-139574122D02*
X165106795Y-139574122D01*
X165106795Y-139574122D02*
X165106795Y-139764598D01*
X165106795Y-139764598D02*
X165144890Y-139878884D01*
X165144890Y-139878884D02*
X165221080Y-139955074D01*
X165221080Y-139955074D02*
X165297271Y-139993169D01*
X165297271Y-139993169D02*
X165449652Y-140031265D01*
X165449652Y-140031265D02*
X165563938Y-140031265D01*
X165563938Y-140031265D02*
X165716319Y-139993169D01*
X165716319Y-139993169D02*
X165792509Y-139955074D01*
X165792509Y-139955074D02*
X165868700Y-139878884D01*
X165868700Y-139878884D02*
X165906795Y-139764598D01*
X165906795Y-139764598D02*
X165906795Y-139574122D01*
X192938972Y-102251895D02*
X192786591Y-102251895D01*
X192786591Y-102251895D02*
X192710401Y-102289990D01*
X192710401Y-102289990D02*
X192634210Y-102366180D01*
X192634210Y-102366180D02*
X192596115Y-102518561D01*
X192596115Y-102518561D02*
X192596115Y-102785228D01*
X192596115Y-102785228D02*
X192634210Y-102937609D01*
X192634210Y-102937609D02*
X192710401Y-103013800D01*
X192710401Y-103013800D02*
X192786591Y-103051895D01*
X192786591Y-103051895D02*
X192938972Y-103051895D01*
X192938972Y-103051895D02*
X193015163Y-103013800D01*
X193015163Y-103013800D02*
X193091353Y-102937609D01*
X193091353Y-102937609D02*
X193129449Y-102785228D01*
X193129449Y-102785228D02*
X193129449Y-102518561D01*
X193129449Y-102518561D02*
X193091353Y-102366180D01*
X193091353Y-102366180D02*
X193015163Y-102289990D01*
X193015163Y-102289990D02*
X192938972Y-102251895D01*
X192253258Y-102251895D02*
X192253258Y-102899514D01*
X192253258Y-102899514D02*
X192215163Y-102975704D01*
X192215163Y-102975704D02*
X192177068Y-103013800D01*
X192177068Y-103013800D02*
X192100877Y-103051895D01*
X192100877Y-103051895D02*
X191948496Y-103051895D01*
X191948496Y-103051895D02*
X191872306Y-103013800D01*
X191872306Y-103013800D02*
X191834211Y-102975704D01*
X191834211Y-102975704D02*
X191796115Y-102899514D01*
X191796115Y-102899514D02*
X191796115Y-102251895D01*
X191529449Y-102251895D02*
X191072306Y-102251895D01*
X191300878Y-103051895D02*
X191300878Y-102251895D01*
X162544890Y-57605074D02*
X162506795Y-57528884D01*
X162506795Y-57528884D02*
X162506795Y-57414598D01*
X162506795Y-57414598D02*
X162544890Y-57300312D01*
X162544890Y-57300312D02*
X162621080Y-57224122D01*
X162621080Y-57224122D02*
X162697271Y-57186027D01*
X162697271Y-57186027D02*
X162849652Y-57147931D01*
X162849652Y-57147931D02*
X162963938Y-57147931D01*
X162963938Y-57147931D02*
X163116319Y-57186027D01*
X163116319Y-57186027D02*
X163192509Y-57224122D01*
X163192509Y-57224122D02*
X163268700Y-57300312D01*
X163268700Y-57300312D02*
X163306795Y-57414598D01*
X163306795Y-57414598D02*
X163306795Y-57490789D01*
X163306795Y-57490789D02*
X163268700Y-57605074D01*
X163268700Y-57605074D02*
X163230604Y-57643170D01*
X163230604Y-57643170D02*
X162963938Y-57643170D01*
X162963938Y-57643170D02*
X162963938Y-57490789D01*
X163306795Y-57986027D02*
X162506795Y-57986027D01*
X162506795Y-57986027D02*
X163306795Y-58443170D01*
X163306795Y-58443170D02*
X162506795Y-58443170D01*
X163306795Y-58824122D02*
X162506795Y-58824122D01*
X162506795Y-58824122D02*
X162506795Y-59014598D01*
X162506795Y-59014598D02*
X162544890Y-59128884D01*
X162544890Y-59128884D02*
X162621080Y-59205074D01*
X162621080Y-59205074D02*
X162697271Y-59243169D01*
X162697271Y-59243169D02*
X162849652Y-59281265D01*
X162849652Y-59281265D02*
X162963938Y-59281265D01*
X162963938Y-59281265D02*
X163116319Y-59243169D01*
X163116319Y-59243169D02*
X163192509Y-59205074D01*
X163192509Y-59205074D02*
X163268700Y-59128884D01*
X163268700Y-59128884D02*
X163306795Y-59014598D01*
X163306795Y-59014598D02*
X163306795Y-58824122D01*
X162594890Y-138355074D02*
X162556795Y-138278884D01*
X162556795Y-138278884D02*
X162556795Y-138164598D01*
X162556795Y-138164598D02*
X162594890Y-138050312D01*
X162594890Y-138050312D02*
X162671080Y-137974122D01*
X162671080Y-137974122D02*
X162747271Y-137936027D01*
X162747271Y-137936027D02*
X162899652Y-137897931D01*
X162899652Y-137897931D02*
X163013938Y-137897931D01*
X163013938Y-137897931D02*
X163166319Y-137936027D01*
X163166319Y-137936027D02*
X163242509Y-137974122D01*
X163242509Y-137974122D02*
X163318700Y-138050312D01*
X163318700Y-138050312D02*
X163356795Y-138164598D01*
X163356795Y-138164598D02*
X163356795Y-138240789D01*
X163356795Y-138240789D02*
X163318700Y-138355074D01*
X163318700Y-138355074D02*
X163280604Y-138393170D01*
X163280604Y-138393170D02*
X163013938Y-138393170D01*
X163013938Y-138393170D02*
X163013938Y-138240789D01*
X163356795Y-138736027D02*
X162556795Y-138736027D01*
X162556795Y-138736027D02*
X163356795Y-139193170D01*
X163356795Y-139193170D02*
X162556795Y-139193170D01*
X163356795Y-139574122D02*
X162556795Y-139574122D01*
X162556795Y-139574122D02*
X162556795Y-139764598D01*
X162556795Y-139764598D02*
X162594890Y-139878884D01*
X162594890Y-139878884D02*
X162671080Y-139955074D01*
X162671080Y-139955074D02*
X162747271Y-139993169D01*
X162747271Y-139993169D02*
X162899652Y-140031265D01*
X162899652Y-140031265D02*
X163013938Y-140031265D01*
X163013938Y-140031265D02*
X163166319Y-139993169D01*
X163166319Y-139993169D02*
X163242509Y-139955074D01*
X163242509Y-139955074D02*
X163318700Y-139878884D01*
X163318700Y-139878884D02*
X163356795Y-139764598D01*
X163356795Y-139764598D02*
X163356795Y-139574122D01*
X143744890Y-138355074D02*
X143706795Y-138278884D01*
X143706795Y-138278884D02*
X143706795Y-138164598D01*
X143706795Y-138164598D02*
X143744890Y-138050312D01*
X143744890Y-138050312D02*
X143821080Y-137974122D01*
X143821080Y-137974122D02*
X143897271Y-137936027D01*
X143897271Y-137936027D02*
X144049652Y-137897931D01*
X144049652Y-137897931D02*
X144163938Y-137897931D01*
X144163938Y-137897931D02*
X144316319Y-137936027D01*
X144316319Y-137936027D02*
X144392509Y-137974122D01*
X144392509Y-137974122D02*
X144468700Y-138050312D01*
X144468700Y-138050312D02*
X144506795Y-138164598D01*
X144506795Y-138164598D02*
X144506795Y-138240789D01*
X144506795Y-138240789D02*
X144468700Y-138355074D01*
X144468700Y-138355074D02*
X144430604Y-138393170D01*
X144430604Y-138393170D02*
X144163938Y-138393170D01*
X144163938Y-138393170D02*
X144163938Y-138240789D01*
X144506795Y-138736027D02*
X143706795Y-138736027D01*
X143706795Y-138736027D02*
X144506795Y-139193170D01*
X144506795Y-139193170D02*
X143706795Y-139193170D01*
X144506795Y-139574122D02*
X143706795Y-139574122D01*
X143706795Y-139574122D02*
X143706795Y-139764598D01*
X143706795Y-139764598D02*
X143744890Y-139878884D01*
X143744890Y-139878884D02*
X143821080Y-139955074D01*
X143821080Y-139955074D02*
X143897271Y-139993169D01*
X143897271Y-139993169D02*
X144049652Y-140031265D01*
X144049652Y-140031265D02*
X144163938Y-140031265D01*
X144163938Y-140031265D02*
X144316319Y-139993169D01*
X144316319Y-139993169D02*
X144392509Y-139955074D01*
X144392509Y-139955074D02*
X144468700Y-139878884D01*
X144468700Y-139878884D02*
X144506795Y-139764598D01*
X144506795Y-139764598D02*
X144506795Y-139574122D01*
X192824687Y-95354990D02*
X192900877Y-95316895D01*
X192900877Y-95316895D02*
X193015163Y-95316895D01*
X193015163Y-95316895D02*
X193129449Y-95354990D01*
X193129449Y-95354990D02*
X193205639Y-95431180D01*
X193205639Y-95431180D02*
X193243734Y-95507371D01*
X193243734Y-95507371D02*
X193281830Y-95659752D01*
X193281830Y-95659752D02*
X193281830Y-95774038D01*
X193281830Y-95774038D02*
X193243734Y-95926419D01*
X193243734Y-95926419D02*
X193205639Y-96002609D01*
X193205639Y-96002609D02*
X193129449Y-96078800D01*
X193129449Y-96078800D02*
X193015163Y-96116895D01*
X193015163Y-96116895D02*
X192938972Y-96116895D01*
X192938972Y-96116895D02*
X192824687Y-96078800D01*
X192824687Y-96078800D02*
X192786591Y-96040704D01*
X192786591Y-96040704D02*
X192786591Y-95774038D01*
X192786591Y-95774038D02*
X192938972Y-95774038D01*
X192443734Y-96116895D02*
X192443734Y-95316895D01*
X192443734Y-95316895D02*
X191986591Y-96116895D01*
X191986591Y-96116895D02*
X191986591Y-95316895D01*
X191605639Y-96116895D02*
X191605639Y-95316895D01*
X191605639Y-95316895D02*
X191415163Y-95316895D01*
X191415163Y-95316895D02*
X191300877Y-95354990D01*
X191300877Y-95354990D02*
X191224687Y-95431180D01*
X191224687Y-95431180D02*
X191186592Y-95507371D01*
X191186592Y-95507371D02*
X191148496Y-95659752D01*
X191148496Y-95659752D02*
X191148496Y-95774038D01*
X191148496Y-95774038D02*
X191186592Y-95926419D01*
X191186592Y-95926419D02*
X191224687Y-96002609D01*
X191224687Y-96002609D02*
X191300877Y-96078800D01*
X191300877Y-96078800D02*
X191415163Y-96116895D01*
X191415163Y-96116895D02*
X191605639Y-96116895D01*
X165577068Y-91297847D02*
X165843734Y-91297847D01*
X165843734Y-91716895D02*
X165843734Y-90916895D01*
X165843734Y-90916895D02*
X165462782Y-90916895D01*
X164891354Y-91297847D02*
X164777068Y-91335942D01*
X164777068Y-91335942D02*
X164738973Y-91374038D01*
X164738973Y-91374038D02*
X164700877Y-91450228D01*
X164700877Y-91450228D02*
X164700877Y-91564514D01*
X164700877Y-91564514D02*
X164738973Y-91640704D01*
X164738973Y-91640704D02*
X164777068Y-91678800D01*
X164777068Y-91678800D02*
X164853258Y-91716895D01*
X164853258Y-91716895D02*
X165158020Y-91716895D01*
X165158020Y-91716895D02*
X165158020Y-90916895D01*
X165158020Y-90916895D02*
X164891354Y-90916895D01*
X164891354Y-90916895D02*
X164815163Y-90954990D01*
X164815163Y-90954990D02*
X164777068Y-90993085D01*
X164777068Y-90993085D02*
X164738973Y-91069276D01*
X164738973Y-91069276D02*
X164738973Y-91145466D01*
X164738973Y-91145466D02*
X164777068Y-91221657D01*
X164777068Y-91221657D02*
X164815163Y-91259752D01*
X164815163Y-91259752D02*
X164891354Y-91297847D01*
X164891354Y-91297847D02*
X165158020Y-91297847D01*
X164358020Y-91716895D02*
X164358020Y-90916895D01*
X163900877Y-91716895D02*
X164243735Y-91259752D01*
X163900877Y-90916895D02*
X164358020Y-91374038D01*
X163558020Y-91412133D02*
X162948497Y-91412133D01*
X162643735Y-90916895D02*
X162148497Y-90916895D01*
X162148497Y-90916895D02*
X162415163Y-91221657D01*
X162415163Y-91221657D02*
X162300878Y-91221657D01*
X162300878Y-91221657D02*
X162224687Y-91259752D01*
X162224687Y-91259752D02*
X162186592Y-91297847D01*
X162186592Y-91297847D02*
X162148497Y-91374038D01*
X162148497Y-91374038D02*
X162148497Y-91564514D01*
X162148497Y-91564514D02*
X162186592Y-91640704D01*
X162186592Y-91640704D02*
X162224687Y-91678800D01*
X162224687Y-91678800D02*
X162300878Y-91716895D01*
X162300878Y-91716895D02*
X162529449Y-91716895D01*
X162529449Y-91716895D02*
X162605640Y-91678800D01*
X162605640Y-91678800D02*
X162643735Y-91640704D01*
X153594890Y-138355074D02*
X153556795Y-138278884D01*
X153556795Y-138278884D02*
X153556795Y-138164598D01*
X153556795Y-138164598D02*
X153594890Y-138050312D01*
X153594890Y-138050312D02*
X153671080Y-137974122D01*
X153671080Y-137974122D02*
X153747271Y-137936027D01*
X153747271Y-137936027D02*
X153899652Y-137897931D01*
X153899652Y-137897931D02*
X154013938Y-137897931D01*
X154013938Y-137897931D02*
X154166319Y-137936027D01*
X154166319Y-137936027D02*
X154242509Y-137974122D01*
X154242509Y-137974122D02*
X154318700Y-138050312D01*
X154318700Y-138050312D02*
X154356795Y-138164598D01*
X154356795Y-138164598D02*
X154356795Y-138240789D01*
X154356795Y-138240789D02*
X154318700Y-138355074D01*
X154318700Y-138355074D02*
X154280604Y-138393170D01*
X154280604Y-138393170D02*
X154013938Y-138393170D01*
X154013938Y-138393170D02*
X154013938Y-138240789D01*
X154356795Y-138736027D02*
X153556795Y-138736027D01*
X153556795Y-138736027D02*
X154356795Y-139193170D01*
X154356795Y-139193170D02*
X153556795Y-139193170D01*
X154356795Y-139574122D02*
X153556795Y-139574122D01*
X153556795Y-139574122D02*
X153556795Y-139764598D01*
X153556795Y-139764598D02*
X153594890Y-139878884D01*
X153594890Y-139878884D02*
X153671080Y-139955074D01*
X153671080Y-139955074D02*
X153747271Y-139993169D01*
X153747271Y-139993169D02*
X153899652Y-140031265D01*
X153899652Y-140031265D02*
X154013938Y-140031265D01*
X154013938Y-140031265D02*
X154166319Y-139993169D01*
X154166319Y-139993169D02*
X154242509Y-139955074D01*
X154242509Y-139955074D02*
X154318700Y-139878884D01*
X154318700Y-139878884D02*
X154356795Y-139764598D01*
X154356795Y-139764598D02*
X154356795Y-139574122D01*
X192824687Y-92834990D02*
X192900877Y-92796895D01*
X192900877Y-92796895D02*
X193015163Y-92796895D01*
X193015163Y-92796895D02*
X193129449Y-92834990D01*
X193129449Y-92834990D02*
X193205639Y-92911180D01*
X193205639Y-92911180D02*
X193243734Y-92987371D01*
X193243734Y-92987371D02*
X193281830Y-93139752D01*
X193281830Y-93139752D02*
X193281830Y-93254038D01*
X193281830Y-93254038D02*
X193243734Y-93406419D01*
X193243734Y-93406419D02*
X193205639Y-93482609D01*
X193205639Y-93482609D02*
X193129449Y-93558800D01*
X193129449Y-93558800D02*
X193015163Y-93596895D01*
X193015163Y-93596895D02*
X192938972Y-93596895D01*
X192938972Y-93596895D02*
X192824687Y-93558800D01*
X192824687Y-93558800D02*
X192786591Y-93520704D01*
X192786591Y-93520704D02*
X192786591Y-93254038D01*
X192786591Y-93254038D02*
X192938972Y-93254038D01*
X192443734Y-93596895D02*
X192443734Y-92796895D01*
X192443734Y-92796895D02*
X191986591Y-93596895D01*
X191986591Y-93596895D02*
X191986591Y-92796895D01*
X191605639Y-93596895D02*
X191605639Y-92796895D01*
X191605639Y-92796895D02*
X191415163Y-92796895D01*
X191415163Y-92796895D02*
X191300877Y-92834990D01*
X191300877Y-92834990D02*
X191224687Y-92911180D01*
X191224687Y-92911180D02*
X191186592Y-92987371D01*
X191186592Y-92987371D02*
X191148496Y-93139752D01*
X191148496Y-93139752D02*
X191148496Y-93254038D01*
X191148496Y-93254038D02*
X191186592Y-93406419D01*
X191186592Y-93406419D02*
X191224687Y-93482609D01*
X191224687Y-93482609D02*
X191300877Y-93558800D01*
X191300877Y-93558800D02*
X191415163Y-93596895D01*
X191415163Y-93596895D02*
X191605639Y-93596895D01*
X134744890Y-138355074D02*
X134706795Y-138278884D01*
X134706795Y-138278884D02*
X134706795Y-138164598D01*
X134706795Y-138164598D02*
X134744890Y-138050312D01*
X134744890Y-138050312D02*
X134821080Y-137974122D01*
X134821080Y-137974122D02*
X134897271Y-137936027D01*
X134897271Y-137936027D02*
X135049652Y-137897931D01*
X135049652Y-137897931D02*
X135163938Y-137897931D01*
X135163938Y-137897931D02*
X135316319Y-137936027D01*
X135316319Y-137936027D02*
X135392509Y-137974122D01*
X135392509Y-137974122D02*
X135468700Y-138050312D01*
X135468700Y-138050312D02*
X135506795Y-138164598D01*
X135506795Y-138164598D02*
X135506795Y-138240789D01*
X135506795Y-138240789D02*
X135468700Y-138355074D01*
X135468700Y-138355074D02*
X135430604Y-138393170D01*
X135430604Y-138393170D02*
X135163938Y-138393170D01*
X135163938Y-138393170D02*
X135163938Y-138240789D01*
X135506795Y-138736027D02*
X134706795Y-138736027D01*
X134706795Y-138736027D02*
X135506795Y-139193170D01*
X135506795Y-139193170D02*
X134706795Y-139193170D01*
X135506795Y-139574122D02*
X134706795Y-139574122D01*
X134706795Y-139574122D02*
X134706795Y-139764598D01*
X134706795Y-139764598D02*
X134744890Y-139878884D01*
X134744890Y-139878884D02*
X134821080Y-139955074D01*
X134821080Y-139955074D02*
X134897271Y-139993169D01*
X134897271Y-139993169D02*
X135049652Y-140031265D01*
X135049652Y-140031265D02*
X135163938Y-140031265D01*
X135163938Y-140031265D02*
X135316319Y-139993169D01*
X135316319Y-139993169D02*
X135392509Y-139955074D01*
X135392509Y-139955074D02*
X135468700Y-139878884D01*
X135468700Y-139878884D02*
X135506795Y-139764598D01*
X135506795Y-139764598D02*
X135506795Y-139574122D01*
X130963700Y-131178169D02*
X131001795Y-131292455D01*
X131001795Y-131292455D02*
X131001795Y-131482931D01*
X131001795Y-131482931D02*
X130963700Y-131559122D01*
X130963700Y-131559122D02*
X130925604Y-131597217D01*
X130925604Y-131597217D02*
X130849414Y-131635312D01*
X130849414Y-131635312D02*
X130773223Y-131635312D01*
X130773223Y-131635312D02*
X130697033Y-131597217D01*
X130697033Y-131597217D02*
X130658938Y-131559122D01*
X130658938Y-131559122D02*
X130620842Y-131482931D01*
X130620842Y-131482931D02*
X130582747Y-131330550D01*
X130582747Y-131330550D02*
X130544652Y-131254360D01*
X130544652Y-131254360D02*
X130506557Y-131216265D01*
X130506557Y-131216265D02*
X130430366Y-131178169D01*
X130430366Y-131178169D02*
X130354176Y-131178169D01*
X130354176Y-131178169D02*
X130277985Y-131216265D01*
X130277985Y-131216265D02*
X130239890Y-131254360D01*
X130239890Y-131254360D02*
X130201795Y-131330550D01*
X130201795Y-131330550D02*
X130201795Y-131521027D01*
X130201795Y-131521027D02*
X130239890Y-131635312D01*
X131001795Y-131978170D02*
X130201795Y-131978170D01*
X130239890Y-132778169D02*
X130201795Y-132701979D01*
X130201795Y-132701979D02*
X130201795Y-132587693D01*
X130201795Y-132587693D02*
X130239890Y-132473407D01*
X130239890Y-132473407D02*
X130316080Y-132397217D01*
X130316080Y-132397217D02*
X130392271Y-132359122D01*
X130392271Y-132359122D02*
X130544652Y-132321026D01*
X130544652Y-132321026D02*
X130658938Y-132321026D01*
X130658938Y-132321026D02*
X130811319Y-132359122D01*
X130811319Y-132359122D02*
X130887509Y-132397217D01*
X130887509Y-132397217D02*
X130963700Y-132473407D01*
X130963700Y-132473407D02*
X131001795Y-132587693D01*
X131001795Y-132587693D02*
X131001795Y-132663884D01*
X131001795Y-132663884D02*
X130963700Y-132778169D01*
X130963700Y-132778169D02*
X130925604Y-132816265D01*
X130925604Y-132816265D02*
X130658938Y-132816265D01*
X130658938Y-132816265D02*
X130658938Y-132663884D01*
X135427068Y-91057847D02*
X135693734Y-91057847D01*
X135693734Y-91476895D02*
X135693734Y-90676895D01*
X135693734Y-90676895D02*
X135312782Y-90676895D01*
X134741354Y-91057847D02*
X134627068Y-91095942D01*
X134627068Y-91095942D02*
X134588973Y-91134038D01*
X134588973Y-91134038D02*
X134550877Y-91210228D01*
X134550877Y-91210228D02*
X134550877Y-91324514D01*
X134550877Y-91324514D02*
X134588973Y-91400704D01*
X134588973Y-91400704D02*
X134627068Y-91438800D01*
X134627068Y-91438800D02*
X134703258Y-91476895D01*
X134703258Y-91476895D02*
X135008020Y-91476895D01*
X135008020Y-91476895D02*
X135008020Y-90676895D01*
X135008020Y-90676895D02*
X134741354Y-90676895D01*
X134741354Y-90676895D02*
X134665163Y-90714990D01*
X134665163Y-90714990D02*
X134627068Y-90753085D01*
X134627068Y-90753085D02*
X134588973Y-90829276D01*
X134588973Y-90829276D02*
X134588973Y-90905466D01*
X134588973Y-90905466D02*
X134627068Y-90981657D01*
X134627068Y-90981657D02*
X134665163Y-91019752D01*
X134665163Y-91019752D02*
X134741354Y-91057847D01*
X134741354Y-91057847D02*
X135008020Y-91057847D01*
X134208020Y-91476895D02*
X134208020Y-90676895D01*
X133750877Y-91476895D02*
X134093735Y-91019752D01*
X133750877Y-90676895D02*
X134208020Y-91134038D01*
X133408020Y-91172133D02*
X132798497Y-91172133D01*
X132493735Y-90676895D02*
X131998497Y-90676895D01*
X131998497Y-90676895D02*
X132265163Y-90981657D01*
X132265163Y-90981657D02*
X132150878Y-90981657D01*
X132150878Y-90981657D02*
X132074687Y-91019752D01*
X132074687Y-91019752D02*
X132036592Y-91057847D01*
X132036592Y-91057847D02*
X131998497Y-91134038D01*
X131998497Y-91134038D02*
X131998497Y-91324514D01*
X131998497Y-91324514D02*
X132036592Y-91400704D01*
X132036592Y-91400704D02*
X132074687Y-91438800D01*
X132074687Y-91438800D02*
X132150878Y-91476895D01*
X132150878Y-91476895D02*
X132379449Y-91476895D01*
X132379449Y-91476895D02*
X132455640Y-91438800D01*
X132455640Y-91438800D02*
X132493735Y-91400704D01*
X106783734Y-91056895D02*
X106783734Y-90256895D01*
X106783734Y-90256895D02*
X106478972Y-90256895D01*
X106478972Y-90256895D02*
X106402782Y-90294990D01*
X106402782Y-90294990D02*
X106364687Y-90333085D01*
X106364687Y-90333085D02*
X106326591Y-90409276D01*
X106326591Y-90409276D02*
X106326591Y-90523561D01*
X106326591Y-90523561D02*
X106364687Y-90599752D01*
X106364687Y-90599752D02*
X106402782Y-90637847D01*
X106402782Y-90637847D02*
X106478972Y-90675942D01*
X106478972Y-90675942D02*
X106783734Y-90675942D01*
X106059925Y-90256895D02*
X105869449Y-91056895D01*
X105869449Y-91056895D02*
X105717068Y-90485466D01*
X105717068Y-90485466D02*
X105564687Y-91056895D01*
X105564687Y-91056895D02*
X105374211Y-90256895D01*
X104612305Y-91056895D02*
X104878972Y-90675942D01*
X105069448Y-91056895D02*
X105069448Y-90256895D01*
X105069448Y-90256895D02*
X104764686Y-90256895D01*
X104764686Y-90256895D02*
X104688496Y-90294990D01*
X104688496Y-90294990D02*
X104650401Y-90333085D01*
X104650401Y-90333085D02*
X104612305Y-90409276D01*
X104612305Y-90409276D02*
X104612305Y-90523561D01*
X104612305Y-90523561D02*
X104650401Y-90599752D01*
X104650401Y-90599752D02*
X104688496Y-90637847D01*
X104688496Y-90637847D02*
X104764686Y-90675942D01*
X104764686Y-90675942D02*
X105069448Y-90675942D01*
X181119890Y-131635312D02*
X181081795Y-131559122D01*
X181081795Y-131559122D02*
X181081795Y-131444836D01*
X181081795Y-131444836D02*
X181119890Y-131330550D01*
X181119890Y-131330550D02*
X181196080Y-131254360D01*
X181196080Y-131254360D02*
X181272271Y-131216265D01*
X181272271Y-131216265D02*
X181424652Y-131178169D01*
X181424652Y-131178169D02*
X181538938Y-131178169D01*
X181538938Y-131178169D02*
X181691319Y-131216265D01*
X181691319Y-131216265D02*
X181767509Y-131254360D01*
X181767509Y-131254360D02*
X181843700Y-131330550D01*
X181843700Y-131330550D02*
X181881795Y-131444836D01*
X181881795Y-131444836D02*
X181881795Y-131521027D01*
X181881795Y-131521027D02*
X181843700Y-131635312D01*
X181843700Y-131635312D02*
X181805604Y-131673408D01*
X181805604Y-131673408D02*
X181538938Y-131673408D01*
X181538938Y-131673408D02*
X181538938Y-131521027D01*
X181881795Y-132016265D02*
X181081795Y-132016265D01*
X181081795Y-132016265D02*
X181881795Y-132473408D01*
X181881795Y-132473408D02*
X181081795Y-132473408D01*
X181881795Y-132854360D02*
X181081795Y-132854360D01*
X181081795Y-132854360D02*
X181081795Y-133044836D01*
X181081795Y-133044836D02*
X181119890Y-133159122D01*
X181119890Y-133159122D02*
X181196080Y-133235312D01*
X181196080Y-133235312D02*
X181272271Y-133273407D01*
X181272271Y-133273407D02*
X181424652Y-133311503D01*
X181424652Y-133311503D02*
X181538938Y-133311503D01*
X181538938Y-133311503D02*
X181691319Y-133273407D01*
X181691319Y-133273407D02*
X181767509Y-133235312D01*
X181767509Y-133235312D02*
X181843700Y-133159122D01*
X181843700Y-133159122D02*
X181881795Y-133044836D01*
X181881795Y-133044836D02*
X181881795Y-132854360D01*
X167816795Y-131216265D02*
X167016795Y-131216265D01*
X167016795Y-131216265D02*
X167016795Y-131521027D01*
X167016795Y-131521027D02*
X167054890Y-131597217D01*
X167054890Y-131597217D02*
X167092985Y-131635312D01*
X167092985Y-131635312D02*
X167169176Y-131673408D01*
X167169176Y-131673408D02*
X167283461Y-131673408D01*
X167283461Y-131673408D02*
X167359652Y-131635312D01*
X167359652Y-131635312D02*
X167397747Y-131597217D01*
X167397747Y-131597217D02*
X167435842Y-131521027D01*
X167435842Y-131521027D02*
X167435842Y-131216265D01*
X167016795Y-131940074D02*
X167816795Y-132130550D01*
X167816795Y-132130550D02*
X167245366Y-132282931D01*
X167245366Y-132282931D02*
X167816795Y-132435312D01*
X167816795Y-132435312D02*
X167016795Y-132625789D01*
X167816795Y-133387694D02*
X167435842Y-133121027D01*
X167816795Y-132930551D02*
X167016795Y-132930551D01*
X167016795Y-132930551D02*
X167016795Y-133235313D01*
X167016795Y-133235313D02*
X167054890Y-133311503D01*
X167054890Y-133311503D02*
X167092985Y-133349598D01*
X167092985Y-133349598D02*
X167169176Y-133387694D01*
X167169176Y-133387694D02*
X167283461Y-133387694D01*
X167283461Y-133387694D02*
X167359652Y-133349598D01*
X167359652Y-133349598D02*
X167397747Y-133311503D01*
X167397747Y-133311503D02*
X167435842Y-133235313D01*
X167435842Y-133235313D02*
X167435842Y-132930551D01*
D11*
X147251178Y-109667935D02*
X146794035Y-109667935D01*
X147022607Y-110467935D02*
X147022607Y-109667935D01*
X146527368Y-110467935D02*
X146527368Y-109667935D01*
X146527368Y-110048887D02*
X146070225Y-110048887D01*
X146070225Y-110467935D02*
X146070225Y-109667935D01*
X145270226Y-110467935D02*
X145727369Y-110467935D01*
X145498797Y-110467935D02*
X145498797Y-109667935D01*
X145498797Y-109667935D02*
X145574988Y-109782220D01*
X145574988Y-109782220D02*
X145651178Y-109858411D01*
X145651178Y-109858411D02*
X145727369Y-109896506D01*
X144927368Y-110163173D02*
X144317845Y-110163173D01*
X143517845Y-109706030D02*
X143594035Y-109667935D01*
X143594035Y-109667935D02*
X143708321Y-109667935D01*
X143708321Y-109667935D02*
X143822607Y-109706030D01*
X143822607Y-109706030D02*
X143898797Y-109782220D01*
X143898797Y-109782220D02*
X143936892Y-109858411D01*
X143936892Y-109858411D02*
X143974988Y-110010792D01*
X143974988Y-110010792D02*
X143974988Y-110125078D01*
X143974988Y-110125078D02*
X143936892Y-110277459D01*
X143936892Y-110277459D02*
X143898797Y-110353649D01*
X143898797Y-110353649D02*
X143822607Y-110429840D01*
X143822607Y-110429840D02*
X143708321Y-110467935D01*
X143708321Y-110467935D02*
X143632130Y-110467935D01*
X143632130Y-110467935D02*
X143517845Y-110429840D01*
X143517845Y-110429840D02*
X143479749Y-110391744D01*
X143479749Y-110391744D02*
X143479749Y-110125078D01*
X143479749Y-110125078D02*
X143632130Y-110125078D01*
X143136892Y-110467935D02*
X143136892Y-109667935D01*
X143136892Y-109667935D02*
X142679749Y-110467935D01*
X142679749Y-110467935D02*
X142679749Y-109667935D01*
X142298797Y-110467935D02*
X142298797Y-109667935D01*
X142298797Y-109667935D02*
X142108321Y-109667935D01*
X142108321Y-109667935D02*
X141994035Y-109706030D01*
X141994035Y-109706030D02*
X141917845Y-109782220D01*
X141917845Y-109782220D02*
X141879750Y-109858411D01*
X141879750Y-109858411D02*
X141841654Y-110010792D01*
X141841654Y-110010792D02*
X141841654Y-110125078D01*
X141841654Y-110125078D02*
X141879750Y-110277459D01*
X141879750Y-110277459D02*
X141917845Y-110353649D01*
X141917845Y-110353649D02*
X141994035Y-110429840D01*
X141994035Y-110429840D02*
X142108321Y-110467935D01*
X142108321Y-110467935D02*
X142298797Y-110467935D01*
D10*
X106364687Y-95359990D02*
X106440877Y-95321895D01*
X106440877Y-95321895D02*
X106555163Y-95321895D01*
X106555163Y-95321895D02*
X106669449Y-95359990D01*
X106669449Y-95359990D02*
X106745639Y-95436180D01*
X106745639Y-95436180D02*
X106783734Y-95512371D01*
X106783734Y-95512371D02*
X106821830Y-95664752D01*
X106821830Y-95664752D02*
X106821830Y-95779038D01*
X106821830Y-95779038D02*
X106783734Y-95931419D01*
X106783734Y-95931419D02*
X106745639Y-96007609D01*
X106745639Y-96007609D02*
X106669449Y-96083800D01*
X106669449Y-96083800D02*
X106555163Y-96121895D01*
X106555163Y-96121895D02*
X106478972Y-96121895D01*
X106478972Y-96121895D02*
X106364687Y-96083800D01*
X106364687Y-96083800D02*
X106326591Y-96045704D01*
X106326591Y-96045704D02*
X106326591Y-95779038D01*
X106326591Y-95779038D02*
X106478972Y-95779038D01*
X105983734Y-96121895D02*
X105983734Y-95321895D01*
X105983734Y-95321895D02*
X105526591Y-96121895D01*
X105526591Y-96121895D02*
X105526591Y-95321895D01*
X105145639Y-96121895D02*
X105145639Y-95321895D01*
X105145639Y-95321895D02*
X104955163Y-95321895D01*
X104955163Y-95321895D02*
X104840877Y-95359990D01*
X104840877Y-95359990D02*
X104764687Y-95436180D01*
X104764687Y-95436180D02*
X104726592Y-95512371D01*
X104726592Y-95512371D02*
X104688496Y-95664752D01*
X104688496Y-95664752D02*
X104688496Y-95779038D01*
X104688496Y-95779038D02*
X104726592Y-95931419D01*
X104726592Y-95931419D02*
X104764687Y-96007609D01*
X104764687Y-96007609D02*
X104840877Y-96083800D01*
X104840877Y-96083800D02*
X104955163Y-96121895D01*
X104955163Y-96121895D02*
X105145639Y-96121895D01*
X133571353Y-98546895D02*
X133418972Y-98546895D01*
X133418972Y-98546895D02*
X133342782Y-98584990D01*
X133342782Y-98584990D02*
X133266591Y-98661180D01*
X133266591Y-98661180D02*
X133228496Y-98813561D01*
X133228496Y-98813561D02*
X133228496Y-99080228D01*
X133228496Y-99080228D02*
X133266591Y-99232609D01*
X133266591Y-99232609D02*
X133342782Y-99308800D01*
X133342782Y-99308800D02*
X133418972Y-99346895D01*
X133418972Y-99346895D02*
X133571353Y-99346895D01*
X133571353Y-99346895D02*
X133647544Y-99308800D01*
X133647544Y-99308800D02*
X133723734Y-99232609D01*
X133723734Y-99232609D02*
X133761830Y-99080228D01*
X133761830Y-99080228D02*
X133761830Y-98813561D01*
X133761830Y-98813561D02*
X133723734Y-98661180D01*
X133723734Y-98661180D02*
X133647544Y-98584990D01*
X133647544Y-98584990D02*
X133571353Y-98546895D01*
X132885639Y-99346895D02*
X132885639Y-98546895D01*
X132885639Y-98546895D02*
X132428496Y-99346895D01*
X132428496Y-99346895D02*
X132428496Y-98546895D01*
X132085640Y-99308800D02*
X131971354Y-99346895D01*
X131971354Y-99346895D02*
X131780878Y-99346895D01*
X131780878Y-99346895D02*
X131704687Y-99308800D01*
X131704687Y-99308800D02*
X131666592Y-99270704D01*
X131666592Y-99270704D02*
X131628497Y-99194514D01*
X131628497Y-99194514D02*
X131628497Y-99118323D01*
X131628497Y-99118323D02*
X131666592Y-99042133D01*
X131666592Y-99042133D02*
X131704687Y-99004038D01*
X131704687Y-99004038D02*
X131780878Y-98965942D01*
X131780878Y-98965942D02*
X131933259Y-98927847D01*
X131933259Y-98927847D02*
X132009449Y-98889752D01*
X132009449Y-98889752D02*
X132047544Y-98851657D01*
X132047544Y-98851657D02*
X132085640Y-98775466D01*
X132085640Y-98775466D02*
X132085640Y-98699276D01*
X132085640Y-98699276D02*
X132047544Y-98623085D01*
X132047544Y-98623085D02*
X132009449Y-98584990D01*
X132009449Y-98584990D02*
X131933259Y-98546895D01*
X131933259Y-98546895D02*
X131742782Y-98546895D01*
X131742782Y-98546895D02*
X131628497Y-98584990D01*
X131285639Y-99042133D02*
X130676116Y-99042133D01*
X130371354Y-98546895D02*
X129876116Y-98546895D01*
X129876116Y-98546895D02*
X130142782Y-98851657D01*
X130142782Y-98851657D02*
X130028497Y-98851657D01*
X130028497Y-98851657D02*
X129952306Y-98889752D01*
X129952306Y-98889752D02*
X129914211Y-98927847D01*
X129914211Y-98927847D02*
X129876116Y-99004038D01*
X129876116Y-99004038D02*
X129876116Y-99194514D01*
X129876116Y-99194514D02*
X129914211Y-99270704D01*
X129914211Y-99270704D02*
X129952306Y-99308800D01*
X129952306Y-99308800D02*
X130028497Y-99346895D01*
X130028497Y-99346895D02*
X130257068Y-99346895D01*
X130257068Y-99346895D02*
X130333259Y-99308800D01*
X130333259Y-99308800D02*
X130371354Y-99270704D01*
X125194890Y-64605312D02*
X125156795Y-64529122D01*
X125156795Y-64529122D02*
X125156795Y-64414836D01*
X125156795Y-64414836D02*
X125194890Y-64300550D01*
X125194890Y-64300550D02*
X125271080Y-64224360D01*
X125271080Y-64224360D02*
X125347271Y-64186265D01*
X125347271Y-64186265D02*
X125499652Y-64148169D01*
X125499652Y-64148169D02*
X125613938Y-64148169D01*
X125613938Y-64148169D02*
X125766319Y-64186265D01*
X125766319Y-64186265D02*
X125842509Y-64224360D01*
X125842509Y-64224360D02*
X125918700Y-64300550D01*
X125918700Y-64300550D02*
X125956795Y-64414836D01*
X125956795Y-64414836D02*
X125956795Y-64491027D01*
X125956795Y-64491027D02*
X125918700Y-64605312D01*
X125918700Y-64605312D02*
X125880604Y-64643408D01*
X125880604Y-64643408D02*
X125613938Y-64643408D01*
X125613938Y-64643408D02*
X125613938Y-64491027D01*
X125956795Y-64986265D02*
X125156795Y-64986265D01*
X125156795Y-64986265D02*
X125956795Y-65443408D01*
X125956795Y-65443408D02*
X125156795Y-65443408D01*
X125956795Y-65824360D02*
X125156795Y-65824360D01*
X125156795Y-65824360D02*
X125156795Y-66014836D01*
X125156795Y-66014836D02*
X125194890Y-66129122D01*
X125194890Y-66129122D02*
X125271080Y-66205312D01*
X125271080Y-66205312D02*
X125347271Y-66243407D01*
X125347271Y-66243407D02*
X125499652Y-66281503D01*
X125499652Y-66281503D02*
X125613938Y-66281503D01*
X125613938Y-66281503D02*
X125766319Y-66243407D01*
X125766319Y-66243407D02*
X125842509Y-66205312D01*
X125842509Y-66205312D02*
X125918700Y-66129122D01*
X125918700Y-66129122D02*
X125956795Y-66014836D01*
X125956795Y-66014836D02*
X125956795Y-65824360D01*
X169579890Y-131635312D02*
X169541795Y-131559122D01*
X169541795Y-131559122D02*
X169541795Y-131444836D01*
X169541795Y-131444836D02*
X169579890Y-131330550D01*
X169579890Y-131330550D02*
X169656080Y-131254360D01*
X169656080Y-131254360D02*
X169732271Y-131216265D01*
X169732271Y-131216265D02*
X169884652Y-131178169D01*
X169884652Y-131178169D02*
X169998938Y-131178169D01*
X169998938Y-131178169D02*
X170151319Y-131216265D01*
X170151319Y-131216265D02*
X170227509Y-131254360D01*
X170227509Y-131254360D02*
X170303700Y-131330550D01*
X170303700Y-131330550D02*
X170341795Y-131444836D01*
X170341795Y-131444836D02*
X170341795Y-131521027D01*
X170341795Y-131521027D02*
X170303700Y-131635312D01*
X170303700Y-131635312D02*
X170265604Y-131673408D01*
X170265604Y-131673408D02*
X169998938Y-131673408D01*
X169998938Y-131673408D02*
X169998938Y-131521027D01*
X170341795Y-132016265D02*
X169541795Y-132016265D01*
X169541795Y-132016265D02*
X170341795Y-132473408D01*
X170341795Y-132473408D02*
X169541795Y-132473408D01*
X170341795Y-132854360D02*
X169541795Y-132854360D01*
X169541795Y-132854360D02*
X169541795Y-133044836D01*
X169541795Y-133044836D02*
X169579890Y-133159122D01*
X169579890Y-133159122D02*
X169656080Y-133235312D01*
X169656080Y-133235312D02*
X169732271Y-133273407D01*
X169732271Y-133273407D02*
X169884652Y-133311503D01*
X169884652Y-133311503D02*
X169998938Y-133311503D01*
X169998938Y-133311503D02*
X170151319Y-133273407D01*
X170151319Y-133273407D02*
X170227509Y-133235312D01*
X170227509Y-133235312D02*
X170303700Y-133159122D01*
X170303700Y-133159122D02*
X170341795Y-133044836D01*
X170341795Y-133044836D02*
X170341795Y-132854360D01*
D11*
X156181178Y-87497935D02*
X155724035Y-87497935D01*
X155952607Y-88297935D02*
X155952607Y-87497935D01*
X155457368Y-88297935D02*
X155457368Y-87497935D01*
X155457368Y-87878887D02*
X155000225Y-87878887D01*
X155000225Y-88297935D02*
X155000225Y-87497935D01*
X154657369Y-87574125D02*
X154619273Y-87536030D01*
X154619273Y-87536030D02*
X154543083Y-87497935D01*
X154543083Y-87497935D02*
X154352607Y-87497935D01*
X154352607Y-87497935D02*
X154276416Y-87536030D01*
X154276416Y-87536030D02*
X154238321Y-87574125D01*
X154238321Y-87574125D02*
X154200226Y-87650316D01*
X154200226Y-87650316D02*
X154200226Y-87726506D01*
X154200226Y-87726506D02*
X154238321Y-87840792D01*
X154238321Y-87840792D02*
X154695464Y-88297935D01*
X154695464Y-88297935D02*
X154200226Y-88297935D01*
X153857368Y-87993173D02*
X153247845Y-87993173D01*
X152866892Y-88297935D02*
X152866892Y-87497935D01*
X152866892Y-87497935D02*
X152562130Y-87497935D01*
X152562130Y-87497935D02*
X152485940Y-87536030D01*
X152485940Y-87536030D02*
X152447845Y-87574125D01*
X152447845Y-87574125D02*
X152409749Y-87650316D01*
X152409749Y-87650316D02*
X152409749Y-87764601D01*
X152409749Y-87764601D02*
X152447845Y-87840792D01*
X152447845Y-87840792D02*
X152485940Y-87878887D01*
X152485940Y-87878887D02*
X152562130Y-87916982D01*
X152562130Y-87916982D02*
X152866892Y-87916982D01*
X152143083Y-87497935D02*
X151952607Y-88297935D01*
X151952607Y-88297935D02*
X151800226Y-87726506D01*
X151800226Y-87726506D02*
X151647845Y-88297935D01*
X151647845Y-88297935D02*
X151457369Y-87497935D01*
X150695463Y-88297935D02*
X150962130Y-87916982D01*
X151152606Y-88297935D02*
X151152606Y-87497935D01*
X151152606Y-87497935D02*
X150847844Y-87497935D01*
X150847844Y-87497935D02*
X150771654Y-87536030D01*
X150771654Y-87536030D02*
X150733559Y-87574125D01*
X150733559Y-87574125D02*
X150695463Y-87650316D01*
X150695463Y-87650316D02*
X150695463Y-87764601D01*
X150695463Y-87764601D02*
X150733559Y-87840792D01*
X150733559Y-87840792D02*
X150771654Y-87878887D01*
X150771654Y-87878887D02*
X150847844Y-87916982D01*
X150847844Y-87916982D02*
X151152606Y-87916982D01*
D10*
X138006795Y-57109836D02*
X137206795Y-57109836D01*
X137206795Y-57109836D02*
X137206795Y-57414598D01*
X137206795Y-57414598D02*
X137244890Y-57490788D01*
X137244890Y-57490788D02*
X137282985Y-57528883D01*
X137282985Y-57528883D02*
X137359176Y-57566979D01*
X137359176Y-57566979D02*
X137473461Y-57566979D01*
X137473461Y-57566979D02*
X137549652Y-57528883D01*
X137549652Y-57528883D02*
X137587747Y-57490788D01*
X137587747Y-57490788D02*
X137625842Y-57414598D01*
X137625842Y-57414598D02*
X137625842Y-57109836D01*
X137206795Y-57833645D02*
X138006795Y-58024121D01*
X138006795Y-58024121D02*
X137435366Y-58176502D01*
X137435366Y-58176502D02*
X138006795Y-58328883D01*
X138006795Y-58328883D02*
X137206795Y-58519360D01*
X138006795Y-59281265D02*
X137625842Y-59014598D01*
X138006795Y-58824122D02*
X137206795Y-58824122D01*
X137206795Y-58824122D02*
X137206795Y-59128884D01*
X137206795Y-59128884D02*
X137244890Y-59205074D01*
X137244890Y-59205074D02*
X137282985Y-59243169D01*
X137282985Y-59243169D02*
X137359176Y-59281265D01*
X137359176Y-59281265D02*
X137473461Y-59281265D01*
X137473461Y-59281265D02*
X137549652Y-59243169D01*
X137549652Y-59243169D02*
X137587747Y-59205074D01*
X137587747Y-59205074D02*
X137625842Y-59128884D01*
X137625842Y-59128884D02*
X137625842Y-58824122D01*
X176758700Y-64567216D02*
X176796795Y-64681502D01*
X176796795Y-64681502D02*
X176796795Y-64871978D01*
X176796795Y-64871978D02*
X176758700Y-64948169D01*
X176758700Y-64948169D02*
X176720604Y-64986264D01*
X176720604Y-64986264D02*
X176644414Y-65024359D01*
X176644414Y-65024359D02*
X176568223Y-65024359D01*
X176568223Y-65024359D02*
X176492033Y-64986264D01*
X176492033Y-64986264D02*
X176453938Y-64948169D01*
X176453938Y-64948169D02*
X176415842Y-64871978D01*
X176415842Y-64871978D02*
X176377747Y-64719597D01*
X176377747Y-64719597D02*
X176339652Y-64643407D01*
X176339652Y-64643407D02*
X176301557Y-64605312D01*
X176301557Y-64605312D02*
X176225366Y-64567216D01*
X176225366Y-64567216D02*
X176149176Y-64567216D01*
X176149176Y-64567216D02*
X176072985Y-64605312D01*
X176072985Y-64605312D02*
X176034890Y-64643407D01*
X176034890Y-64643407D02*
X175996795Y-64719597D01*
X175996795Y-64719597D02*
X175996795Y-64910074D01*
X175996795Y-64910074D02*
X176034890Y-65024359D01*
X176796795Y-65367217D02*
X175996795Y-65367217D01*
X176034890Y-66167216D02*
X175996795Y-66091026D01*
X175996795Y-66091026D02*
X175996795Y-65976740D01*
X175996795Y-65976740D02*
X176034890Y-65862454D01*
X176034890Y-65862454D02*
X176111080Y-65786264D01*
X176111080Y-65786264D02*
X176187271Y-65748169D01*
X176187271Y-65748169D02*
X176339652Y-65710073D01*
X176339652Y-65710073D02*
X176453938Y-65710073D01*
X176453938Y-65710073D02*
X176606319Y-65748169D01*
X176606319Y-65748169D02*
X176682509Y-65786264D01*
X176682509Y-65786264D02*
X176758700Y-65862454D01*
X176758700Y-65862454D02*
X176796795Y-65976740D01*
X176796795Y-65976740D02*
X176796795Y-66052931D01*
X176796795Y-66052931D02*
X176758700Y-66167216D01*
X176758700Y-66167216D02*
X176720604Y-66205312D01*
X176720604Y-66205312D02*
X176453938Y-66205312D01*
X176453938Y-66205312D02*
X176453938Y-66052931D01*
X169559890Y-64529121D02*
X169521795Y-64452931D01*
X169521795Y-64452931D02*
X169521795Y-64338645D01*
X169521795Y-64338645D02*
X169559890Y-64224359D01*
X169559890Y-64224359D02*
X169636080Y-64148169D01*
X169636080Y-64148169D02*
X169712271Y-64110074D01*
X169712271Y-64110074D02*
X169864652Y-64071978D01*
X169864652Y-64071978D02*
X169978938Y-64071978D01*
X169978938Y-64071978D02*
X170131319Y-64110074D01*
X170131319Y-64110074D02*
X170207509Y-64148169D01*
X170207509Y-64148169D02*
X170283700Y-64224359D01*
X170283700Y-64224359D02*
X170321795Y-64338645D01*
X170321795Y-64338645D02*
X170321795Y-64414836D01*
X170321795Y-64414836D02*
X170283700Y-64529121D01*
X170283700Y-64529121D02*
X170245604Y-64567217D01*
X170245604Y-64567217D02*
X169978938Y-64567217D01*
X169978938Y-64567217D02*
X169978938Y-64414836D01*
X170321795Y-64910074D02*
X169521795Y-64910074D01*
X169521795Y-64910074D02*
X170321795Y-65367217D01*
X170321795Y-65367217D02*
X169521795Y-65367217D01*
X170321795Y-65748169D02*
X169521795Y-65748169D01*
X169521795Y-65748169D02*
X169521795Y-65938645D01*
X169521795Y-65938645D02*
X169559890Y-66052931D01*
X169559890Y-66052931D02*
X169636080Y-66129121D01*
X169636080Y-66129121D02*
X169712271Y-66167216D01*
X169712271Y-66167216D02*
X169864652Y-66205312D01*
X169864652Y-66205312D02*
X169978938Y-66205312D01*
X169978938Y-66205312D02*
X170131319Y-66167216D01*
X170131319Y-66167216D02*
X170207509Y-66129121D01*
X170207509Y-66129121D02*
X170283700Y-66052931D01*
X170283700Y-66052931D02*
X170321795Y-65938645D01*
X170321795Y-65938645D02*
X170321795Y-65748169D01*
X151756795Y-57109836D02*
X150956795Y-57109836D01*
X150956795Y-57109836D02*
X150956795Y-57414598D01*
X150956795Y-57414598D02*
X150994890Y-57490788D01*
X150994890Y-57490788D02*
X151032985Y-57528883D01*
X151032985Y-57528883D02*
X151109176Y-57566979D01*
X151109176Y-57566979D02*
X151223461Y-57566979D01*
X151223461Y-57566979D02*
X151299652Y-57528883D01*
X151299652Y-57528883D02*
X151337747Y-57490788D01*
X151337747Y-57490788D02*
X151375842Y-57414598D01*
X151375842Y-57414598D02*
X151375842Y-57109836D01*
X150956795Y-57833645D02*
X151756795Y-58024121D01*
X151756795Y-58024121D02*
X151185366Y-58176502D01*
X151185366Y-58176502D02*
X151756795Y-58328883D01*
X151756795Y-58328883D02*
X150956795Y-58519360D01*
X151756795Y-59281265D02*
X151375842Y-59014598D01*
X151756795Y-58824122D02*
X150956795Y-58824122D01*
X150956795Y-58824122D02*
X150956795Y-59128884D01*
X150956795Y-59128884D02*
X150994890Y-59205074D01*
X150994890Y-59205074D02*
X151032985Y-59243169D01*
X151032985Y-59243169D02*
X151109176Y-59281265D01*
X151109176Y-59281265D02*
X151223461Y-59281265D01*
X151223461Y-59281265D02*
X151299652Y-59243169D01*
X151299652Y-59243169D02*
X151337747Y-59205074D01*
X151337747Y-59205074D02*
X151375842Y-59128884D01*
X151375842Y-59128884D02*
X151375842Y-58824122D01*
X144709925Y-114346895D02*
X144214687Y-114346895D01*
X144214687Y-114346895D02*
X144481353Y-114651657D01*
X144481353Y-114651657D02*
X144367068Y-114651657D01*
X144367068Y-114651657D02*
X144290877Y-114689752D01*
X144290877Y-114689752D02*
X144252782Y-114727847D01*
X144252782Y-114727847D02*
X144214687Y-114804038D01*
X144214687Y-114804038D02*
X144214687Y-114994514D01*
X144214687Y-114994514D02*
X144252782Y-115070704D01*
X144252782Y-115070704D02*
X144290877Y-115108800D01*
X144290877Y-115108800D02*
X144367068Y-115146895D01*
X144367068Y-115146895D02*
X144595639Y-115146895D01*
X144595639Y-115146895D02*
X144671830Y-115108800D01*
X144671830Y-115108800D02*
X144709925Y-115070704D01*
X143719448Y-114346895D02*
X143643258Y-114346895D01*
X143643258Y-114346895D02*
X143567067Y-114384990D01*
X143567067Y-114384990D02*
X143528972Y-114423085D01*
X143528972Y-114423085D02*
X143490877Y-114499276D01*
X143490877Y-114499276D02*
X143452782Y-114651657D01*
X143452782Y-114651657D02*
X143452782Y-114842133D01*
X143452782Y-114842133D02*
X143490877Y-114994514D01*
X143490877Y-114994514D02*
X143528972Y-115070704D01*
X143528972Y-115070704D02*
X143567067Y-115108800D01*
X143567067Y-115108800D02*
X143643258Y-115146895D01*
X143643258Y-115146895D02*
X143719448Y-115146895D01*
X143719448Y-115146895D02*
X143795639Y-115108800D01*
X143795639Y-115108800D02*
X143833734Y-115070704D01*
X143833734Y-115070704D02*
X143871829Y-114994514D01*
X143871829Y-114994514D02*
X143909925Y-114842133D01*
X143909925Y-114842133D02*
X143909925Y-114651657D01*
X143909925Y-114651657D02*
X143871829Y-114499276D01*
X143871829Y-114499276D02*
X143833734Y-114423085D01*
X143833734Y-114423085D02*
X143795639Y-114384990D01*
X143795639Y-114384990D02*
X143719448Y-114346895D01*
X142690877Y-115146895D02*
X143148020Y-115146895D01*
X142919448Y-115146895D02*
X142919448Y-114346895D01*
X142919448Y-114346895D02*
X142995639Y-114461180D01*
X142995639Y-114461180D02*
X143071829Y-114537371D01*
X143071829Y-114537371D02*
X143148020Y-114575466D01*
X141967067Y-114346895D02*
X142348019Y-114346895D01*
X142348019Y-114346895D02*
X142386115Y-114727847D01*
X142386115Y-114727847D02*
X142348019Y-114689752D01*
X142348019Y-114689752D02*
X142271829Y-114651657D01*
X142271829Y-114651657D02*
X142081353Y-114651657D01*
X142081353Y-114651657D02*
X142005162Y-114689752D01*
X142005162Y-114689752D02*
X141967067Y-114727847D01*
X141967067Y-114727847D02*
X141928972Y-114804038D01*
X141928972Y-114804038D02*
X141928972Y-114994514D01*
X141928972Y-114994514D02*
X141967067Y-115070704D01*
X141967067Y-115070704D02*
X142005162Y-115108800D01*
X142005162Y-115108800D02*
X142081353Y-115146895D01*
X142081353Y-115146895D02*
X142271829Y-115146895D01*
X142271829Y-115146895D02*
X142348019Y-115108800D01*
X142348019Y-115108800D02*
X142386115Y-115070704D01*
X141586114Y-115146895D02*
X141586114Y-114346895D01*
X141586114Y-114346895D02*
X141281352Y-114346895D01*
X141281352Y-114346895D02*
X141205162Y-114384990D01*
X141205162Y-114384990D02*
X141167067Y-114423085D01*
X141167067Y-114423085D02*
X141128971Y-114499276D01*
X141128971Y-114499276D02*
X141128971Y-114613561D01*
X141128971Y-114613561D02*
X141167067Y-114689752D01*
X141167067Y-114689752D02*
X141205162Y-114727847D01*
X141205162Y-114727847D02*
X141281352Y-114765942D01*
X141281352Y-114765942D02*
X141586114Y-114765942D01*
X140824210Y-115108800D02*
X140709924Y-115146895D01*
X140709924Y-115146895D02*
X140519448Y-115146895D01*
X140519448Y-115146895D02*
X140443257Y-115108800D01*
X140443257Y-115108800D02*
X140405162Y-115070704D01*
X140405162Y-115070704D02*
X140367067Y-114994514D01*
X140367067Y-114994514D02*
X140367067Y-114918323D01*
X140367067Y-114918323D02*
X140405162Y-114842133D01*
X140405162Y-114842133D02*
X140443257Y-114804038D01*
X140443257Y-114804038D02*
X140519448Y-114765942D01*
X140519448Y-114765942D02*
X140671829Y-114727847D01*
X140671829Y-114727847D02*
X140748019Y-114689752D01*
X140748019Y-114689752D02*
X140786114Y-114651657D01*
X140786114Y-114651657D02*
X140824210Y-114575466D01*
X140824210Y-114575466D02*
X140824210Y-114499276D01*
X140824210Y-114499276D02*
X140786114Y-114423085D01*
X140786114Y-114423085D02*
X140748019Y-114384990D01*
X140748019Y-114384990D02*
X140671829Y-114346895D01*
X140671829Y-114346895D02*
X140481352Y-114346895D01*
X140481352Y-114346895D02*
X140367067Y-114384990D01*
X122001795Y-131216265D02*
X121201795Y-131216265D01*
X121201795Y-131216265D02*
X121201795Y-131521027D01*
X121201795Y-131521027D02*
X121239890Y-131597217D01*
X121239890Y-131597217D02*
X121277985Y-131635312D01*
X121277985Y-131635312D02*
X121354176Y-131673408D01*
X121354176Y-131673408D02*
X121468461Y-131673408D01*
X121468461Y-131673408D02*
X121544652Y-131635312D01*
X121544652Y-131635312D02*
X121582747Y-131597217D01*
X121582747Y-131597217D02*
X121620842Y-131521027D01*
X121620842Y-131521027D02*
X121620842Y-131216265D01*
X121201795Y-131940074D02*
X122001795Y-132130550D01*
X122001795Y-132130550D02*
X121430366Y-132282931D01*
X121430366Y-132282931D02*
X122001795Y-132435312D01*
X122001795Y-132435312D02*
X121201795Y-132625789D01*
X122001795Y-133387694D02*
X121620842Y-133121027D01*
X122001795Y-132930551D02*
X121201795Y-132930551D01*
X121201795Y-132930551D02*
X121201795Y-133235313D01*
X121201795Y-133235313D02*
X121239890Y-133311503D01*
X121239890Y-133311503D02*
X121277985Y-133349598D01*
X121277985Y-133349598D02*
X121354176Y-133387694D01*
X121354176Y-133387694D02*
X121468461Y-133387694D01*
X121468461Y-133387694D02*
X121544652Y-133349598D01*
X121544652Y-133349598D02*
X121582747Y-133311503D01*
X121582747Y-133311503D02*
X121620842Y-133235313D01*
X121620842Y-133235313D02*
X121620842Y-132930551D01*
X147018700Y-137897931D02*
X147056795Y-138012217D01*
X147056795Y-138012217D02*
X147056795Y-138202693D01*
X147056795Y-138202693D02*
X147018700Y-138278884D01*
X147018700Y-138278884D02*
X146980604Y-138316979D01*
X146980604Y-138316979D02*
X146904414Y-138355074D01*
X146904414Y-138355074D02*
X146828223Y-138355074D01*
X146828223Y-138355074D02*
X146752033Y-138316979D01*
X146752033Y-138316979D02*
X146713938Y-138278884D01*
X146713938Y-138278884D02*
X146675842Y-138202693D01*
X146675842Y-138202693D02*
X146637747Y-138050312D01*
X146637747Y-138050312D02*
X146599652Y-137974122D01*
X146599652Y-137974122D02*
X146561557Y-137936027D01*
X146561557Y-137936027D02*
X146485366Y-137897931D01*
X146485366Y-137897931D02*
X146409176Y-137897931D01*
X146409176Y-137897931D02*
X146332985Y-137936027D01*
X146332985Y-137936027D02*
X146294890Y-137974122D01*
X146294890Y-137974122D02*
X146256795Y-138050312D01*
X146256795Y-138050312D02*
X146256795Y-138240789D01*
X146256795Y-138240789D02*
X146294890Y-138355074D01*
X147056795Y-138697932D02*
X146256795Y-138697932D01*
X146294890Y-139497931D02*
X146256795Y-139421741D01*
X146256795Y-139421741D02*
X146256795Y-139307455D01*
X146256795Y-139307455D02*
X146294890Y-139193169D01*
X146294890Y-139193169D02*
X146371080Y-139116979D01*
X146371080Y-139116979D02*
X146447271Y-139078884D01*
X146447271Y-139078884D02*
X146599652Y-139040788D01*
X146599652Y-139040788D02*
X146713938Y-139040788D01*
X146713938Y-139040788D02*
X146866319Y-139078884D01*
X146866319Y-139078884D02*
X146942509Y-139116979D01*
X146942509Y-139116979D02*
X147018700Y-139193169D01*
X147018700Y-139193169D02*
X147056795Y-139307455D01*
X147056795Y-139307455D02*
X147056795Y-139383646D01*
X147056795Y-139383646D02*
X147018700Y-139497931D01*
X147018700Y-139497931D02*
X146980604Y-139536027D01*
X146980604Y-139536027D02*
X146713938Y-139536027D01*
X146713938Y-139536027D02*
X146713938Y-139383646D01*
X156069890Y-57605074D02*
X156031795Y-57528884D01*
X156031795Y-57528884D02*
X156031795Y-57414598D01*
X156031795Y-57414598D02*
X156069890Y-57300312D01*
X156069890Y-57300312D02*
X156146080Y-57224122D01*
X156146080Y-57224122D02*
X156222271Y-57186027D01*
X156222271Y-57186027D02*
X156374652Y-57147931D01*
X156374652Y-57147931D02*
X156488938Y-57147931D01*
X156488938Y-57147931D02*
X156641319Y-57186027D01*
X156641319Y-57186027D02*
X156717509Y-57224122D01*
X156717509Y-57224122D02*
X156793700Y-57300312D01*
X156793700Y-57300312D02*
X156831795Y-57414598D01*
X156831795Y-57414598D02*
X156831795Y-57490789D01*
X156831795Y-57490789D02*
X156793700Y-57605074D01*
X156793700Y-57605074D02*
X156755604Y-57643170D01*
X156755604Y-57643170D02*
X156488938Y-57643170D01*
X156488938Y-57643170D02*
X156488938Y-57490789D01*
X156831795Y-57986027D02*
X156031795Y-57986027D01*
X156031795Y-57986027D02*
X156831795Y-58443170D01*
X156831795Y-58443170D02*
X156031795Y-58443170D01*
X156831795Y-58824122D02*
X156031795Y-58824122D01*
X156031795Y-58824122D02*
X156031795Y-59014598D01*
X156031795Y-59014598D02*
X156069890Y-59128884D01*
X156069890Y-59128884D02*
X156146080Y-59205074D01*
X156146080Y-59205074D02*
X156222271Y-59243169D01*
X156222271Y-59243169D02*
X156374652Y-59281265D01*
X156374652Y-59281265D02*
X156488938Y-59281265D01*
X156488938Y-59281265D02*
X156641319Y-59243169D01*
X156641319Y-59243169D02*
X156717509Y-59205074D01*
X156717509Y-59205074D02*
X156793700Y-59128884D01*
X156793700Y-59128884D02*
X156831795Y-59014598D01*
X156831795Y-59014598D02*
X156831795Y-58824122D01*
X172109890Y-64529121D02*
X172071795Y-64452931D01*
X172071795Y-64452931D02*
X172071795Y-64338645D01*
X172071795Y-64338645D02*
X172109890Y-64224359D01*
X172109890Y-64224359D02*
X172186080Y-64148169D01*
X172186080Y-64148169D02*
X172262271Y-64110074D01*
X172262271Y-64110074D02*
X172414652Y-64071978D01*
X172414652Y-64071978D02*
X172528938Y-64071978D01*
X172528938Y-64071978D02*
X172681319Y-64110074D01*
X172681319Y-64110074D02*
X172757509Y-64148169D01*
X172757509Y-64148169D02*
X172833700Y-64224359D01*
X172833700Y-64224359D02*
X172871795Y-64338645D01*
X172871795Y-64338645D02*
X172871795Y-64414836D01*
X172871795Y-64414836D02*
X172833700Y-64529121D01*
X172833700Y-64529121D02*
X172795604Y-64567217D01*
X172795604Y-64567217D02*
X172528938Y-64567217D01*
X172528938Y-64567217D02*
X172528938Y-64414836D01*
X172871795Y-64910074D02*
X172071795Y-64910074D01*
X172071795Y-64910074D02*
X172871795Y-65367217D01*
X172871795Y-65367217D02*
X172071795Y-65367217D01*
X172871795Y-65748169D02*
X172071795Y-65748169D01*
X172071795Y-65748169D02*
X172071795Y-65938645D01*
X172071795Y-65938645D02*
X172109890Y-66052931D01*
X172109890Y-66052931D02*
X172186080Y-66129121D01*
X172186080Y-66129121D02*
X172262271Y-66167216D01*
X172262271Y-66167216D02*
X172414652Y-66205312D01*
X172414652Y-66205312D02*
X172528938Y-66205312D01*
X172528938Y-66205312D02*
X172681319Y-66167216D01*
X172681319Y-66167216D02*
X172757509Y-66129121D01*
X172757509Y-66129121D02*
X172833700Y-66052931D01*
X172833700Y-66052931D02*
X172871795Y-65938645D01*
X172871795Y-65938645D02*
X172871795Y-65748169D01*
D11*
X156401178Y-109617935D02*
X155944035Y-109617935D01*
X156172607Y-110417935D02*
X156172607Y-109617935D01*
X155677368Y-110417935D02*
X155677368Y-109617935D01*
X155677368Y-109998887D02*
X155220225Y-109998887D01*
X155220225Y-110417935D02*
X155220225Y-109617935D01*
X154877369Y-109694125D02*
X154839273Y-109656030D01*
X154839273Y-109656030D02*
X154763083Y-109617935D01*
X154763083Y-109617935D02*
X154572607Y-109617935D01*
X154572607Y-109617935D02*
X154496416Y-109656030D01*
X154496416Y-109656030D02*
X154458321Y-109694125D01*
X154458321Y-109694125D02*
X154420226Y-109770316D01*
X154420226Y-109770316D02*
X154420226Y-109846506D01*
X154420226Y-109846506D02*
X154458321Y-109960792D01*
X154458321Y-109960792D02*
X154915464Y-110417935D01*
X154915464Y-110417935D02*
X154420226Y-110417935D01*
X154077368Y-110113173D02*
X153467845Y-110113173D01*
X152667845Y-109656030D02*
X152744035Y-109617935D01*
X152744035Y-109617935D02*
X152858321Y-109617935D01*
X152858321Y-109617935D02*
X152972607Y-109656030D01*
X152972607Y-109656030D02*
X153048797Y-109732220D01*
X153048797Y-109732220D02*
X153086892Y-109808411D01*
X153086892Y-109808411D02*
X153124988Y-109960792D01*
X153124988Y-109960792D02*
X153124988Y-110075078D01*
X153124988Y-110075078D02*
X153086892Y-110227459D01*
X153086892Y-110227459D02*
X153048797Y-110303649D01*
X153048797Y-110303649D02*
X152972607Y-110379840D01*
X152972607Y-110379840D02*
X152858321Y-110417935D01*
X152858321Y-110417935D02*
X152782130Y-110417935D01*
X152782130Y-110417935D02*
X152667845Y-110379840D01*
X152667845Y-110379840D02*
X152629749Y-110341744D01*
X152629749Y-110341744D02*
X152629749Y-110075078D01*
X152629749Y-110075078D02*
X152782130Y-110075078D01*
X152286892Y-110417935D02*
X152286892Y-109617935D01*
X152286892Y-109617935D02*
X151829749Y-110417935D01*
X151829749Y-110417935D02*
X151829749Y-109617935D01*
X151448797Y-110417935D02*
X151448797Y-109617935D01*
X151448797Y-109617935D02*
X151258321Y-109617935D01*
X151258321Y-109617935D02*
X151144035Y-109656030D01*
X151144035Y-109656030D02*
X151067845Y-109732220D01*
X151067845Y-109732220D02*
X151029750Y-109808411D01*
X151029750Y-109808411D02*
X150991654Y-109960792D01*
X150991654Y-109960792D02*
X150991654Y-110075078D01*
X150991654Y-110075078D02*
X151029750Y-110227459D01*
X151029750Y-110227459D02*
X151067845Y-110303649D01*
X151067845Y-110303649D02*
X151144035Y-110379840D01*
X151144035Y-110379840D02*
X151258321Y-110417935D01*
X151258321Y-110417935D02*
X151448797Y-110417935D01*
D10*
X156867068Y-83167847D02*
X157133734Y-83167847D01*
X157133734Y-83586895D02*
X157133734Y-82786895D01*
X157133734Y-82786895D02*
X156752782Y-82786895D01*
X156181354Y-83167847D02*
X156067068Y-83205942D01*
X156067068Y-83205942D02*
X156028973Y-83244038D01*
X156028973Y-83244038D02*
X155990877Y-83320228D01*
X155990877Y-83320228D02*
X155990877Y-83434514D01*
X155990877Y-83434514D02*
X156028973Y-83510704D01*
X156028973Y-83510704D02*
X156067068Y-83548800D01*
X156067068Y-83548800D02*
X156143258Y-83586895D01*
X156143258Y-83586895D02*
X156448020Y-83586895D01*
X156448020Y-83586895D02*
X156448020Y-82786895D01*
X156448020Y-82786895D02*
X156181354Y-82786895D01*
X156181354Y-82786895D02*
X156105163Y-82824990D01*
X156105163Y-82824990D02*
X156067068Y-82863085D01*
X156067068Y-82863085D02*
X156028973Y-82939276D01*
X156028973Y-82939276D02*
X156028973Y-83015466D01*
X156028973Y-83015466D02*
X156067068Y-83091657D01*
X156067068Y-83091657D02*
X156105163Y-83129752D01*
X156105163Y-83129752D02*
X156181354Y-83167847D01*
X156181354Y-83167847D02*
X156448020Y-83167847D01*
X155648020Y-83586895D02*
X155648020Y-82786895D01*
X155190877Y-83586895D02*
X155533735Y-83129752D01*
X155190877Y-82786895D02*
X155648020Y-83244038D01*
X154848020Y-83282133D02*
X154238497Y-83282133D01*
X153514687Y-83053561D02*
X153514687Y-83586895D01*
X153705163Y-82748800D02*
X153895640Y-83320228D01*
X153895640Y-83320228D02*
X153400401Y-83320228D01*
X116194890Y-64605312D02*
X116156795Y-64529122D01*
X116156795Y-64529122D02*
X116156795Y-64414836D01*
X116156795Y-64414836D02*
X116194890Y-64300550D01*
X116194890Y-64300550D02*
X116271080Y-64224360D01*
X116271080Y-64224360D02*
X116347271Y-64186265D01*
X116347271Y-64186265D02*
X116499652Y-64148169D01*
X116499652Y-64148169D02*
X116613938Y-64148169D01*
X116613938Y-64148169D02*
X116766319Y-64186265D01*
X116766319Y-64186265D02*
X116842509Y-64224360D01*
X116842509Y-64224360D02*
X116918700Y-64300550D01*
X116918700Y-64300550D02*
X116956795Y-64414836D01*
X116956795Y-64414836D02*
X116956795Y-64491027D01*
X116956795Y-64491027D02*
X116918700Y-64605312D01*
X116918700Y-64605312D02*
X116880604Y-64643408D01*
X116880604Y-64643408D02*
X116613938Y-64643408D01*
X116613938Y-64643408D02*
X116613938Y-64491027D01*
X116956795Y-64986265D02*
X116156795Y-64986265D01*
X116156795Y-64986265D02*
X116956795Y-65443408D01*
X116956795Y-65443408D02*
X116156795Y-65443408D01*
X116956795Y-65824360D02*
X116156795Y-65824360D01*
X116156795Y-65824360D02*
X116156795Y-66014836D01*
X116156795Y-66014836D02*
X116194890Y-66129122D01*
X116194890Y-66129122D02*
X116271080Y-66205312D01*
X116271080Y-66205312D02*
X116347271Y-66243407D01*
X116347271Y-66243407D02*
X116499652Y-66281503D01*
X116499652Y-66281503D02*
X116613938Y-66281503D01*
X116613938Y-66281503D02*
X116766319Y-66243407D01*
X116766319Y-66243407D02*
X116842509Y-66205312D01*
X116842509Y-66205312D02*
X116918700Y-66129122D01*
X116918700Y-66129122D02*
X116956795Y-66014836D01*
X116956795Y-66014836D02*
X116956795Y-65824360D01*
X176778700Y-131178169D02*
X176816795Y-131292455D01*
X176816795Y-131292455D02*
X176816795Y-131482931D01*
X176816795Y-131482931D02*
X176778700Y-131559122D01*
X176778700Y-131559122D02*
X176740604Y-131597217D01*
X176740604Y-131597217D02*
X176664414Y-131635312D01*
X176664414Y-131635312D02*
X176588223Y-131635312D01*
X176588223Y-131635312D02*
X176512033Y-131597217D01*
X176512033Y-131597217D02*
X176473938Y-131559122D01*
X176473938Y-131559122D02*
X176435842Y-131482931D01*
X176435842Y-131482931D02*
X176397747Y-131330550D01*
X176397747Y-131330550D02*
X176359652Y-131254360D01*
X176359652Y-131254360D02*
X176321557Y-131216265D01*
X176321557Y-131216265D02*
X176245366Y-131178169D01*
X176245366Y-131178169D02*
X176169176Y-131178169D01*
X176169176Y-131178169D02*
X176092985Y-131216265D01*
X176092985Y-131216265D02*
X176054890Y-131254360D01*
X176054890Y-131254360D02*
X176016795Y-131330550D01*
X176016795Y-131330550D02*
X176016795Y-131521027D01*
X176016795Y-131521027D02*
X176054890Y-131635312D01*
X176816795Y-131978170D02*
X176016795Y-131978170D01*
X176054890Y-132778169D02*
X176016795Y-132701979D01*
X176016795Y-132701979D02*
X176016795Y-132587693D01*
X176016795Y-132587693D02*
X176054890Y-132473407D01*
X176054890Y-132473407D02*
X176131080Y-132397217D01*
X176131080Y-132397217D02*
X176207271Y-132359122D01*
X176207271Y-132359122D02*
X176359652Y-132321026D01*
X176359652Y-132321026D02*
X176473938Y-132321026D01*
X176473938Y-132321026D02*
X176626319Y-132359122D01*
X176626319Y-132359122D02*
X176702509Y-132397217D01*
X176702509Y-132397217D02*
X176778700Y-132473407D01*
X176778700Y-132473407D02*
X176816795Y-132587693D01*
X176816795Y-132587693D02*
X176816795Y-132663884D01*
X176816795Y-132663884D02*
X176778700Y-132778169D01*
X176778700Y-132778169D02*
X176740604Y-132816265D01*
X176740604Y-132816265D02*
X176473938Y-132816265D01*
X176473938Y-132816265D02*
X176473938Y-132663884D01*
X138056795Y-137859836D02*
X137256795Y-137859836D01*
X137256795Y-137859836D02*
X137256795Y-138164598D01*
X137256795Y-138164598D02*
X137294890Y-138240788D01*
X137294890Y-138240788D02*
X137332985Y-138278883D01*
X137332985Y-138278883D02*
X137409176Y-138316979D01*
X137409176Y-138316979D02*
X137523461Y-138316979D01*
X137523461Y-138316979D02*
X137599652Y-138278883D01*
X137599652Y-138278883D02*
X137637747Y-138240788D01*
X137637747Y-138240788D02*
X137675842Y-138164598D01*
X137675842Y-138164598D02*
X137675842Y-137859836D01*
X137256795Y-138583645D02*
X138056795Y-138774121D01*
X138056795Y-138774121D02*
X137485366Y-138926502D01*
X137485366Y-138926502D02*
X138056795Y-139078883D01*
X138056795Y-139078883D02*
X137256795Y-139269360D01*
X138056795Y-140031265D02*
X137675842Y-139764598D01*
X138056795Y-139574122D02*
X137256795Y-139574122D01*
X137256795Y-139574122D02*
X137256795Y-139878884D01*
X137256795Y-139878884D02*
X137294890Y-139955074D01*
X137294890Y-139955074D02*
X137332985Y-139993169D01*
X137332985Y-139993169D02*
X137409176Y-140031265D01*
X137409176Y-140031265D02*
X137523461Y-140031265D01*
X137523461Y-140031265D02*
X137599652Y-139993169D01*
X137599652Y-139993169D02*
X137637747Y-139955074D01*
X137637747Y-139955074D02*
X137675842Y-139878884D01*
X137675842Y-139878884D02*
X137675842Y-139574122D01*
X106364687Y-104834990D02*
X106440877Y-104796895D01*
X106440877Y-104796895D02*
X106555163Y-104796895D01*
X106555163Y-104796895D02*
X106669449Y-104834990D01*
X106669449Y-104834990D02*
X106745639Y-104911180D01*
X106745639Y-104911180D02*
X106783734Y-104987371D01*
X106783734Y-104987371D02*
X106821830Y-105139752D01*
X106821830Y-105139752D02*
X106821830Y-105254038D01*
X106821830Y-105254038D02*
X106783734Y-105406419D01*
X106783734Y-105406419D02*
X106745639Y-105482609D01*
X106745639Y-105482609D02*
X106669449Y-105558800D01*
X106669449Y-105558800D02*
X106555163Y-105596895D01*
X106555163Y-105596895D02*
X106478972Y-105596895D01*
X106478972Y-105596895D02*
X106364687Y-105558800D01*
X106364687Y-105558800D02*
X106326591Y-105520704D01*
X106326591Y-105520704D02*
X106326591Y-105254038D01*
X106326591Y-105254038D02*
X106478972Y-105254038D01*
X105983734Y-105596895D02*
X105983734Y-104796895D01*
X105983734Y-104796895D02*
X105526591Y-105596895D01*
X105526591Y-105596895D02*
X105526591Y-104796895D01*
X105145639Y-105596895D02*
X105145639Y-104796895D01*
X105145639Y-104796895D02*
X104955163Y-104796895D01*
X104955163Y-104796895D02*
X104840877Y-104834990D01*
X104840877Y-104834990D02*
X104764687Y-104911180D01*
X104764687Y-104911180D02*
X104726592Y-104987371D01*
X104726592Y-104987371D02*
X104688496Y-105139752D01*
X104688496Y-105139752D02*
X104688496Y-105254038D01*
X104688496Y-105254038D02*
X104726592Y-105406419D01*
X104726592Y-105406419D02*
X104764687Y-105482609D01*
X104764687Y-105482609D02*
X104840877Y-105558800D01*
X104840877Y-105558800D02*
X104955163Y-105596895D01*
X104955163Y-105596895D02*
X105145639Y-105596895D01*
X172129890Y-131635312D02*
X172091795Y-131559122D01*
X172091795Y-131559122D02*
X172091795Y-131444836D01*
X172091795Y-131444836D02*
X172129890Y-131330550D01*
X172129890Y-131330550D02*
X172206080Y-131254360D01*
X172206080Y-131254360D02*
X172282271Y-131216265D01*
X172282271Y-131216265D02*
X172434652Y-131178169D01*
X172434652Y-131178169D02*
X172548938Y-131178169D01*
X172548938Y-131178169D02*
X172701319Y-131216265D01*
X172701319Y-131216265D02*
X172777509Y-131254360D01*
X172777509Y-131254360D02*
X172853700Y-131330550D01*
X172853700Y-131330550D02*
X172891795Y-131444836D01*
X172891795Y-131444836D02*
X172891795Y-131521027D01*
X172891795Y-131521027D02*
X172853700Y-131635312D01*
X172853700Y-131635312D02*
X172815604Y-131673408D01*
X172815604Y-131673408D02*
X172548938Y-131673408D01*
X172548938Y-131673408D02*
X172548938Y-131521027D01*
X172891795Y-132016265D02*
X172091795Y-132016265D01*
X172091795Y-132016265D02*
X172891795Y-132473408D01*
X172891795Y-132473408D02*
X172091795Y-132473408D01*
X172891795Y-132854360D02*
X172091795Y-132854360D01*
X172091795Y-132854360D02*
X172091795Y-133044836D01*
X172091795Y-133044836D02*
X172129890Y-133159122D01*
X172129890Y-133159122D02*
X172206080Y-133235312D01*
X172206080Y-133235312D02*
X172282271Y-133273407D01*
X172282271Y-133273407D02*
X172434652Y-133311503D01*
X172434652Y-133311503D02*
X172548938Y-133311503D01*
X172548938Y-133311503D02*
X172701319Y-133273407D01*
X172701319Y-133273407D02*
X172777509Y-133235312D01*
X172777509Y-133235312D02*
X172853700Y-133159122D01*
X172853700Y-133159122D02*
X172891795Y-133044836D01*
X172891795Y-133044836D02*
X172891795Y-132854360D01*
X166279925Y-106566895D02*
X165784687Y-106566895D01*
X165784687Y-106566895D02*
X166051353Y-106871657D01*
X166051353Y-106871657D02*
X165937068Y-106871657D01*
X165937068Y-106871657D02*
X165860877Y-106909752D01*
X165860877Y-106909752D02*
X165822782Y-106947847D01*
X165822782Y-106947847D02*
X165784687Y-107024038D01*
X165784687Y-107024038D02*
X165784687Y-107214514D01*
X165784687Y-107214514D02*
X165822782Y-107290704D01*
X165822782Y-107290704D02*
X165860877Y-107328800D01*
X165860877Y-107328800D02*
X165937068Y-107366895D01*
X165937068Y-107366895D02*
X166165639Y-107366895D01*
X166165639Y-107366895D02*
X166241830Y-107328800D01*
X166241830Y-107328800D02*
X166279925Y-107290704D01*
X165289448Y-106566895D02*
X165213258Y-106566895D01*
X165213258Y-106566895D02*
X165137067Y-106604990D01*
X165137067Y-106604990D02*
X165098972Y-106643085D01*
X165098972Y-106643085D02*
X165060877Y-106719276D01*
X165060877Y-106719276D02*
X165022782Y-106871657D01*
X165022782Y-106871657D02*
X165022782Y-107062133D01*
X165022782Y-107062133D02*
X165060877Y-107214514D01*
X165060877Y-107214514D02*
X165098972Y-107290704D01*
X165098972Y-107290704D02*
X165137067Y-107328800D01*
X165137067Y-107328800D02*
X165213258Y-107366895D01*
X165213258Y-107366895D02*
X165289448Y-107366895D01*
X165289448Y-107366895D02*
X165365639Y-107328800D01*
X165365639Y-107328800D02*
X165403734Y-107290704D01*
X165403734Y-107290704D02*
X165441829Y-107214514D01*
X165441829Y-107214514D02*
X165479925Y-107062133D01*
X165479925Y-107062133D02*
X165479925Y-106871657D01*
X165479925Y-106871657D02*
X165441829Y-106719276D01*
X165441829Y-106719276D02*
X165403734Y-106643085D01*
X165403734Y-106643085D02*
X165365639Y-106604990D01*
X165365639Y-106604990D02*
X165289448Y-106566895D01*
X164260877Y-107366895D02*
X164718020Y-107366895D01*
X164489448Y-107366895D02*
X164489448Y-106566895D01*
X164489448Y-106566895D02*
X164565639Y-106681180D01*
X164565639Y-106681180D02*
X164641829Y-106757371D01*
X164641829Y-106757371D02*
X164718020Y-106795466D01*
X163765638Y-106566895D02*
X163689448Y-106566895D01*
X163689448Y-106566895D02*
X163613257Y-106604990D01*
X163613257Y-106604990D02*
X163575162Y-106643085D01*
X163575162Y-106643085D02*
X163537067Y-106719276D01*
X163537067Y-106719276D02*
X163498972Y-106871657D01*
X163498972Y-106871657D02*
X163498972Y-107062133D01*
X163498972Y-107062133D02*
X163537067Y-107214514D01*
X163537067Y-107214514D02*
X163575162Y-107290704D01*
X163575162Y-107290704D02*
X163613257Y-107328800D01*
X163613257Y-107328800D02*
X163689448Y-107366895D01*
X163689448Y-107366895D02*
X163765638Y-107366895D01*
X163765638Y-107366895D02*
X163841829Y-107328800D01*
X163841829Y-107328800D02*
X163879924Y-107290704D01*
X163879924Y-107290704D02*
X163918019Y-107214514D01*
X163918019Y-107214514D02*
X163956115Y-107062133D01*
X163956115Y-107062133D02*
X163956115Y-106871657D01*
X163956115Y-106871657D02*
X163918019Y-106719276D01*
X163918019Y-106719276D02*
X163879924Y-106643085D01*
X163879924Y-106643085D02*
X163841829Y-106604990D01*
X163841829Y-106604990D02*
X163765638Y-106566895D01*
X163156114Y-107366895D02*
X163156114Y-106566895D01*
X163156114Y-106566895D02*
X162851352Y-106566895D01*
X162851352Y-106566895D02*
X162775162Y-106604990D01*
X162775162Y-106604990D02*
X162737067Y-106643085D01*
X162737067Y-106643085D02*
X162698971Y-106719276D01*
X162698971Y-106719276D02*
X162698971Y-106833561D01*
X162698971Y-106833561D02*
X162737067Y-106909752D01*
X162737067Y-106909752D02*
X162775162Y-106947847D01*
X162775162Y-106947847D02*
X162851352Y-106985942D01*
X162851352Y-106985942D02*
X163156114Y-106985942D01*
X162394210Y-107328800D02*
X162279924Y-107366895D01*
X162279924Y-107366895D02*
X162089448Y-107366895D01*
X162089448Y-107366895D02*
X162013257Y-107328800D01*
X162013257Y-107328800D02*
X161975162Y-107290704D01*
X161975162Y-107290704D02*
X161937067Y-107214514D01*
X161937067Y-107214514D02*
X161937067Y-107138323D01*
X161937067Y-107138323D02*
X161975162Y-107062133D01*
X161975162Y-107062133D02*
X162013257Y-107024038D01*
X162013257Y-107024038D02*
X162089448Y-106985942D01*
X162089448Y-106985942D02*
X162241829Y-106947847D01*
X162241829Y-106947847D02*
X162318019Y-106909752D01*
X162318019Y-106909752D02*
X162356114Y-106871657D01*
X162356114Y-106871657D02*
X162394210Y-106795466D01*
X162394210Y-106795466D02*
X162394210Y-106719276D01*
X162394210Y-106719276D02*
X162356114Y-106643085D01*
X162356114Y-106643085D02*
X162318019Y-106604990D01*
X162318019Y-106604990D02*
X162241829Y-106566895D01*
X162241829Y-106566895D02*
X162051352Y-106566895D01*
X162051352Y-106566895D02*
X161937067Y-106604990D01*
X116164890Y-131635312D02*
X116126795Y-131559122D01*
X116126795Y-131559122D02*
X116126795Y-131444836D01*
X116126795Y-131444836D02*
X116164890Y-131330550D01*
X116164890Y-131330550D02*
X116241080Y-131254360D01*
X116241080Y-131254360D02*
X116317271Y-131216265D01*
X116317271Y-131216265D02*
X116469652Y-131178169D01*
X116469652Y-131178169D02*
X116583938Y-131178169D01*
X116583938Y-131178169D02*
X116736319Y-131216265D01*
X116736319Y-131216265D02*
X116812509Y-131254360D01*
X116812509Y-131254360D02*
X116888700Y-131330550D01*
X116888700Y-131330550D02*
X116926795Y-131444836D01*
X116926795Y-131444836D02*
X116926795Y-131521027D01*
X116926795Y-131521027D02*
X116888700Y-131635312D01*
X116888700Y-131635312D02*
X116850604Y-131673408D01*
X116850604Y-131673408D02*
X116583938Y-131673408D01*
X116583938Y-131673408D02*
X116583938Y-131521027D01*
X116926795Y-132016265D02*
X116126795Y-132016265D01*
X116126795Y-132016265D02*
X116926795Y-132473408D01*
X116926795Y-132473408D02*
X116126795Y-132473408D01*
X116926795Y-132854360D02*
X116126795Y-132854360D01*
X116126795Y-132854360D02*
X116126795Y-133044836D01*
X116126795Y-133044836D02*
X116164890Y-133159122D01*
X116164890Y-133159122D02*
X116241080Y-133235312D01*
X116241080Y-133235312D02*
X116317271Y-133273407D01*
X116317271Y-133273407D02*
X116469652Y-133311503D01*
X116469652Y-133311503D02*
X116583938Y-133311503D01*
X116583938Y-133311503D02*
X116736319Y-133273407D01*
X116736319Y-133273407D02*
X116812509Y-133235312D01*
X116812509Y-133235312D02*
X116888700Y-133159122D01*
X116888700Y-133159122D02*
X116926795Y-133044836D01*
X116926795Y-133044836D02*
X116926795Y-132854360D01*
X143694890Y-57605074D02*
X143656795Y-57528884D01*
X143656795Y-57528884D02*
X143656795Y-57414598D01*
X143656795Y-57414598D02*
X143694890Y-57300312D01*
X143694890Y-57300312D02*
X143771080Y-57224122D01*
X143771080Y-57224122D02*
X143847271Y-57186027D01*
X143847271Y-57186027D02*
X143999652Y-57147931D01*
X143999652Y-57147931D02*
X144113938Y-57147931D01*
X144113938Y-57147931D02*
X144266319Y-57186027D01*
X144266319Y-57186027D02*
X144342509Y-57224122D01*
X144342509Y-57224122D02*
X144418700Y-57300312D01*
X144418700Y-57300312D02*
X144456795Y-57414598D01*
X144456795Y-57414598D02*
X144456795Y-57490789D01*
X144456795Y-57490789D02*
X144418700Y-57605074D01*
X144418700Y-57605074D02*
X144380604Y-57643170D01*
X144380604Y-57643170D02*
X144113938Y-57643170D01*
X144113938Y-57643170D02*
X144113938Y-57490789D01*
X144456795Y-57986027D02*
X143656795Y-57986027D01*
X143656795Y-57986027D02*
X144456795Y-58443170D01*
X144456795Y-58443170D02*
X143656795Y-58443170D01*
X144456795Y-58824122D02*
X143656795Y-58824122D01*
X143656795Y-58824122D02*
X143656795Y-59014598D01*
X143656795Y-59014598D02*
X143694890Y-59128884D01*
X143694890Y-59128884D02*
X143771080Y-59205074D01*
X143771080Y-59205074D02*
X143847271Y-59243169D01*
X143847271Y-59243169D02*
X143999652Y-59281265D01*
X143999652Y-59281265D02*
X144113938Y-59281265D01*
X144113938Y-59281265D02*
X144266319Y-59243169D01*
X144266319Y-59243169D02*
X144342509Y-59205074D01*
X144342509Y-59205074D02*
X144418700Y-59128884D01*
X144418700Y-59128884D02*
X144456795Y-59014598D01*
X144456795Y-59014598D02*
X144456795Y-58824122D01*
X106631353Y-102256895D02*
X106478972Y-102256895D01*
X106478972Y-102256895D02*
X106402782Y-102294990D01*
X106402782Y-102294990D02*
X106326591Y-102371180D01*
X106326591Y-102371180D02*
X106288496Y-102523561D01*
X106288496Y-102523561D02*
X106288496Y-102790228D01*
X106288496Y-102790228D02*
X106326591Y-102942609D01*
X106326591Y-102942609D02*
X106402782Y-103018800D01*
X106402782Y-103018800D02*
X106478972Y-103056895D01*
X106478972Y-103056895D02*
X106631353Y-103056895D01*
X106631353Y-103056895D02*
X106707544Y-103018800D01*
X106707544Y-103018800D02*
X106783734Y-102942609D01*
X106783734Y-102942609D02*
X106821830Y-102790228D01*
X106821830Y-102790228D02*
X106821830Y-102523561D01*
X106821830Y-102523561D02*
X106783734Y-102371180D01*
X106783734Y-102371180D02*
X106707544Y-102294990D01*
X106707544Y-102294990D02*
X106631353Y-102256895D01*
X105945639Y-102256895D02*
X105945639Y-102904514D01*
X105945639Y-102904514D02*
X105907544Y-102980704D01*
X105907544Y-102980704D02*
X105869449Y-103018800D01*
X105869449Y-103018800D02*
X105793258Y-103056895D01*
X105793258Y-103056895D02*
X105640877Y-103056895D01*
X105640877Y-103056895D02*
X105564687Y-103018800D01*
X105564687Y-103018800D02*
X105526592Y-102980704D01*
X105526592Y-102980704D02*
X105488496Y-102904514D01*
X105488496Y-102904514D02*
X105488496Y-102256895D01*
X105221830Y-102256895D02*
X104764687Y-102256895D01*
X104993259Y-103056895D02*
X104993259Y-102256895D01*
X153519890Y-57605074D02*
X153481795Y-57528884D01*
X153481795Y-57528884D02*
X153481795Y-57414598D01*
X153481795Y-57414598D02*
X153519890Y-57300312D01*
X153519890Y-57300312D02*
X153596080Y-57224122D01*
X153596080Y-57224122D02*
X153672271Y-57186027D01*
X153672271Y-57186027D02*
X153824652Y-57147931D01*
X153824652Y-57147931D02*
X153938938Y-57147931D01*
X153938938Y-57147931D02*
X154091319Y-57186027D01*
X154091319Y-57186027D02*
X154167509Y-57224122D01*
X154167509Y-57224122D02*
X154243700Y-57300312D01*
X154243700Y-57300312D02*
X154281795Y-57414598D01*
X154281795Y-57414598D02*
X154281795Y-57490789D01*
X154281795Y-57490789D02*
X154243700Y-57605074D01*
X154243700Y-57605074D02*
X154205604Y-57643170D01*
X154205604Y-57643170D02*
X153938938Y-57643170D01*
X153938938Y-57643170D02*
X153938938Y-57490789D01*
X154281795Y-57986027D02*
X153481795Y-57986027D01*
X153481795Y-57986027D02*
X154281795Y-58443170D01*
X154281795Y-58443170D02*
X153481795Y-58443170D01*
X154281795Y-58824122D02*
X153481795Y-58824122D01*
X153481795Y-58824122D02*
X153481795Y-59014598D01*
X153481795Y-59014598D02*
X153519890Y-59128884D01*
X153519890Y-59128884D02*
X153596080Y-59205074D01*
X153596080Y-59205074D02*
X153672271Y-59243169D01*
X153672271Y-59243169D02*
X153824652Y-59281265D01*
X153824652Y-59281265D02*
X153938938Y-59281265D01*
X153938938Y-59281265D02*
X154091319Y-59243169D01*
X154091319Y-59243169D02*
X154167509Y-59205074D01*
X154167509Y-59205074D02*
X154243700Y-59128884D01*
X154243700Y-59128884D02*
X154281795Y-59014598D01*
X154281795Y-59014598D02*
X154281795Y-58824122D01*
X118689890Y-131635312D02*
X118651795Y-131559122D01*
X118651795Y-131559122D02*
X118651795Y-131444836D01*
X118651795Y-131444836D02*
X118689890Y-131330550D01*
X118689890Y-131330550D02*
X118766080Y-131254360D01*
X118766080Y-131254360D02*
X118842271Y-131216265D01*
X118842271Y-131216265D02*
X118994652Y-131178169D01*
X118994652Y-131178169D02*
X119108938Y-131178169D01*
X119108938Y-131178169D02*
X119261319Y-131216265D01*
X119261319Y-131216265D02*
X119337509Y-131254360D01*
X119337509Y-131254360D02*
X119413700Y-131330550D01*
X119413700Y-131330550D02*
X119451795Y-131444836D01*
X119451795Y-131444836D02*
X119451795Y-131521027D01*
X119451795Y-131521027D02*
X119413700Y-131635312D01*
X119413700Y-131635312D02*
X119375604Y-131673408D01*
X119375604Y-131673408D02*
X119108938Y-131673408D01*
X119108938Y-131673408D02*
X119108938Y-131521027D01*
X119451795Y-132016265D02*
X118651795Y-132016265D01*
X118651795Y-132016265D02*
X119451795Y-132473408D01*
X119451795Y-132473408D02*
X118651795Y-132473408D01*
X119451795Y-132854360D02*
X118651795Y-132854360D01*
X118651795Y-132854360D02*
X118651795Y-133044836D01*
X118651795Y-133044836D02*
X118689890Y-133159122D01*
X118689890Y-133159122D02*
X118766080Y-133235312D01*
X118766080Y-133235312D02*
X118842271Y-133273407D01*
X118842271Y-133273407D02*
X118994652Y-133311503D01*
X118994652Y-133311503D02*
X119108938Y-133311503D01*
X119108938Y-133311503D02*
X119261319Y-133273407D01*
X119261319Y-133273407D02*
X119337509Y-133235312D01*
X119337509Y-133235312D02*
X119413700Y-133159122D01*
X119413700Y-133159122D02*
X119451795Y-133044836D01*
X119451795Y-133044836D02*
X119451795Y-132854360D01*
X106821830Y-108083800D02*
X106707544Y-108121895D01*
X106707544Y-108121895D02*
X106517068Y-108121895D01*
X106517068Y-108121895D02*
X106440877Y-108083800D01*
X106440877Y-108083800D02*
X106402782Y-108045704D01*
X106402782Y-108045704D02*
X106364687Y-107969514D01*
X106364687Y-107969514D02*
X106364687Y-107893323D01*
X106364687Y-107893323D02*
X106402782Y-107817133D01*
X106402782Y-107817133D02*
X106440877Y-107779038D01*
X106440877Y-107779038D02*
X106517068Y-107740942D01*
X106517068Y-107740942D02*
X106669449Y-107702847D01*
X106669449Y-107702847D02*
X106745639Y-107664752D01*
X106745639Y-107664752D02*
X106783734Y-107626657D01*
X106783734Y-107626657D02*
X106821830Y-107550466D01*
X106821830Y-107550466D02*
X106821830Y-107474276D01*
X106821830Y-107474276D02*
X106783734Y-107398085D01*
X106783734Y-107398085D02*
X106745639Y-107359990D01*
X106745639Y-107359990D02*
X106669449Y-107321895D01*
X106669449Y-107321895D02*
X106478972Y-107321895D01*
X106478972Y-107321895D02*
X106364687Y-107359990D01*
X106021829Y-108121895D02*
X106021829Y-107321895D01*
X105221830Y-107359990D02*
X105298020Y-107321895D01*
X105298020Y-107321895D02*
X105412306Y-107321895D01*
X105412306Y-107321895D02*
X105526592Y-107359990D01*
X105526592Y-107359990D02*
X105602782Y-107436180D01*
X105602782Y-107436180D02*
X105640877Y-107512371D01*
X105640877Y-107512371D02*
X105678973Y-107664752D01*
X105678973Y-107664752D02*
X105678973Y-107779038D01*
X105678973Y-107779038D02*
X105640877Y-107931419D01*
X105640877Y-107931419D02*
X105602782Y-108007609D01*
X105602782Y-108007609D02*
X105526592Y-108083800D01*
X105526592Y-108083800D02*
X105412306Y-108121895D01*
X105412306Y-108121895D02*
X105336115Y-108121895D01*
X105336115Y-108121895D02*
X105221830Y-108083800D01*
X105221830Y-108083800D02*
X105183734Y-108045704D01*
X105183734Y-108045704D02*
X105183734Y-107779038D01*
X105183734Y-107779038D02*
X105336115Y-107779038D01*
X146968700Y-57643169D02*
X147006795Y-57757455D01*
X147006795Y-57757455D02*
X147006795Y-57947931D01*
X147006795Y-57947931D02*
X146968700Y-58024122D01*
X146968700Y-58024122D02*
X146930604Y-58062217D01*
X146930604Y-58062217D02*
X146854414Y-58100312D01*
X146854414Y-58100312D02*
X146778223Y-58100312D01*
X146778223Y-58100312D02*
X146702033Y-58062217D01*
X146702033Y-58062217D02*
X146663938Y-58024122D01*
X146663938Y-58024122D02*
X146625842Y-57947931D01*
X146625842Y-57947931D02*
X146587747Y-57795550D01*
X146587747Y-57795550D02*
X146549652Y-57719360D01*
X146549652Y-57719360D02*
X146511557Y-57681265D01*
X146511557Y-57681265D02*
X146435366Y-57643169D01*
X146435366Y-57643169D02*
X146359176Y-57643169D01*
X146359176Y-57643169D02*
X146282985Y-57681265D01*
X146282985Y-57681265D02*
X146244890Y-57719360D01*
X146244890Y-57719360D02*
X146206795Y-57795550D01*
X146206795Y-57795550D02*
X146206795Y-57986027D01*
X146206795Y-57986027D02*
X146244890Y-58100312D01*
X147006795Y-58443170D02*
X146206795Y-58443170D01*
X146244890Y-59243169D02*
X146206795Y-59166979D01*
X146206795Y-59166979D02*
X146206795Y-59052693D01*
X146206795Y-59052693D02*
X146244890Y-58938407D01*
X146244890Y-58938407D02*
X146321080Y-58862217D01*
X146321080Y-58862217D02*
X146397271Y-58824122D01*
X146397271Y-58824122D02*
X146549652Y-58786026D01*
X146549652Y-58786026D02*
X146663938Y-58786026D01*
X146663938Y-58786026D02*
X146816319Y-58824122D01*
X146816319Y-58824122D02*
X146892509Y-58862217D01*
X146892509Y-58862217D02*
X146968700Y-58938407D01*
X146968700Y-58938407D02*
X147006795Y-59052693D01*
X147006795Y-59052693D02*
X147006795Y-59128884D01*
X147006795Y-59128884D02*
X146968700Y-59243169D01*
X146968700Y-59243169D02*
X146930604Y-59281265D01*
X146930604Y-59281265D02*
X146663938Y-59281265D01*
X146663938Y-59281265D02*
X146663938Y-59128884D01*
X135959925Y-106536895D02*
X135464687Y-106536895D01*
X135464687Y-106536895D02*
X135731353Y-106841657D01*
X135731353Y-106841657D02*
X135617068Y-106841657D01*
X135617068Y-106841657D02*
X135540877Y-106879752D01*
X135540877Y-106879752D02*
X135502782Y-106917847D01*
X135502782Y-106917847D02*
X135464687Y-106994038D01*
X135464687Y-106994038D02*
X135464687Y-107184514D01*
X135464687Y-107184514D02*
X135502782Y-107260704D01*
X135502782Y-107260704D02*
X135540877Y-107298800D01*
X135540877Y-107298800D02*
X135617068Y-107336895D01*
X135617068Y-107336895D02*
X135845639Y-107336895D01*
X135845639Y-107336895D02*
X135921830Y-107298800D01*
X135921830Y-107298800D02*
X135959925Y-107260704D01*
X134969448Y-106536895D02*
X134893258Y-106536895D01*
X134893258Y-106536895D02*
X134817067Y-106574990D01*
X134817067Y-106574990D02*
X134778972Y-106613085D01*
X134778972Y-106613085D02*
X134740877Y-106689276D01*
X134740877Y-106689276D02*
X134702782Y-106841657D01*
X134702782Y-106841657D02*
X134702782Y-107032133D01*
X134702782Y-107032133D02*
X134740877Y-107184514D01*
X134740877Y-107184514D02*
X134778972Y-107260704D01*
X134778972Y-107260704D02*
X134817067Y-107298800D01*
X134817067Y-107298800D02*
X134893258Y-107336895D01*
X134893258Y-107336895D02*
X134969448Y-107336895D01*
X134969448Y-107336895D02*
X135045639Y-107298800D01*
X135045639Y-107298800D02*
X135083734Y-107260704D01*
X135083734Y-107260704D02*
X135121829Y-107184514D01*
X135121829Y-107184514D02*
X135159925Y-107032133D01*
X135159925Y-107032133D02*
X135159925Y-106841657D01*
X135159925Y-106841657D02*
X135121829Y-106689276D01*
X135121829Y-106689276D02*
X135083734Y-106613085D01*
X135083734Y-106613085D02*
X135045639Y-106574990D01*
X135045639Y-106574990D02*
X134969448Y-106536895D01*
X133940877Y-107336895D02*
X134398020Y-107336895D01*
X134169448Y-107336895D02*
X134169448Y-106536895D01*
X134169448Y-106536895D02*
X134245639Y-106651180D01*
X134245639Y-106651180D02*
X134321829Y-106727371D01*
X134321829Y-106727371D02*
X134398020Y-106765466D01*
X133445638Y-106536895D02*
X133369448Y-106536895D01*
X133369448Y-106536895D02*
X133293257Y-106574990D01*
X133293257Y-106574990D02*
X133255162Y-106613085D01*
X133255162Y-106613085D02*
X133217067Y-106689276D01*
X133217067Y-106689276D02*
X133178972Y-106841657D01*
X133178972Y-106841657D02*
X133178972Y-107032133D01*
X133178972Y-107032133D02*
X133217067Y-107184514D01*
X133217067Y-107184514D02*
X133255162Y-107260704D01*
X133255162Y-107260704D02*
X133293257Y-107298800D01*
X133293257Y-107298800D02*
X133369448Y-107336895D01*
X133369448Y-107336895D02*
X133445638Y-107336895D01*
X133445638Y-107336895D02*
X133521829Y-107298800D01*
X133521829Y-107298800D02*
X133559924Y-107260704D01*
X133559924Y-107260704D02*
X133598019Y-107184514D01*
X133598019Y-107184514D02*
X133636115Y-107032133D01*
X133636115Y-107032133D02*
X133636115Y-106841657D01*
X133636115Y-106841657D02*
X133598019Y-106689276D01*
X133598019Y-106689276D02*
X133559924Y-106613085D01*
X133559924Y-106613085D02*
X133521829Y-106574990D01*
X133521829Y-106574990D02*
X133445638Y-106536895D01*
X132836114Y-107336895D02*
X132836114Y-106536895D01*
X132836114Y-106536895D02*
X132531352Y-106536895D01*
X132531352Y-106536895D02*
X132455162Y-106574990D01*
X132455162Y-106574990D02*
X132417067Y-106613085D01*
X132417067Y-106613085D02*
X132378971Y-106689276D01*
X132378971Y-106689276D02*
X132378971Y-106803561D01*
X132378971Y-106803561D02*
X132417067Y-106879752D01*
X132417067Y-106879752D02*
X132455162Y-106917847D01*
X132455162Y-106917847D02*
X132531352Y-106955942D01*
X132531352Y-106955942D02*
X132836114Y-106955942D01*
X132074210Y-107298800D02*
X131959924Y-107336895D01*
X131959924Y-107336895D02*
X131769448Y-107336895D01*
X131769448Y-107336895D02*
X131693257Y-107298800D01*
X131693257Y-107298800D02*
X131655162Y-107260704D01*
X131655162Y-107260704D02*
X131617067Y-107184514D01*
X131617067Y-107184514D02*
X131617067Y-107108323D01*
X131617067Y-107108323D02*
X131655162Y-107032133D01*
X131655162Y-107032133D02*
X131693257Y-106994038D01*
X131693257Y-106994038D02*
X131769448Y-106955942D01*
X131769448Y-106955942D02*
X131921829Y-106917847D01*
X131921829Y-106917847D02*
X131998019Y-106879752D01*
X131998019Y-106879752D02*
X132036114Y-106841657D01*
X132036114Y-106841657D02*
X132074210Y-106765466D01*
X132074210Y-106765466D02*
X132074210Y-106689276D01*
X132074210Y-106689276D02*
X132036114Y-106613085D01*
X132036114Y-106613085D02*
X131998019Y-106574990D01*
X131998019Y-106574990D02*
X131921829Y-106536895D01*
X131921829Y-106536895D02*
X131731352Y-106536895D01*
X131731352Y-106536895D02*
X131617067Y-106574990D01*
X106364687Y-92839990D02*
X106440877Y-92801895D01*
X106440877Y-92801895D02*
X106555163Y-92801895D01*
X106555163Y-92801895D02*
X106669449Y-92839990D01*
X106669449Y-92839990D02*
X106745639Y-92916180D01*
X106745639Y-92916180D02*
X106783734Y-92992371D01*
X106783734Y-92992371D02*
X106821830Y-93144752D01*
X106821830Y-93144752D02*
X106821830Y-93259038D01*
X106821830Y-93259038D02*
X106783734Y-93411419D01*
X106783734Y-93411419D02*
X106745639Y-93487609D01*
X106745639Y-93487609D02*
X106669449Y-93563800D01*
X106669449Y-93563800D02*
X106555163Y-93601895D01*
X106555163Y-93601895D02*
X106478972Y-93601895D01*
X106478972Y-93601895D02*
X106364687Y-93563800D01*
X106364687Y-93563800D02*
X106326591Y-93525704D01*
X106326591Y-93525704D02*
X106326591Y-93259038D01*
X106326591Y-93259038D02*
X106478972Y-93259038D01*
X105983734Y-93601895D02*
X105983734Y-92801895D01*
X105983734Y-92801895D02*
X105526591Y-93601895D01*
X105526591Y-93601895D02*
X105526591Y-92801895D01*
X105145639Y-93601895D02*
X105145639Y-92801895D01*
X105145639Y-92801895D02*
X104955163Y-92801895D01*
X104955163Y-92801895D02*
X104840877Y-92839990D01*
X104840877Y-92839990D02*
X104764687Y-92916180D01*
X104764687Y-92916180D02*
X104726592Y-92992371D01*
X104726592Y-92992371D02*
X104688496Y-93144752D01*
X104688496Y-93144752D02*
X104688496Y-93259038D01*
X104688496Y-93259038D02*
X104726592Y-93411419D01*
X104726592Y-93411419D02*
X104764687Y-93487609D01*
X104764687Y-93487609D02*
X104840877Y-93563800D01*
X104840877Y-93563800D02*
X104955163Y-93601895D01*
X104955163Y-93601895D02*
X105145639Y-93601895D01*
X157619925Y-114456895D02*
X157124687Y-114456895D01*
X157124687Y-114456895D02*
X157391353Y-114761657D01*
X157391353Y-114761657D02*
X157277068Y-114761657D01*
X157277068Y-114761657D02*
X157200877Y-114799752D01*
X157200877Y-114799752D02*
X157162782Y-114837847D01*
X157162782Y-114837847D02*
X157124687Y-114914038D01*
X157124687Y-114914038D02*
X157124687Y-115104514D01*
X157124687Y-115104514D02*
X157162782Y-115180704D01*
X157162782Y-115180704D02*
X157200877Y-115218800D01*
X157200877Y-115218800D02*
X157277068Y-115256895D01*
X157277068Y-115256895D02*
X157505639Y-115256895D01*
X157505639Y-115256895D02*
X157581830Y-115218800D01*
X157581830Y-115218800D02*
X157619925Y-115180704D01*
X156629448Y-114456895D02*
X156553258Y-114456895D01*
X156553258Y-114456895D02*
X156477067Y-114494990D01*
X156477067Y-114494990D02*
X156438972Y-114533085D01*
X156438972Y-114533085D02*
X156400877Y-114609276D01*
X156400877Y-114609276D02*
X156362782Y-114761657D01*
X156362782Y-114761657D02*
X156362782Y-114952133D01*
X156362782Y-114952133D02*
X156400877Y-115104514D01*
X156400877Y-115104514D02*
X156438972Y-115180704D01*
X156438972Y-115180704D02*
X156477067Y-115218800D01*
X156477067Y-115218800D02*
X156553258Y-115256895D01*
X156553258Y-115256895D02*
X156629448Y-115256895D01*
X156629448Y-115256895D02*
X156705639Y-115218800D01*
X156705639Y-115218800D02*
X156743734Y-115180704D01*
X156743734Y-115180704D02*
X156781829Y-115104514D01*
X156781829Y-115104514D02*
X156819925Y-114952133D01*
X156819925Y-114952133D02*
X156819925Y-114761657D01*
X156819925Y-114761657D02*
X156781829Y-114609276D01*
X156781829Y-114609276D02*
X156743734Y-114533085D01*
X156743734Y-114533085D02*
X156705639Y-114494990D01*
X156705639Y-114494990D02*
X156629448Y-114456895D01*
X155600877Y-115256895D02*
X156058020Y-115256895D01*
X155829448Y-115256895D02*
X155829448Y-114456895D01*
X155829448Y-114456895D02*
X155905639Y-114571180D01*
X155905639Y-114571180D02*
X155981829Y-114647371D01*
X155981829Y-114647371D02*
X156058020Y-114685466D01*
X154877067Y-114456895D02*
X155258019Y-114456895D01*
X155258019Y-114456895D02*
X155296115Y-114837847D01*
X155296115Y-114837847D02*
X155258019Y-114799752D01*
X155258019Y-114799752D02*
X155181829Y-114761657D01*
X155181829Y-114761657D02*
X154991353Y-114761657D01*
X154991353Y-114761657D02*
X154915162Y-114799752D01*
X154915162Y-114799752D02*
X154877067Y-114837847D01*
X154877067Y-114837847D02*
X154838972Y-114914038D01*
X154838972Y-114914038D02*
X154838972Y-115104514D01*
X154838972Y-115104514D02*
X154877067Y-115180704D01*
X154877067Y-115180704D02*
X154915162Y-115218800D01*
X154915162Y-115218800D02*
X154991353Y-115256895D01*
X154991353Y-115256895D02*
X155181829Y-115256895D01*
X155181829Y-115256895D02*
X155258019Y-115218800D01*
X155258019Y-115218800D02*
X155296115Y-115180704D01*
X154496114Y-115256895D02*
X154496114Y-114456895D01*
X154496114Y-114456895D02*
X154191352Y-114456895D01*
X154191352Y-114456895D02*
X154115162Y-114494990D01*
X154115162Y-114494990D02*
X154077067Y-114533085D01*
X154077067Y-114533085D02*
X154038971Y-114609276D01*
X154038971Y-114609276D02*
X154038971Y-114723561D01*
X154038971Y-114723561D02*
X154077067Y-114799752D01*
X154077067Y-114799752D02*
X154115162Y-114837847D01*
X154115162Y-114837847D02*
X154191352Y-114875942D01*
X154191352Y-114875942D02*
X154496114Y-114875942D01*
X153734210Y-115218800D02*
X153619924Y-115256895D01*
X153619924Y-115256895D02*
X153429448Y-115256895D01*
X153429448Y-115256895D02*
X153353257Y-115218800D01*
X153353257Y-115218800D02*
X153315162Y-115180704D01*
X153315162Y-115180704D02*
X153277067Y-115104514D01*
X153277067Y-115104514D02*
X153277067Y-115028323D01*
X153277067Y-115028323D02*
X153315162Y-114952133D01*
X153315162Y-114952133D02*
X153353257Y-114914038D01*
X153353257Y-114914038D02*
X153429448Y-114875942D01*
X153429448Y-114875942D02*
X153581829Y-114837847D01*
X153581829Y-114837847D02*
X153658019Y-114799752D01*
X153658019Y-114799752D02*
X153696114Y-114761657D01*
X153696114Y-114761657D02*
X153734210Y-114685466D01*
X153734210Y-114685466D02*
X153734210Y-114609276D01*
X153734210Y-114609276D02*
X153696114Y-114533085D01*
X153696114Y-114533085D02*
X153658019Y-114494990D01*
X153658019Y-114494990D02*
X153581829Y-114456895D01*
X153581829Y-114456895D02*
X153391352Y-114456895D01*
X153391352Y-114456895D02*
X153277067Y-114494990D01*
X130993700Y-64643407D02*
X131031795Y-64757693D01*
X131031795Y-64757693D02*
X131031795Y-64948169D01*
X131031795Y-64948169D02*
X130993700Y-65024360D01*
X130993700Y-65024360D02*
X130955604Y-65062455D01*
X130955604Y-65062455D02*
X130879414Y-65100550D01*
X130879414Y-65100550D02*
X130803223Y-65100550D01*
X130803223Y-65100550D02*
X130727033Y-65062455D01*
X130727033Y-65062455D02*
X130688938Y-65024360D01*
X130688938Y-65024360D02*
X130650842Y-64948169D01*
X130650842Y-64948169D02*
X130612747Y-64795788D01*
X130612747Y-64795788D02*
X130574652Y-64719598D01*
X130574652Y-64719598D02*
X130536557Y-64681503D01*
X130536557Y-64681503D02*
X130460366Y-64643407D01*
X130460366Y-64643407D02*
X130384176Y-64643407D01*
X130384176Y-64643407D02*
X130307985Y-64681503D01*
X130307985Y-64681503D02*
X130269890Y-64719598D01*
X130269890Y-64719598D02*
X130231795Y-64795788D01*
X130231795Y-64795788D02*
X130231795Y-64986265D01*
X130231795Y-64986265D02*
X130269890Y-65100550D01*
X131031795Y-65443408D02*
X130231795Y-65443408D01*
X130269890Y-66243407D02*
X130231795Y-66167217D01*
X130231795Y-66167217D02*
X130231795Y-66052931D01*
X130231795Y-66052931D02*
X130269890Y-65938645D01*
X130269890Y-65938645D02*
X130346080Y-65862455D01*
X130346080Y-65862455D02*
X130422271Y-65824360D01*
X130422271Y-65824360D02*
X130574652Y-65786264D01*
X130574652Y-65786264D02*
X130688938Y-65786264D01*
X130688938Y-65786264D02*
X130841319Y-65824360D01*
X130841319Y-65824360D02*
X130917509Y-65862455D01*
X130917509Y-65862455D02*
X130993700Y-65938645D01*
X130993700Y-65938645D02*
X131031795Y-66052931D01*
X131031795Y-66052931D02*
X131031795Y-66129122D01*
X131031795Y-66129122D02*
X130993700Y-66243407D01*
X130993700Y-66243407D02*
X130955604Y-66281503D01*
X130955604Y-66281503D02*
X130688938Y-66281503D01*
X130688938Y-66281503D02*
X130688938Y-66129122D01*
X160793700Y-138393169D02*
X160831795Y-138507455D01*
X160831795Y-138507455D02*
X160831795Y-138697931D01*
X160831795Y-138697931D02*
X160793700Y-138774122D01*
X160793700Y-138774122D02*
X160755604Y-138812217D01*
X160755604Y-138812217D02*
X160679414Y-138850312D01*
X160679414Y-138850312D02*
X160603223Y-138850312D01*
X160603223Y-138850312D02*
X160527033Y-138812217D01*
X160527033Y-138812217D02*
X160488938Y-138774122D01*
X160488938Y-138774122D02*
X160450842Y-138697931D01*
X160450842Y-138697931D02*
X160412747Y-138545550D01*
X160412747Y-138545550D02*
X160374652Y-138469360D01*
X160374652Y-138469360D02*
X160336557Y-138431265D01*
X160336557Y-138431265D02*
X160260366Y-138393169D01*
X160260366Y-138393169D02*
X160184176Y-138393169D01*
X160184176Y-138393169D02*
X160107985Y-138431265D01*
X160107985Y-138431265D02*
X160069890Y-138469360D01*
X160069890Y-138469360D02*
X160031795Y-138545550D01*
X160031795Y-138545550D02*
X160031795Y-138736027D01*
X160031795Y-138736027D02*
X160069890Y-138850312D01*
X160831795Y-139193170D02*
X160031795Y-139193170D01*
X160069890Y-139993169D02*
X160031795Y-139916979D01*
X160031795Y-139916979D02*
X160031795Y-139802693D01*
X160031795Y-139802693D02*
X160069890Y-139688407D01*
X160069890Y-139688407D02*
X160146080Y-139612217D01*
X160146080Y-139612217D02*
X160222271Y-139574122D01*
X160222271Y-139574122D02*
X160374652Y-139536026D01*
X160374652Y-139536026D02*
X160488938Y-139536026D01*
X160488938Y-139536026D02*
X160641319Y-139574122D01*
X160641319Y-139574122D02*
X160717509Y-139612217D01*
X160717509Y-139612217D02*
X160793700Y-139688407D01*
X160793700Y-139688407D02*
X160831795Y-139802693D01*
X160831795Y-139802693D02*
X160831795Y-139878884D01*
X160831795Y-139878884D02*
X160793700Y-139993169D01*
X160793700Y-139993169D02*
X160755604Y-140031265D01*
X160755604Y-140031265D02*
X160488938Y-140031265D01*
X160488938Y-140031265D02*
X160488938Y-139878884D01*
X178559890Y-64529121D02*
X178521795Y-64452931D01*
X178521795Y-64452931D02*
X178521795Y-64338645D01*
X178521795Y-64338645D02*
X178559890Y-64224359D01*
X178559890Y-64224359D02*
X178636080Y-64148169D01*
X178636080Y-64148169D02*
X178712271Y-64110074D01*
X178712271Y-64110074D02*
X178864652Y-64071978D01*
X178864652Y-64071978D02*
X178978938Y-64071978D01*
X178978938Y-64071978D02*
X179131319Y-64110074D01*
X179131319Y-64110074D02*
X179207509Y-64148169D01*
X179207509Y-64148169D02*
X179283700Y-64224359D01*
X179283700Y-64224359D02*
X179321795Y-64338645D01*
X179321795Y-64338645D02*
X179321795Y-64414836D01*
X179321795Y-64414836D02*
X179283700Y-64529121D01*
X179283700Y-64529121D02*
X179245604Y-64567217D01*
X179245604Y-64567217D02*
X178978938Y-64567217D01*
X178978938Y-64567217D02*
X178978938Y-64414836D01*
X179321795Y-64910074D02*
X178521795Y-64910074D01*
X178521795Y-64910074D02*
X179321795Y-65367217D01*
X179321795Y-65367217D02*
X178521795Y-65367217D01*
X179321795Y-65748169D02*
X178521795Y-65748169D01*
X178521795Y-65748169D02*
X178521795Y-65938645D01*
X178521795Y-65938645D02*
X178559890Y-66052931D01*
X178559890Y-66052931D02*
X178636080Y-66129121D01*
X178636080Y-66129121D02*
X178712271Y-66167216D01*
X178712271Y-66167216D02*
X178864652Y-66205312D01*
X178864652Y-66205312D02*
X178978938Y-66205312D01*
X178978938Y-66205312D02*
X179131319Y-66167216D01*
X179131319Y-66167216D02*
X179207509Y-66129121D01*
X179207509Y-66129121D02*
X179283700Y-66052931D01*
X179283700Y-66052931D02*
X179321795Y-65938645D01*
X179321795Y-65938645D02*
X179321795Y-65748169D01*
X193319925Y-91051895D02*
X193319925Y-90251895D01*
X193319925Y-90251895D02*
X193015163Y-90251895D01*
X193015163Y-90251895D02*
X192938973Y-90289990D01*
X192938973Y-90289990D02*
X192900878Y-90328085D01*
X192900878Y-90328085D02*
X192862782Y-90404276D01*
X192862782Y-90404276D02*
X192862782Y-90518561D01*
X192862782Y-90518561D02*
X192900878Y-90594752D01*
X192900878Y-90594752D02*
X192938973Y-90632847D01*
X192938973Y-90632847D02*
X193015163Y-90670942D01*
X193015163Y-90670942D02*
X193319925Y-90670942D01*
X192596116Y-90251895D02*
X192405640Y-91051895D01*
X192405640Y-91051895D02*
X192253259Y-90480466D01*
X192253259Y-90480466D02*
X192100878Y-91051895D01*
X192100878Y-91051895D02*
X191910402Y-90251895D01*
X191148496Y-91051895D02*
X191415163Y-90670942D01*
X191605639Y-91051895D02*
X191605639Y-90251895D01*
X191605639Y-90251895D02*
X191300877Y-90251895D01*
X191300877Y-90251895D02*
X191224687Y-90289990D01*
X191224687Y-90289990D02*
X191186592Y-90328085D01*
X191186592Y-90328085D02*
X191148496Y-90404276D01*
X191148496Y-90404276D02*
X191148496Y-90518561D01*
X191148496Y-90518561D02*
X191186592Y-90594752D01*
X191186592Y-90594752D02*
X191224687Y-90632847D01*
X191224687Y-90632847D02*
X191300877Y-90670942D01*
X191300877Y-90670942D02*
X191605639Y-90670942D01*
X141169890Y-57605074D02*
X141131795Y-57528884D01*
X141131795Y-57528884D02*
X141131795Y-57414598D01*
X141131795Y-57414598D02*
X141169890Y-57300312D01*
X141169890Y-57300312D02*
X141246080Y-57224122D01*
X141246080Y-57224122D02*
X141322271Y-57186027D01*
X141322271Y-57186027D02*
X141474652Y-57147931D01*
X141474652Y-57147931D02*
X141588938Y-57147931D01*
X141588938Y-57147931D02*
X141741319Y-57186027D01*
X141741319Y-57186027D02*
X141817509Y-57224122D01*
X141817509Y-57224122D02*
X141893700Y-57300312D01*
X141893700Y-57300312D02*
X141931795Y-57414598D01*
X141931795Y-57414598D02*
X141931795Y-57490789D01*
X141931795Y-57490789D02*
X141893700Y-57605074D01*
X141893700Y-57605074D02*
X141855604Y-57643170D01*
X141855604Y-57643170D02*
X141588938Y-57643170D01*
X141588938Y-57643170D02*
X141588938Y-57490789D01*
X141931795Y-57986027D02*
X141131795Y-57986027D01*
X141131795Y-57986027D02*
X141931795Y-58443170D01*
X141931795Y-58443170D02*
X141131795Y-58443170D01*
X141931795Y-58824122D02*
X141131795Y-58824122D01*
X141131795Y-58824122D02*
X141131795Y-59014598D01*
X141131795Y-59014598D02*
X141169890Y-59128884D01*
X141169890Y-59128884D02*
X141246080Y-59205074D01*
X141246080Y-59205074D02*
X141322271Y-59243169D01*
X141322271Y-59243169D02*
X141474652Y-59281265D01*
X141474652Y-59281265D02*
X141588938Y-59281265D01*
X141588938Y-59281265D02*
X141741319Y-59243169D01*
X141741319Y-59243169D02*
X141817509Y-59205074D01*
X141817509Y-59205074D02*
X141893700Y-59128884D01*
X141893700Y-59128884D02*
X141931795Y-59014598D01*
X141931795Y-59014598D02*
X141931795Y-58824122D01*
X118719890Y-64605312D02*
X118681795Y-64529122D01*
X118681795Y-64529122D02*
X118681795Y-64414836D01*
X118681795Y-64414836D02*
X118719890Y-64300550D01*
X118719890Y-64300550D02*
X118796080Y-64224360D01*
X118796080Y-64224360D02*
X118872271Y-64186265D01*
X118872271Y-64186265D02*
X119024652Y-64148169D01*
X119024652Y-64148169D02*
X119138938Y-64148169D01*
X119138938Y-64148169D02*
X119291319Y-64186265D01*
X119291319Y-64186265D02*
X119367509Y-64224360D01*
X119367509Y-64224360D02*
X119443700Y-64300550D01*
X119443700Y-64300550D02*
X119481795Y-64414836D01*
X119481795Y-64414836D02*
X119481795Y-64491027D01*
X119481795Y-64491027D02*
X119443700Y-64605312D01*
X119443700Y-64605312D02*
X119405604Y-64643408D01*
X119405604Y-64643408D02*
X119138938Y-64643408D01*
X119138938Y-64643408D02*
X119138938Y-64491027D01*
X119481795Y-64986265D02*
X118681795Y-64986265D01*
X118681795Y-64986265D02*
X119481795Y-65443408D01*
X119481795Y-65443408D02*
X118681795Y-65443408D01*
X119481795Y-65824360D02*
X118681795Y-65824360D01*
X118681795Y-65824360D02*
X118681795Y-66014836D01*
X118681795Y-66014836D02*
X118719890Y-66129122D01*
X118719890Y-66129122D02*
X118796080Y-66205312D01*
X118796080Y-66205312D02*
X118872271Y-66243407D01*
X118872271Y-66243407D02*
X119024652Y-66281503D01*
X119024652Y-66281503D02*
X119138938Y-66281503D01*
X119138938Y-66281503D02*
X119291319Y-66243407D01*
X119291319Y-66243407D02*
X119367509Y-66205312D01*
X119367509Y-66205312D02*
X119443700Y-66129122D01*
X119443700Y-66129122D02*
X119481795Y-66014836D01*
X119481795Y-66014836D02*
X119481795Y-65824360D01*
X127689890Y-131635312D02*
X127651795Y-131559122D01*
X127651795Y-131559122D02*
X127651795Y-131444836D01*
X127651795Y-131444836D02*
X127689890Y-131330550D01*
X127689890Y-131330550D02*
X127766080Y-131254360D01*
X127766080Y-131254360D02*
X127842271Y-131216265D01*
X127842271Y-131216265D02*
X127994652Y-131178169D01*
X127994652Y-131178169D02*
X128108938Y-131178169D01*
X128108938Y-131178169D02*
X128261319Y-131216265D01*
X128261319Y-131216265D02*
X128337509Y-131254360D01*
X128337509Y-131254360D02*
X128413700Y-131330550D01*
X128413700Y-131330550D02*
X128451795Y-131444836D01*
X128451795Y-131444836D02*
X128451795Y-131521027D01*
X128451795Y-131521027D02*
X128413700Y-131635312D01*
X128413700Y-131635312D02*
X128375604Y-131673408D01*
X128375604Y-131673408D02*
X128108938Y-131673408D01*
X128108938Y-131673408D02*
X128108938Y-131521027D01*
X128451795Y-132016265D02*
X127651795Y-132016265D01*
X127651795Y-132016265D02*
X128451795Y-132473408D01*
X128451795Y-132473408D02*
X127651795Y-132473408D01*
X128451795Y-132854360D02*
X127651795Y-132854360D01*
X127651795Y-132854360D02*
X127651795Y-133044836D01*
X127651795Y-133044836D02*
X127689890Y-133159122D01*
X127689890Y-133159122D02*
X127766080Y-133235312D01*
X127766080Y-133235312D02*
X127842271Y-133273407D01*
X127842271Y-133273407D02*
X127994652Y-133311503D01*
X127994652Y-133311503D02*
X128108938Y-133311503D01*
X128108938Y-133311503D02*
X128261319Y-133273407D01*
X128261319Y-133273407D02*
X128337509Y-133235312D01*
X128337509Y-133235312D02*
X128413700Y-133159122D01*
X128413700Y-133159122D02*
X128451795Y-133044836D01*
X128451795Y-133044836D02*
X128451795Y-132854360D01*
X127719890Y-64605312D02*
X127681795Y-64529122D01*
X127681795Y-64529122D02*
X127681795Y-64414836D01*
X127681795Y-64414836D02*
X127719890Y-64300550D01*
X127719890Y-64300550D02*
X127796080Y-64224360D01*
X127796080Y-64224360D02*
X127872271Y-64186265D01*
X127872271Y-64186265D02*
X128024652Y-64148169D01*
X128024652Y-64148169D02*
X128138938Y-64148169D01*
X128138938Y-64148169D02*
X128291319Y-64186265D01*
X128291319Y-64186265D02*
X128367509Y-64224360D01*
X128367509Y-64224360D02*
X128443700Y-64300550D01*
X128443700Y-64300550D02*
X128481795Y-64414836D01*
X128481795Y-64414836D02*
X128481795Y-64491027D01*
X128481795Y-64491027D02*
X128443700Y-64605312D01*
X128443700Y-64605312D02*
X128405604Y-64643408D01*
X128405604Y-64643408D02*
X128138938Y-64643408D01*
X128138938Y-64643408D02*
X128138938Y-64491027D01*
X128481795Y-64986265D02*
X127681795Y-64986265D01*
X127681795Y-64986265D02*
X128481795Y-65443408D01*
X128481795Y-65443408D02*
X127681795Y-65443408D01*
X128481795Y-65824360D02*
X127681795Y-65824360D01*
X127681795Y-65824360D02*
X127681795Y-66014836D01*
X127681795Y-66014836D02*
X127719890Y-66129122D01*
X127719890Y-66129122D02*
X127796080Y-66205312D01*
X127796080Y-66205312D02*
X127872271Y-66243407D01*
X127872271Y-66243407D02*
X128024652Y-66281503D01*
X128024652Y-66281503D02*
X128138938Y-66281503D01*
X128138938Y-66281503D02*
X128291319Y-66243407D01*
X128291319Y-66243407D02*
X128367509Y-66205312D01*
X128367509Y-66205312D02*
X128443700Y-66129122D01*
X128443700Y-66129122D02*
X128481795Y-66014836D01*
X128481795Y-66014836D02*
X128481795Y-65824360D01*
D11*
X147211178Y-87467935D02*
X146754035Y-87467935D01*
X146982607Y-88267935D02*
X146982607Y-87467935D01*
X146487368Y-88267935D02*
X146487368Y-87467935D01*
X146487368Y-87848887D02*
X146030225Y-87848887D01*
X146030225Y-88267935D02*
X146030225Y-87467935D01*
X145230226Y-88267935D02*
X145687369Y-88267935D01*
X145458797Y-88267935D02*
X145458797Y-87467935D01*
X145458797Y-87467935D02*
X145534988Y-87582220D01*
X145534988Y-87582220D02*
X145611178Y-87658411D01*
X145611178Y-87658411D02*
X145687369Y-87696506D01*
X144887368Y-87963173D02*
X144277845Y-87963173D01*
X143896892Y-88267935D02*
X143896892Y-87467935D01*
X143896892Y-87467935D02*
X143592130Y-87467935D01*
X143592130Y-87467935D02*
X143515940Y-87506030D01*
X143515940Y-87506030D02*
X143477845Y-87544125D01*
X143477845Y-87544125D02*
X143439749Y-87620316D01*
X143439749Y-87620316D02*
X143439749Y-87734601D01*
X143439749Y-87734601D02*
X143477845Y-87810792D01*
X143477845Y-87810792D02*
X143515940Y-87848887D01*
X143515940Y-87848887D02*
X143592130Y-87886982D01*
X143592130Y-87886982D02*
X143896892Y-87886982D01*
X143173083Y-87467935D02*
X142982607Y-88267935D01*
X142982607Y-88267935D02*
X142830226Y-87696506D01*
X142830226Y-87696506D02*
X142677845Y-88267935D01*
X142677845Y-88267935D02*
X142487369Y-87467935D01*
X141725463Y-88267935D02*
X141992130Y-87886982D01*
X142182606Y-88267935D02*
X142182606Y-87467935D01*
X142182606Y-87467935D02*
X141877844Y-87467935D01*
X141877844Y-87467935D02*
X141801654Y-87506030D01*
X141801654Y-87506030D02*
X141763559Y-87544125D01*
X141763559Y-87544125D02*
X141725463Y-87620316D01*
X141725463Y-87620316D02*
X141725463Y-87734601D01*
X141725463Y-87734601D02*
X141763559Y-87810792D01*
X141763559Y-87810792D02*
X141801654Y-87848887D01*
X141801654Y-87848887D02*
X141877844Y-87886982D01*
X141877844Y-87886982D02*
X142182606Y-87886982D01*
D10*
X192824687Y-104829990D02*
X192900877Y-104791895D01*
X192900877Y-104791895D02*
X193015163Y-104791895D01*
X193015163Y-104791895D02*
X193129449Y-104829990D01*
X193129449Y-104829990D02*
X193205639Y-104906180D01*
X193205639Y-104906180D02*
X193243734Y-104982371D01*
X193243734Y-104982371D02*
X193281830Y-105134752D01*
X193281830Y-105134752D02*
X193281830Y-105249038D01*
X193281830Y-105249038D02*
X193243734Y-105401419D01*
X193243734Y-105401419D02*
X193205639Y-105477609D01*
X193205639Y-105477609D02*
X193129449Y-105553800D01*
X193129449Y-105553800D02*
X193015163Y-105591895D01*
X193015163Y-105591895D02*
X192938972Y-105591895D01*
X192938972Y-105591895D02*
X192824687Y-105553800D01*
X192824687Y-105553800D02*
X192786591Y-105515704D01*
X192786591Y-105515704D02*
X192786591Y-105249038D01*
X192786591Y-105249038D02*
X192938972Y-105249038D01*
X192443734Y-105591895D02*
X192443734Y-104791895D01*
X192443734Y-104791895D02*
X191986591Y-105591895D01*
X191986591Y-105591895D02*
X191986591Y-104791895D01*
X191605639Y-105591895D02*
X191605639Y-104791895D01*
X191605639Y-104791895D02*
X191415163Y-104791895D01*
X191415163Y-104791895D02*
X191300877Y-104829990D01*
X191300877Y-104829990D02*
X191224687Y-104906180D01*
X191224687Y-104906180D02*
X191186592Y-104982371D01*
X191186592Y-104982371D02*
X191148496Y-105134752D01*
X191148496Y-105134752D02*
X191148496Y-105249038D01*
X191148496Y-105249038D02*
X191186592Y-105401419D01*
X191186592Y-105401419D02*
X191224687Y-105477609D01*
X191224687Y-105477609D02*
X191300877Y-105553800D01*
X191300877Y-105553800D02*
X191415163Y-105591895D01*
X191415163Y-105591895D02*
X191605639Y-105591895D01*
X141219890Y-138355074D02*
X141181795Y-138278884D01*
X141181795Y-138278884D02*
X141181795Y-138164598D01*
X141181795Y-138164598D02*
X141219890Y-138050312D01*
X141219890Y-138050312D02*
X141296080Y-137974122D01*
X141296080Y-137974122D02*
X141372271Y-137936027D01*
X141372271Y-137936027D02*
X141524652Y-137897931D01*
X141524652Y-137897931D02*
X141638938Y-137897931D01*
X141638938Y-137897931D02*
X141791319Y-137936027D01*
X141791319Y-137936027D02*
X141867509Y-137974122D01*
X141867509Y-137974122D02*
X141943700Y-138050312D01*
X141943700Y-138050312D02*
X141981795Y-138164598D01*
X141981795Y-138164598D02*
X141981795Y-138240789D01*
X141981795Y-138240789D02*
X141943700Y-138355074D01*
X141943700Y-138355074D02*
X141905604Y-138393170D01*
X141905604Y-138393170D02*
X141638938Y-138393170D01*
X141638938Y-138393170D02*
X141638938Y-138240789D01*
X141981795Y-138736027D02*
X141181795Y-138736027D01*
X141181795Y-138736027D02*
X141981795Y-139193170D01*
X141981795Y-139193170D02*
X141181795Y-139193170D01*
X141981795Y-139574122D02*
X141181795Y-139574122D01*
X141181795Y-139574122D02*
X141181795Y-139764598D01*
X141181795Y-139764598D02*
X141219890Y-139878884D01*
X141219890Y-139878884D02*
X141296080Y-139955074D01*
X141296080Y-139955074D02*
X141372271Y-139993169D01*
X141372271Y-139993169D02*
X141524652Y-140031265D01*
X141524652Y-140031265D02*
X141638938Y-140031265D01*
X141638938Y-140031265D02*
X141791319Y-139993169D01*
X141791319Y-139993169D02*
X141867509Y-139955074D01*
X141867509Y-139955074D02*
X141943700Y-139878884D01*
X141943700Y-139878884D02*
X141981795Y-139764598D01*
X141981795Y-139764598D02*
X141981795Y-139574122D01*
X181099890Y-64529121D02*
X181061795Y-64452931D01*
X181061795Y-64452931D02*
X181061795Y-64338645D01*
X181061795Y-64338645D02*
X181099890Y-64224359D01*
X181099890Y-64224359D02*
X181176080Y-64148169D01*
X181176080Y-64148169D02*
X181252271Y-64110074D01*
X181252271Y-64110074D02*
X181404652Y-64071978D01*
X181404652Y-64071978D02*
X181518938Y-64071978D01*
X181518938Y-64071978D02*
X181671319Y-64110074D01*
X181671319Y-64110074D02*
X181747509Y-64148169D01*
X181747509Y-64148169D02*
X181823700Y-64224359D01*
X181823700Y-64224359D02*
X181861795Y-64338645D01*
X181861795Y-64338645D02*
X181861795Y-64414836D01*
X181861795Y-64414836D02*
X181823700Y-64529121D01*
X181823700Y-64529121D02*
X181785604Y-64567217D01*
X181785604Y-64567217D02*
X181518938Y-64567217D01*
X181518938Y-64567217D02*
X181518938Y-64414836D01*
X181861795Y-64910074D02*
X181061795Y-64910074D01*
X181061795Y-64910074D02*
X181861795Y-65367217D01*
X181861795Y-65367217D02*
X181061795Y-65367217D01*
X181861795Y-65748169D02*
X181061795Y-65748169D01*
X181061795Y-65748169D02*
X181061795Y-65938645D01*
X181061795Y-65938645D02*
X181099890Y-66052931D01*
X181099890Y-66052931D02*
X181176080Y-66129121D01*
X181176080Y-66129121D02*
X181252271Y-66167216D01*
X181252271Y-66167216D02*
X181404652Y-66205312D01*
X181404652Y-66205312D02*
X181518938Y-66205312D01*
X181518938Y-66205312D02*
X181671319Y-66167216D01*
X181671319Y-66167216D02*
X181747509Y-66129121D01*
X181747509Y-66129121D02*
X181823700Y-66052931D01*
X181823700Y-66052931D02*
X181861795Y-65938645D01*
X181861795Y-65938645D02*
X181861795Y-65748169D01*
X192786592Y-108078800D02*
X192672306Y-108116895D01*
X192672306Y-108116895D02*
X192481830Y-108116895D01*
X192481830Y-108116895D02*
X192405639Y-108078800D01*
X192405639Y-108078800D02*
X192367544Y-108040704D01*
X192367544Y-108040704D02*
X192329449Y-107964514D01*
X192329449Y-107964514D02*
X192329449Y-107888323D01*
X192329449Y-107888323D02*
X192367544Y-107812133D01*
X192367544Y-107812133D02*
X192405639Y-107774038D01*
X192405639Y-107774038D02*
X192481830Y-107735942D01*
X192481830Y-107735942D02*
X192634211Y-107697847D01*
X192634211Y-107697847D02*
X192710401Y-107659752D01*
X192710401Y-107659752D02*
X192748496Y-107621657D01*
X192748496Y-107621657D02*
X192786592Y-107545466D01*
X192786592Y-107545466D02*
X192786592Y-107469276D01*
X192786592Y-107469276D02*
X192748496Y-107393085D01*
X192748496Y-107393085D02*
X192710401Y-107354990D01*
X192710401Y-107354990D02*
X192634211Y-107316895D01*
X192634211Y-107316895D02*
X192443734Y-107316895D01*
X192443734Y-107316895D02*
X192329449Y-107354990D01*
X191986591Y-108116895D02*
X191986591Y-107316895D01*
X191186592Y-107354990D02*
X191262782Y-107316895D01*
X191262782Y-107316895D02*
X191377068Y-107316895D01*
X191377068Y-107316895D02*
X191491354Y-107354990D01*
X191491354Y-107354990D02*
X191567544Y-107431180D01*
X191567544Y-107431180D02*
X191605639Y-107507371D01*
X191605639Y-107507371D02*
X191643735Y-107659752D01*
X191643735Y-107659752D02*
X191643735Y-107774038D01*
X191643735Y-107774038D02*
X191605639Y-107926419D01*
X191605639Y-107926419D02*
X191567544Y-108002609D01*
X191567544Y-108002609D02*
X191491354Y-108078800D01*
X191491354Y-108078800D02*
X191377068Y-108116895D01*
X191377068Y-108116895D02*
X191300877Y-108116895D01*
X191300877Y-108116895D02*
X191186592Y-108078800D01*
X191186592Y-108078800D02*
X191148496Y-108040704D01*
X191148496Y-108040704D02*
X191148496Y-107774038D01*
X191148496Y-107774038D02*
X191300877Y-107774038D01*
X156144890Y-138355074D02*
X156106795Y-138278884D01*
X156106795Y-138278884D02*
X156106795Y-138164598D01*
X156106795Y-138164598D02*
X156144890Y-138050312D01*
X156144890Y-138050312D02*
X156221080Y-137974122D01*
X156221080Y-137974122D02*
X156297271Y-137936027D01*
X156297271Y-137936027D02*
X156449652Y-137897931D01*
X156449652Y-137897931D02*
X156563938Y-137897931D01*
X156563938Y-137897931D02*
X156716319Y-137936027D01*
X156716319Y-137936027D02*
X156792509Y-137974122D01*
X156792509Y-137974122D02*
X156868700Y-138050312D01*
X156868700Y-138050312D02*
X156906795Y-138164598D01*
X156906795Y-138164598D02*
X156906795Y-138240789D01*
X156906795Y-138240789D02*
X156868700Y-138355074D01*
X156868700Y-138355074D02*
X156830604Y-138393170D01*
X156830604Y-138393170D02*
X156563938Y-138393170D01*
X156563938Y-138393170D02*
X156563938Y-138240789D01*
X156906795Y-138736027D02*
X156106795Y-138736027D01*
X156106795Y-138736027D02*
X156906795Y-139193170D01*
X156906795Y-139193170D02*
X156106795Y-139193170D01*
X156906795Y-139574122D02*
X156106795Y-139574122D01*
X156106795Y-139574122D02*
X156106795Y-139764598D01*
X156106795Y-139764598D02*
X156144890Y-139878884D01*
X156144890Y-139878884D02*
X156221080Y-139955074D01*
X156221080Y-139955074D02*
X156297271Y-139993169D01*
X156297271Y-139993169D02*
X156449652Y-140031265D01*
X156449652Y-140031265D02*
X156563938Y-140031265D01*
X156563938Y-140031265D02*
X156716319Y-139993169D01*
X156716319Y-139993169D02*
X156792509Y-139955074D01*
X156792509Y-139955074D02*
X156868700Y-139878884D01*
X156868700Y-139878884D02*
X156906795Y-139764598D01*
X156906795Y-139764598D02*
X156906795Y-139574122D01*
X134694890Y-57605074D02*
X134656795Y-57528884D01*
X134656795Y-57528884D02*
X134656795Y-57414598D01*
X134656795Y-57414598D02*
X134694890Y-57300312D01*
X134694890Y-57300312D02*
X134771080Y-57224122D01*
X134771080Y-57224122D02*
X134847271Y-57186027D01*
X134847271Y-57186027D02*
X134999652Y-57147931D01*
X134999652Y-57147931D02*
X135113938Y-57147931D01*
X135113938Y-57147931D02*
X135266319Y-57186027D01*
X135266319Y-57186027D02*
X135342509Y-57224122D01*
X135342509Y-57224122D02*
X135418700Y-57300312D01*
X135418700Y-57300312D02*
X135456795Y-57414598D01*
X135456795Y-57414598D02*
X135456795Y-57490789D01*
X135456795Y-57490789D02*
X135418700Y-57605074D01*
X135418700Y-57605074D02*
X135380604Y-57643170D01*
X135380604Y-57643170D02*
X135113938Y-57643170D01*
X135113938Y-57643170D02*
X135113938Y-57490789D01*
X135456795Y-57986027D02*
X134656795Y-57986027D01*
X134656795Y-57986027D02*
X135456795Y-58443170D01*
X135456795Y-58443170D02*
X134656795Y-58443170D01*
X135456795Y-58824122D02*
X134656795Y-58824122D01*
X134656795Y-58824122D02*
X134656795Y-59014598D01*
X134656795Y-59014598D02*
X134694890Y-59128884D01*
X134694890Y-59128884D02*
X134771080Y-59205074D01*
X134771080Y-59205074D02*
X134847271Y-59243169D01*
X134847271Y-59243169D02*
X134999652Y-59281265D01*
X134999652Y-59281265D02*
X135113938Y-59281265D01*
X135113938Y-59281265D02*
X135266319Y-59243169D01*
X135266319Y-59243169D02*
X135342509Y-59205074D01*
X135342509Y-59205074D02*
X135418700Y-59128884D01*
X135418700Y-59128884D02*
X135456795Y-59014598D01*
X135456795Y-59014598D02*
X135456795Y-58824122D01*
X165094890Y-57605074D02*
X165056795Y-57528884D01*
X165056795Y-57528884D02*
X165056795Y-57414598D01*
X165056795Y-57414598D02*
X165094890Y-57300312D01*
X165094890Y-57300312D02*
X165171080Y-57224122D01*
X165171080Y-57224122D02*
X165247271Y-57186027D01*
X165247271Y-57186027D02*
X165399652Y-57147931D01*
X165399652Y-57147931D02*
X165513938Y-57147931D01*
X165513938Y-57147931D02*
X165666319Y-57186027D01*
X165666319Y-57186027D02*
X165742509Y-57224122D01*
X165742509Y-57224122D02*
X165818700Y-57300312D01*
X165818700Y-57300312D02*
X165856795Y-57414598D01*
X165856795Y-57414598D02*
X165856795Y-57490789D01*
X165856795Y-57490789D02*
X165818700Y-57605074D01*
X165818700Y-57605074D02*
X165780604Y-57643170D01*
X165780604Y-57643170D02*
X165513938Y-57643170D01*
X165513938Y-57643170D02*
X165513938Y-57490789D01*
X165856795Y-57986027D02*
X165056795Y-57986027D01*
X165056795Y-57986027D02*
X165856795Y-58443170D01*
X165856795Y-58443170D02*
X165056795Y-58443170D01*
X165856795Y-58824122D02*
X165056795Y-58824122D01*
X165056795Y-58824122D02*
X165056795Y-59014598D01*
X165056795Y-59014598D02*
X165094890Y-59128884D01*
X165094890Y-59128884D02*
X165171080Y-59205074D01*
X165171080Y-59205074D02*
X165247271Y-59243169D01*
X165247271Y-59243169D02*
X165399652Y-59281265D01*
X165399652Y-59281265D02*
X165513938Y-59281265D01*
X165513938Y-59281265D02*
X165666319Y-59243169D01*
X165666319Y-59243169D02*
X165742509Y-59205074D01*
X165742509Y-59205074D02*
X165818700Y-59128884D01*
X165818700Y-59128884D02*
X165856795Y-59014598D01*
X165856795Y-59014598D02*
X165856795Y-58824122D01*
M02*
