M48
; DRILL file {KiCad 9.0.4-1.fc42} date 2025-09-30T12:13:39+0300
; FORMAT={-:-/ absolute / inch / decimal}
; #@! TF.CreationDate,2025-09-30T12:13:39+03:00
; #@! TF.GenerationSoftware,Kicad,Pcbnew,9.0.4-1.fc42
; #@! TF.FileFunction,Plated,1,2,PTH
FMAT,2
INCH
; #@! TA.AperFunction,Plated,PTH,ComponentDrill
T1C0.0394
; #@! TA.AperFunction,Plated,PTH,ComponentDrill
T2C0.0866
%
G90
G05
T1
X4.287Y-3.5691
X4.287Y-3.6691
X4.287Y-3.7691
X4.287Y-4.0415
X4.287Y-4.1415
X4.287Y-4.2415
X4.476Y-3.5116
X4.476Y-3.6691
X4.476Y-3.8266
X4.476Y-3.9841
X4.476Y-4.1415
X4.476Y-4.299
X4.5874Y-2.69
X4.5874Y-5.073
X4.6693Y-2.8789
X4.6693Y-3.2726
X4.6693Y-4.4904
X4.6693Y-4.8841
X4.6874Y-2.69
X4.6874Y-5.073
X4.7874Y-2.69
X4.7874Y-5.073
X4.8268Y-2.8789
X4.8268Y-3.2726
X4.8268Y-4.4904
X4.8268Y-4.8841
X4.8697Y-3.5116
X4.8697Y-3.6691
X4.8697Y-3.8266
X4.8697Y-3.9841
X4.8697Y-4.1415
X4.8697Y-4.299
X4.9417Y-2.69
X4.9417Y-5.073
X4.9842Y-2.8789
X4.9842Y-3.2726
X4.9842Y-4.4904
X4.9842Y-4.8841
X5.0394Y-3.8553
X5.0394Y-3.9553
X5.0417Y-2.69
X5.0417Y-5.073
X5.1155Y-3.5376
X5.1155Y-3.6376
X5.1155Y-4.1577
X5.1155Y-4.2577
X5.1417Y-2.69
X5.1417Y-2.8789
X5.1417Y-3.2726
X5.1417Y-4.4904
X5.1417Y-4.8841
X5.1417Y-5.073
X5.2173Y-2.4144
X5.2173Y-5.3486
X5.2992Y-2.6033
X5.2992Y-2.997
X5.2992Y-4.7659
X5.2992Y-5.1596
X5.3173Y-2.4144
X5.3173Y-5.3486
X5.3543Y-3.8553
X5.3543Y-3.9553
X5.4173Y-2.4144
X5.4173Y-5.3486
X5.4305Y-3.5376
X5.4305Y-3.6376
X5.4305Y-4.1577
X5.4305Y-4.2577
X5.4567Y-3.2197
X5.4567Y-3.3197
X5.4567Y-2.6033
X5.4567Y-2.997
X5.4567Y-4.4675
X5.4567Y-4.5675
X5.4567Y-4.7659
X5.4567Y-5.1596
X5.5716Y-2.4144
X5.5716Y-5.3486
X5.5906Y-3.7008
X5.5906Y-4.0945
X5.5907Y-3.5441
X5.5907Y-4.2512
X5.6142Y-2.6033
X5.6142Y-2.997
X5.6142Y-4.7659
X5.6142Y-5.1596
X5.6716Y-2.4144
X5.6716Y-5.3486
X5.6907Y-3.5441
X5.6907Y-4.2512
X5.7716Y-3.2197
X5.7716Y-3.3197
X5.7716Y-2.4144
X5.7716Y-2.6033
X5.7716Y-2.997
X5.7716Y-4.7659
X5.7716Y-5.1596
X5.7716Y-5.3486
X5.7716Y-4.4691
X5.7716Y-4.5691
X5.7907Y-3.5441
X5.7907Y-4.2512
X5.9415Y-3.5441
X5.9417Y-4.2512
X5.9606Y-2.4144
X5.9606Y-2.6033
X5.9606Y-2.997
X5.9606Y-3.2197
X5.9606Y-3.3197
X5.9606Y-4.7659
X5.9606Y-5.1596
X5.9606Y-5.3486
X5.9606Y-4.4675
X5.9606Y-4.5675
X6.0415Y-3.5441
X6.0417Y-4.2512
X6.0606Y-2.4144
X6.0606Y-5.3486
X6.1181Y-2.6033
X6.1181Y-2.997
X6.1181Y-4.7659
X6.1181Y-5.1596
X6.1415Y-3.5441
X6.1417Y-3.7008
X6.1417Y-4.0945
X6.1417Y-4.2512
X6.1606Y-2.4144
X6.1606Y-5.3486
X6.2756Y-2.6033
X6.2756Y-2.997
X6.2756Y-3.2197
X6.2756Y-3.3197
X6.2756Y-4.7659
X6.2756Y-5.1596
X6.2756Y-4.4675
X6.2756Y-4.5675
X6.3019Y-4.1577
X6.3019Y-4.2577
X6.3019Y-3.5376
X6.3019Y-3.6376
X6.315Y-2.4144
X6.315Y-5.3486
X6.3779Y-3.8553
X6.3779Y-3.9553
X6.415Y-2.4144
X6.415Y-5.3486
X6.4331Y-2.6033
X6.4331Y-2.997
X6.4331Y-4.7659
X6.4331Y-5.1596
X6.515Y-2.4144
X6.515Y-5.3486
X6.5905Y-2.69
X6.5905Y-2.8789
X6.5905Y-3.2726
X6.5905Y-4.4904
X6.5905Y-4.8841
X6.5905Y-5.073
X6.6168Y-3.5376
X6.6168Y-3.6376
X6.6178Y-4.1577
X6.6178Y-4.2577
X6.6905Y-2.69
X6.6905Y-5.073
X6.6929Y-3.8553
X6.6929Y-3.9553
X6.748Y-2.8789
X6.748Y-3.2726
X6.748Y-4.4904
X6.748Y-4.8841
X6.7905Y-2.69
X6.7905Y-5.073
X6.8626Y-3.5116
X6.8626Y-3.6691
X6.8626Y-3.8266
X6.8626Y-3.9841
X6.8626Y-4.1415
X6.8626Y-4.299
X6.9055Y-2.8789
X6.9055Y-3.2726
X6.9055Y-4.4904
X6.9055Y-4.8841
X6.9449Y-2.69
X6.9449Y-5.073
X7.0449Y-2.69
X7.0449Y-5.073
X7.063Y-2.8789
X7.063Y-3.2726
X7.063Y-4.4904
X7.063Y-4.8841
X7.1449Y-2.69
X7.1449Y-5.073
X7.2563Y-3.5116
X7.2563Y-3.6691
X7.2563Y-3.8266
X7.2563Y-3.9841
X7.2563Y-4.1415
X7.2563Y-4.299
X7.4453Y-3.5691
X7.4453Y-3.6691
X7.4453Y-3.7691
X7.4453Y-4.0415
X7.4453Y-4.1415
X7.4453Y-4.2415
T2
X4.2913Y-2.3228
X4.2913Y-5.4724
X7.4409Y-2.3228
X7.4409Y-5.4724
M30
