%TF.GenerationSoftware,KiCad,Pcbnew,8.0.9-1.fc41*%
%TF.CreationDate,2025-03-19T11:35:07+02:00*%
%TF.ProjectId,FBK-4mm-Base,46424b2d-346d-46d2-9d42-6173652e6b69,rev?*%
%TF.SameCoordinates,Original*%
%TF.FileFunction,Legend,Top*%
%TF.FilePolarity,Positive*%
%FSLAX46Y46*%
G04 Gerber Fmt 4.6, Leading zero omitted, Abs format (unit mm)*
G04 Created by KiCad (PCBNEW 8.0.9-1.fc41) date 2025-03-19 11:35:07*
%MOMM*%
%LPD*%
G01*
G04 APERTURE LIST*
%ADD10C,0.100000*%
G04 APERTURE END LIST*
D10*
X151488096Y-97402300D02*
X151559524Y-97426109D01*
X151559524Y-97426109D02*
X151678572Y-97426109D01*
X151678572Y-97426109D02*
X151726191Y-97402300D01*
X151726191Y-97402300D02*
X151750000Y-97378490D01*
X151750000Y-97378490D02*
X151773810Y-97330871D01*
X151773810Y-97330871D02*
X151773810Y-97283252D01*
X151773810Y-97283252D02*
X151750000Y-97235633D01*
X151750000Y-97235633D02*
X151726191Y-97211823D01*
X151726191Y-97211823D02*
X151678572Y-97188014D01*
X151678572Y-97188014D02*
X151583334Y-97164204D01*
X151583334Y-97164204D02*
X151535715Y-97140395D01*
X151535715Y-97140395D02*
X151511905Y-97116585D01*
X151511905Y-97116585D02*
X151488096Y-97068966D01*
X151488096Y-97068966D02*
X151488096Y-97021347D01*
X151488096Y-97021347D02*
X151511905Y-96973728D01*
X151511905Y-96973728D02*
X151535715Y-96949919D01*
X151535715Y-96949919D02*
X151583334Y-96926109D01*
X151583334Y-96926109D02*
X151702381Y-96926109D01*
X151702381Y-96926109D02*
X151773810Y-96949919D01*
X151988095Y-97426109D02*
X151988095Y-96926109D01*
X152488095Y-96949919D02*
X152440476Y-96926109D01*
X152440476Y-96926109D02*
X152369047Y-96926109D01*
X152369047Y-96926109D02*
X152297619Y-96949919D01*
X152297619Y-96949919D02*
X152250000Y-96997538D01*
X152250000Y-96997538D02*
X152226190Y-97045157D01*
X152226190Y-97045157D02*
X152202381Y-97140395D01*
X152202381Y-97140395D02*
X152202381Y-97211823D01*
X152202381Y-97211823D02*
X152226190Y-97307061D01*
X152226190Y-97307061D02*
X152250000Y-97354680D01*
X152250000Y-97354680D02*
X152297619Y-97402300D01*
X152297619Y-97402300D02*
X152369047Y-97426109D01*
X152369047Y-97426109D02*
X152416666Y-97426109D01*
X152416666Y-97426109D02*
X152488095Y-97402300D01*
X152488095Y-97402300D02*
X152511904Y-97378490D01*
X152511904Y-97378490D02*
X152511904Y-97211823D01*
X152511904Y-97211823D02*
X152416666Y-97211823D01*
X147333333Y-97426109D02*
X147333333Y-96926109D01*
X147333333Y-96926109D02*
X147523809Y-96926109D01*
X147523809Y-96926109D02*
X147571428Y-96949919D01*
X147571428Y-96949919D02*
X147595238Y-96973728D01*
X147595238Y-96973728D02*
X147619047Y-97021347D01*
X147619047Y-97021347D02*
X147619047Y-97092776D01*
X147619047Y-97092776D02*
X147595238Y-97140395D01*
X147595238Y-97140395D02*
X147571428Y-97164204D01*
X147571428Y-97164204D02*
X147523809Y-97188014D01*
X147523809Y-97188014D02*
X147333333Y-97188014D01*
X147785714Y-96926109D02*
X147904762Y-97426109D01*
X147904762Y-97426109D02*
X148000000Y-97068966D01*
X148000000Y-97068966D02*
X148095238Y-97426109D01*
X148095238Y-97426109D02*
X148214286Y-96926109D01*
X148690476Y-97426109D02*
X148523810Y-97188014D01*
X148404762Y-97426109D02*
X148404762Y-96926109D01*
X148404762Y-96926109D02*
X148595238Y-96926109D01*
X148595238Y-96926109D02*
X148642857Y-96949919D01*
X148642857Y-96949919D02*
X148666667Y-96973728D01*
X148666667Y-96973728D02*
X148690476Y-97021347D01*
X148690476Y-97021347D02*
X148690476Y-97092776D01*
X148690476Y-97092776D02*
X148666667Y-97140395D01*
X148666667Y-97140395D02*
X148642857Y-97164204D01*
X148642857Y-97164204D02*
X148595238Y-97188014D01*
X148595238Y-97188014D02*
X148404762Y-97188014D01*
%TO.C,D1*%
X147710000Y-97695000D02*
X152290000Y-97695000D01*
X152290000Y-102705000D01*
X147710000Y-102705000D01*
X147710000Y-97695000D01*
%TD*%
M02*
