M48
; DRILL file {KiCad 8.0.9-1.fc41} date 2025-03-19T11:39:35+0200
; FORMAT={-:-/ absolute / inch / decimal}
; #@! TF.CreationDate,2025-03-19T11:39:35+02:00
; #@! TF.GenerationSoftware,Kicad,Pcbnew,8.0.9-1.fc41
; #@! TF.FileFunction,Plated,1,2,PTH
FMAT,2
INCH
; #@! TA.AperFunction,Plated,PTH,ComponentDrill
T1C0.0331
; #@! TA.AperFunction,Plated,PTH,ComponentDrill
T2C0.0394
%
G90
G05
T1
X5.8555Y-3.4933
X5.8555Y-3.5933
X5.8555Y-3.6902
X5.8555Y-3.7902
X5.8555Y-4.0839
X5.8555Y-4.1839
X5.9055Y-3.5433
X5.9055Y-3.7402
X5.9055Y-4.1339
X5.9555Y-3.4933
X5.9555Y-3.5933
X5.9555Y-3.6902
X5.9555Y-3.7902
X5.9555Y-4.0839
X5.9555Y-4.1839
T2
X5.648Y-3.5232
X5.648Y-3.7807
X5.648Y-3.887
X5.648Y-4.1445
X5.748Y-3.5827
X5.748Y-3.6827
X5.748Y-3.7827
X5.748Y-3.887
X5.748Y-4.1445
X6.063Y-3.5827
X6.063Y-3.6827
X6.063Y-3.7827
X6.063Y-3.887
X6.063Y-4.1445
X6.163Y-3.5232
X6.163Y-3.7807
X6.163Y-3.887
X6.163Y-4.1445
M30
