%TF.GenerationSoftware,KiCad,Pcbnew,8.0.9-1.fc41*%
%TF.CreationDate,2025-03-19T11:39:36+02:00*%
%TF.ProjectId,Onsemi-3mm-TH-Con,4f6e7365-6d69-42d3-936d-6d2d54482d43,rev?*%
%TF.SameCoordinates,Original*%
%TF.FileFunction,Legend,Bot*%
%TF.FilePolarity,Positive*%
%FSLAX46Y46*%
G04 Gerber Fmt 4.6, Leading zero omitted, Abs format (unit mm)*
G04 Created by KiCad (PCBNEW 8.0.9-1.fc41) date 2025-03-19 11:39:36*
%MOMM*%
%LPD*%
G01*
G04 APERTURE LIST*
%ADD10C,0.150000*%
G04 APERTURE END LIST*
D10*
X156665000Y-93099164D02*
X156915000Y-92742021D01*
X157093571Y-93099164D02*
X157093571Y-92349164D01*
X157093571Y-92349164D02*
X156807857Y-92349164D01*
X156807857Y-92349164D02*
X156736428Y-92384878D01*
X156736428Y-92384878D02*
X156700714Y-92420592D01*
X156700714Y-92420592D02*
X156665000Y-92492021D01*
X156665000Y-92492021D02*
X156665000Y-92599164D01*
X156665000Y-92599164D02*
X156700714Y-92670592D01*
X156700714Y-92670592D02*
X156736428Y-92706307D01*
X156736428Y-92706307D02*
X156807857Y-92742021D01*
X156807857Y-92742021D02*
X157093571Y-92742021D01*
X156415000Y-92349164D02*
X155950714Y-92349164D01*
X155950714Y-92349164D02*
X156200714Y-92634878D01*
X156200714Y-92634878D02*
X156093571Y-92634878D01*
X156093571Y-92634878D02*
X156022143Y-92670592D01*
X156022143Y-92670592D02*
X155986428Y-92706307D01*
X155986428Y-92706307D02*
X155950714Y-92777735D01*
X155950714Y-92777735D02*
X155950714Y-92956307D01*
X155950714Y-92956307D02*
X155986428Y-93027735D01*
X155986428Y-93027735D02*
X156022143Y-93063450D01*
X156022143Y-93063450D02*
X156093571Y-93099164D01*
X156093571Y-93099164D02*
X156307857Y-93099164D01*
X156307857Y-93099164D02*
X156379285Y-93063450D01*
X156379285Y-93063450D02*
X156415000Y-93027735D01*
X146125000Y-102267735D02*
X146160714Y-102303450D01*
X146160714Y-102303450D02*
X146267857Y-102339164D01*
X146267857Y-102339164D02*
X146339285Y-102339164D01*
X146339285Y-102339164D02*
X146446428Y-102303450D01*
X146446428Y-102303450D02*
X146517857Y-102232021D01*
X146517857Y-102232021D02*
X146553571Y-102160592D01*
X146553571Y-102160592D02*
X146589285Y-102017735D01*
X146589285Y-102017735D02*
X146589285Y-101910592D01*
X146589285Y-101910592D02*
X146553571Y-101767735D01*
X146553571Y-101767735D02*
X146517857Y-101696307D01*
X146517857Y-101696307D02*
X146446428Y-101624878D01*
X146446428Y-101624878D02*
X146339285Y-101589164D01*
X146339285Y-101589164D02*
X146267857Y-101589164D01*
X146267857Y-101589164D02*
X146160714Y-101624878D01*
X146160714Y-101624878D02*
X146125000Y-101660592D01*
X145410714Y-102339164D02*
X145839285Y-102339164D01*
X145625000Y-102339164D02*
X145625000Y-101589164D01*
X145625000Y-101589164D02*
X145696428Y-101696307D01*
X145696428Y-101696307D02*
X145767857Y-101767735D01*
X145767857Y-101767735D02*
X145839285Y-101803450D01*
X143585000Y-102339164D02*
X143835000Y-101982021D01*
X144013571Y-102339164D02*
X144013571Y-101589164D01*
X144013571Y-101589164D02*
X143727857Y-101589164D01*
X143727857Y-101589164D02*
X143656428Y-101624878D01*
X143656428Y-101624878D02*
X143620714Y-101660592D01*
X143620714Y-101660592D02*
X143585000Y-101732021D01*
X143585000Y-101732021D02*
X143585000Y-101839164D01*
X143585000Y-101839164D02*
X143620714Y-101910592D01*
X143620714Y-101910592D02*
X143656428Y-101946307D01*
X143656428Y-101946307D02*
X143727857Y-101982021D01*
X143727857Y-101982021D02*
X144013571Y-101982021D01*
X142870714Y-102339164D02*
X143299285Y-102339164D01*
X143085000Y-102339164D02*
X143085000Y-101589164D01*
X143085000Y-101589164D02*
X143156428Y-101696307D01*
X143156428Y-101696307D02*
X143227857Y-101767735D01*
X143227857Y-101767735D02*
X143299285Y-101803450D01*
X154125000Y-102339164D02*
X154375000Y-101982021D01*
X154553571Y-102339164D02*
X154553571Y-101589164D01*
X154553571Y-101589164D02*
X154267857Y-101589164D01*
X154267857Y-101589164D02*
X154196428Y-101624878D01*
X154196428Y-101624878D02*
X154160714Y-101660592D01*
X154160714Y-101660592D02*
X154125000Y-101732021D01*
X154125000Y-101732021D02*
X154125000Y-101839164D01*
X154125000Y-101839164D02*
X154160714Y-101910592D01*
X154160714Y-101910592D02*
X154196428Y-101946307D01*
X154196428Y-101946307D02*
X154267857Y-101982021D01*
X154267857Y-101982021D02*
X154553571Y-101982021D01*
X153839285Y-101660592D02*
X153803571Y-101624878D01*
X153803571Y-101624878D02*
X153732143Y-101589164D01*
X153732143Y-101589164D02*
X153553571Y-101589164D01*
X153553571Y-101589164D02*
X153482143Y-101624878D01*
X153482143Y-101624878D02*
X153446428Y-101660592D01*
X153446428Y-101660592D02*
X153410714Y-101732021D01*
X153410714Y-101732021D02*
X153410714Y-101803450D01*
X153410714Y-101803450D02*
X153446428Y-101910592D01*
X153446428Y-101910592D02*
X153875000Y-102339164D01*
X153875000Y-102339164D02*
X153410714Y-102339164D01*
X143585000Y-93027735D02*
X143620714Y-93063450D01*
X143620714Y-93063450D02*
X143727857Y-93099164D01*
X143727857Y-93099164D02*
X143799285Y-93099164D01*
X143799285Y-93099164D02*
X143906428Y-93063450D01*
X143906428Y-93063450D02*
X143977857Y-92992021D01*
X143977857Y-92992021D02*
X144013571Y-92920592D01*
X144013571Y-92920592D02*
X144049285Y-92777735D01*
X144049285Y-92777735D02*
X144049285Y-92670592D01*
X144049285Y-92670592D02*
X144013571Y-92527735D01*
X144013571Y-92527735D02*
X143977857Y-92456307D01*
X143977857Y-92456307D02*
X143906428Y-92384878D01*
X143906428Y-92384878D02*
X143799285Y-92349164D01*
X143799285Y-92349164D02*
X143727857Y-92349164D01*
X143727857Y-92349164D02*
X143620714Y-92384878D01*
X143620714Y-92384878D02*
X143585000Y-92420592D01*
X143335000Y-92349164D02*
X142870714Y-92349164D01*
X142870714Y-92349164D02*
X143120714Y-92634878D01*
X143120714Y-92634878D02*
X143013571Y-92634878D01*
X143013571Y-92634878D02*
X142942143Y-92670592D01*
X142942143Y-92670592D02*
X142906428Y-92706307D01*
X142906428Y-92706307D02*
X142870714Y-92777735D01*
X142870714Y-92777735D02*
X142870714Y-92956307D01*
X142870714Y-92956307D02*
X142906428Y-93027735D01*
X142906428Y-93027735D02*
X142942143Y-93063450D01*
X142942143Y-93063450D02*
X143013571Y-93099164D01*
X143013571Y-93099164D02*
X143227857Y-93099164D01*
X143227857Y-93099164D02*
X143299285Y-93063450D01*
X143299285Y-93063450D02*
X143335000Y-93027735D01*
X156665000Y-102267735D02*
X156700714Y-102303450D01*
X156700714Y-102303450D02*
X156807857Y-102339164D01*
X156807857Y-102339164D02*
X156879285Y-102339164D01*
X156879285Y-102339164D02*
X156986428Y-102303450D01*
X156986428Y-102303450D02*
X157057857Y-102232021D01*
X157057857Y-102232021D02*
X157093571Y-102160592D01*
X157093571Y-102160592D02*
X157129285Y-102017735D01*
X157129285Y-102017735D02*
X157129285Y-101910592D01*
X157129285Y-101910592D02*
X157093571Y-101767735D01*
X157093571Y-101767735D02*
X157057857Y-101696307D01*
X157057857Y-101696307D02*
X156986428Y-101624878D01*
X156986428Y-101624878D02*
X156879285Y-101589164D01*
X156879285Y-101589164D02*
X156807857Y-101589164D01*
X156807857Y-101589164D02*
X156700714Y-101624878D01*
X156700714Y-101624878D02*
X156665000Y-101660592D01*
X156379285Y-101660592D02*
X156343571Y-101624878D01*
X156343571Y-101624878D02*
X156272143Y-101589164D01*
X156272143Y-101589164D02*
X156093571Y-101589164D01*
X156093571Y-101589164D02*
X156022143Y-101624878D01*
X156022143Y-101624878D02*
X155986428Y-101660592D01*
X155986428Y-101660592D02*
X155950714Y-101732021D01*
X155950714Y-101732021D02*
X155950714Y-101803450D01*
X155950714Y-101803450D02*
X155986428Y-101910592D01*
X155986428Y-101910592D02*
X156415000Y-102339164D01*
X156415000Y-102339164D02*
X155950714Y-102339164D01*
M02*
