%TF.GenerationSoftware,KiCad,Pcbnew,8.0.9-1.fc41*%
%TF.CreationDate,2025-03-19T11:39:36+02:00*%
%TF.ProjectId,Onsemi-3mm-TH-Con,4f6e7365-6d69-42d3-936d-6d2d54482d43,rev?*%
%TF.SameCoordinates,Original*%
%TF.FileFunction,Copper,L1,Top*%
%TF.FilePolarity,Positive*%
%FSLAX46Y46*%
G04 Gerber Fmt 4.6, Leading zero omitted, Abs format (unit mm)*
G04 Created by KiCad (PCBNEW 8.0.9-1.fc41) date 2025-03-19 11:39:36*
%MOMM*%
%LPD*%
G01*
G04 APERTURE LIST*
%TA.AperFunction,ComponentPad*%
%ADD10C,1.240000*%
%TD*%
%TA.AperFunction,ComponentPad*%
%ADD11O,1.700000X1.700000*%
%TD*%
%TA.AperFunction,ComponentPad*%
%ADD12R,1.700000X1.700000*%
%TD*%
%TA.AperFunction,SMDPad,CuDef*%
%ADD13C,0.500000*%
%TD*%
%TA.AperFunction,Conductor*%
%ADD14C,0.250000*%
%TD*%
G04 APERTURE END LIST*
D10*
%TO.P,J-PWR-2,1,Pin_1*%
%TO.N,HV+*%
X150000000Y-105000000D03*
%TO.P,J-PWR-2,2,Pin_2*%
%TO.N,GND*%
X148730000Y-103730000D03*
X148730000Y-106270000D03*
X151270000Y-103730000D03*
X151270000Y-106270000D03*
%TD*%
D11*
%TO.P,R3,1,+*%
%TO.N,Net-(C3-+)*%
X156540000Y-96030000D03*
%TO.P,R3,2,-*%
%TO.N,GND*%
X156540000Y-89490000D03*
%TD*%
D12*
%TO.P,J-SIG1,1,Pin_1*%
%TO.N,SIG*%
X154000000Y-91000000D03*
D11*
%TO.P,J-SIG1,2,Pin_2*%
%TO.N,F-OUT*%
X154000000Y-93540000D03*
%TO.P,J-SIG1,3,Pin_3*%
%TO.N,GND*%
X154000000Y-96080000D03*
%TD*%
D13*
%TO.P,D1,A1,K-*%
%TO.N,Net-(C1-+)*%
X148739906Y-101260000D03*
%TO.P,D1,A2*%
%TO.N,N/C*%
X148739906Y-100000000D03*
%TO.P,D1,A3*%
X148739906Y-98740000D03*
%TO.P,D1,B1,A+*%
%TO.N,Net-(C2-+)*%
X150000000Y-101260000D03*
%TO.P,D1,B3,A2+*%
%TO.N,Net-(C3-+)*%
X150000000Y-98740000D03*
%TO.P,D1,C1*%
%TO.N,N/C*%
X151260094Y-101260000D03*
%TO.P,D1,C2*%
X151260094Y-100000000D03*
%TO.P,D1,C3,K-*%
%TO.N,Net-(C1-+)*%
X151260094Y-98740000D03*
%TD*%
D11*
%TO.P,C1,1,+*%
%TO.N,Net-(C1-+)*%
X146000000Y-105270000D03*
%TO.P,C1,2,-*%
%TO.N,GND*%
X146000000Y-98730000D03*
%TD*%
%TO.P,R1,1,+*%
%TO.N,HV+*%
X143460000Y-98730000D03*
%TO.P,R1,2,-*%
%TO.N,Net-(C1-+)*%
X143460000Y-105270000D03*
%TD*%
D10*
%TO.P,J-SIG-1,1,Pin_1*%
%TO.N,F-OUT*%
X150000000Y-95000000D03*
%TO.P,J-SIG-1,2,Pin_2*%
%TO.N,GND*%
X148730000Y-93730000D03*
X148730000Y-96270000D03*
X151270000Y-93730000D03*
X151270000Y-96270000D03*
%TD*%
D12*
%TO.P,J-PWR1,1,Pin_1*%
%TO.N,HV+*%
X146000000Y-91000000D03*
D11*
%TO.P,J-PWR1,2,Pin_2*%
%TO.N,unconnected-(J-PWR1-Pin_2-Pad2)*%
X146000000Y-93540000D03*
%TO.P,J-PWR1,3,Pin_3*%
%TO.N,GND*%
X146000000Y-96080000D03*
%TD*%
%TO.P,R2,1,+*%
%TO.N,Net-(C2-+)*%
X154000000Y-105270000D03*
%TO.P,R2,2,-*%
%TO.N,GND*%
X154000000Y-98730000D03*
%TD*%
D10*
%TO.P,J-SIG-2,1,Pin_1*%
%TO.N,SIG*%
X150000000Y-90000000D03*
%TO.P,J-SIG-2,2,Pin_2*%
%TO.N,GND*%
X148730000Y-88730000D03*
X148730000Y-91270000D03*
X151270000Y-88730000D03*
X151270000Y-91270000D03*
%TD*%
D11*
%TO.P,C3,1,+*%
%TO.N,Net-(C3-+)*%
X143460000Y-96030000D03*
%TO.P,C3,2,-*%
%TO.N,F-OUT*%
X143460000Y-89490000D03*
%TD*%
%TO.P,C2,1,+*%
%TO.N,Net-(C2-+)*%
X156540000Y-105270000D03*
%TO.P,C2,2,-*%
%TO.N,SIG*%
X156540000Y-98730000D03*
%TD*%
D14*
%TO.N,GND*%
X148730000Y-96270000D02*
X146190000Y-96270000D01*
X148730000Y-96270000D02*
X151270000Y-96270000D01*
X148730000Y-88730000D02*
X151270000Y-88730000D01*
X146190000Y-96270000D02*
X146000000Y-96080000D01*
X151270000Y-106270000D02*
X151270000Y-103730000D01*
X151270000Y-91270000D02*
X151270000Y-93730000D01*
X151270000Y-96270000D02*
X151270000Y-93730000D01*
X151270000Y-96270000D02*
X153810000Y-96270000D01*
X148730000Y-103730000D02*
X148730000Y-106270000D01*
X151270000Y-106270000D02*
X148730000Y-106270000D01*
X153810000Y-96270000D02*
X154000000Y-96080000D01*
X148730000Y-88730000D02*
X148730000Y-91270000D01*
X148730000Y-96270000D02*
X148730000Y-93730000D01*
X148730000Y-91270000D02*
X148730000Y-93730000D01*
X151270000Y-88730000D02*
X155780000Y-88730000D01*
X155780000Y-88730000D02*
X156540000Y-89490000D01*
%TO.N,Net-(C1-+)*%
X146000000Y-105270000D02*
X146000000Y-103999906D01*
X151259906Y-98740000D02*
X151260094Y-98740000D01*
X148739906Y-101260000D02*
X151259906Y-98740000D01*
X146000000Y-103999906D02*
X148739906Y-101260000D01*
X146000000Y-105270000D02*
X143460000Y-105270000D01*
%TO.N,Net-(C2-+)*%
X156540000Y-105270000D02*
X154000000Y-105270000D01*
X150000000Y-101260000D02*
X150353553Y-101260000D01*
X150353553Y-101260000D02*
X154000000Y-104906447D01*
X154000000Y-104906447D02*
X154000000Y-105270000D01*
%TO.N,SIG*%
X150000000Y-90000000D02*
X153000000Y-90000000D01*
X153000000Y-90000000D02*
X154000000Y-91000000D01*
%TO.N,Net-(C3-+)*%
X155225000Y-97345000D02*
X151395000Y-97345000D01*
X148565000Y-97305000D02*
X150000000Y-98740000D01*
X151395000Y-97345000D02*
X150000000Y-98740000D01*
X143460000Y-96030000D02*
X144735000Y-97305000D01*
X156540000Y-96030000D02*
X155225000Y-97345000D01*
X144735000Y-97305000D02*
X148565000Y-97305000D01*
%TD*%
M02*
