%TF.GenerationSoftware,KiCad,Pcbnew,8.0.9-1.fc41*%
%TF.CreationDate,2025-03-19T11:39:36+02:00*%
%TF.ProjectId,Onsemi-3mm-TH-Con,4f6e7365-6d69-42d3-936d-6d2d54482d43,rev?*%
%TF.SameCoordinates,Original*%
%TF.FileFunction,Copper,L2,Bot*%
%TF.FilePolarity,Positive*%
%FSLAX46Y46*%
G04 Gerber Fmt 4.6, Leading zero omitted, Abs format (unit mm)*
G04 Created by KiCad (PCBNEW 8.0.9-1.fc41) date 2025-03-19 11:39:36*
%MOMM*%
%LPD*%
G01*
G04 APERTURE LIST*
%TA.AperFunction,ComponentPad*%
%ADD10C,1.240000*%
%TD*%
%TA.AperFunction,ComponentPad*%
%ADD11O,1.700000X1.700000*%
%TD*%
%TA.AperFunction,ComponentPad*%
%ADD12R,1.700000X1.700000*%
%TD*%
%TA.AperFunction,Conductor*%
%ADD13C,0.250000*%
%TD*%
G04 APERTURE END LIST*
D10*
%TO.P,J-PWR-2,1,Pin_1*%
%TO.N,HV+*%
X150000000Y-105000000D03*
%TO.P,J-PWR-2,2,Pin_2*%
%TO.N,GND*%
X148730000Y-103730000D03*
X148730000Y-106270000D03*
X151270000Y-103730000D03*
X151270000Y-106270000D03*
%TD*%
D11*
%TO.P,R3,1,+*%
%TO.N,Net-(C3-+)*%
X156540000Y-96030000D03*
%TO.P,R3,2,-*%
%TO.N,GND*%
X156540000Y-89490000D03*
%TD*%
D12*
%TO.P,J-SIG1,1,Pin_1*%
%TO.N,SIG*%
X154000000Y-91000000D03*
D11*
%TO.P,J-SIG1,2,Pin_2*%
%TO.N,F-OUT*%
X154000000Y-93540000D03*
%TO.P,J-SIG1,3,Pin_3*%
%TO.N,GND*%
X154000000Y-96080000D03*
%TD*%
%TO.P,C1,1,+*%
%TO.N,Net-(C1-+)*%
X146000000Y-105270000D03*
%TO.P,C1,2,-*%
%TO.N,GND*%
X146000000Y-98730000D03*
%TD*%
%TO.P,R1,1,+*%
%TO.N,HV+*%
X143460000Y-98730000D03*
%TO.P,R1,2,-*%
%TO.N,Net-(C1-+)*%
X143460000Y-105270000D03*
%TD*%
D10*
%TO.P,J-SIG-1,1,Pin_1*%
%TO.N,F-OUT*%
X150000000Y-95000000D03*
%TO.P,J-SIG-1,2,Pin_2*%
%TO.N,GND*%
X148730000Y-93730000D03*
X148730000Y-96270000D03*
X151270000Y-93730000D03*
X151270000Y-96270000D03*
%TD*%
D12*
%TO.P,J-PWR1,1,Pin_1*%
%TO.N,HV+*%
X146000000Y-91000000D03*
D11*
%TO.P,J-PWR1,2,Pin_2*%
%TO.N,unconnected-(J-PWR1-Pin_2-Pad2)*%
X146000000Y-93540000D03*
%TO.P,J-PWR1,3,Pin_3*%
%TO.N,GND*%
X146000000Y-96080000D03*
%TD*%
%TO.P,R2,1,+*%
%TO.N,Net-(C2-+)*%
X154000000Y-105270000D03*
%TO.P,R2,2,-*%
%TO.N,GND*%
X154000000Y-98730000D03*
%TD*%
D10*
%TO.P,J-SIG-2,1,Pin_1*%
%TO.N,SIG*%
X150000000Y-90000000D03*
%TO.P,J-SIG-2,2,Pin_2*%
%TO.N,GND*%
X148730000Y-88730000D03*
X148730000Y-91270000D03*
X151270000Y-88730000D03*
X151270000Y-91270000D03*
%TD*%
D11*
%TO.P,C3,1,+*%
%TO.N,Net-(C3-+)*%
X143460000Y-96030000D03*
%TO.P,C3,2,-*%
%TO.N,F-OUT*%
X143460000Y-89490000D03*
%TD*%
%TO.P,C2,1,+*%
%TO.N,Net-(C2-+)*%
X156540000Y-105270000D03*
%TO.P,C2,2,-*%
%TO.N,SIG*%
X156540000Y-98730000D03*
%TD*%
D13*
%TO.N,GND*%
X146000000Y-98730000D02*
X146000000Y-101000000D01*
X154000000Y-101000000D02*
X154000000Y-98730000D01*
X146000000Y-101000000D02*
X148730000Y-103730000D01*
X151270000Y-103730000D02*
X154000000Y-101000000D01*
X154000000Y-98730000D02*
X154000000Y-96080000D01*
X146000000Y-98730000D02*
X146000000Y-96080000D01*
%TO.N,SIG*%
X155225000Y-97415000D02*
X155225000Y-92225000D01*
X156540000Y-98730000D02*
X155225000Y-97415000D01*
X155225000Y-92225000D02*
X154000000Y-91000000D01*
%TO.N,HV+*%
X148527919Y-105000000D02*
X150000000Y-105000000D01*
X144685000Y-92315000D02*
X146000000Y-91000000D01*
X144685000Y-97505000D02*
X144685000Y-92315000D01*
X143460000Y-98730000D02*
X143460000Y-99932081D01*
X143460000Y-99932081D02*
X148527919Y-105000000D01*
X143460000Y-98730000D02*
X144685000Y-97505000D01*
%TO.N,F-OUT*%
X147735000Y-90285000D02*
X147735000Y-94142143D01*
X146940000Y-89490000D02*
X147735000Y-90285000D01*
X150000000Y-95000000D02*
X152540000Y-95000000D01*
X152540000Y-95000000D02*
X154000000Y-93540000D01*
X143460000Y-89490000D02*
X146940000Y-89490000D01*
X148592857Y-95000000D02*
X150000000Y-95000000D01*
X147735000Y-94142143D02*
X148592857Y-95000000D01*
%TD*%
M02*
