%TF.GenerationSoftware,KiCad,Pcbnew,9.0.4-1.fc42*%
%TF.CreationDate,2025-09-30T12:13:41+03:00*%
%TF.ProjectId,base,62617365-2e6b-4696-9361-645f70636258,rev?*%
%TF.SameCoordinates,Original*%
%TF.FileFunction,Soldermask,Top*%
%TF.FilePolarity,Negative*%
%FSLAX46Y46*%
G04 Gerber Fmt 4.6, Leading zero omitted, Abs format (unit mm)*
G04 Created by KiCad (PCBNEW 9.0.4-1.fc42) date 2025-09-30 12:13:41*
%MOMM*%
%LPD*%
G01*
G04 APERTURE LIST*
%ADD10R,1.700000X1.700000*%
%ADD11C,1.700000*%
%ADD12O,1.700000X1.700000*%
%ADD13C,2.600000*%
%ADD14C,3.800000*%
G04 APERTURE END LIST*
D10*
%TO.C,TH2-B1*%
X155995000Y-90020000D03*
D11*
X153455000Y-90020000D03*
X150915000Y-90020000D03*
%TD*%
%TO.C,ONS-3-R2-1*%
X123689900Y-97195000D03*
D12*
X113689900Y-97195000D03*
%TD*%
D10*
%TO.C,J-fSIG9*%
X135999900Y-97925000D03*
D11*
X135999900Y-100465000D03*
%TD*%
D10*
%TO.C,J-fSIG8*%
X168092270Y-105604656D03*
D11*
X168092270Y-108144656D03*
%TD*%
D10*
%TO.C,J-fPWR1*%
X138599745Y-81780714D03*
D11*
X138599745Y-84320714D03*
%TD*%
%TO.C,FBK-3-R2-1*%
X126599900Y-83125000D03*
D12*
X126599900Y-73125000D03*
%TD*%
D11*
%TO.C,ONS-3-R1-2*%
X184309900Y-89195000D03*
D12*
X174309900Y-89195000D03*
%TD*%
D10*
%TO.C,3015PS-PWR1*%
X137599900Y-135855000D03*
D11*
X135059900Y-135855000D03*
X132519900Y-135855000D03*
%TD*%
D10*
%TO.C,TH2-A1*%
X156000000Y-107980000D03*
D11*
X153460000Y-107980000D03*
X150920000Y-107980000D03*
%TD*%
%TO.C,ONS-3-C3-2*%
X174309900Y-109195000D03*
D12*
X184309900Y-109195000D03*
%TD*%
D10*
%TO.C,3010PS-SIG1*%
X130599900Y-128855000D03*
D11*
X128059900Y-128855000D03*
X125519900Y-128855000D03*
%TD*%
D10*
%TO.C,J-fPWR6*%
X151399910Y-113475000D03*
D11*
X151399910Y-116015000D03*
%TD*%
D10*
%TO.C,J-fPWR9*%
X127999900Y-97925000D03*
D11*
X127999900Y-100465000D03*
%TD*%
%TO.C,3015PS-C2-2*%
X159399900Y-121055000D03*
D12*
X159399900Y-131055000D03*
%TD*%
D10*
%TO.C,ONS-3-PWR2*%
X189109900Y-90655000D03*
D11*
X189109900Y-93195000D03*
X189109900Y-95735000D03*
%TD*%
%TO.C,FBK-3-R1-1*%
X122599900Y-73125000D03*
D12*
X122599900Y-83125000D03*
%TD*%
D10*
%TO.C,J-fPWR8*%
X160067270Y-105604656D03*
D11*
X160067270Y-108144656D03*
%TD*%
D10*
%TO.C,J-fPWR5*%
X138599900Y-113474996D03*
D11*
X138599900Y-116014996D03*
%TD*%
%TO.C,ONS-3-R2-2*%
X174309900Y-97195000D03*
D12*
X184309900Y-97195000D03*
%TD*%
D11*
%TO.C,FBK-4-R1-2*%
X151399900Y-66125000D03*
D12*
X151399900Y-76125000D03*
%TD*%
D11*
%TO.C,3015PS-C1-2*%
X155399900Y-121055000D03*
D12*
X155399900Y-131055000D03*
%TD*%
D10*
%TO.C,ONS-3-SIG1*%
X108889900Y-107735000D03*
D11*
X108889900Y-105195000D03*
X108889900Y-102655000D03*
%TD*%
%TO.C,FBK-3-C1-2*%
X171399900Y-83125000D03*
D12*
X171399900Y-73125000D03*
%TD*%
D10*
%TO.C,J-fSIG6*%
X159399910Y-113475000D03*
D11*
X159399910Y-116015000D03*
%TD*%
%TO.C,ONS-3-C2-1*%
X123689900Y-101195000D03*
D12*
X113689900Y-101195000D03*
%TD*%
D10*
%TO.C,FBK-3-SIG1*%
X130599900Y-68325000D03*
D11*
X128059900Y-68325000D03*
X125519900Y-68325000D03*
%TD*%
%TO.C,ONS-3-C3-1*%
X123689900Y-109195000D03*
D12*
X113689900Y-109195000D03*
%TD*%
D10*
%TO.C,3010PS-PWR1*%
X121599900Y-128855000D03*
D11*
X119059900Y-128855000D03*
X116519900Y-128855000D03*
%TD*%
D10*
%TO.C,TH1-A1*%
X142005000Y-107980000D03*
D11*
X144545000Y-107980000D03*
X147085000Y-107980000D03*
%TD*%
D10*
%TO.C,3010PS-SIG2*%
X176399900Y-128855000D03*
D11*
X178939900Y-128855000D03*
X181479900Y-128855000D03*
%TD*%
%TO.C,3015PS-R2-2*%
X163399900Y-121055000D03*
D12*
X163399900Y-131055000D03*
%TD*%
D10*
%TO.C,FBK-3-PWR1*%
X121599900Y-68325000D03*
D11*
X119059900Y-68325000D03*
X116519900Y-68325000D03*
%TD*%
%TO.C,FBK-4-R1-1*%
X138599900Y-66125000D03*
D12*
X138599900Y-76125000D03*
%TD*%
D10*
%TO.C,J-fSIG2*%
X159399900Y-81781000D03*
D11*
X159399900Y-84321000D03*
%TD*%
D10*
%TO.C,J-fSIG7*%
X137934900Y-105604646D03*
D11*
X137934900Y-108144646D03*
%TD*%
D10*
%TO.C,ONS-3-PWR1*%
X108889900Y-90655000D03*
D11*
X108889900Y-93195000D03*
X108889900Y-95735000D03*
%TD*%
%TO.C,ONS-3-R1-1*%
X113689900Y-89195000D03*
D12*
X123689900Y-89195000D03*
%TD*%
D11*
%TO.C,ONS-3-C1-1*%
X123689900Y-93195000D03*
D12*
X113689900Y-93195000D03*
%TD*%
D11*
%TO.C,FBK-4-C2-2*%
X159399900Y-76125000D03*
D12*
X159399900Y-66125000D03*
%TD*%
D10*
%TO.C,ONS-3-SIG2*%
X189109900Y-107735000D03*
D11*
X189109900Y-105195000D03*
X189109900Y-102655000D03*
%TD*%
D10*
%TO.C,J-fSIG1*%
X146599745Y-81780714D03*
D11*
X146599745Y-84320714D03*
%TD*%
%TO.C,ONS-3-C1-2*%
X174309900Y-93195000D03*
D12*
X184309900Y-93195000D03*
%TD*%
D10*
%TO.C,FBK-4-PWR2*%
X151399900Y-61325000D03*
D11*
X153939900Y-61325000D03*
X156479900Y-61325000D03*
%TD*%
D13*
%TO.C,H2*%
X188999900Y-59000000D03*
D14*
X188999900Y-59000000D03*
%TD*%
D11*
%TO.C,3015PS-C1-1*%
X134599900Y-121055000D03*
D12*
X134599900Y-131055000D03*
%TD*%
D11*
%TO.C,FBK-3-R1-2*%
X167399900Y-73125000D03*
D12*
X167399900Y-83125000D03*
%TD*%
D10*
%TO.C,FBK-4-SIG2*%
X160399900Y-61325000D03*
D11*
X162939900Y-61325000D03*
X165479900Y-61325000D03*
%TD*%
%TO.C,3010PS-C1-1*%
X118599900Y-114055000D03*
D12*
X118599900Y-124055000D03*
%TD*%
D11*
%TO.C,FBK-3-C2-2*%
X175399900Y-83125000D03*
D12*
X175399900Y-73125000D03*
%TD*%
D10*
%TO.C,J-fPWR10*%
X161999900Y-97925000D03*
D11*
X161999900Y-100465000D03*
%TD*%
D10*
%TO.C,FBK-4-SIG1*%
X146599900Y-61325000D03*
D11*
X144059900Y-61325000D03*
X141519900Y-61325000D03*
%TD*%
D10*
%TO.C,3015PS-SIG1*%
X146599900Y-135855000D03*
D11*
X144059900Y-135855000D03*
X141519900Y-135855000D03*
%TD*%
%TO.C,FBK-4-C1-1*%
X134599900Y-76125000D03*
D12*
X134599900Y-66125000D03*
%TD*%
D11*
%TO.C,ONS-3-R3-2*%
X174309900Y-105195000D03*
D12*
X184309900Y-105195000D03*
%TD*%
D11*
%TO.C,3015PS-R1-2*%
X151399900Y-131055000D03*
D12*
X151399900Y-121055000D03*
%TD*%
D11*
%TO.C,FBK-3-R2-2*%
X179399900Y-83125000D03*
D12*
X179399900Y-73125000D03*
%TD*%
D13*
%TO.C,H3*%
X108999900Y-139000000D03*
D14*
X108999900Y-139000000D03*
%TD*%
D11*
%TO.C,FBK-3-C1-1*%
X118599900Y-83125000D03*
D12*
X118599900Y-73125000D03*
%TD*%
D11*
%TO.C,3015PS-R2-1*%
X142599900Y-121055000D03*
D12*
X142599900Y-131055000D03*
%TD*%
D11*
%TO.C,ONS-3-C2-2*%
X174309900Y-101195000D03*
D12*
X184309900Y-101195000D03*
%TD*%
D11*
%TO.C,TH2*%
X156000000Y-94000000D03*
D12*
X156000000Y-104000000D03*
%TD*%
D13*
%TO.C,H4*%
X188999900Y-139000000D03*
D14*
X188999900Y-139000000D03*
%TD*%
D10*
%TO.C,J-fPWR2*%
X151399900Y-81781000D03*
D11*
X151399900Y-84321000D03*
%TD*%
%TO.C,3010PS-C2-1*%
X130599900Y-114055000D03*
D12*
X130599900Y-124055000D03*
%TD*%
D11*
%TO.C,FBK-4-R2-2*%
X163399900Y-76125000D03*
D12*
X163399900Y-66125000D03*
%TD*%
D11*
%TO.C,FBK-4-R2-1*%
X142599900Y-76125000D03*
D12*
X142599900Y-66125000D03*
%TD*%
D11*
%TO.C,TH1*%
X142000000Y-94000000D03*
D12*
X142000000Y-104000000D03*
%TD*%
D10*
%TO.C,J-fPWR4*%
X160067275Y-89855370D03*
D11*
X160067275Y-92395370D03*
%TD*%
D10*
%TO.C,FBK-3-PWR2*%
X167399900Y-68325000D03*
D11*
X169939900Y-68325000D03*
X172479900Y-68325000D03*
%TD*%
%TO.C,FBK-4-C2-1*%
X146599900Y-76125000D03*
D12*
X146599900Y-66125000D03*
%TD*%
D10*
%TO.C,FBK-4-PWR1*%
X137599900Y-61325000D03*
D11*
X135059900Y-61325000D03*
X132519900Y-61325000D03*
%TD*%
%TO.C,FBK-4-C1-2*%
X155399900Y-76125000D03*
D12*
X155399900Y-66125000D03*
%TD*%
D11*
%TO.C,3010PS-R1-2*%
X167399900Y-124055000D03*
D12*
X167399900Y-114055000D03*
%TD*%
D11*
%TO.C,3010PS-R2-1*%
X126599900Y-114055000D03*
D12*
X126599900Y-124055000D03*
%TD*%
D11*
%TO.C,ONS-3-R3-1*%
X123689900Y-105195000D03*
D12*
X113689900Y-105195000D03*
%TD*%
D10*
%TO.C,J-fSIG3*%
X137933713Y-89855367D03*
D11*
X137933713Y-92395367D03*
%TD*%
D10*
%TO.C,J-fPWR7*%
X129934900Y-105604646D03*
D11*
X129934900Y-108144646D03*
%TD*%
%TO.C,3015PS-C2-1*%
X146599900Y-121055000D03*
D12*
X146599900Y-131055000D03*
%TD*%
D10*
%TO.C,TH1-B1*%
X142005000Y-90020000D03*
D11*
X144545000Y-90020000D03*
X147085000Y-90020000D03*
%TD*%
%TO.C,FBK-3-C2-1*%
X130599900Y-83125000D03*
D12*
X130599900Y-73125000D03*
%TD*%
D10*
%TO.C,J-fPWR3*%
X129933713Y-89855367D03*
D11*
X129933713Y-92395367D03*
%TD*%
D10*
%TO.C,3010PS-PWR2*%
X167399900Y-128855000D03*
D11*
X169939900Y-128855000D03*
X172479900Y-128855000D03*
%TD*%
%TO.C,3010PS-R1-1*%
X122599900Y-124055000D03*
D12*
X122599900Y-114055000D03*
%TD*%
D11*
%TO.C,3010PS-R2-2*%
X179399900Y-114055000D03*
D12*
X179399900Y-124055000D03*
%TD*%
D11*
%TO.C,3015PS-R1-1*%
X138599900Y-131055000D03*
D12*
X138599900Y-121055000D03*
%TD*%
D10*
%TO.C,J-fSIG10*%
X169999900Y-97925000D03*
D11*
X169999900Y-100465000D03*
%TD*%
D13*
%TO.C,H1*%
X108999900Y-59000000D03*
D14*
X108999900Y-59000000D03*
%TD*%
D10*
%TO.C,J-fSIG5*%
X146599903Y-113514995D03*
D11*
X146599903Y-116054995D03*
%TD*%
D10*
%TO.C,J-fSIG4*%
X168067275Y-89855370D03*
D11*
X168067275Y-92395370D03*
%TD*%
%TO.C,3010PS-C2-2*%
X175399900Y-114055000D03*
D12*
X175399900Y-124055000D03*
%TD*%
D10*
%TO.C,FBK-3-SIG2*%
X176399900Y-68325000D03*
D11*
X178939900Y-68325000D03*
X181479900Y-68325000D03*
%TD*%
D10*
%TO.C,3015PS-PWR2*%
X151399900Y-135855000D03*
D11*
X153939900Y-135855000D03*
X156479900Y-135855000D03*
%TD*%
%TO.C,3010PS-C1-2*%
X171399900Y-114055000D03*
D12*
X171399900Y-124055000D03*
%TD*%
D10*
%TO.C,3015PS-SIG2*%
X160399900Y-135855000D03*
D11*
X162939900Y-135855000D03*
X165479900Y-135855000D03*
%TD*%
M02*
