%TF.GenerationSoftware,KiCad,Pcbnew,9.0.4-1.fc42*%
%TF.CreationDate,2025-09-30T12:13:41+03:00*%
%TF.ProjectId,base,62617365-2e6b-4696-9361-645f70636258,rev?*%
%TF.SameCoordinates,Original*%
%TF.FileFunction,Copper,L2,Bot*%
%TF.FilePolarity,Positive*%
%FSLAX46Y46*%
G04 Gerber Fmt 4.6, Leading zero omitted, Abs format (unit mm)*
G04 Created by KiCad (PCBNEW 9.0.4-1.fc42) date 2025-09-30 12:13:41*
%MOMM*%
%LPD*%
G01*
G04 APERTURE LIST*
%TA.AperFunction,ComponentPad*%
%ADD10R,1.700000X1.700000*%
%TD*%
%TA.AperFunction,ComponentPad*%
%ADD11C,1.700000*%
%TD*%
%TA.AperFunction,ComponentPad*%
%ADD12O,1.700000X1.700000*%
%TD*%
%TA.AperFunction,ComponentPad*%
%ADD13C,2.600000*%
%TD*%
%TA.AperFunction,ConnectorPad*%
%ADD14C,3.800000*%
%TD*%
G04 APERTURE END LIST*
D10*
%TO.P,TH2-B1,1,Pin_1*%
%TO.N,TH2-B*%
X155995000Y-90020000D03*
D11*
%TO.P,TH2-B1,2,Pin_2*%
X153455000Y-90020000D03*
%TO.P,TH2-B1,3,Pin_3*%
X150915000Y-90020000D03*
%TD*%
%TO.P,ONS-3-R2-1,1,+*%
%TO.N,fF-OUT9*%
X123689900Y-97195000D03*
D12*
%TO.P,ONS-3-R2-1,2,-*%
%TO.N,GND*%
X113689900Y-97195000D03*
%TD*%
D10*
%TO.P,J-fSIG9,1,Pin_1*%
%TO.N,fF-OUT9*%
X135999900Y-97925000D03*
D11*
%TO.P,J-fSIG9,2,Pin_2*%
%TO.N,fSIG9*%
X135999900Y-100465000D03*
%TD*%
D10*
%TO.P,J-fSIG8,1,Pin_1*%
%TO.N,fSIG8*%
X168092270Y-105604656D03*
D11*
%TO.P,J-fSIG8,2,Pin_2*%
X168092270Y-108144656D03*
%TD*%
D10*
%TO.P,J-fPWR1,1,Pin_1*%
%TO.N,fHV+1*%
X138599745Y-81780714D03*
D11*
%TO.P,J-fPWR1,2,Pin_2*%
X138599745Y-84320714D03*
%TD*%
%TO.P,FBK-3-R2-1,1,+*%
%TO.N,fSIG3*%
X126599900Y-83125000D03*
D12*
%TO.P,FBK-3-R2-1,2,-*%
%TO.N,GND*%
X126599900Y-73125000D03*
%TD*%
D11*
%TO.P,ONS-3-R1-2,1,+*%
%TO.N,HV+10*%
X184309900Y-89195000D03*
D12*
%TO.P,ONS-3-R1-2,2,-*%
%TO.N,fHV+10*%
X174309900Y-89195000D03*
%TD*%
D10*
%TO.P,3015PS-PWR1,1,Pin_1*%
%TO.N,HV+5*%
X137599900Y-135855000D03*
D11*
%TO.P,3015PS-PWR1,2,Pin_2*%
%TO.N,GND*%
X135059900Y-135855000D03*
%TO.P,3015PS-PWR1,3,Pin_3*%
X132519900Y-135855000D03*
%TD*%
D10*
%TO.P,TH2-A1,1,Pin_1*%
%TO.N,TH2-A*%
X156000000Y-107980000D03*
D11*
%TO.P,TH2-A1,2,Pin_2*%
X153460000Y-107980000D03*
%TO.P,TH2-A1,3,Pin_3*%
X150920000Y-107980000D03*
%TD*%
%TO.P,ONS-3-C3-2,1,+*%
%TO.N,fSIG10*%
X174309900Y-109195000D03*
D12*
%TO.P,ONS-3-C3-2,2,-*%
%TO.N,SIG10*%
X184309900Y-109195000D03*
%TD*%
D10*
%TO.P,3010PS-SIG1,1,Pin_1*%
%TO.N,SIG7*%
X130599900Y-128855000D03*
D11*
%TO.P,3010PS-SIG1,2,Pin_2*%
%TO.N,GND*%
X128059900Y-128855000D03*
%TO.P,3010PS-SIG1,3,Pin_3*%
X125519900Y-128855000D03*
%TD*%
D10*
%TO.P,J-fPWR6,1,Pin_1*%
%TO.N,fHV+6*%
X151399910Y-113475000D03*
D11*
%TO.P,J-fPWR6,2,Pin_2*%
X151399910Y-116015000D03*
%TD*%
D10*
%TO.P,J-fPWR9,1,Pin_1*%
%TO.N,fHV+9*%
X127999900Y-97925000D03*
D11*
%TO.P,J-fPWR9,2,Pin_2*%
X127999900Y-100465000D03*
%TD*%
%TO.P,3015PS-C2-2,1,+*%
%TO.N,fSIG6*%
X159399900Y-121055000D03*
D12*
%TO.P,3015PS-C2-2,2,-*%
%TO.N,SIG6*%
X159399900Y-131055000D03*
%TD*%
D10*
%TO.P,ONS-3-PWR2,1,Pin_1*%
%TO.N,HV+10*%
X189109900Y-90655000D03*
D11*
%TO.P,ONS-3-PWR2,2,Pin_2*%
%TO.N,GND*%
X189109900Y-93195000D03*
%TO.P,ONS-3-PWR2,3,Pin_3*%
X189109900Y-95735000D03*
%TD*%
%TO.P,FBK-3-R1-1,1*%
%TO.N,HV+3*%
X122599900Y-73125000D03*
D12*
%TO.P,FBK-3-R1-1,2*%
%TO.N,fHV+3*%
X122599900Y-83125000D03*
%TD*%
D10*
%TO.P,J-fPWR8,1,Pin_1*%
%TO.N,fHV+8*%
X160067270Y-105604656D03*
D11*
%TO.P,J-fPWR8,2,Pin_2*%
X160067270Y-108144656D03*
%TD*%
D10*
%TO.P,J-fPWR5,1,Pin_1*%
%TO.N,fHV+5*%
X138599900Y-113474996D03*
D11*
%TO.P,J-fPWR5,2,Pin_2*%
X138599900Y-116014996D03*
%TD*%
%TO.P,ONS-3-R2-2,1,+*%
%TO.N,fF-OUT10*%
X174309900Y-97195000D03*
D12*
%TO.P,ONS-3-R2-2,2,-*%
%TO.N,GND*%
X184309900Y-97195000D03*
%TD*%
D11*
%TO.P,FBK-4-R1-2,1*%
%TO.N,HV+2*%
X151399900Y-66125000D03*
D12*
%TO.P,FBK-4-R1-2,2*%
%TO.N,fHV+2*%
X151399900Y-76125000D03*
%TD*%
D11*
%TO.P,3015PS-C1-2,1,+*%
%TO.N,fHV+6*%
X155399900Y-121055000D03*
D12*
%TO.P,3015PS-C1-2,2,-*%
%TO.N,GND*%
X155399900Y-131055000D03*
%TD*%
D10*
%TO.P,ONS-3-SIG1,1,Pin_1*%
%TO.N,SIG9*%
X108889900Y-107735000D03*
D11*
%TO.P,ONS-3-SIG1,2,Pin_2*%
%TO.N,GND*%
X108889900Y-105195000D03*
%TO.P,ONS-3-SIG1,3,Pin_3*%
%TO.N,F-OUT9*%
X108889900Y-102655000D03*
%TD*%
%TO.P,FBK-3-C1-2,1,+*%
%TO.N,fHV+4*%
X171399900Y-83125000D03*
D12*
%TO.P,FBK-3-C1-2,2,-*%
%TO.N,GND*%
X171399900Y-73125000D03*
%TD*%
D10*
%TO.P,J-fSIG6,1,Pin_1*%
%TO.N,fSIG6*%
X159399910Y-113475000D03*
D11*
%TO.P,J-fSIG6,2,Pin_2*%
X159399910Y-116015000D03*
%TD*%
%TO.P,ONS-3-C2-1,1,+*%
%TO.N,fF-OUT9*%
X123689900Y-101195000D03*
D12*
%TO.P,ONS-3-C2-1,2,-*%
%TO.N,F-OUT9*%
X113689900Y-101195000D03*
%TD*%
D10*
%TO.P,FBK-3-SIG1,1,Pin_1*%
%TO.N,SIG3*%
X130599900Y-68325000D03*
D11*
%TO.P,FBK-3-SIG1,2,Pin_2*%
%TO.N,GND*%
X128059900Y-68325000D03*
%TO.P,FBK-3-SIG1,3,Pin_3*%
X125519900Y-68325000D03*
%TD*%
%TO.P,ONS-3-C3-1,1,+*%
%TO.N,fSIG9*%
X123689900Y-109195000D03*
D12*
%TO.P,ONS-3-C3-1,2,-*%
%TO.N,SIG9*%
X113689900Y-109195000D03*
%TD*%
D10*
%TO.P,3010PS-PWR1,1,Pin_1*%
%TO.N,HV+7*%
X121599900Y-128855000D03*
D11*
%TO.P,3010PS-PWR1,2,Pin_2*%
%TO.N,GND*%
X119059900Y-128855000D03*
%TO.P,3010PS-PWR1,3,Pin_3*%
X116519900Y-128855000D03*
%TD*%
D10*
%TO.P,TH1-A1,1,Pin_1*%
%TO.N,TH1-A*%
X142005000Y-107980000D03*
D11*
%TO.P,TH1-A1,2,Pin_2*%
X144545000Y-107980000D03*
%TO.P,TH1-A1,3,Pin_3*%
X147085000Y-107980000D03*
%TD*%
D10*
%TO.P,3010PS-SIG2,1,Pin_1*%
%TO.N,SIG8*%
X176399900Y-128855000D03*
D11*
%TO.P,3010PS-SIG2,2,Pin_2*%
%TO.N,GND*%
X178939900Y-128855000D03*
%TO.P,3010PS-SIG2,3,Pin_3*%
X181479900Y-128855000D03*
%TD*%
%TO.P,3015PS-R2-2,1,+*%
%TO.N,fSIG6*%
X163399900Y-121055000D03*
D12*
%TO.P,3015PS-R2-2,2,-*%
%TO.N,GND*%
X163399900Y-131055000D03*
%TD*%
D10*
%TO.P,FBK-3-PWR1,1,Pin_1*%
%TO.N,HV+3*%
X121599900Y-68325000D03*
D11*
%TO.P,FBK-3-PWR1,2,Pin_2*%
%TO.N,GND*%
X119059900Y-68325000D03*
%TO.P,FBK-3-PWR1,3,Pin_3*%
X116519900Y-68325000D03*
%TD*%
%TO.P,FBK-4-R1-1,1*%
%TO.N,HV+1*%
X138599900Y-66125000D03*
D12*
%TO.P,FBK-4-R1-1,2*%
%TO.N,fHV+1*%
X138599900Y-76125000D03*
%TD*%
D10*
%TO.P,J-fSIG2,1,Pin_1*%
%TO.N,fSIG2*%
X159399900Y-81781000D03*
D11*
%TO.P,J-fSIG2,2,Pin_2*%
X159399900Y-84321000D03*
%TD*%
D10*
%TO.P,J-fSIG7,1,Pin_1*%
%TO.N,fSIG7*%
X137934900Y-105604646D03*
D11*
%TO.P,J-fSIG7,2,Pin_2*%
X137934900Y-108144646D03*
%TD*%
D10*
%TO.P,ONS-3-PWR1,1,Pin_1*%
%TO.N,HV+9*%
X108889900Y-90655000D03*
D11*
%TO.P,ONS-3-PWR1,2,Pin_2*%
%TO.N,GND*%
X108889900Y-93195000D03*
%TO.P,ONS-3-PWR1,3,Pin_3*%
X108889900Y-95735000D03*
%TD*%
%TO.P,ONS-3-R1-1,1,+*%
%TO.N,HV+9*%
X113689900Y-89195000D03*
D12*
%TO.P,ONS-3-R1-1,2,-*%
%TO.N,fHV+9*%
X123689900Y-89195000D03*
%TD*%
D11*
%TO.P,ONS-3-C1-1,1,+*%
%TO.N,fHV+9*%
X123689900Y-93195000D03*
D12*
%TO.P,ONS-3-C1-1,2,-*%
%TO.N,GND*%
X113689900Y-93195000D03*
%TD*%
D11*
%TO.P,FBK-4-C2-2,1,+*%
%TO.N,fSIG2*%
X159399900Y-76125000D03*
D12*
%TO.P,FBK-4-C2-2,2,-*%
%TO.N,SIG2*%
X159399900Y-66125000D03*
%TD*%
D10*
%TO.P,ONS-3-SIG2,1,Pin_1*%
%TO.N,SIG10*%
X189109900Y-107735000D03*
D11*
%TO.P,ONS-3-SIG2,2,Pin_2*%
%TO.N,GND*%
X189109900Y-105195000D03*
%TO.P,ONS-3-SIG2,3,Pin_3*%
%TO.N,F-OUT10*%
X189109900Y-102655000D03*
%TD*%
D10*
%TO.P,J-fSIG1,1,Pin_1*%
%TO.N,fSIG1*%
X146599745Y-81780714D03*
D11*
%TO.P,J-fSIG1,2,Pin_2*%
X146599745Y-84320714D03*
%TD*%
%TO.P,ONS-3-C1-2,1,+*%
%TO.N,fHV+10*%
X174309900Y-93195000D03*
D12*
%TO.P,ONS-3-C1-2,2,-*%
%TO.N,GND*%
X184309900Y-93195000D03*
%TD*%
D10*
%TO.P,FBK-4-PWR2,1,Pin_1*%
%TO.N,HV+2*%
X151399900Y-61325000D03*
D11*
%TO.P,FBK-4-PWR2,2,Pin_2*%
%TO.N,GND*%
X153939900Y-61325000D03*
%TO.P,FBK-4-PWR2,3,Pin_3*%
X156479900Y-61325000D03*
%TD*%
D13*
%TO.P,H2,1,1*%
%TO.N,GND*%
X188999900Y-59000000D03*
D14*
X188999900Y-59000000D03*
%TD*%
D11*
%TO.P,3015PS-C1-1,1,+*%
%TO.N,fHV+5*%
X134599900Y-121055000D03*
D12*
%TO.P,3015PS-C1-1,2,-*%
%TO.N,GND*%
X134599900Y-131055000D03*
%TD*%
D11*
%TO.P,FBK-3-R1-2,1*%
%TO.N,HV+4*%
X167399900Y-73125000D03*
D12*
%TO.P,FBK-3-R1-2,2*%
%TO.N,fHV+4*%
X167399900Y-83125000D03*
%TD*%
D10*
%TO.P,FBK-4-SIG2,1,Pin_1*%
%TO.N,SIG2*%
X160399900Y-61325000D03*
D11*
%TO.P,FBK-4-SIG2,2,Pin_2*%
%TO.N,GND*%
X162939900Y-61325000D03*
%TO.P,FBK-4-SIG2,3,Pin_3*%
X165479900Y-61325000D03*
%TD*%
%TO.P,3010PS-C1-1,1,+*%
%TO.N,fHV+7*%
X118599900Y-114055000D03*
D12*
%TO.P,3010PS-C1-1,2,-*%
%TO.N,GND*%
X118599900Y-124055000D03*
%TD*%
D11*
%TO.P,FBK-3-C2-2,1,+*%
%TO.N,fSIG4*%
X175399900Y-83125000D03*
D12*
%TO.P,FBK-3-C2-2,2,-*%
%TO.N,SIG4*%
X175399900Y-73125000D03*
%TD*%
D10*
%TO.P,J-fPWR10,1,Pin_1*%
%TO.N,fHV+10*%
X161999900Y-97925000D03*
D11*
%TO.P,J-fPWR10,2,Pin_2*%
X161999900Y-100465000D03*
%TD*%
D10*
%TO.P,FBK-4-SIG1,1,Pin_1*%
%TO.N,SIG1*%
X146599900Y-61325000D03*
D11*
%TO.P,FBK-4-SIG1,2,Pin_2*%
%TO.N,GND*%
X144059900Y-61325000D03*
%TO.P,FBK-4-SIG1,3,Pin_3*%
X141519900Y-61325000D03*
%TD*%
D10*
%TO.P,3015PS-SIG1,1,Pin_1*%
%TO.N,SIG5*%
X146599900Y-135855000D03*
D11*
%TO.P,3015PS-SIG1,2,Pin_2*%
%TO.N,GND*%
X144059900Y-135855000D03*
%TO.P,3015PS-SIG1,3,Pin_3*%
X141519900Y-135855000D03*
%TD*%
%TO.P,FBK-4-C1-1,1,+*%
%TO.N,fHV+1*%
X134599900Y-76125000D03*
D12*
%TO.P,FBK-4-C1-1,2,-*%
%TO.N,GND*%
X134599900Y-66125000D03*
%TD*%
D11*
%TO.P,ONS-3-R3-2,1,+*%
%TO.N,fSIG10*%
X174309900Y-105195000D03*
D12*
%TO.P,ONS-3-R3-2,2,-*%
%TO.N,GND*%
X184309900Y-105195000D03*
%TD*%
D11*
%TO.P,3015PS-R1-2,1*%
%TO.N,HV+6*%
X151399900Y-131055000D03*
D12*
%TO.P,3015PS-R1-2,2*%
%TO.N,fHV+6*%
X151399900Y-121055000D03*
%TD*%
D11*
%TO.P,FBK-3-R2-2,1,+*%
%TO.N,fSIG4*%
X179399900Y-83125000D03*
D12*
%TO.P,FBK-3-R2-2,2,-*%
%TO.N,GND*%
X179399900Y-73125000D03*
%TD*%
D13*
%TO.P,H3,1,1*%
%TO.N,GND*%
X108999900Y-139000000D03*
D14*
X108999900Y-139000000D03*
%TD*%
D11*
%TO.P,FBK-3-C1-1,1,+*%
%TO.N,fHV+3*%
X118599900Y-83125000D03*
D12*
%TO.P,FBK-3-C1-1,2,-*%
%TO.N,GND*%
X118599900Y-73125000D03*
%TD*%
D11*
%TO.P,3015PS-R2-1,1,+*%
%TO.N,fSIG5*%
X142599900Y-121055000D03*
D12*
%TO.P,3015PS-R2-1,2,-*%
%TO.N,GND*%
X142599900Y-131055000D03*
%TD*%
D11*
%TO.P,ONS-3-C2-2,1,+*%
%TO.N,fF-OUT10*%
X174309900Y-101195000D03*
D12*
%TO.P,ONS-3-C2-2,2,-*%
%TO.N,F-OUT10*%
X184309900Y-101195000D03*
%TD*%
D11*
%TO.P,TH2,1*%
%TO.N,TH2-B*%
X156000000Y-94000000D03*
D12*
%TO.P,TH2,2*%
%TO.N,TH2-A*%
X156000000Y-104000000D03*
%TD*%
D13*
%TO.P,H4,1,1*%
%TO.N,GND*%
X188999900Y-139000000D03*
D14*
X188999900Y-139000000D03*
%TD*%
D10*
%TO.P,J-fPWR2,1,Pin_1*%
%TO.N,fHV+2*%
X151399900Y-81781000D03*
D11*
%TO.P,J-fPWR2,2,Pin_2*%
X151399900Y-84321000D03*
%TD*%
%TO.P,3010PS-C2-1,1,+*%
%TO.N,fSIG7*%
X130599900Y-114055000D03*
D12*
%TO.P,3010PS-C2-1,2,-*%
%TO.N,SIG7*%
X130599900Y-124055000D03*
%TD*%
D11*
%TO.P,FBK-4-R2-2,1,+*%
%TO.N,fSIG2*%
X163399900Y-76125000D03*
D12*
%TO.P,FBK-4-R2-2,2,-*%
%TO.N,GND*%
X163399900Y-66125000D03*
%TD*%
D11*
%TO.P,FBK-4-R2-1,1,+*%
%TO.N,fSIG1*%
X142599900Y-76125000D03*
D12*
%TO.P,FBK-4-R2-1,2,-*%
%TO.N,GND*%
X142599900Y-66125000D03*
%TD*%
D11*
%TO.P,TH1,1*%
%TO.N,TH1-B*%
X142000000Y-94000000D03*
D12*
%TO.P,TH1,2*%
%TO.N,TH1-A*%
X142000000Y-104000000D03*
%TD*%
D10*
%TO.P,J-fPWR4,1,Pin_1*%
%TO.N,fHV+4*%
X160067275Y-89855370D03*
D11*
%TO.P,J-fPWR4,2,Pin_2*%
X160067275Y-92395370D03*
%TD*%
D10*
%TO.P,FBK-3-PWR2,1,Pin_1*%
%TO.N,HV+4*%
X167399900Y-68325000D03*
D11*
%TO.P,FBK-3-PWR2,2,Pin_2*%
%TO.N,GND*%
X169939900Y-68325000D03*
%TO.P,FBK-3-PWR2,3,Pin_3*%
X172479900Y-68325000D03*
%TD*%
%TO.P,FBK-4-C2-1,1,+*%
%TO.N,fSIG1*%
X146599900Y-76125000D03*
D12*
%TO.P,FBK-4-C2-1,2,-*%
%TO.N,SIG1*%
X146599900Y-66125000D03*
%TD*%
D10*
%TO.P,FBK-4-PWR1,1,Pin_1*%
%TO.N,HV+1*%
X137599900Y-61325000D03*
D11*
%TO.P,FBK-4-PWR1,2,Pin_2*%
%TO.N,GND*%
X135059900Y-61325000D03*
%TO.P,FBK-4-PWR1,3,Pin_3*%
X132519900Y-61325000D03*
%TD*%
%TO.P,FBK-4-C1-2,1,+*%
%TO.N,fHV+2*%
X155399900Y-76125000D03*
D12*
%TO.P,FBK-4-C1-2,2,-*%
%TO.N,GND*%
X155399900Y-66125000D03*
%TD*%
D11*
%TO.P,3010PS-R1-2,1*%
%TO.N,HV+8*%
X167399900Y-124055000D03*
D12*
%TO.P,3010PS-R1-2,2*%
%TO.N,fHV+8*%
X167399900Y-114055000D03*
%TD*%
D11*
%TO.P,3010PS-R2-1,1,+*%
%TO.N,fSIG7*%
X126599900Y-114055000D03*
D12*
%TO.P,3010PS-R2-1,2,-*%
%TO.N,GND*%
X126599900Y-124055000D03*
%TD*%
D11*
%TO.P,ONS-3-R3-1,1,+*%
%TO.N,fSIG9*%
X123689900Y-105195000D03*
D12*
%TO.P,ONS-3-R3-1,2,-*%
%TO.N,GND*%
X113689900Y-105195000D03*
%TD*%
D10*
%TO.P,J-fSIG3,1,Pin_1*%
%TO.N,fSIG3*%
X137933713Y-89855367D03*
D11*
%TO.P,J-fSIG3,2,Pin_2*%
X137933713Y-92395367D03*
%TD*%
D10*
%TO.P,J-fPWR7,1,Pin_1*%
%TO.N,fHV+7*%
X129934900Y-105604646D03*
D11*
%TO.P,J-fPWR7,2,Pin_2*%
X129934900Y-108144646D03*
%TD*%
%TO.P,3015PS-C2-1,1,+*%
%TO.N,fSIG5*%
X146599900Y-121055000D03*
D12*
%TO.P,3015PS-C2-1,2,-*%
%TO.N,SIG5*%
X146599900Y-131055000D03*
%TD*%
D10*
%TO.P,TH1-B1,1,Pin_1*%
%TO.N,TH1-B*%
X142005000Y-90020000D03*
D11*
%TO.P,TH1-B1,2,Pin_2*%
X144545000Y-90020000D03*
%TO.P,TH1-B1,3,Pin_3*%
X147085000Y-90020000D03*
%TD*%
%TO.P,FBK-3-C2-1,1,+*%
%TO.N,fSIG3*%
X130599900Y-83125000D03*
D12*
%TO.P,FBK-3-C2-1,2,-*%
%TO.N,SIG3*%
X130599900Y-73125000D03*
%TD*%
D10*
%TO.P,J-fPWR3,1,Pin_1*%
%TO.N,fHV+3*%
X129933713Y-89855367D03*
D11*
%TO.P,J-fPWR3,2,Pin_2*%
X129933713Y-92395367D03*
%TD*%
D10*
%TO.P,3010PS-PWR2,1,Pin_1*%
%TO.N,HV+8*%
X167399900Y-128855000D03*
D11*
%TO.P,3010PS-PWR2,2,Pin_2*%
%TO.N,GND*%
X169939900Y-128855000D03*
%TO.P,3010PS-PWR2,3,Pin_3*%
X172479900Y-128855000D03*
%TD*%
%TO.P,3010PS-R1-1,1*%
%TO.N,HV+7*%
X122599900Y-124055000D03*
D12*
%TO.P,3010PS-R1-1,2*%
%TO.N,fHV+7*%
X122599900Y-114055000D03*
%TD*%
D11*
%TO.P,3010PS-R2-2,1,+*%
%TO.N,fSIG8*%
X179399900Y-114055000D03*
D12*
%TO.P,3010PS-R2-2,2,-*%
%TO.N,GND*%
X179399900Y-124055000D03*
%TD*%
D11*
%TO.P,3015PS-R1-1,1*%
%TO.N,HV+5*%
X138599900Y-131055000D03*
D12*
%TO.P,3015PS-R1-1,2*%
%TO.N,fHV+5*%
X138599900Y-121055000D03*
%TD*%
D10*
%TO.P,J-fSIG10,1,Pin_1*%
%TO.N,fF-OUT10*%
X169999900Y-97925000D03*
D11*
%TO.P,J-fSIG10,2,Pin_2*%
%TO.N,fSIG10*%
X169999900Y-100465000D03*
%TD*%
D13*
%TO.P,H1,1,1*%
%TO.N,GND*%
X108999900Y-59000000D03*
D14*
X108999900Y-59000000D03*
%TD*%
D10*
%TO.P,J-fSIG5,1,Pin_1*%
%TO.N,fSIG5*%
X146599903Y-113514995D03*
D11*
%TO.P,J-fSIG5,2,Pin_2*%
X146599903Y-116054995D03*
%TD*%
D10*
%TO.P,J-fSIG4,1,Pin_1*%
%TO.N,fSIG4*%
X168067275Y-89855370D03*
D11*
%TO.P,J-fSIG4,2,Pin_2*%
X168067275Y-92395370D03*
%TD*%
%TO.P,3010PS-C2-2,1,+*%
%TO.N,fSIG8*%
X175399900Y-114055000D03*
D12*
%TO.P,3010PS-C2-2,2,-*%
%TO.N,SIG8*%
X175399900Y-124055000D03*
%TD*%
D10*
%TO.P,FBK-3-SIG2,1,Pin_1*%
%TO.N,SIG4*%
X176399900Y-68325000D03*
D11*
%TO.P,FBK-3-SIG2,2,Pin_2*%
%TO.N,GND*%
X178939900Y-68325000D03*
%TO.P,FBK-3-SIG2,3,Pin_3*%
X181479900Y-68325000D03*
%TD*%
D10*
%TO.P,3015PS-PWR2,1,Pin_1*%
%TO.N,HV+6*%
X151399900Y-135855000D03*
D11*
%TO.P,3015PS-PWR2,2,Pin_2*%
%TO.N,GND*%
X153939900Y-135855000D03*
%TO.P,3015PS-PWR2,3,Pin_3*%
X156479900Y-135855000D03*
%TD*%
%TO.P,3010PS-C1-2,1,+*%
%TO.N,fHV+8*%
X171399900Y-114055000D03*
D12*
%TO.P,3010PS-C1-2,2,-*%
%TO.N,GND*%
X171399900Y-124055000D03*
%TD*%
D10*
%TO.P,3015PS-SIG2,1,Pin_1*%
%TO.N,SIG6*%
X160399900Y-135855000D03*
D11*
%TO.P,3015PS-SIG2,2,Pin_2*%
%TO.N,GND*%
X162939900Y-135855000D03*
%TO.P,3015PS-SIG2,3,Pin_3*%
X165479900Y-135855000D03*
%TD*%
M02*
