ISO-10303-21;
HEADER;
FILE_DESCRIPTION (( 'STEP AP214' ),
    '1' );
FILE_NAME ('Lid.STEP',
    '2025-10-08T11:38:32',
    ( '' ),
    ( '' ),
    'SwSTEP 2.0',
    'SolidWorks 2023',
    '' );
FILE_SCHEMA (( 'AUTOMOTIVE_DESIGN' ));
ENDSEC;

DATA;
#1 = ADVANCED_FACE ( 'NONE', ( #388 ), #442, .F. ) ;
#2 = AXIS2_PLACEMENT_3D ( 'NONE', #457, #211, #14 ) ;
#3 = AXIS2_PLACEMENT_3D ( 'NONE', #293, #19, #199 ) ;
#4 = ADVANCED_FACE ( 'NONE', ( #407 ), #507, .F. ) ;
#5 = DIRECTION ( 'NONE',  ( -1.000000000000000000, 0.000000000000000000, -0.000000000000000000 ) ) ;
#6 = EDGE_CURVE ( 'NONE', #537, #128, #246, .T. ) ;
#7 = DIRECTION ( 'NONE',  ( 0.000000000000000000, 0.000000000000000000, 1.000000000000000000 ) ) ;
#8 = ORIENTED_EDGE ( 'NONE', *, *, #337, .T. ) ;
#9 = CARTESIAN_POINT ( 'NONE',  ( -101.0000000000000000, 8.000000000000000000, 56.00000000000000000 ) ) ;
#10 = LINE ( 'NONE', #212, #597 ) ;
#11 = AXIS2_PLACEMENT_3D ( 'NONE', #586, #216, #404 ) ;
#12 = EDGE_LOOP ( 'NONE', ( #513, #89 ) ) ;
#13 = DIRECTION ( 'NONE',  ( 1.000000000000000000, 0.000000000000000000, 0.000000000000000000 ) ) ;
#14 = DIRECTION ( 'NONE',  ( 0.000000000000000000, 0.000000000000000000, 1.000000000000000000 ) ) ;
#15 = CARTESIAN_POINT ( 'NONE',  ( -105.0000000000000000, 4.000000000000000000, 60.00000000000000000 ) ) ;
#16 = CARTESIAN_POINT ( 'NONE',  ( 42.74999999999994316, -0.001000000000000132727, -57.75000000000000711 ) ) ;
#17 = CARTESIAN_POINT ( 'NONE',  ( 45.00000000000000000, 4.000000000000000000, 60.00000000000000000 ) ) ;
#18 = CYLINDRICAL_SURFACE ( 'NONE', #2, 1.499999999999994449 ) ;
#19 = DIRECTION ( 'NONE',  ( 0.000000000000000000, 1.000000000000000000, 0.000000000000000000 ) ) ;
#20 = ORIENTED_EDGE ( 'NONE', *, *, #96, .T. ) ;
#21 = VECTOR ( 'NONE', #566, 1000.000000000000000 ) ;
#22 = DIRECTION ( 'NONE',  ( 0.000000000000000000, 1.000000000000000000, 0.000000000000000000 ) ) ;
#23 = CARTESIAN_POINT ( 'NONE',  ( 42.74999999999997158, 0.000000000000000000, 59.24999999999999289 ) ) ;
#24 = ORIENTED_EDGE ( 'NONE', *, *, #98, .T. ) ;
#25 = SURFACE_STYLE_FILL_AREA ( #606 ) ;
#26 = AXIS2_PLACEMENT_3D ( 'NONE', #168, #126, #617 ) ;
#27 = DIRECTION ( 'NONE',  ( -0.000000000000000000, 1.000000000000000000, -0.000000000000000000 ) ) ;
#28 = DIRECTION ( 'NONE',  ( 0.000000000000000000, 0.000000000000000000, 1.000000000000000000 ) ) ;
#29 = DIRECTION ( 'NONE',  ( 0.000000000000000000, 0.000000000000000000, -1.000000000000000000 ) ) ;
#30 = EDGE_CURVE ( 'NONE', #511, #166, #254, .T. ) ;
#31 = ORIENTED_EDGE ( 'NONE', *, *, #343, .T. ) ;
#32 = SURFACE_SIDE_STYLE ('',( #25 ) ) ;
#33 = VERTEX_POINT ( 'NONE', #101 ) ;
#34 = CARTESIAN_POINT ( 'NONE',  ( -102.7500000000000284, -0.001000000000000132727, 56.25000000000000000 ) ) ;
#35 = CARTESIAN_POINT ( 'NONE',  ( 42.74999999999997158, -0.001000000000000132727, 59.24999999999999289 ) ) ;
#36 = ORIENTED_EDGE ( 'NONE', *, *, #477, .T. ) ;
#37 = ORIENTED_EDGE ( 'NONE', *, *, #623, .F. ) ;
#38 = DIRECTION ( 'NONE',  ( 0.000000000000000000, 0.000000000000000000, 1.000000000000000000 ) ) ;
#39 = ORIENTED_EDGE ( 'NONE', *, *, #378, .T. ) ;
#40 =( NAMED_UNIT ( * ) PLANE_ANGLE_UNIT ( ) SI_UNIT ( $, .RADIAN. ) );
#41 = ORIENTED_EDGE ( 'NONE', *, *, #42, .T. ) ;
#42 = EDGE_CURVE ( 'NONE', #128, #321, #203, .T. ) ;
#43 = FACE_OUTER_BOUND ( 'NONE', #315, .T. ) ;
#44 = VERTEX_POINT ( 'NONE', #582 ) ;
#45 = EDGE_CURVE ( 'NONE', #166, #226, #578, .T. ) ;
#46 = DIRECTION ( 'NONE',  ( 2.312964634635743450E-16, 0.000000000000000000, 1.000000000000000000 ) ) ;
#47 = PRODUCT_DEFINITION_FORMATION_WITH_SPECIFIED_SOURCE ( 'ANY', '', #234, .NOT_KNOWN. ) ;
#48 = VECTOR ( 'NONE', #515, 1000.000000000000000 ) ;
#49 = VECTOR ( 'NONE', #312, 1000.000000000000000 ) ;
#50 = DIRECTION ( 'NONE',  ( -2.312964634635743450E-16, 0.000000000000000000, -1.000000000000000000 ) ) ;
#51 = AXIS2_PLACEMENT_3D ( 'NONE', #431, #245, #384 ) ;
#52 = AXIS2_PLACEMENT_3D ( 'NONE', #16, #208, #556 ) ;
#53 = EDGE_CURVE ( 'NONE', #217, #317, #146, .T. ) ;
#54 = DIRECTION ( 'NONE',  ( 1.000000000000000000, 0.000000000000000000, -2.312964634635743450E-16 ) ) ;
#55 = FACE_BOUND ( 'NONE', #108, .T. ) ;
#56 = FACE_OUTER_BOUND ( 'NONE', #218, .T. ) ;
#57 = DIRECTION ( 'NONE',  ( 1.000000000000000000, 0.000000000000000000, 0.000000000000000000 ) ) ;
#58 = ORIENTED_EDGE ( 'NONE', *, *, #328, .T. ) ;
#59 = FACE_OUTER_BOUND ( 'NONE', #460, .T. ) ;
#60 = CARTESIAN_POINT ( 'NONE',  ( 40.99999999999997868, 4.000000000000000000, 55.99999999999999289 ) ) ;
#61 = ORIENTED_EDGE ( 'NONE', *, *, #311, .T. ) ;
#62 = LINE ( 'NONE', #302, #541 ) ;
#63 = DIRECTION ( 'NONE',  ( 0.000000000000000000, 0.000000000000000000, 1.000000000000000000 ) ) ;
#64 = FACE_BOUND ( 'NONE', #119, .T. ) ;
#65 = ORIENTED_EDGE ( 'NONE', *, *, #6, .T. ) ;
#66 = LINE ( 'NONE', #34, #504 ) ;
#67 = DIRECTION ( 'NONE',  ( -0.000000000000000000, 1.000000000000000000, -0.000000000000000000 ) ) ;
#68 = ORIENTED_EDGE ( 'NONE', *, *, #535, .F. ) ;
#69 = DIRECTION ( 'NONE',  ( 0.000000000000000000, -0.000000000000000000, 1.000000000000000000 ) ) ;
#70 = ORIENTED_EDGE ( 'NONE', *, *, #500, .T. ) ;
#71 = CARTESIAN_POINT ( 'NONE',  ( 45.00000000000000000, 4.000000000000000000, 60.00000000000000000 ) ) ;
#72 = LINE ( 'NONE', #267, #290 ) ;
#73 = ORIENTED_EDGE ( 'NONE', *, *, #45, .F. ) ;
#74 = PLANE ( 'NONE',  #26 ) ;
#75 = STYLED_ITEM ( 'NONE', ( #512 ), #191 ) ;
#76 = EDGE_LOOP ( 'NONE', ( #37, #204 ) ) ;
#77 = CARTESIAN_POINT ( 'NONE',  ( -102.7500000000000284, 4.000000000000000000, 59.24999999999999289 ) ) ;
#78 = EDGE_CURVE ( 'NONE', #453, #561, #162, .T. ) ;
#79 = CARTESIAN_POINT ( 'NONE',  ( 44.99999999999997158, 4.000000000000000000, -60.00000000000000000 ) ) ;
#80 = VERTEX_POINT ( 'NONE', #60 ) ;
#81 = ORIENTED_EDGE ( 'NONE', *, *, #479, .T. ) ;
#82 = CARTESIAN_POINT ( 'NONE',  ( 42.74999999999994316, -0.001000000000000132727, -57.75000000000000711 ) ) ;
#83 = EDGE_LOOP ( 'NONE', ( #8, #264, #468, #413 ) ) ;
#84 = DIRECTION ( 'NONE',  ( 0.000000000000000000, 1.000000000000000000, 0.000000000000000000 ) ) ;
#85 = EDGE_CURVE ( 'NONE', #537, #495, #587, .T. ) ;
#86 = ORIENTED_EDGE ( 'NONE', *, *, #30, .F. ) ;
#87 = VECTOR ( 'NONE', #313, 1000.000000000000000 ) ;
#88 = DIRECTION ( 'NONE',  ( -1.000000000000000000, 0.000000000000000000, 0.000000000000000000 ) ) ;
#89 = ORIENTED_EDGE ( 'NONE', *, *, #98, .F. ) ;
#90 = ORIENTED_EDGE ( 'NONE', *, *, #373, .F. ) ;
#91 = AXIS2_PLACEMENT_3D ( 'NONE', #352, #550, #7 ) ;
#92 = CARTESIAN_POINT ( 'NONE',  ( -101.0000000000000000, 8.000000000000000000, -56.00000000000000000 ) ) ;
#93 = EDGE_CURVE ( 'NONE', #611, #475, #286, .T. ) ;
#94 = VECTOR ( 'NONE', #443, 1000.000000000000000 ) ;
#95 = AXIS2_PLACEMENT_3D ( 'NONE', #275, #131, #555 ) ;
#96 = EDGE_CURVE ( 'NONE', #301, #518, #488, .T. ) ;
#97 = AXIS2_PLACEMENT_3D ( 'NONE', #402, #599, #117 ) ;
#98 = EDGE_CURVE ( 'NONE', #112, #569, #403, .T. ) ;
#99 =( LENGTH_UNIT ( ) NAMED_UNIT ( * ) SI_UNIT ( .MILLI., .METRE. ) );
#100 = AXIS2_PLACEMENT_3D ( 'NONE', #250, #435, #391 ) ;
#101 = CARTESIAN_POINT ( 'NONE',  ( -102.7500000000000426, 4.000000000000000000, -56.25000000000001421 ) ) ;
#102 = CARTESIAN_POINT ( 'NONE',  ( 44.99999999999997158, 4.000000000000000000, -60.00000000000000000 ) ) ;
#103 = ORIENTED_EDGE ( 'NONE', *, *, #255, .T. ) ;
#104 =( NAMED_UNIT ( * ) PLANE_ANGLE_UNIT ( ) SI_UNIT ( $, .RADIAN. ) );
#105 = ADVANCED_FACE ( 'NONE', ( #335 ), #154, .F. ) ;
#106 = CARTESIAN_POINT ( 'NONE',  ( 44.99999999999997158, 0.000000000000000000, -60.00000000000000000 ) ) ;
#107 = CARTESIAN_POINT ( 'NONE',  ( -102.7500000000000284, 4.000000000000000000, 57.74999999999999289 ) ) ;
#108 = EDGE_LOOP ( 'NONE', ( #463, #200 ) ) ;
#109 =( NAMED_UNIT ( * ) SI_UNIT ( $, .STERADIAN. ) SOLID_ANGLE_UNIT ( ) );
#110 = CARTESIAN_POINT ( 'NONE',  ( -105.0000000000000284, 4.000000000000000000, -60.00000000000000000 ) ) ;
#111 = CARTESIAN_POINT ( 'NONE',  ( -101.0000000000000000, 8.000000000000000000, 56.00000000000000000 ) ) ;
#112 = VERTEX_POINT ( 'NONE', #445 ) ;
#113 = CARTESIAN_POINT ( 'NONE',  ( 42.74999999999997158, 0.000000000000000000, 56.25000000000000000 ) ) ;
#114 = CYLINDRICAL_SURFACE ( 'NONE', #482, 1.499999999999994449 ) ;
#115 = FACE_OUTER_BOUND ( 'NONE', #371, .T. ) ;
#116 = EDGE_LOOP ( 'NONE', ( #567, #274, #261, #269 ) ) ;
#117 = DIRECTION ( 'NONE',  ( 0.000000000000000000, 0.000000000000000000, 1.000000000000000000 ) ) ;
#118 = DIRECTION ( 'NONE',  ( -0.000000000000000000, -0.000000000000000000, 1.000000000000000000 ) ) ;
#119 = EDGE_LOOP ( 'NONE', ( #276, #588 ) ) ;
#120 = PLANE ( 'NONE',  #253 ) ;
#121 = EDGE_CURVE ( 'NONE', #551, #569, #10, .T. ) ;
#122 = ORIENTED_EDGE ( 'NONE', *, *, #85, .F. ) ;
#123 = PLANE ( 'NONE',  #192 ) ;
#124 = CARTESIAN_POINT ( 'NONE',  ( 40.99999999999997868, 8.000000000000000000, 55.99999999999999289 ) ) ;
#125 = ORIENTED_EDGE ( 'NONE', *, *, #383, .F. ) ;
#126 = DIRECTION ( 'NONE',  ( 0.000000000000000000, -1.000000000000000000, 0.000000000000000000 ) ) ;
#127 = AXIS2_PLACEMENT_3D ( 'NONE', #196, #539, #69 ) ;
#128 = VERTEX_POINT ( 'NONE', #596 ) ;
#129 = CARTESIAN_POINT ( 'NONE',  ( 44.99999999999997158, 4.000000000000000000, -60.00000000000000000 ) ) ;
#130 = EDGE_LOOP ( 'NONE', ( #103, #451, #359, #621 ) ) ;
#131 = DIRECTION ( 'NONE',  ( 0.000000000000000000, 1.000000000000000000, 0.000000000000000000 ) ) ;
#132 = EDGE_LOOP ( 'NONE', ( #58, #410, #24, #613 ) ) ;
#133 = DIRECTION ( 'NONE',  ( -0.000000000000000000, 1.000000000000000000, -0.000000000000000000 ) ) ;
#134 = EDGE_CURVE ( 'NONE', #518, #374, #300, .T. ) ;
#135 = ORIENTED_EDGE ( 'NONE', *, *, #392, .F. ) ;
#136 = DIRECTION ( 'NONE',  ( -1.000000000000000000, 0.000000000000000000, 4.886545002751569549E-17 ) ) ;
#137 = ORIENTED_EDGE ( 'NONE', *, *, #134, .T. ) ;
#138 = VECTOR ( 'NONE', #157, 1000.000000000000000 ) ;
#139 = CARTESIAN_POINT ( 'NONE',  ( -102.7500000000000284, 4.000000000000000000, 56.25000000000000000 ) ) ;
#140 = MECHANICAL_DESIGN_GEOMETRIC_PRESENTATION_REPRESENTATION (  '', ( #75 ), #283 ) ;
#141 = ADVANCED_FACE ( 'NONE', ( #441 ), #332, .F. ) ;
#142 = CARTESIAN_POINT ( 'NONE',  ( 0.000000000000000000, 0.000000000000000000, 0.000000000000000000 ) ) ;
#143 = ADVANCED_FACE ( 'NONE', ( #494, #491, #64, #55, #340, #115 ), #499, .T. ) ;
#144 = AXIS2_PLACEMENT_3D ( 'NONE', #82, #372, #277 ) ;
#145 = CARTESIAN_POINT ( 'NONE',  ( 42.74999999999997158, 4.000000000000000000, 56.25000000000000000 ) ) ;
#146 = LINE ( 'NONE', #259, #351 ) ;
#147 = EDGE_CURVE ( 'NONE', #251, #279, #427, .T. ) ;
#148 = ORIENTED_EDGE ( 'NONE', *, *, #456, .T. ) ;
#149 = LINE ( 'NONE', #344, #509 ) ;
#150 = UNCERTAINTY_MEASURE_WITH_UNIT (LENGTH_MEASURE( 1.000000000000000082E-05 ), #562, 'distance_accuracy_value', 'NONE');
#151 = DIRECTION ( 'NONE',  ( -2.312964634635742957E-16, -0.000000000000000000, -1.000000000000000000 ) ) ;
#152 = ORIENTED_EDGE ( 'NONE', *, *, #392, .T. ) ;
#153 = CARTESIAN_POINT ( 'NONE',  ( -102.7500000000000426, 4.000000000000000000, -57.75000000000000711 ) ) ;
#154 = CYLINDRICAL_SURFACE ( 'NONE', #100, 1.499999999999994449 ) ;
#155 = CIRCLE ( 'NONE', #450, 1.499999999999994449 ) ;
#156 = EDGE_LOOP ( 'NONE', ( #39, #122, #125, #421 ) ) ;
#157 = DIRECTION ( 'NONE',  ( 1.000000000000000000, 0.000000000000000000, 0.000000000000000000 ) ) ;
#158 = DIRECTION ( 'NONE',  ( 1.000000000000000000, 0.000000000000000000, -4.886545002751569549E-17 ) ) ;
#159 = CIRCLE ( 'NONE', #95, 1.499999999999994449 ) ;
#160 = AXIS2_PLACEMENT_3D ( 'NONE', #396, #27, #213 ) ;
#161 = CARTESIAN_POINT ( 'NONE',  ( -101.0000000000000000, 8.000000000000000000, -56.00000000000000000 ) ) ;
#162 = CIRCLE ( 'NONE', #474, 1.499999999999994449 ) ;
#163 = ORIENTED_EDGE ( 'NONE', *, *, #486, .F. ) ;
#164 = DIRECTION ( 'NONE',  ( -0.000000000000000000, -1.000000000000000000, -0.000000000000000000 ) ) ;
#165 = DIRECTION ( 'NONE',  ( -0.000000000000000000, -1.000000000000000000, -0.000000000000000000 ) ) ;
#166 = VERTEX_POINT ( 'NONE', #145 ) ;
#167 = EDGE_CURVE ( 'NONE', #279, #33, #533, .T. ) ;
#168 = CARTESIAN_POINT ( 'NONE',  ( 0.000000000000000000, 8.000000000000000000, 0.000000000000000000 ) ) ;
#169 = ORIENTED_EDGE ( 'NONE', *, *, #411, .T. ) ;
#170 = DIRECTION ( 'NONE',  ( 0.000000000000000000, 0.000000000000000000, 1.000000000000000000 ) ) ;
#171 = LINE ( 'NONE', #559, #368 ) ;
#172 = ORIENTED_EDGE ( 'NONE', *, *, #209, .F. ) ;
#173 = SURFACE_STYLE_USAGE ( .BOTH. , #32 ) ;
#174 = EDGE_LOOP ( 'NONE', ( #347, #501, #576, #607 ) ) ;
#175 = EDGE_CURVE ( 'NONE', #226, #166, #159, .T. ) ;
#176 = CARTESIAN_POINT ( 'NONE',  ( -105.0000000000000000, 0.000000000000000000, 60.00000000000000000 ) ) ;
#177 = DIRECTION ( 'NONE',  ( -0.000000000000000000, -1.000000000000000000, -0.000000000000000000 ) ) ;
#178 = ORIENTED_EDGE ( 'NONE', *, *, #373, .T. ) ;
#179 = DIRECTION ( 'NONE',  ( -0.000000000000000000, 1.000000000000000000, -0.000000000000000000 ) ) ;
#180 = ORIENTED_EDGE ( 'NONE', *, *, #328, .F. ) ;
#181 = CARTESIAN_POINT ( 'NONE',  ( -102.7500000000000426, 4.000000000000000000, -57.75000000000000711 ) ) ;
#182 = EDGE_LOOP ( 'NONE', ( #369, #223, #545, #152 ) ) ;
#183 = FACE_BOUND ( 'NONE', #221, .T. ) ;
#184 = EDGE_LOOP ( 'NONE', ( #401, #163, #520, #458 ) ) ;
#185 = CARTESIAN_POINT ( 'NONE',  ( -102.7500000000000426, -0.001000000000000132727, -57.75000000000000711 ) ) ;
#186 = ORIENTED_EDGE ( 'NONE', *, *, #299, .T. ) ;
#187 = CIRCLE ( 'NONE', #531, 1.499999999999994449 ) ;
#188 = LINE ( 'NONE', #35, #87 ) ;
#189 = EDGE_CURVE ( 'NONE', #511, #294, #327, .T. ) ;
#190 = PRODUCT_RELATED_PRODUCT_CATEGORY ( 'part', '', ( #234 ) ) ;
#191 = MANIFOLD_SOLID_BREP ( 'Hole-Pattern', #625 ) ;
#192 = AXIS2_PLACEMENT_3D ( 'NONE', #266, #508, #408 ) ;
#193 = VECTOR ( 'NONE', #151, 1000.000000000000000 ) ;
#194 = ADVANCED_FACE ( 'NONE', ( #231 ), #74, .F. ) ;
#195 = VECTOR ( 'NONE', #57, 1000.000000000000000 ) ;
#196 = CARTESIAN_POINT ( 'NONE',  ( 0.000000000000000000, 4.000000000000000000, 0.000000000000000000 ) ) ;
#197 = CARTESIAN_POINT ( 'NONE',  ( 42.74999999999997158, 0.000000000000000000, 57.74999999999999289 ) ) ;
#198 = ADVANCED_FACE ( 'NONE', ( #572 ), #120, .F. ) ;
#199 = DIRECTION ( 'NONE',  ( 0.000000000000000000, 0.000000000000000000, 1.000000000000000000 ) ) ;
#200 = ORIENTED_EDGE ( 'NONE', *, *, #78, .F. ) ;
#201 = LINE ( 'NONE', #542, #544 ) ;
#202 = COLOUR_RGB ( '',0.7921568627450980005, 0.8196078431372548767, 0.9333333333333333481 ) ;
#203 = LINE ( 'NONE', #111, #284 ) ;
#204 = ORIENTED_EDGE ( 'NONE', *, *, #189, .F. ) ;
#205 = DIRECTION ( 'NONE',  ( 1.000000000000000000, -0.000000000000000000, 0.000000000000000000 ) ) ;
#206 = CARTESIAN_POINT ( 'NONE',  ( 42.74999999999997158, -0.001000000000000132727, 56.25000000000000000 ) ) ;
#207 = APPLICATION_CONTEXT ( 'automotive_design' ) ;
#208 = DIRECTION ( 'NONE',  ( -0.000000000000000000, 1.000000000000000000, -0.000000000000000000 ) ) ;
#209 = EDGE_CURVE ( 'NONE', #251, #592, #417, .T. ) ;
#210 = FACE_OUTER_BOUND ( 'NONE', #156, .T. ) ;
#211 = DIRECTION ( 'NONE',  ( -0.000000000000000000, 1.000000000000000000, -0.000000000000000000 ) ) ;
#212 = CARTESIAN_POINT ( 'NONE',  ( 42.74999999999994316, -0.001000000000000132727, -56.25000000000001421 ) ) ;
#213 = DIRECTION ( 'NONE',  ( 0.000000000000000000, 0.000000000000000000, 1.000000000000000000 ) ) ;
#214 = LINE ( 'NONE', #71, #624 ) ;
#215 = ADVANCED_FACE ( 'NONE', ( #452, #320, #469, #183, #375 ), #506, .F. ) ;
#216 = DIRECTION ( 'NONE',  ( -0.000000000000000000, -1.000000000000000000, -0.000000000000000000 ) ) ;
#217 = VERTEX_POINT ( 'NONE', #459 ) ;
#218 = EDGE_LOOP ( 'NONE', ( #522, #505, #405, #341 ) ) ;
#219 = DIRECTION ( 'NONE',  ( 0.000000000000000000, 0.000000000000000000, 1.000000000000000000 ) ) ;
#220 = CARTESIAN_POINT ( 'NONE',  ( -105.0000000000000284, 0.000000000000000000, -60.00000000000000000 ) ) ;
#221 = EDGE_LOOP ( 'NONE', ( #323, #68 ) ) ;
#222 = CARTESIAN_POINT ( 'NONE',  ( 42.74999999999997158, 4.000000000000000000, 59.24999999999999289 ) ) ;
#223 = ORIENTED_EDGE ( 'NONE', *, *, #288, .F. ) ;
#224 = CARTESIAN_POINT ( 'NONE',  ( 42.74999999999994316, 0.000000000000000000, -57.75000000000000711 ) ) ;
#225 = LINE ( 'NONE', #367, #399 ) ;
#226 = VERTEX_POINT ( 'NONE', #222 ) ;
#227 =( NAMED_UNIT ( * ) SI_UNIT ( $, .STERADIAN. ) SOLID_ANGLE_UNIT ( ) );
#228 = EDGE_LOOP ( 'NONE', ( #81, #446, #61, #256 ) ) ;
#229 = FACE_OUTER_BOUND ( 'NONE', #466, .T. ) ;
#230 = ORIENTED_EDGE ( 'NONE', *, *, #479, .F. ) ;
#231 = FACE_OUTER_BOUND ( 'NONE', #416, .T. ) ;
#232 = EDGE_LOOP ( 'NONE', ( #527, #554, #471, #70 ) ) ;
#233 = DIRECTION ( 'NONE',  ( -0.000000000000000000, 1.000000000000000000, -0.000000000000000000 ) ) ;
#234 = PRODUCT ( 'Lid', 'Lid', '', ( #242 ) ) ;
#235 = ORIENTED_EDGE ( 'NONE', *, *, #167, .T. ) ;
#236 = FACE_OUTER_BOUND ( 'NONE', #228, .T. ) ;
#237 = CIRCLE ( 'NONE', #97, 1.499999999999994449 ) ;
#238 = ADVANCED_FACE ( 'NONE', ( #252 ), #439, .F. ) ;
#239 = VECTOR ( 'NONE', #361, 1000.000000000000000 ) ;
#240 = EDGE_CURVE ( 'NONE', #374, #325, #201, .T. ) ;
#241 = AXIS2_PLACEMENT_3D ( 'NONE', #224, #414, #594 ) ;
#242 = PRODUCT_CONTEXT ( 'NONE', #207, 'mechanical' ) ;
#243 = DIRECTION ( 'NONE',  ( 0.000000000000000000, 0.000000000000000000, 1.000000000000000000 ) ) ;
#244 = ADVANCED_FACE ( 'NONE', ( #263 ), #449, .F. ) ;
#245 = DIRECTION ( 'NONE',  ( -0.000000000000000000, -1.000000000000000000, -0.000000000000000000 ) ) ;
#246 = LINE ( 'NONE', #433, #329 ) ;
#247 = CARTESIAN_POINT ( 'NONE',  ( -105.0000000000000284, 4.000000000000000000, -60.00000000000000000 ) ) ;
#248 = CARTESIAN_POINT ( 'NONE',  ( -105.0000000000000284, 4.000000000000000000, -60.00000000000000000 ) ) ;
#249 = CIRCLE ( 'NONE', #521, 1.499999999999994449 ) ;
#250 = CARTESIAN_POINT ( 'NONE',  ( -102.7500000000000284, -0.001000000000000132727, 57.74999999999999289 ) ) ;
#251 = VERTEX_POINT ( 'NONE', #307 ) ;
#252 = FACE_OUTER_BOUND ( 'NONE', #83, .T. ) ;
#253 = AXIS2_PLACEMENT_3D ( 'NONE', #568, #316, #136 ) ;
#254 = LINE ( 'NONE', #206, #483 ) ;
#255 = EDGE_CURVE ( 'NONE', #297, #80, #149, .T. ) ;
#256 = ORIENTED_EDGE ( 'NONE', *, *, #167, .F. ) ;
#257 = CARTESIAN_POINT ( 'NONE',  ( 42.74999999999994316, 4.000000000000000000, -57.75000000000000711 ) ) ;
#258 = CARTESIAN_POINT ( 'NONE',  ( 40.99999999999997868, 4.000000000000000000, -55.99999999999999289 ) ) ;
#259 = CARTESIAN_POINT ( 'NONE',  ( 40.99999999999997868, 8.000000000000000000, -55.99999999999999289 ) ) ;
#260 = ADVANCED_FACE ( 'NONE', ( #59 ), #18, .F. ) ;
#261 = ORIENTED_EDGE ( 'NONE', *, *, #45, .T. ) ;
#262 = DIRECTION ( 'NONE',  ( -0.000000000000000000, 1.000000000000000000, -0.000000000000000000 ) ) ;
#263 = FACE_OUTER_BOUND ( 'NONE', #182, .T. ) ;
#264 = ORIENTED_EDGE ( 'NONE', *, *, #333, .F. ) ;
#265 = ORIENTED_EDGE ( 'NONE', *, *, #189, .T. ) ;
#266 = CARTESIAN_POINT ( 'NONE',  ( -101.0000000000000000, 8.000000000000000000, -56.00000000000000000 ) ) ;
#267 = CARTESIAN_POINT ( 'NONE',  ( 40.99999999999997868, 8.000000000000000000, 55.99999999999999289 ) ) ;
#268 = VECTOR ( 'NONE', #165, 1000.000000000000000 ) ;
#269 = ORIENTED_EDGE ( 'NONE', *, *, #456, .F. ) ;
#270 = CARTESIAN_POINT ( 'NONE',  ( 42.74999999999997158, 0.000000000000000000, 57.74999999999999289 ) ) ;
#271 = VERTEX_POINT ( 'NONE', #398 ) ;
#272 = LINE ( 'NONE', #366, #94 ) ;
#273 = CARTESIAN_POINT ( 'NONE',  ( -101.0000000000000000, 4.000000000000000000, -56.00000000000000000 ) ) ;
#274 = ORIENTED_EDGE ( 'NONE', *, *, #30, .T. ) ;
#275 = CARTESIAN_POINT ( 'NONE',  ( 42.74999999999997158, 4.000000000000000000, 57.74999999999999289 ) ) ;
#276 = ORIENTED_EDGE ( 'NONE', *, *, #447, .F. ) ;
#277 = DIRECTION ( 'NONE',  ( 0.000000000000000000, 0.000000000000000000, 1.000000000000000000 ) ) ;
#278 = ORIENTED_EDGE ( 'NONE', *, *, #175, .T. ) ;
#279 = VERTEX_POINT ( 'NONE', #350 ) ;
#280 = LINE ( 'NONE', #273, #455 ) ;
#281 = APPLICATION_CONTEXT ( 'automotive_design' ) ;
#282 = VERTEX_POINT ( 'NONE', #390 ) ;
#283 =( GEOMETRIC_REPRESENTATION_CONTEXT ( 3 ) GLOBAL_UNCERTAINTY_ASSIGNED_CONTEXT ( ( #150 ) ) GLOBAL_UNIT_ASSIGNED_CONTEXT ( ( #562, #40, #227 ) ) REPRESENTATION_CONTEXT ( 'NONE', 'WORKASPACE' ) );
#284 = VECTOR ( 'NONE', #291, 1000.000000000000000 ) ;
#285 = VERTEX_POINT ( 'NONE', #106 ) ;
#286 = CIRCLE ( 'NONE', #338, 1.499999999999994449 ) ;
#287 = CARTESIAN_POINT ( 'NONE',  ( 44.99999999999997158, 4.000000000000000000, -60.00000000000000000 ) ) ;
#288 = EDGE_CURVE ( 'NONE', #325, #353, #547, .T. ) ;
#289 = AXIS2_PLACEMENT_3D ( 'NONE', #15, #543, #5 ) ;
#290 = VECTOR ( 'NONE', #29, 1000.000000000000000 ) ;
#291 = DIRECTION ( 'NONE',  ( 1.000000000000000000, 0.000000000000000000, -4.886545002751569549E-17 ) ) ;
#292 = PRODUCT_DEFINITION ( 'UNKNOWN', '', #47, #440 ) ;
#293 = CARTESIAN_POINT ( 'NONE',  ( 42.74999999999997158, 4.000000000000000000, 57.74999999999999289 ) ) ;
#294 = VERTEX_POINT ( 'NONE', #23 ) ;
#295 = CARTESIAN_POINT ( 'NONE',  ( -105.0000000000000000, 4.000000000000000000, 60.00000000000000000 ) ) ;
#296 = CARTESIAN_POINT ( 'NONE',  ( -102.7500000000000284, 0.000000000000000000, 57.74999999999999289 ) ) ;
#297 = VERTEX_POINT ( 'NONE', #339 ) ;
#298 = DIRECTION ( 'NONE',  ( 0.000000000000000000, 0.000000000000000000, 1.000000000000000000 ) ) ;
#299 = EDGE_CURVE ( 'NONE', #271, #285, #493, .T. ) ;
#300 = LINE ( 'NONE', #102, #193 ) ;
#301 = VERTEX_POINT ( 'NONE', #295 ) ;
#302 = CARTESIAN_POINT ( 'NONE',  ( 42.74999999999994316, -0.001000000000000132727, -59.25000000000000711 ) ) ;
#303 = DIRECTION ( 'NONE',  ( -1.000000000000000000, -0.000000000000000000, -0.000000000000000000 ) ) ;
#304 = DIRECTION ( 'NONE',  ( -0.000000000000000000, 1.000000000000000000, -0.000000000000000000 ) ) ;
#305 = EDGE_LOOP ( 'NONE', ( #473, #36, #362, #356 ) ) ;
#306 = CARTESIAN_POINT ( 'NONE',  ( -105.0000000000000284, 0.000000000000000000, -60.00000000000000000 ) ) ;
#307 = CARTESIAN_POINT ( 'NONE',  ( -102.7500000000000426, 0.000000000000000000, -59.25000000000000711 ) ) ;
#308 = ORIENTED_EDGE ( 'NONE', *, *, #477, .F. ) ;
#309 = CIRCLE ( 'NONE', #241, 1.499999999999994449 ) ;
#310 = LINE ( 'NONE', #448, #49 ) ;
#311 = EDGE_CURVE ( 'NONE', #592, #33, #349, .T. ) ;
#312 = DIRECTION ( 'NONE',  ( 0.000000000000000000, 0.000000000000000000, -1.000000000000000000 ) ) ;
#313 = DIRECTION ( 'NONE',  ( -0.000000000000000000, 1.000000000000000000, -0.000000000000000000 ) ) ;
#314 = AXIS2_PLACEMENT_3D ( 'NONE', #523, #88, #510 ) ;
#315 = EDGE_LOOP ( 'NONE', ( #86, #265, #148, #278 ) ) ;
#316 = DIRECTION ( 'NONE',  ( -4.886545002751569549E-17, 0.000000000000000000, -1.000000000000000000 ) ) ;
#317 = VERTEX_POINT ( 'NONE', #258 ) ;
#318 = FACE_OUTER_BOUND ( 'NONE', #132, .T. ) ;
#319 = ORIENTED_EDGE ( 'NONE', *, *, #240, .T. ) ;
#320 = FACE_BOUND ( 'NONE', #76, .T. ) ;
#321 = VERTEX_POINT ( 'NONE', #124 ) ;
#322 = DIRECTION ( 'NONE',  ( -1.000000000000000000, -0.000000000000000000, -4.886545002751569549E-17 ) ) ;
#323 = ORIENTED_EDGE ( 'NONE', *, *, #93, .F. ) ;
#324 = ADVANCED_FACE ( 'NONE', ( #595 ), #114, .F. ) ;
#325 = VERTEX_POINT ( 'NONE', #248 ) ;
#326 = CYLINDRICAL_SURFACE ( 'NONE', #379, 1.499999999999994449 ) ;
#327 = CIRCLE ( 'NONE', #478, 1.499999999999994449 ) ;
#328 = EDGE_CURVE ( 'NONE', #551, #282, #565, .T. ) ;
#329 = VECTOR ( 'NONE', #585, 1000.000000000000000 ) ;
#330 = APPLICATION_PROTOCOL_DEFINITION ( 'draft international standard', 'automotive_design', 1998, #207 ) ;
#331 = DIRECTION ( 'NONE',  ( -0.000000000000000000, -1.000000000000000000, -0.000000000000000000 ) ) ;
#332 = PLANE ( 'NONE',  #289 ) ;
#333 = EDGE_CURVE ( 'NONE', #128, #297, #600, .T. ) ;
#334 = CARTESIAN_POINT ( 'NONE',  ( -102.7500000000000284, 0.000000000000000000, 59.24999999999999289 ) ) ;
#335 = FACE_OUTER_BOUND ( 'NONE', #305, .T. ) ;
#336 = EDGE_LOOP ( 'NONE', ( #230, #618 ) ) ;
#337 = EDGE_CURVE ( 'NONE', #495, #297, #538, .T. ) ;
#338 = AXIS2_PLACEMENT_3D ( 'NONE', #296, #400, #591 ) ;
#339 = CARTESIAN_POINT ( 'NONE',  ( -101.0000000000000000, 4.000000000000000000, 56.00000000000000000 ) ) ;
#340 = FACE_BOUND ( 'NONE', #174, .T. ) ;
#341 = ORIENTED_EDGE ( 'NONE', *, *, #358, .T. ) ;
#342 = DIRECTION ( 'NONE',  ( 0.000000000000000000, 0.000000000000000000, 1.000000000000000000 ) ) ;
#343 = EDGE_CURVE ( 'NONE', #321, #217, #72, .T. ) ;
#344 = CARTESIAN_POINT ( 'NONE',  ( -101.0000000000000000, 4.000000000000000000, 56.00000000000000000 ) ) ;
#345 = VECTOR ( 'NONE', #615, 1000.000000000000000 ) ;
#346 = DIRECTION ( 'NONE',  ( 0.000000000000000000, 0.000000000000000000, 1.000000000000000000 ) ) ;
#347 = ORIENTED_EDGE ( 'NONE', *, *, #337, .F. ) ;
#348 = CARTESIAN_POINT ( 'NONE',  ( -102.7500000000000426, 4.000000000000000000, -59.25000000000000711 ) ) ;
#349 = CIRCLE ( 'NONE', #583, 1.499999999999994449 ) ;
#350 = CARTESIAN_POINT ( 'NONE',  ( -102.7500000000000426, 0.000000000000000000, -56.25000000000001421 ) ) ;
#351 = VECTOR ( 'NONE', #536, 1000.000000000000000 ) ;
#352 = CARTESIAN_POINT ( 'NONE',  ( 42.74999999999994316, 4.000000000000000000, -57.75000000000000711 ) ) ;
#353 = VERTEX_POINT ( 'NONE', #220 ) ;
#354 = DIRECTION ( 'NONE',  ( 0.000000000000000000, 1.000000000000000000, 0.000000000000000000 ) ) ;
#355 = DIRECTION ( 'NONE',  ( 0.000000000000000000, 0.000000000000000000, -1.000000000000000000 ) ) ;
#356 = ORIENTED_EDGE ( 'NONE', *, *, #411, .F. ) ;
#357 = DIRECTION ( 'NONE',  ( -0.000000000000000000, 1.000000000000000000, -0.000000000000000000 ) ) ;
#358 = EDGE_CURVE ( 'NONE', #321, #80, #171, .T. ) ;
#359 = ORIENTED_EDGE ( 'NONE', *, *, #42, .F. ) ;
#360 = DIRECTION ( 'NONE',  ( -0.000000000000000000, -1.000000000000000000, -0.000000000000000000 ) ) ;
#361 = DIRECTION ( 'NONE',  ( -2.312964634635742957E-16, -0.000000000000000000, -1.000000000000000000 ) ) ;
#362 = ORIENTED_EDGE ( 'NONE', *, *, #78, .T. ) ;
#363 = AXIS2_PLACEMENT_3D ( 'NONE', #247, #54, #50 ) ;
#364 = ADVANCED_FACE ( 'NONE', ( #56 ), #434, .F. ) ;
#365 = ORIENTED_EDGE ( 'NONE', *, *, #147, .T. ) ;
#366 = CARTESIAN_POINT ( 'NONE',  ( -105.0000000000000284, 4.000000000000000000, -60.00000000000000000 ) ) ;
#367 = CARTESIAN_POINT ( 'NONE',  ( -102.7500000000000284, -0.001000000000000132727, 59.24999999999999289 ) ) ;
#368 = VECTOR ( 'NONE', #487, 1000.000000000000000 ) ;
#369 = ORIENTED_EDGE ( 'NONE', *, *, #530, .T. ) ;
#370 = DIRECTION ( 'NONE',  ( -0.000000000000000000, -1.000000000000000000, -0.000000000000000000 ) ) ;
#371 = EDGE_LOOP ( 'NONE', ( #601, #20, #137, #319 ) ) ;
#372 = DIRECTION ( 'NONE',  ( -0.000000000000000000, 1.000000000000000000, -0.000000000000000000 ) ) ;
#373 = EDGE_CURVE ( 'NONE', #353, #44, #619, .T. ) ;
#374 = VERTEX_POINT ( 'NONE', #79 ) ;
#375 = FACE_OUTER_BOUND ( 'NONE', #420, .T. ) ;
#376 = ORIENTED_EDGE ( 'NONE', *, *, #175, .F. ) ;
#377 = DIRECTION ( 'NONE',  ( 0.000000000000000000, 0.000000000000000000, 1.000000000000000000 ) ) ;
#378 = EDGE_CURVE ( 'NONE', #317, #495, #280, .T. ) ;
#379 = AXIS2_PLACEMENT_3D ( 'NONE', #423, #233, #377 ) ;
#380 = ORIENTED_EDGE ( 'NONE', *, *, #447, .T. ) ;
#381 = AXIS2_PLACEMENT_3D ( 'NONE', #589, #205, #355 ) ;
#382 = ADVANCED_FACE ( 'NONE', ( #236 ), #467, .F. ) ;
#383 = EDGE_CURVE ( 'NONE', #217, #537, #519, .T. ) ;
#384 = DIRECTION ( 'NONE',  ( 0.000000000000000000, 0.000000000000000000, 1.000000000000000000 ) ) ;
#385 = APPLICATION_PROTOCOL_DEFINITION ( 'draft international standard', 'automotive_design', 1998, #281 ) ;
#386 = AXIS2_PLACEMENT_3D ( 'NONE', #142, #243, #13 ) ;
#387 = DIRECTION ( 'NONE',  ( -0.000000000000000000, 1.000000000000000000, -0.000000000000000000 ) ) ;
#388 = FACE_OUTER_BOUND ( 'NONE', #116, .T. ) ;
#389 = VECTOR ( 'NONE', #357, 1000.000000000000000 ) ;
#390 = CARTESIAN_POINT ( 'NONE',  ( 42.74999999999994316, 0.000000000000000000, -59.25000000000000711 ) ) ;
#391 = DIRECTION ( 'NONE',  ( 0.000000000000000000, 0.000000000000000000, 1.000000000000000000 ) ) ;
#392 = EDGE_CURVE ( 'NONE', #374, #285, #609, .T. ) ;
#393 = EDGE_LOOP ( 'NONE', ( #180, #616 ) ) ;
#394 = CARTESIAN_POINT ( 'NONE',  ( -105.0000000000000284, 4.000000000000000000, -60.00000000000000000 ) ) ;
#395 = DIRECTION ( 'NONE',  ( -0.000000000000000000, -1.000000000000000000, -0.000000000000000000 ) ) ;
#396 = CARTESIAN_POINT ( 'NONE',  ( 42.74999999999997158, -0.001000000000000132727, 57.74999999999999289 ) ) ;
#397 = LINE ( 'NONE', #306, #610 ) ;
#398 = CARTESIAN_POINT ( 'NONE',  ( 45.00000000000000000, 0.000000000000000000, 60.00000000000000000 ) ) ;
#399 = VECTOR ( 'NONE', #476, 1000.000000000000000 ) ;
#400 = DIRECTION ( 'NONE',  ( -0.000000000000000000, -1.000000000000000000, -0.000000000000000000 ) ) ;
#401 = ORIENTED_EDGE ( 'NONE', *, *, #584, .T. ) ;
#402 = CARTESIAN_POINT ( 'NONE',  ( -102.7500000000000426, 0.000000000000000000, -57.75000000000000711 ) ) ;
#403 = CIRCLE ( 'NONE', #91, 1.499999999999994449 ) ;
#404 = DIRECTION ( 'NONE',  ( 0.000000000000000000, 0.000000000000000000, 1.000000000000000000 ) ) ;
#405 = ORIENTED_EDGE ( 'NONE', *, *, #343, .F. ) ;
#406 = DIRECTION ( 'NONE',  ( 0.000000000000000000, -0.000000000000000000, 1.000000000000000000 ) ) ;
#407 = FACE_OUTER_BOUND ( 'NONE', #232, .T. ) ;
#408 = DIRECTION ( 'NONE',  ( 1.000000000000000000, 0.000000000000000000, 4.886545002751569549E-17 ) ) ;
#409 = CARTESIAN_POINT ( 'NONE',  ( 44.99999999999997158, 0.000000000000000000, -60.00000000000000000 ) ) ;
#410 = ORIENTED_EDGE ( 'NONE', *, *, #549, .T. ) ;
#411 = EDGE_CURVE ( 'NONE', #611, #561, #225, .T. ) ;
#412 = DIRECTION ( 'NONE',  ( 0.000000000000000000, 0.000000000000000000, 1.000000000000000000 ) ) ;
#413 = ORIENTED_EDGE ( 'NONE', *, *, #85, .T. ) ;
#414 = DIRECTION ( 'NONE',  ( -0.000000000000000000, -1.000000000000000000, -0.000000000000000000 ) ) ;
#415 = LINE ( 'NONE', #419, #345 ) ;
#416 = EDGE_LOOP ( 'NONE', ( #65, #41, #31, #573 ) ) ;
#417 = LINE ( 'NONE', #612, #529 ) ;
#418 = EDGE_LOOP ( 'NONE', ( #376, #73 ) ) ;
#419 = CARTESIAN_POINT ( 'NONE',  ( -105.0000000000000000, 4.000000000000000000, 60.00000000000000000 ) ) ;
#420 = EDGE_LOOP ( 'NONE', ( #90, #540, #602, #563 ) ) ;
#421 = ORIENTED_EDGE ( 'NONE', *, *, #53, .T. ) ;
#422 = ADVANCED_FACE ( 'NONE', ( #229 ), #425, .F. ) ;
#423 = CARTESIAN_POINT ( 'NONE',  ( 42.74999999999997158, -0.001000000000000132727, 57.74999999999999289 ) ) ;
#424 = ORIENTED_EDGE ( 'NONE', *, *, #430, .F. ) ;
#425 = PLANE ( 'NONE',  #593 ) ;
#426 = AXIS2_PLACEMENT_3D ( 'NONE', #502, #360, #28 ) ;
#427 = CIRCLE ( 'NONE', #51, 1.499999999999994449 ) ;
#428 = AXIS2_PLACEMENT_3D ( 'NONE', #546, #22, #170 ) ;
#429 = ADVANCED_FACE ( 'NONE', ( #318 ), #462, .F. ) ;
#430 = EDGE_CURVE ( 'NONE', #301, #44, #415, .T. ) ;
#431 = CARTESIAN_POINT ( 'NONE',  ( -102.7500000000000426, 0.000000000000000000, -57.75000000000000711 ) ) ;
#432 = CARTESIAN_POINT ( 'NONE',  ( -102.7500000000000426, -0.001000000000000132727, -56.25000000000001421 ) ) ;
#433 = CARTESIAN_POINT ( 'NONE',  ( -101.0000000000000000, 8.000000000000000000, 56.00000000000000000 ) ) ;
#434 = PLANE ( 'NONE',  #314 ) ;
#435 = DIRECTION ( 'NONE',  ( -0.000000000000000000, 1.000000000000000000, -0.000000000000000000 ) ) ;
#436 = ORIENTED_EDGE ( 'NONE', *, *, #480, .T. ) ;
#437 = PRESENTATION_LAYER_ASSIGNMENT (  '', '', ( #75 ) ) ;
#438 = FACE_OUTER_BOUND ( 'NONE', #605, .T. ) ;
#439 = PLANE ( 'NONE',  #381 ) ;
#440 = PRODUCT_DEFINITION_CONTEXT ( 'detailed design', #281, 'design' ) ;
#441 = FACE_OUTER_BOUND ( 'NONE', #184, .T. ) ;
#442 = CYLINDRICAL_SURFACE ( 'NONE', #160, 1.499999999999994449 ) ;
#443 = DIRECTION ( 'NONE',  ( 2.312964634635742957E-16, 0.000000000000000000, 1.000000000000000000 ) ) ;
#444 = DIRECTION ( 'NONE',  ( 1.000000000000000000, 0.000000000000000000, -0.000000000000000000 ) ) ;
#445 = CARTESIAN_POINT ( 'NONE',  ( 42.74999999999994316, 4.000000000000000000, -59.25000000000000711 ) ) ;
#446 = ORIENTED_EDGE ( 'NONE', *, *, #209, .T. ) ;
#447 = EDGE_CURVE ( 'NONE', #33, #592, #249, .T. ) ;
#448 = CARTESIAN_POINT ( 'NONE',  ( 40.99999999999997868, 4.000000000000000000, 55.99999999999999289 ) ) ;
#449 = PLANE ( 'NONE',  #534 ) ;
#450 = AXIS2_PLACEMENT_3D ( 'NONE', #257, #354, #219 ) ;
#451 = ORIENTED_EDGE ( 'NONE', *, *, #358, .F. ) ;
#452 = FACE_BOUND ( 'NONE', #393, .T. ) ;
#453 = VERTEX_POINT ( 'NONE', #139 ) ;
#454 = DIRECTION ( 'NONE',  ( -1.000000000000000000, -0.000000000000000000, -0.000000000000000000 ) ) ;
#455 = VECTOR ( 'NONE', #322, 1000.000000000000000 ) ;
#456 = EDGE_CURVE ( 'NONE', #294, #226, #188, .T. ) ;
#457 = CARTESIAN_POINT ( 'NONE',  ( -102.7500000000000426, -0.001000000000000132727, -57.75000000000000711 ) ) ;
#458 = ORIENTED_EDGE ( 'NONE', *, *, #430, .T. ) ;
#459 = CARTESIAN_POINT ( 'NONE',  ( 40.99999999999997868, 8.000000000000000000, -55.99999999999999289 ) ) ;
#460 = EDGE_LOOP ( 'NONE', ( #172, #365, #235, #380 ) ) ;
#461 = CARTESIAN_POINT ( 'NONE',  ( 42.74999999999994316, 4.000000000000000000, -56.25000000000001421 ) ) ;
#462 = CYLINDRICAL_SURFACE ( 'NONE', #144, 1.499999999999994449 ) ;
#463 = ORIENTED_EDGE ( 'NONE', *, *, #480, .F. ) ;
#464 = FILL_AREA_STYLE_COLOUR ( '', #202 ) ;
#465 = ADVANCED_FACE ( 'NONE', ( #43 ), #326, .F. ) ;
#466 = EDGE_LOOP ( 'NONE', ( #186, #135, #598, #492 ) ) ;
#467 = CYLINDRICAL_SURFACE ( 'NONE', #528, 1.499999999999994449 ) ;
#468 = ORIENTED_EDGE ( 'NONE', *, *, #6, .F. ) ;
#469 = FACE_BOUND ( 'NONE', #336, .T. ) ;
#470 = EDGE_CURVE ( 'NONE', #80, #317, #310, .T. ) ;
#471 = ORIENTED_EDGE ( 'NONE', *, *, #121, .T. ) ;
#472 = DIRECTION ( 'NONE',  ( 0.000000000000000000, 0.000000000000000000, 1.000000000000000000 ) ) ;
#473 = ORIENTED_EDGE ( 'NONE', *, *, #93, .T. ) ;
#474 = AXIS2_PLACEMENT_3D ( 'NONE', #107, #485, #346 ) ;
#475 = VERTEX_POINT ( 'NONE', #552 ) ;
#476 = DIRECTION ( 'NONE',  ( -0.000000000000000000, 1.000000000000000000, -0.000000000000000000 ) ) ;
#477 = EDGE_CURVE ( 'NONE', #475, #453, #66, .T. ) ;
#478 = AXIS2_PLACEMENT_3D ( 'NONE', #270, #370, #412 ) ;
#479 = EDGE_CURVE ( 'NONE', #279, #251, #237, .T. ) ;
#480 = EDGE_CURVE ( 'NONE', #561, #453, #575, .T. ) ;
#481 =( GEOMETRIC_REPRESENTATION_CONTEXT ( 3 ) GLOBAL_UNCERTAINTY_ASSIGNED_CONTEXT ( ( #590 ) ) GLOBAL_UNIT_ASSIGNED_CONTEXT ( ( #99, #104, #109 ) ) REPRESENTATION_CONTEXT ( 'NONE', 'WORKASPACE' ) );
#482 = AXIS2_PLACEMENT_3D ( 'NONE', #497, #67, #490 ) ;
#483 = VECTOR ( 'NONE', #304, 1000.000000000000000 ) ;
#484 = SHAPE_DEFINITION_REPRESENTATION ( #557, #514 ) ;
#485 = DIRECTION ( 'NONE',  ( 0.000000000000000000, 1.000000000000000000, 0.000000000000000000 ) ) ;
#486 = EDGE_CURVE ( 'NONE', #518, #271, #214, .T. ) ;
#487 = DIRECTION ( 'NONE',  ( -0.000000000000000000, -1.000000000000000000, -0.000000000000000000 ) ) ;
#488 = LINE ( 'NONE', #580, #195 ) ;
#489 = EDGE_LOOP ( 'NONE', ( #308, #516, #169, #436 ) ) ;
#490 = DIRECTION ( 'NONE',  ( 0.000000000000000000, 0.000000000000000000, 1.000000000000000000 ) ) ;
#491 = FACE_BOUND ( 'NONE', #418, .T. ) ;
#492 = ORIENTED_EDGE ( 'NONE', *, *, #486, .T. ) ;
#493 = LINE ( 'NONE', #409, #239 ) ;
#494 = FACE_BOUND ( 'NONE', #12, .T. ) ;
#495 = VERTEX_POINT ( 'NONE', #558 ) ;
#496 = DIRECTION ( 'NONE',  ( -0.000000000000000000, 1.000000000000000000, -0.000000000000000000 ) ) ;
#497 = CARTESIAN_POINT ( 'NONE',  ( -102.7500000000000284, -0.001000000000000132727, 57.74999999999999289 ) ) ;
#498 = ORIENTED_EDGE ( 'NONE', *, *, #525, .F. ) ;
#499 = PLANE ( 'NONE',  #127 ) ;
#500 = EDGE_CURVE ( 'NONE', #569, #112, #155, .T. ) ;
#501 = ORIENTED_EDGE ( 'NONE', *, *, #378, .F. ) ;
#502 = CARTESIAN_POINT ( 'NONE',  ( -102.7500000000000284, 0.000000000000000000, 57.74999999999999289 ) ) ;
#503 = DIRECTION ( 'NONE',  ( 0.000000000000000000, 1.000000000000000000, 0.000000000000000000 ) ) ;
#504 = VECTOR ( 'NONE', #262, 1000.000000000000000 ) ;
#505 = ORIENTED_EDGE ( 'NONE', *, *, #53, .F. ) ;
#506 = PLANE ( 'NONE',  #614 ) ;
#507 = CYLINDRICAL_SURFACE ( 'NONE', #52, 1.499999999999994449 ) ;
#508 = DIRECTION ( 'NONE',  ( -4.886545002751569549E-17, 0.000000000000000000, 1.000000000000000000 ) ) ;
#509 = VECTOR ( 'NONE', #158, 1000.000000000000000 ) ;
#510 = DIRECTION ( 'NONE',  ( 0.000000000000000000, 0.000000000000000000, 1.000000000000000000 ) ) ;
#511 = VERTEX_POINT ( 'NONE', #113 ) ;
#512 = PRESENTATION_STYLE_ASSIGNMENT (( #173 ) ) ;
#513 = ORIENTED_EDGE ( 'NONE', *, *, #500, .F. ) ;
#514 = ADVANCED_BREP_SHAPE_REPRESENTATION ( 'Lid', ( #191, #386 ), #481 ) ;
#515 = DIRECTION ( 'NONE',  ( 2.312964634635742957E-16, 0.000000000000000000, 1.000000000000000000 ) ) ;
#516 = ORIENTED_EDGE ( 'NONE', *, *, #535, .T. ) ;
#517 = CARTESIAN_POINT ( 'NONE',  ( 0.000000000000000000, 0.000000000000000000, 0.000000000000000000 ) ) ;
#518 = VERTEX_POINT ( 'NONE', #17 ) ;
#519 = LINE ( 'NONE', #92, #21 ) ;
#520 = ORIENTED_EDGE ( 'NONE', *, *, #96, .F. ) ;
#521 = AXIS2_PLACEMENT_3D ( 'NONE', #181, #570, #472 ) ;
#522 = ORIENTED_EDGE ( 'NONE', *, *, #470, .T. ) ;
#523 = CARTESIAN_POINT ( 'NONE',  ( 40.99999999999997868, 8.000000000000000000, 55.99999999999999289 ) ) ;
#524 = VECTOR ( 'NONE', #604, 1000.000000000000000 ) ;
#525 = EDGE_CURVE ( 'NONE', #325, #301, #272, .T. ) ;
#526 = ADVANCED_FACE ( 'NONE', ( #210 ), #123, .F. ) ;
#527 = ORIENTED_EDGE ( 'NONE', *, *, #549, .F. ) ;
#528 = AXIS2_PLACEMENT_3D ( 'NONE', #185, #133, #38 ) ;
#529 = VECTOR ( 'NONE', #179, 1000.000000000000000 ) ;
#530 = EDGE_CURVE ( 'NONE', #285, #353, #397, .T. ) ;
#531 = AXIS2_PLACEMENT_3D ( 'NONE', #197, #331, #342 ) ;
#532 = PLANE ( 'NONE',  #363 ) ;
#533 = LINE ( 'NONE', #432, #389 ) ;
#534 = AXIS2_PLACEMENT_3D ( 'NONE', #110, #298, #444 ) ;
#535 = EDGE_CURVE ( 'NONE', #475, #611, #581, .T. ) ;
#536 = DIRECTION ( 'NONE',  ( -0.000000000000000000, -1.000000000000000000, -0.000000000000000000 ) ) ;
#537 = VERTEX_POINT ( 'NONE', #603 ) ;
#538 = LINE ( 'NONE', #553, #577 ) ;
#539 = DIRECTION ( 'NONE',  ( 0.000000000000000000, 1.000000000000000000, 0.000000000000000000 ) ) ;
#540 = ORIENTED_EDGE ( 'NONE', *, *, #530, .F. ) ;
#541 = VECTOR ( 'NONE', #496, 1000.000000000000000 ) ;
#542 = CARTESIAN_POINT ( 'NONE',  ( -105.0000000000000284, 4.000000000000000000, -60.00000000000000000 ) ) ;
#543 = DIRECTION ( 'NONE',  ( 0.000000000000000000, 0.000000000000000000, -1.000000000000000000 ) ) ;
#544 = VECTOR ( 'NONE', #303, 1000.000000000000000 ) ;
#545 = ORIENTED_EDGE ( 'NONE', *, *, #240, .F. ) ;
#546 = CARTESIAN_POINT ( 'NONE',  ( -102.7500000000000284, 4.000000000000000000, 57.74999999999999289 ) ) ;
#547 = LINE ( 'NONE', #394, #524 ) ;
#548 = VECTOR ( 'NONE', #395, 1000.000000000000000 ) ;
#549 = EDGE_CURVE ( 'NONE', #282, #112, #62, .T. ) ;
#550 = DIRECTION ( 'NONE',  ( 0.000000000000000000, 1.000000000000000000, 0.000000000000000000 ) ) ;
#551 = VERTEX_POINT ( 'NONE', #564 ) ;
#552 = CARTESIAN_POINT ( 'NONE',  ( -102.7500000000000284, 0.000000000000000000, 56.25000000000000000 ) ) ;
#553 = CARTESIAN_POINT ( 'NONE',  ( -101.0000000000000000, 4.000000000000000000, 56.00000000000000000 ) ) ;
#554 = ORIENTED_EDGE ( 'NONE', *, *, #579, .T. ) ;
#555 = DIRECTION ( 'NONE',  ( 0.000000000000000000, 0.000000000000000000, 1.000000000000000000 ) ) ;
#556 = DIRECTION ( 'NONE',  ( 0.000000000000000000, 0.000000000000000000, 1.000000000000000000 ) ) ;
#557 = PRODUCT_DEFINITION_SHAPE ( 'NONE', 'NONE',  #292 ) ;
#558 = CARTESIAN_POINT ( 'NONE',  ( -101.0000000000000000, 4.000000000000000000, -56.00000000000000000 ) ) ;
#559 = CARTESIAN_POINT ( 'NONE',  ( 40.99999999999997868, 8.000000000000000000, 55.99999999999999289 ) ) ;
#560 = VECTOR ( 'NONE', #177, 1000.000000000000000 ) ;
#561 = VERTEX_POINT ( 'NONE', #77 ) ;
#562 =( LENGTH_UNIT ( ) NAMED_UNIT ( * ) SI_UNIT ( .MILLI., .METRE. ) );
#563 = ORIENTED_EDGE ( 'NONE', *, *, #584, .F. ) ;
#564 = CARTESIAN_POINT ( 'NONE',  ( 42.74999999999994316, 0.000000000000000000, -56.25000000000001421 ) ) ;
#565 = CIRCLE ( 'NONE', #11, 1.499999999999994449 ) ;
#566 = DIRECTION ( 'NONE',  ( -1.000000000000000000, -0.000000000000000000, -4.886545002751569549E-17 ) ) ;
#567 = ORIENTED_EDGE ( 'NONE', *, *, #623, .T. ) ;
#568 = CARTESIAN_POINT ( 'NONE',  ( -101.0000000000000000, 8.000000000000000000, 56.00000000000000000 ) ) ;
#569 = VERTEX_POINT ( 'NONE', #461 ) ;
#570 = DIRECTION ( 'NONE',  ( 0.000000000000000000, 1.000000000000000000, 0.000000000000000000 ) ) ;
#571 = ORIENTED_EDGE ( 'NONE', *, *, #288, .T. ) ;
#572 = FACE_OUTER_BOUND ( 'NONE', #130, .T. ) ;
#573 = ORIENTED_EDGE ( 'NONE', *, *, #383, .T. ) ;
#574 = CARTESIAN_POINT ( 'NONE',  ( -105.0000000000000284, 0.000000000000000000, -60.00000000000000000 ) ) ;
#575 = CIRCLE ( 'NONE', #428, 1.499999999999994449 ) ;
#576 = ORIENTED_EDGE ( 'NONE', *, *, #470, .F. ) ;
#577 = VECTOR ( 'NONE', #118, 1000.000000000000000 ) ;
#578 = CIRCLE ( 'NONE', #3, 1.499999999999994449 ) ;
#579 = EDGE_CURVE ( 'NONE', #282, #551, #309, .T. ) ;
#580 = CARTESIAN_POINT ( 'NONE',  ( -105.0000000000000000, 4.000000000000000000, 60.00000000000000000 ) ) ;
#581 = CIRCLE ( 'NONE', #426, 1.499999999999994449 ) ;
#582 = CARTESIAN_POINT ( 'NONE',  ( -105.0000000000000000, 0.000000000000000000, 60.00000000000000000 ) ) ;
#583 = AXIS2_PLACEMENT_3D ( 'NONE', #153, #503, #63 ) ;
#584 = EDGE_CURVE ( 'NONE', #44, #271, #608, .T. ) ;
#585 = DIRECTION ( 'NONE',  ( -0.000000000000000000, -0.000000000000000000, 1.000000000000000000 ) ) ;
#586 = CARTESIAN_POINT ( 'NONE',  ( 42.74999999999994316, 0.000000000000000000, -57.75000000000000711 ) ) ;
#587 = LINE ( 'NONE', #161, #548 ) ;
#588 = ORIENTED_EDGE ( 'NONE', *, *, #311, .F. ) ;
#589 = CARTESIAN_POINT ( 'NONE',  ( -101.0000000000000000, 8.000000000000000000, 56.00000000000000000 ) ) ;
#590 = UNCERTAINTY_MEASURE_WITH_UNIT (LENGTH_MEASURE( 1.000000000000000082E-05 ), #99, 'distance_accuracy_value', 'NONE');
#591 = DIRECTION ( 'NONE',  ( 0.000000000000000000, 0.000000000000000000, 1.000000000000000000 ) ) ;
#592 = VERTEX_POINT ( 'NONE', #348 ) ;
#593 = AXIS2_PLACEMENT_3D ( 'NONE', #129, #622, #46 ) ;
#594 = DIRECTION ( 'NONE',  ( 0.000000000000000000, 0.000000000000000000, 1.000000000000000000 ) ) ;
#595 = FACE_OUTER_BOUND ( 'NONE', #489, .T. ) ;
#596 = CARTESIAN_POINT ( 'NONE',  ( -101.0000000000000000, 8.000000000000000000, 56.00000000000000000 ) ) ;
#597 = VECTOR ( 'NONE', #387, 1000.000000000000000 ) ;
#598 = ORIENTED_EDGE ( 'NONE', *, *, #134, .F. ) ;
#599 = DIRECTION ( 'NONE',  ( -0.000000000000000000, -1.000000000000000000, -0.000000000000000000 ) ) ;
#600 = LINE ( 'NONE', #9, #268 ) ;
#601 = ORIENTED_EDGE ( 'NONE', *, *, #525, .T. ) ;
#602 = ORIENTED_EDGE ( 'NONE', *, *, #299, .F. ) ;
#603 = CARTESIAN_POINT ( 'NONE',  ( -101.0000000000000000, 8.000000000000000000, -56.00000000000000000 ) ) ;
#604 = DIRECTION ( 'NONE',  ( -0.000000000000000000, -1.000000000000000000, -0.000000000000000000 ) ) ;
#605 = EDGE_LOOP ( 'NONE', ( #178, #424, #498, #571 ) ) ;
#606 = FILL_AREA_STYLE ('',( #464 ) ) ;
#607 = ORIENTED_EDGE ( 'NONE', *, *, #255, .F. ) ;
#608 = LINE ( 'NONE', #176, #138 ) ;
#609 = LINE ( 'NONE', #287, #560 ) ;
#610 = VECTOR ( 'NONE', #454, 1000.000000000000000 ) ;
#611 = VERTEX_POINT ( 'NONE', #334 ) ;
#612 = CARTESIAN_POINT ( 'NONE',  ( -102.7500000000000426, -0.001000000000000132727, -59.25000000000000711 ) ) ;
#613 = ORIENTED_EDGE ( 'NONE', *, *, #121, .F. ) ;
#614 = AXIS2_PLACEMENT_3D ( 'NONE', #517, #84, #406 ) ;
#615 = DIRECTION ( 'NONE',  ( -0.000000000000000000, -1.000000000000000000, -0.000000000000000000 ) ) ;
#616 = ORIENTED_EDGE ( 'NONE', *, *, #579, .F. ) ;
#617 = DIRECTION ( 'NONE',  ( 0.000000000000000000, -0.000000000000000000, -1.000000000000000000 ) ) ;
#618 = ORIENTED_EDGE ( 'NONE', *, *, #147, .F. ) ;
#619 = LINE ( 'NONE', #574, #48 ) ;
#620 = ADVANCED_FACE ( 'NONE', ( #438 ), #532, .F. ) ;
#621 = ORIENTED_EDGE ( 'NONE', *, *, #333, .T. ) ;
#622 = DIRECTION ( 'NONE',  ( -1.000000000000000000, 0.000000000000000000, 2.312964634635743450E-16 ) ) ;
#623 = EDGE_CURVE ( 'NONE', #294, #511, #187, .T. ) ;
#624 = VECTOR ( 'NONE', #164, 1000.000000000000000 ) ;
#625 = CLOSED_SHELL ( 'NONE', ( #429, #1, #382, #105, #620, #141, #422, #244, #143, #215, #238, #198, #364, #526, #194, #324, #260, #465, #4 ) ) ;
ENDSEC;
END-ISO-10303-21;
