M48
; DRILL file {KiCad 8.0.9-1.fc41} date 2025-03-19T11:31:44+0200
; FORMAT={-:-/ absolute / inch / decimal}
; #@! TF.CreationDate,2025-03-19T11:31:44+02:00
; #@! TF.GenerationSoftware,Kicad,Pcbnew,8.0.9-1.fc41
; #@! TF.FileFunction,Plated,1,2,PTH
FMAT,2
INCH
; #@! TA.AperFunction,Plated,PTH,ComponentDrill
T1C0.0331
; #@! TA.AperFunction,Plated,PTH,ComponentDrill
T2C0.0394
%
G90
G05
T1
X5.5799Y-3.2177
X5.5799Y-3.3177
X5.6299Y-3.2677
X5.6799Y-3.2177
X5.6799Y-3.3177
X6.1311Y-3.2177
X6.1311Y-3.3177
X6.1811Y-3.2677
X6.2311Y-3.2177
X6.2311Y-3.3177
T2
X5.5299Y-3.4646
X5.5512Y-3.637
X5.5512Y-3.737
X5.5512Y-4.137
X5.5512Y-4.237
X5.6299Y-3.4646
X5.7087Y-3.637
X5.7087Y-3.737
X5.7087Y-4.137
X5.7087Y-4.237
X5.7299Y-3.4646
X6.0811Y-3.4646
X6.1024Y-3.637
X6.1024Y-3.737
X6.1024Y-4.137
X6.1024Y-4.237
X6.1811Y-3.4646
X6.2598Y-3.637
X6.2598Y-3.737
X6.2598Y-4.137
X6.2598Y-4.237
X6.2811Y-3.4646
M30
