%TF.GenerationSoftware,KiCad,Pcbnew,8.0.9-1.fc41*%
%TF.CreationDate,2025-03-19T11:31:58+02:00*%
%TF.ProjectId,FBK-3mm-TH-Con,46424b2d-336d-46d2-9d54-482d436f6e2e,rev?*%
%TF.SameCoordinates,Original*%
%TF.FileFunction,Copper,L1,Top*%
%TF.FilePolarity,Positive*%
%FSLAX46Y46*%
G04 Gerber Fmt 4.6, Leading zero omitted, Abs format (unit mm)*
G04 Created by KiCad (PCBNEW 8.0.9-1.fc41) date 2025-03-19 11:31:58*
%MOMM*%
%LPD*%
G01*
G04 APERTURE LIST*
%TA.AperFunction,ComponentPad*%
%ADD10C,1.240000*%
%TD*%
%TA.AperFunction,ComponentPad*%
%ADD11R,1.700000X1.700000*%
%TD*%
%TA.AperFunction,ComponentPad*%
%ADD12O,1.700000X1.700000*%
%TD*%
%TA.AperFunction,ComponentPad*%
%ADD13C,1.700000*%
%TD*%
%TA.AperFunction,SMDPad,CuDef*%
%ADD14R,1.000000X3.830000*%
%TD*%
%TA.AperFunction,Conductor*%
%ADD15C,0.250000*%
%TD*%
G04 APERTURE END LIST*
D10*
%TO.P,J-PWR-2,1,Pin_1*%
%TO.N,HV+*%
X143000000Y-83000000D03*
%TO.P,J-PWR-2,2,Pin_2*%
%TO.N,GND*%
X141730000Y-81730000D03*
X141730000Y-84270000D03*
X144270000Y-81730000D03*
X144270000Y-84270000D03*
%TD*%
D11*
%TO.P,J-SIG1,1,Pin_1*%
%TO.N,SIG*%
X159540000Y-88000000D03*
D12*
%TO.P,J-SIG1,2,Pin_2*%
%TO.N,unconnected-(J-SIG1-Pin_2-Pad2)*%
X157000000Y-88000000D03*
%TO.P,J-SIG1,3,Pin_3*%
%TO.N,GND*%
X154460000Y-88000000D03*
%TD*%
D13*
%TO.P,C1,1,+*%
%TO.N,Net-(C1-+)*%
X145000000Y-107620000D03*
D12*
X145000000Y-105080000D03*
%TO.P,C1,2,-*%
%TO.N,GND*%
X145000000Y-94920000D03*
X145000000Y-92380000D03*
%TD*%
D13*
%TO.P,R1,1,+*%
%TO.N,HV+*%
X141000000Y-92380000D03*
D12*
X141000000Y-94920000D03*
%TO.P,R1,2,-*%
%TO.N,Net-(C1-+)*%
X141000000Y-105080000D03*
X141000000Y-107620000D03*
%TD*%
D11*
%TO.P,J-PWR1,1,Pin_1*%
%TO.N,HV+*%
X140460000Y-88000000D03*
D12*
%TO.P,J-PWR1,2,Pin_2*%
%TO.N,unconnected-(J-PWR1-Pin_2-Pad2)*%
X143000000Y-88000000D03*
%TO.P,J-PWR1,3,Pin_3*%
%TO.N,GND*%
X145540000Y-88000000D03*
%TD*%
D13*
%TO.P,R2,1,+*%
%TO.N,Net-(C2-+)*%
X155000000Y-107620000D03*
D12*
X155000000Y-105080000D03*
%TO.P,R2,2,-*%
%TO.N,GND*%
X155000000Y-94920000D03*
X155000000Y-92380000D03*
%TD*%
D10*
%TO.P,J-SIG-2,1,Pin_1*%
%TO.N,SIG*%
X157000000Y-83000000D03*
%TO.P,J-SIG-2,2,Pin_2*%
%TO.N,GND*%
X155730000Y-81730000D03*
X155730000Y-84270000D03*
X158270000Y-81730000D03*
X158270000Y-84270000D03*
%TD*%
D13*
%TO.P,C2,1,+*%
%TO.N,Net-(C2-+)*%
X159000000Y-107620000D03*
D12*
X159000000Y-105080000D03*
%TO.P,C2,2,-*%
%TO.N,SIG*%
X159000000Y-94920000D03*
X159000000Y-92380000D03*
%TD*%
D14*
%TO.P,D1,1,K-*%
%TO.N,Net-(C1-+)*%
X148900000Y-100000000D03*
%TO.P,D1,2,A+*%
%TO.N,Net-(C2-+)*%
X151100000Y-100000000D03*
%TD*%
D15*
%TO.N,GND*%
X155730000Y-81730000D02*
X155730000Y-84270000D01*
X145540000Y-85540000D02*
X145540000Y-88000000D01*
X145000000Y-92380000D02*
X145000000Y-88540000D01*
X155730000Y-84270000D02*
X154460000Y-85540000D01*
X145000000Y-88540000D02*
X145540000Y-88000000D01*
X144270000Y-81730000D02*
X141730000Y-81730000D01*
X158270000Y-84270000D02*
X158270000Y-81730000D01*
X155000000Y-94920000D02*
X155000000Y-92380000D01*
X144270000Y-84270000D02*
X144270000Y-81730000D01*
X144270000Y-84270000D02*
X145540000Y-85540000D01*
X145540000Y-88000000D02*
X154460000Y-88000000D01*
X141730000Y-81730000D02*
X141730000Y-84270000D01*
X155730000Y-81730000D02*
X158270000Y-81730000D01*
X145000000Y-94920000D02*
X145000000Y-92380000D01*
X155000000Y-92380000D02*
X155000000Y-88540000D01*
X155000000Y-88540000D02*
X154460000Y-88000000D01*
X154460000Y-85540000D02*
X154460000Y-88000000D01*
%TO.N,Net-(C1-+)*%
X148900000Y-101180000D02*
X145000000Y-105080000D01*
X141000000Y-107620000D02*
X145000000Y-107620000D01*
X145000000Y-107620000D02*
X145000000Y-105080000D01*
X141000000Y-107620000D02*
X141000000Y-105080000D01*
X148900000Y-100000000D02*
X148900000Y-101180000D01*
%TO.N,Net-(C2-+)*%
X155000000Y-107620000D02*
X159000000Y-107620000D01*
X159000000Y-105080000D02*
X159000000Y-107620000D01*
X151100000Y-100000000D02*
X151100000Y-101180000D01*
X151100000Y-101180000D02*
X155000000Y-105080000D01*
X155000000Y-105080000D02*
X155000000Y-107620000D01*
%TO.N,SIG*%
X157000000Y-85460000D02*
X159540000Y-88000000D01*
X159000000Y-88540000D02*
X159540000Y-88000000D01*
X159000000Y-92380000D02*
X159000000Y-88540000D01*
X159000000Y-94920000D02*
X159000000Y-92380000D01*
X157000000Y-83000000D02*
X157000000Y-85460000D01*
%TO.N,HV+*%
X141000000Y-88540000D02*
X140460000Y-88000000D01*
X141000000Y-92380000D02*
X141000000Y-88540000D01*
X143000000Y-85460000D02*
X140460000Y-88000000D01*
X143000000Y-83000000D02*
X143000000Y-85460000D01*
X141000000Y-94920000D02*
X141000000Y-92380000D01*
%TD*%
M02*
